<?xml version="1.0" standalone="no"?>
<!DOCTYPE svg PUBLIC "-//W3C//DTD SVG 1.1//EN" "http://www.w3.org/Graphics/SVG/1.1/DTD/svg11.dtd" >
<svg xmlns="http://www.w3.org/2000/svg" xmlns:xlink="http://www.w3.org/1999/xlink" version="1.1">
<metadata>
Created by FontForge 20170731 at Mon May 23 10:51:20 2022
 By Aleksey,,,
Copyright 2010 URW++ Design &#38; Development Hamburg
</metadata>
<defs>
<font id="NeuzeitGro-Bol" horiz-adv-x="1024" >
  <font-face 
    font-family="NeuzeitGro"
    font-weight="700"
    font-stretch="normal"
    units-per-em="2048"
    panose-1="0 0 8 0 0 0 0 0 0 0"
    ascent="1366"
    descent="-682"
    x-height="948"
    cap-height="1366"
    bbox="-362 -512 1993 1821"
    underline-thickness="169"
    underline-position="-375"
    unicode-range="U+0020-FB04"
  />
<missing-glyph horiz-adv-x="614" 
 />
    <glyph glyph-name="ff" unicode="ff" horiz-adv-x="1163" 
d="M408 729v-729h-261v729h-104v219h104v53q0 192 92 279t293 86v-240q-69 -9 -96.5 -37t-27.5 -88v-53h124v-219h-124zM987 729v-729h-260v729h-106v219h106v53q0 192 91.5 279.5t291.5 85.5v-240q-68 -9 -95.5 -37t-27.5 -88v-53h123v-219h-123z" />
    <glyph glyph-name="fi" unicode="fi" horiz-adv-x="1091" 
d="M408 729v-729h-261v729h-104v219h104v53q0 192 92 279t293 86v-240q-69 -9 -96.5 -37t-27.5 -88v-53h124v-219h-124zM963 948v-948h-261v948h261zM834 1364q63 0 103 -41t40 -106q0 -60 -41 -101t-102 -41q-63 0 -104.5 41t-41.5 103q0 63 41.5 104t104.5 41z" />
    <glyph glyph-name="fl" unicode="fl" horiz-adv-x="1091" 
d="M408 729v-729h-261v729h-104v219h104v53q0 192 92 279t293 86v-240q-69 -9 -96.5 -37t-27.5 -88v-53h124v-219h-124zM963 0h-261v1366h261v-1366z" />
    <glyph glyph-name="ffi" unicode="ffi" horiz-adv-x="1689" 
d="M408 729v-729h-261v729h-104v219h104v53q0 192 92 279t293 86v-240q-69 -9 -96.5 -37t-27.5 -88v-53h124v-219h-124zM987 729v-729h-260v729h-106v219h106v53q0 192 91.5 279.5t291.5 85.5v-240q-68 -9 -95.5 -37t-27.5 -88v-53h123v-219h-123zM1561 948v-948h-261v948
h261zM1432 1364q63 0 103 -41t40 -106q0 -60 -41 -101t-102 -41q-63 0 -104.5 41t-41.5 103q0 63 41.5 104t104.5 41z" />
    <glyph glyph-name="ffl" unicode="ffl" horiz-adv-x="1689" 
d="M408 729v-729h-261v729h-104v219h104v53q0 192 92 279t293 86v-240q-69 -9 -96.5 -37t-27.5 -88v-53h124v-219h-124zM987 729v-729h-260v729h-106v219h106v53q0 192 91.5 279.5t291.5 85.5v-240q-68 -9 -95.5 -37t-27.5 -88v-53h123v-219h-123zM1561 0h-261v1366h261
v-1366z" />
    <glyph glyph-name=".notdef" horiz-adv-x="614" 
 />
    <glyph glyph-name=".null" horiz-adv-x="0" 
 />
    <glyph glyph-name="nonmarkingreturn" horiz-adv-x="682" 
 />
    <glyph glyph-name="space" unicode=" " horiz-adv-x="614" 
 />
    <glyph glyph-name="exclam" unicode="!" horiz-adv-x="587" 
d="M422 1366v-940h-256v940h256zM297 276q65 0 107 -43t42 -110q0 -64 -43 -107t-108 -43q-66 0 -109 43t-43 109t43.5 108.5t110.5 42.5z" />
    <glyph glyph-name="quotedbl" unicode="&#x22;" horiz-adv-x="843" 
d="M319 817h-202l-51 549h305zM727 817h-203l-51 549h305z" />
    <glyph glyph-name="numbersign" unicode="#" 
d="M915 602v-137h-196l-60 -410h-141l60 410h-181l-59 -410h-139l59 410h-197v137h218l28 180h-194v140h213l57 383h135l-53 -383h180l55 383h140l-56 -383h179v-140h-199l-25 -180h176zM627 784h-185l-24 -184h180z" />
    <glyph glyph-name="dollar" unicode="$" 
d="M551 1141v-348q144 -50 227 -101q79 -47 123.5 -126t44.5 -173q0 -104 -53.5 -196.5t-142.5 -141.5q-40 -23 -83 -34.5t-116 -20.5v-180h-96v180q-165 9 -271.5 117t-103.5 264h233q-3 -65 34.5 -109t107.5 -57v358q-206 71 -291.5 161.5t-85.5 238.5q0 161 104 267
t273 118v145h96v-145q178 -26 272.5 -117t100.5 -242h-232q-2 57 -38.5 94.5t-102.5 47.5zM455 825v316q-68 -11 -106 -51t-38 -103q0 -74 58 -119q27 -19 86 -43zM551 537v-322q70 9 109.5 52.5t39.5 111.5q0 59 -34 95.5t-115 62.5z" />
    <glyph glyph-name="percent" unicode="%" horiz-adv-x="1390" 
d="M586 1120v-217q0 -123 -64.5 -188.5t-185.5 -65.5q-127 0 -195 68q-33 33 -46 81t-13 136v176q0 145 57 205q68 71 193 71q112 0 182 -61q40 -37 56 -82t16 -123zM244 1110v-186q0 -48 2 -63.5t10 -31.5q22 -36 80 -36q52 0 72 29t20 106v186q0 70 -20 98.5t-70 28.5
q-55 0 -74.5 -27t-19.5 -104zM1307 451v-218q0 -123 -64 -188t-186 -65q-128 0 -195 67q-32 32 -45.5 81t-13.5 136v176q0 145 57 205q69 72 193 72q111 0 182 -62q40 -35 56 -80.5t16 -123.5zM965 440v-186q0 -70 12 -94q23 -37 80 -37q52 0 72 29t20 106v186
q0 70 -20 98.5t-70 28.5q-55 0 -74.5 -27t-19.5 -104zM1186 1339l-901 -1364l-82 54l901 1362z" />
    <glyph glyph-name="ampersand" unicode="&#x26;" horiz-adv-x="1306" 
d="M1044 289l230 -289h-301l-105 133q-109 -88 -202.5 -128t-188.5 -40q-173 0 -287 111.5t-114 281.5q0 129 64 219t233 199q-65 95 -89 153.5t-24 125.5q0 126 96.5 208.5t245.5 82.5q145 0 239.5 -81.5t94.5 -207.5q0 -112 -80 -211q-28 -32 -58.5 -58t-86.5 -63
l188 -252q75 68 106 99t95 104l174 -154q-78 -86 -113 -120.5t-117 -112.5zM578 899q66 41 93 76t27 78q0 40 -26 67t-66 27q-41 0 -70.5 -28t-29.5 -68q0 -35 15.5 -67t56.5 -85zM717 317l-213 275q-95 -61 -132.5 -108.5t-37.5 -106.5q0 -72 51.5 -124t122.5 -52
q105 0 209 116z" />
    <glyph glyph-name="quotesingle" unicode="'" horiz-adv-x="446" 
d="M328 817h-211l-51 549h315z" />
    <glyph glyph-name="parenleft" unicode="(" horiz-adv-x="669" 
d="M592 -317l-178 -152q-172 229 -255 460t-83 482q0 317 141 633q45 102 89.5 170.5t119.5 153.5l166 -156q-283 -374 -283 -811q0 -416 283 -780z" />
    <glyph glyph-name="parenright" unicode=")" horiz-adv-x="669" 
d="M78 1280l178 150q338 -447 338 -943q0 -315 -141 -632q-45 -102 -89.5 -170.5t-119.5 -153.5l-166 156q282 370 282 811q0 418 -282 782z" />
    <glyph glyph-name="asterisk" unicode="*" horiz-adv-x="847" 
d="M422 940l-115 -164l-125 88l117 162l-186 61l51 138l184 -56v197h146v-197l192 70l51 -137l-207 -76l138 -162l-113 -88z" />
    <glyph glyph-name="plus" unicode="+" 
d="M27 795h415v405h140v-405h417v-136h-417v-405h-140v405h-415v136z" />
    <glyph glyph-name="comma" unicode="," horiz-adv-x="534" 
d="M424 219l-182 -489l-176 41l118 508z" />
    <glyph glyph-name="hyphen" unicode="-" horiz-adv-x="454" 
d="M455 614v-229h-455v229h455z" />
    <glyph glyph-name="period" unicode="." horiz-adv-x="534" 
d="M270 276q65 0 107.5 -43t42.5 -110q0 -64 -43.5 -107t-108.5 -43q-66 0 -108.5 43t-42.5 109t43 108.5t110 42.5z" />
    <glyph glyph-name="slash" unicode="/" horiz-adv-x="804" 
d="M752 1366l-680 -1790h-181l680 1790h181z" />
    <glyph glyph-name="zero" unicode="0" 
d="M938 944v-530q0 -119 -26.5 -197t-86.5 -135q-115 -109 -311 -109q-213 0 -328 115q-57 57 -79.5 142t-22.5 245v436q0 132 21.5 213.5t70.5 135.5q114 126 330 126q191 0 309 -106q66 -59 94.5 -136t28.5 -200zM348 911v-465q0 -82 5 -111t24 -54q20 -30 57.5 -48
t79.5 -18q43 0 80 19t57 51q29 51 29 164v475q0 69 -9 104.5t-32 61.5q-45 51 -125 51q-97 0 -137 -68q-29 -51 -29 -162z" />
    <glyph glyph-name="one" unicode="1" 
d="M481 1018l-248 -133v243l512 267v-1395h-264v1018z" />
    <glyph glyph-name="two" unicode="2" 
d="M500 231h387v-231h-830l478 729q78 121 101 170t23 98q0 66 -45.5 109t-115.5 43q-55 0 -96 -25.5t-58 -70.5q-18 -46 -20 -131h-242q-1 217 114 340.5t318 123.5q180 0 295 -102t115 -260q0 -93 -38.5 -188.5t-129.5 -229.5z" />
    <glyph glyph-name="three" unicode="3" 
d="M512 1133h-393v225h831l-379 -510q166 -13 265.5 -126t99.5 -286q0 -200 -129.5 -331.5t-325.5 -131.5q-114 0 -208.5 47.5t-151.5 133.5q-31 46 -46 93t-24 124l236 8q12 -79 62.5 -124.5t125.5 -45.5q88 0 148.5 60t60.5 149q0 91 -59.5 150t-151.5 59q-70 0 -125 -35
l-147 125z" />
    <glyph glyph-name="four" unicode="4" 
d="M573 281h-501v219l479 870h274v-864h125v-225h-125v-281h-252v281zM573 506v508l-286 -508h286z" />
    <glyph glyph-name="five" unicode="5" 
d="M383 1120v-293q86 37 170 37q169 0 282 -122.5t113 -305.5q0 -203 -126 -333t-322 -130q-190 0 -316 123q-36 38 -59 77t-53 112l229 86q57 -150 191 -150q86 0 143 60t57 149t-58.5 150t-144.5 61q-54 0 -95 -21.5t-79 -70.5h-172v809h697v-238h-457z" />
    <glyph glyph-name="six" unicode="6" 
d="M856 1358l-350 -539q40 12 72 12q158 0 268 -117.5t110 -285.5q0 -189 -132.5 -322t-321.5 -133q-185 0 -309.5 126t-124.5 313q0 94 34 187.5t115 221.5l340 537h299zM516 614q-85 0 -143 -57.5t-58 -140.5q0 -85 56 -141t139 -56t141 57.5t58 139.5q0 85 -55.5 141.5
t-137.5 56.5z" />
    <glyph glyph-name="seven" unicode="7" 
d="M584 1120h-441v238h807l-536 -1358h-273z" />
    <glyph glyph-name="eight" unicode="8" 
d="M758 715q196 -85 196 -320q0 -186 -124.5 -304t-321.5 -118q-195 0 -316.5 113t-121.5 295q0 249 202 334q-78 38 -119.5 111t-41.5 171q0 170 114.5 279.5t294.5 109.5q175 0 288.5 -107t113.5 -273q0 -111 -58 -199q-23 -34 -44 -52t-62 -40zM518 1161
q-73 0 -121.5 -46.5t-48.5 -117.5q0 -72 49 -122t119 -50q69 0 121.5 50.5t52.5 117.5t-51.5 117.5t-120.5 50.5zM514 590q-82 0 -137 -54.5t-55 -136.5t53.5 -135t136.5 -53q78 0 133 55t55 133t-55.5 134.5t-130.5 56.5z" />
    <glyph glyph-name="nine" unicode="9" 
d="M180 0l344 537q-44 -9 -61 -9q-169 0 -282 117.5t-113 290.5q0 192 130 321t322 129q189 0 313.5 -125.5t124.5 -316.5q0 -93 -34.5 -188.5t-112.5 -220.5l-336 -535h-295zM518 1143q-83 0 -141 -56.5t-58 -138.5q0 -83 55.5 -139.5t137.5 -56.5q84 0 140.5 55.5
t56.5 138.5q0 81 -56.5 139t-134.5 58z" />
    <glyph glyph-name="colon" unicode=":" horiz-adv-x="534" 
d="M270 276q65 0 107.5 -43t42.5 -110q0 -64 -43.5 -107t-108.5 -43q-66 0 -108.5 43t-42.5 109t43 108.5t110 42.5zM270 952q65 0 107.5 -43t42.5 -110q0 -64 -43.5 -107t-108.5 -43q-66 0 -108.5 43t-42.5 109t43 108.5t110 42.5z" />
    <glyph glyph-name="semicolon" unicode=";" horiz-adv-x="534" 
d="M424 219l-182 -489l-176 41l118 508zM295 920q65 0 107 -43.5t42 -110.5q0 -64 -43 -107t-108 -43q-66 0 -109 43t-43 109t43.5 109t110.5 43z" />
    <glyph glyph-name="less" unicode="&#x3c;" 
d="M954 1268v-283l-587 -297l587 -297v-278l-886 458v238z" />
    <glyph glyph-name="equal" unicode="=" 
d="M25 944h972v-131h-972v131zM25 641h972v-131h-972v131z" />
    <glyph glyph-name="greater" unicode="&#x3e;" 
d="M70 113v280l587 297l-587 297v281l886 -459v-238z" />
    <glyph glyph-name="question" unicode="?" horiz-adv-x="915" 
d="M541 444h-262q-3 50 -3 74q0 86 14 134t51 90.5t122 109.5q62 47 86 83.5t24 82.5q0 59 -39 97t-100 38q-66 0 -102.5 -41t-36.5 -115h-244q3 184 106 288t283 104q175 0 286.5 -103t111.5 -266q0 -99 -43 -174.5t-140 -147.5q-78 -57 -97 -86.5t-19 -95.5v-24
q2 -8 2 -48zM414 276q65 0 107 -43t42 -110q0 -64 -43 -107t-108 -43q-66 0 -109 43t-43 109t43.5 108.5t110.5 42.5z" />
    <glyph glyph-name="at" unicode="@" horiz-adv-x="1579" 
d="M1339 381h101q-55 -110 -109.5 -174t-136.5 -113q-174 -106 -389 -106q-137 0 -262 55t-216.5 148t-145.5 220.5t-54 266.5q0 164 78 313t217 252q178 133 416 133q165 0 307.5 -77t226.5 -208.5t84 -283.5q0 -117 -49 -225t-135 -185q-68 -58 -147.5 -91.5t-149.5 -33.5
q-61 0 -96.5 28t-40.5 81q-77 -62 -126.5 -84.5t-107.5 -22.5q-98 0 -159.5 70t-61.5 184q0 90 32 188t89 181q65 94 149.5 144.5t177.5 50.5q57 0 95.5 -18.5t85.5 -69.5l20 53h176l-213 -568q-24 -67 -24 -98q0 -39 51 -39q54 0 119 43q95 60 154 171t59 231
q0 130 -71 241t-192 175.5t-262 64.5q-163 0 -301.5 -81.5t-218.5 -221t-80 -303.5q0 -119 46.5 -227.5t124.5 -187t186 -125t225 -46.5q109 0 212.5 37t182.5 106q55 45 133 152zM850 586l102 262q9 21 9 51q0 51 -23.5 79t-65.5 28q-55 0 -116 -64q-83 -89 -146 -236.5
t-63 -254.5q0 -44 22 -68.5t62 -24.5q55 0 118 65.5t101 162.5z" />
    <glyph glyph-name="A" unicode="A" horiz-adv-x="1294" 
d="M907 236h-524l-82 -236h-297l471 1366h350l467 -1366h-307zM834 465l-189 565l-190 -565h379z" />
    <glyph glyph-name="B" unicode="B" horiz-adv-x="1171" 
d="M143 1366h441q242 0 348 -78q63 -47 97 -122.5t34 -166.5q0 -141 -86 -233q-30 -30 -59 -46.5t-84 -35.5q61 -13 95 -29t66 -45q99 -90 99 -245q0 -95 -38 -175t-104 -124q-54 -36 -123.5 -51t-181.5 -15h-504v1366zM424 1153v-367h113q124 0 183.5 46t59.5 141
q0 52 -22.5 93t-59.5 60q-58 27 -176 27h-98zM424 578v-371h137q73 0 112.5 8t69.5 29q68 47 68 145q0 109 -78 156q-32 19 -72 26t-116 7h-121z" />
    <glyph glyph-name="C" unicode="C" horiz-adv-x="1300" 
d="M1087 373l170 -193q-119 -110 -237 -158.5t-270 -48.5q-306 0 -490 205q-88 96 -136 228.5t-48 273.5q0 205 86.5 368t241.5 254t350 91q159 0 277 -49.5t239 -167.5l-183 -185q-84 75 -158.5 108.5t-160.5 33.5q-180 0 -294 -125t-114 -322t119 -325t303 -128
q182 0 305 140z" />
    <glyph glyph-name="D" unicode="D" horiz-adv-x="1312" 
d="M143 0v1366h387q166 0 283.5 -36.5t208.5 -115.5q215 -190 215 -516q0 -165 -56.5 -305.5t-160.5 -234.5q-175 -158 -473 -158h-404zM424 1139v-908h53q113 0 187.5 22t134.5 73q74 63 113.5 157t39.5 207q0 204 -116 326.5t-310 122.5h-102z" />
    <glyph glyph-name="E" unicode="E" horiz-adv-x="948" 
d="M377 1137v-336h479v-230h-479v-342h479v-229h-760v1366h760v-229h-479z" />
    <glyph glyph-name="F" unicode="F" horiz-adv-x="956" 
d="M424 1137v-336h479v-230h-479v-571h-281v1366h760v-229h-479z" />
    <glyph glyph-name="G" unicode="G" horiz-adv-x="1540" 
d="M797 766h684v-74q0 -158 -48 -281t-151 -227q-211 -211 -504 -211q-148 0 -278.5 54t-223.5 148t-146.5 225t-53.5 280q0 201 91 364.5t251 256t358 92.5q166 0 309.5 -68.5t243.5 -194.5l-211 -165q-75 89 -155 129.5t-181 40.5q-180 0 -301 -130.5t-121 -324.5
q0 -191 124 -322t304 -131q88 0 170 37t136 101q53 60 84 172h-381v229z" />
    <glyph glyph-name="H" unicode="H" horiz-adv-x="1366" 
d="M424 559v-559h-281v1366h281v-578h518v578h281v-1366h-281v559h-518z" />
    <glyph glyph-name="I" unicode="I" horiz-adv-x="565" 
d="M424 1366v-1366h-281v1366h281z" />
    <glyph glyph-name="J" unicode="J" horiz-adv-x="786" 
d="M666 1366v-881q0 -186 -54 -290.5t-180 -163.5q-62 -28 -144.5 -39.5t-224.5 -11.5v247q29 -2 58 -2q125 0 188 51q43 36 59.5 95t16.5 182v584h-322v229h603z" />
    <glyph glyph-name="K" unicode="K" horiz-adv-x="1153" 
d="M424 608v-608h-281v1366h281v-594l387 594h326l-443 -657l443 -709h-330z" />
    <glyph glyph-name="L" unicode="L" horiz-adv-x="923" 
d="M424 231h457v-231h-738v1366h281v-1135z" />
    <glyph glyph-name="M" unicode="M" horiz-adv-x="1736" 
d="M424 852v-852h-281v1366h318l407 -829l410 829h317v-1366h-280v852l-447 -893z" />
    <glyph glyph-name="N" unicode="N" horiz-adv-x="1413" 
d="M424 864v-864h-281v1366h277l571 -852v852h281v-1366h-275z" />
    <glyph glyph-name="O" unicode="O" horiz-adv-x="1564" 
d="M793 1393q150 0 284 -59.5t236 -170.5q174 -195 174 -487q0 -191 -93.5 -353t-254.5 -256t-351 -94q-147 0 -279 55t-227 148.5t-150.5 224t-55.5 275.5q0 200 94 364.5t258.5 258.5t364.5 94zM784 1133q-182 0 -302 -129t-120 -324q0 -191 121 -320t299 -129
q177 0 298.5 128.5t121.5 314.5q0 198 -118.5 328.5t-299.5 130.5z" />
    <glyph glyph-name="P" unicode="P" horiz-adv-x="1128" 
d="M424 469v-469h-281v1366h437q243 0 374 -113.5t131 -322.5q0 -214 -130.5 -337.5t-356.5 -123.5h-174zM424 700h121q122 0 189 56t67 159q0 101 -67.5 160.5t-182.5 59.5h-127v-435z" />
    <glyph glyph-name="Q" unicode="Q" horiz-adv-x="1566" 
d="M1460 90l-198 -168l-123 148q-166 -97 -359 -97q-143 0 -273 55.5t-224 149.5t-149.5 224.5t-55.5 273.5q0 150 55 283t150 228t227 150.5t281 55.5q196 0 356 -91.5t251 -251.5t91 -356q0 -266 -158 -465zM1047 555l98 -113q59 112 59 248q0 188 -121 315.5t-299 127.5
q-181 0 -301.5 -128.5t-120.5 -322.5q0 -189 119.5 -319t292.5 -130q100 0 168 46l-92 108z" />
    <glyph glyph-name="R" unicode="R" horiz-adv-x="1196" 
d="M424 543v-543h-281v1366h422q254 0 387 -110t133 -320q0 -161 -82.5 -266.5t-240.5 -145.5l377 -524h-340zM424 707h127q120 0 185 56t65 159q0 98 -61 155.5t-165 57.5h-151v-428z" />
    <glyph glyph-name="S" unicode="S" horiz-adv-x="1067" 
d="M61 399h273v-18q0 -69 53 -114.5t133 -45.5q76 0 128 42t52 104q0 66 -55 108q-25 19 -54 32t-112 44q-224 79 -314.5 175t-90.5 253q0 186 124.5 300t325.5 114q199 0 321.5 -110.5t139.5 -307.5h-283q-8 86 -51.5 128t-126.5 42q-75 0 -121.5 -40t-46.5 -104
q0 -82 84 -129q46 -25 160 -67q113 -41 177 -75t108 -77q108 -102 108 -264q0 -187 -129.5 -301.5t-341.5 -114.5q-215 0 -339 114.5t-122 311.5z" />
    <glyph glyph-name="T" unicode="T" horiz-adv-x="944" 
d="M612 1137v-1137h-280v1137h-326v229h930v-229h-324z" />
    <glyph glyph-name="U" unicode="U" horiz-adv-x="1308" 
d="M401 1366v-801q0 -96 14 -153t48 -97q31 -38 82 -61t108 -23q60 0 114 26t85 69q30 41 41.5 93t11.5 148v799h283v-791q0 -292 -135 -442q-69 -76 -172.5 -118t-223.5 -42q-125 0 -233 44.5t-180 125.5q-66 73 -94.5 173.5t-28.5 258.5v791h280z" />
    <glyph glyph-name="V" unicode="V" horiz-adv-x="1150" 
d="M569 451l289 915h289l-430 -1366h-299l-414 1366h289z" />
    <glyph glyph-name="W" unicode="W" horiz-adv-x="1755" 
d="M1233 489l227 877h293l-381 -1366h-282l-216 895l-215 -895h-282l-373 1366h297l219 -862l221 862h279z" />
    <glyph glyph-name="X" unicode="X" horiz-adv-x="1189" 
d="M598 475l-266 -475h-324l430 721l-383 645h324l219 -391l225 391h320l-385 -645l424 -721h-320z" />
    <glyph glyph-name="Y" unicode="Y" horiz-adv-x="1140" 
d="M715 602v-602h-281v602l-457 764h334l264 -473l261 473h327z" />
    <glyph glyph-name="Z" unicode="Z" horiz-adv-x="1128" 
d="M467 229h575v-229h-1015l639 1137h-568v229h1006z" />
    <glyph glyph-name="bracketleft" unicode="[" horiz-adv-x="669" 
d="M135 1366h438v-154h-219v-1482h219v-154h-438v1790z" />
    <glyph glyph-name="backslash" unicode="\" horiz-adv-x="804" 
d="M53 1366h180l680 -1790h-182z" />
    <glyph glyph-name="bracketright" unicode="]" horiz-adv-x="669" 
d="M535 1366v-1790h-439v154h219v1482h-219v154h439z" />
    <glyph glyph-name="asciicircum" unicode="^" 
d="M289 725h-252l317 647h316l317 -647h-252l-223 457z" />
    <glyph glyph-name="underscore" unicode="_" 
d="M0 -121h1024v-170h-1024v170z" />
    <glyph glyph-name="grave" unicode="`" 
d="M463 1376l170 -284h-160l-272 284h262z" />
    <glyph glyph-name="a" unicode="a" horiz-adv-x="1243" 
d="M856 827v121h260v-948h-260v131q-66 -85 -146 -124.5t-184 -39.5q-199 0 -327.5 139.5t-128.5 356.5q0 224 135 371t342 147q96 0 168 -36t141 -118zM600 762q-111 0 -181.5 -82.5t-70.5 -212.5q0 -124 72 -207.5t178 -83.5q109 0 185.5 88t76.5 211q0 126 -72.5 206.5
t-187.5 80.5z" />
    <glyph glyph-name="b" unicode="b" horiz-adv-x="1241" 
d="M389 123v-123h-260v1366h260v-532q68 78 139.5 112.5t167.5 34.5q209 0 343.5 -144t134.5 -368q0 -223 -129 -362.5t-336 -139.5q-107 0 -182 36.5t-138 119.5zM645 762q-109 0 -184.5 -86t-75.5 -209q0 -128 71 -208.5t183 -80.5q114 0 186 80.5t72 208.5
q0 126 -72.5 210.5t-179.5 84.5z" />
    <glyph glyph-name="c" unicode="c" horiz-adv-x="958" 
d="M776 279l158 -170q-158 -142 -365 -142q-217 0 -359 142.5t-142 359.5q0 224 141 368t362 144q204 0 379 -158l-174 -157q-84 84 -194 84q-107 0 -178.5 -78t-71.5 -195q0 -122 73 -200t187 -78q51 0 92 18t92 62z" />
    <glyph glyph-name="d" unicode="d" horiz-adv-x="1243" 
d="M856 844v522h260v-1366h-260v125q-62 -85 -135 -121.5t-182 -36.5q-211 0 -340 137.5t-129 360.5q0 243 151 385q140 131 322 131q96 0 170 -32.5t143 -104.5zM604 762q-113 0 -185.5 -84.5t-72.5 -214.5q0 -123 73 -205t183 -82q107 0 180.5 83t73.5 206
q0 129 -71.5 213t-180.5 84z" />
    <glyph glyph-name="e" unicode="e" horiz-adv-x="1138" 
d="M1079 412h-741q17 -98 84 -155.5t164 -57.5q72 0 130 33t89 90l239 -66q-71 -138 -190.5 -213.5t-269.5 -75.5q-226 0 -371 143.5t-145 364.5q0 223 139.5 364.5t359.5 141.5q227 0 370.5 -144.5t143.5 -373.5zM338 561h475q-17 94 -81.5 147.5t-160.5 53.5
q-94 0 -154 -52t-79 -149z" />
    <glyph glyph-name="f" unicode="f" horiz-adv-x="585" 
d="M408 729v-729h-261v729h-104v219h104v53q0 192 92 279t293 86v-240q-69 -9 -96.5 -37t-27.5 -88v-53h124v-219h-124z" />
    <glyph glyph-name="g" unicode="g" horiz-adv-x="1206" 
d="M821 831v117h256v-878q0 -146 -29.5 -238t-97.5 -158q-143 -143 -393 -143q-274 0 -465 188l162 164q122 -131 293 -131q130 0 202 73.5t72 207.5v96q-128 -162 -334 -162q-195 0 -321.5 141.5t-126.5 358.5q0 231 130.5 372.5t344.5 141.5q99 0 172 -36t135 -114z
M569 750q-112 0 -183 -76t-71 -195q0 -123 72 -201.5t184 -78.5q57 0 109.5 23.5t87.5 64.5q49 58 49 168q0 149 -69 221q-77 74 -179 74z" />
    <glyph glyph-name="h" unicode="h" horiz-adv-x="1083" 
d="M389 1366v-520q60 71 122 103t138 32q62 0 124.5 -24t103.5 -64q46 -43 65 -104t19 -164v-625h-261v588q0 80 -38.5 127t-102.5 47q-70 0 -117 -47q-30 -29 -41.5 -61.5t-11.5 -88.5v-565h-260v1366h260z" />
    <glyph glyph-name="i" unicode="i" horiz-adv-x="518" 
d="M389 948v-948h-260v948h260zM260 1364q63 0 103 -41t40 -106q0 -60 -41 -101t-102 -41q-63 0 -104 41t-41 103q0 63 41 104t104 41z" />
    <glyph glyph-name="j" unicode="j" horiz-adv-x="518" 
d="M389 948v-979q0 -210 -90 -303q-94 -102 -279 -102q-40 0 -69 2v237h39q66 0 102.5 44t36.5 122v979h260zM260 1364q63 0 103 -41t40 -106q0 -60 -41 -101t-102 -41q-63 0 -104 41t-41 103q0 63 41 104t104 41z" />
    <glyph glyph-name="k" unicode="k" horiz-adv-x="968" 
d="M389 393v-393h-260v1366h260v-782l264 364h301l-321 -454l321 -494h-301z" />
    <glyph glyph-name="l" unicode="l" horiz-adv-x="518" 
d="M389 0h-260v1366h260v-1366z" />
    <glyph glyph-name="m" unicode="m" horiz-adv-x="1622" 
d="M129 948h260v-119q44 78 107 115t153 37q188 0 258 -158q47 82 116.5 120t170.5 38q147 0 229 -88q43 -47 59.5 -106t16.5 -166v-621h-260v571q0 191 -145 191q-72 0 -112 -50t-40 -141v-571h-260v563q0 199 -143 199q-150 0 -150 -199v-563h-260v948z" />
    <glyph glyph-name="n" unicode="n" horiz-adv-x="1087" 
d="M129 948h260v-117q53 82 111 116t147 34q67 0 129 -23.5t105 -64.5q46 -46 65 -111.5t19 -181.5v-600h-260v588q0 71 -23 110q-19 29 -53 46.5t-72 17.5q-75 0 -121.5 -52t-46.5 -135v-575h-260v948z" />
    <glyph glyph-name="o" unicode="o" horiz-adv-x="1163" 
d="M586 981q224 0 369 -146t145 -370q0 -209 -150 -353.5t-368 -144.5q-224 0 -369 142.5t-145 363.5q0 226 144 367t374 141zM586 748q-116 0 -186 -75.5t-70 -199.5q0 -123 70 -198.5t184 -75.5q112 0 183 75.5t71 194.5q0 129 -67.5 204t-184.5 75z" />
    <glyph glyph-name="p" unicode="p" horiz-adv-x="1247" 
d="M129 948h260v-117q59 78 132.5 114t178.5 36q147 0 265 -78q215 -147 215 -432q0 -227 -129.5 -365.5t-343.5 -138.5q-201 0 -318 135v-526h-260v1372zM649 762q-115 0 -187.5 -83.5t-72.5 -215.5q0 -129 69 -208t183 -79t187 81.5t73 207.5q0 130 -71 213.5t-181 83.5z
" />
    <glyph glyph-name="q" unicode="q" horiz-adv-x="1243" 
d="M854 948h260v-1372h-260v526q-63 -70 -140.5 -102.5t-181.5 -32.5q-207 0 -335.5 138.5t-128.5 361.5q0 227 134.5 370.5t348.5 143.5q101 0 172 -33t131 -108v108zM602 762q-112 0 -184 -82.5t-72 -210.5q0 -126 71.5 -209.5t180.5 -83.5q110 0 184 83.5t74 207.5
q0 129 -72 212t-182 83z" />
    <glyph glyph-name="r" unicode="r" horiz-adv-x="681" 
d="M129 948h260v-139q20 53 37.5 79t46.5 48q64 45 154 45q16 0 30 -2v-266q-40 4 -55 4q-54 0 -100 -23t-74 -63q-23 -32 -31 -68.5t-8 -105.5v-457h-260v948z" />
    <glyph glyph-name="s" unicode="s" horiz-adv-x="858" 
d="M780 674h-245v16q0 43 -34 70.5t-87 27.5q-47 0 -76 -24t-29 -62q0 -41 27 -61q21 -16 39 -23t123 -40q160 -50 228.5 -119.5t68.5 -184.5q0 -138 -101.5 -222.5t-267.5 -84.5q-169 0 -267.5 82t-105.5 230h250q9 -62 38.5 -90.5t86.5 -28.5q46 0 75 25t29 65
q0 43 -36 69t-140 58q-154 46 -225.5 118.5t-71.5 184.5q0 135 101 218t266 83q163 0 256 -81t98 -226z" />
    <glyph glyph-name="t" unicode="t" horiz-adv-x="579" 
d="M401 733v-454q0 -34 17 -48t57 -14h45v-217h-207q-92 0 -132 42t-40 138v553h-108v219h108v254h260v-254h119v-219h-119z" />
    <glyph glyph-name="u" unicode="u" horiz-adv-x="1052" 
d="M682 948h260v-600q0 -105 -24 -169t-82 -113q-119 -99 -308 -99q-203 0 -317 105q-100 90 -100 276v600h260v-583q0 -80 43.5 -129.5t113.5 -49.5q72 0 113 43.5t41 118.5v600z" />
    <glyph glyph-name="v" unicode="v" horiz-adv-x="948" 
d="M686 948h266l-346 -948h-268l-342 948h270l209 -565z" />
    <glyph glyph-name="w" unicode="w" horiz-adv-x="1490" 
d="M1229 948h264l-309 -948h-271l-165 582l-170 -582h-277l-305 948h264l191 -577l165 577h250l170 -577z" />
    <glyph glyph-name="x" unicode="x" horiz-adv-x="983" 
d="M500 258l-174 -258h-308l330 471l-350 477h328l174 -252l168 252h317l-338 -477l332 -471h-315z" />
    <glyph glyph-name="y" unicode="y" horiz-adv-x="960" 
d="M465 385l221 563h277l-535 -1380h-278l178 455l-332 925h276z" />
    <glyph glyph-name="z" unicode="z" horiz-adv-x="862" 
d="M440 219h367v-219h-776l399 729h-362v219h768z" />
    <glyph glyph-name="braceleft" unicode="{" 
d="M604 961v-218q0 -99 -25 -151t-92 -94q66 -40 91.5 -94t25.5 -152v-223q0 -108 37.5 -140t163.5 -32v-244q-49 -2 -121 -2q-145 0 -204.5 17t-100.5 71q-53 67 -53 211v297q0 86 -26 128.5t-89 57.5v223q61 15 88 56.5t27 118.5v311q0 145 63 211q44 45 102.5 59
t204.5 14q70 0 109 -2v-258q-125 2 -163 -29.5t-38 -135.5z" />
    <glyph glyph-name="bar" unicode="|" 
d="M371 1366h284v-1708h-284v1708z" />
    <glyph glyph-name="braceright" unicode="}" 
d="M420 37v219q0 99 25 151t92 93q-66 40 -91.5 94.5t-25.5 153.5v223q0 108 -36 139t-163 31v243q39 2 119 2q145 0 204.5 -17t100.5 -71q53 -67 53 -211v-294q0 -88 26.5 -130t90.5 -57v-225q-62 -15 -89.5 -55.5t-27.5 -118.5v-311q0 -146 -65 -211q-43 -45 -102.5 -59.5
t-200.5 -14.5q-66 0 -109 2v258q125 0 162 31t37 135z" />
    <glyph glyph-name="asciitilde" unicode="~" horiz-adv-x="1366" 
d="M330 1141l-140 114q114 273 302 273q69 0 231 -72q85 -37 110.5 -46t51.5 -9q46 0 81.5 30t73.5 101l140 -115q-62 -145 -135 -206.5t-185 -61.5q-41 0 -76.5 12t-150.5 64q-105 47 -154 47q-43 0 -77 -30t-72 -101z" />
    <glyph glyph-name="uni00A0" unicode="&#xa0;" horiz-adv-x="614" 
 />
    <glyph glyph-name="exclamdown" unicode="&#xa1;" horiz-adv-x="587" 
d="M166 -416v940h256v-940h-256zM295 977q66 0 108.5 -43t42.5 -109t-43 -108.5t-110 -42.5q-65 0 -107.5 43t-42.5 110q0 64 43.5 107t108.5 43z" />
    <glyph glyph-name="cent" unicode="&#xa2;" 
d="M635 940v-557q77 5 149 68l154 -158q-121 -116 -303 -133v-199h-96v199q-79 12 -130.5 30.5t-105.5 53.5q-104 70 -153.5 170.5t-49.5 240.5q0 142 55.5 256t155.5 179q50 31 99.5 47t128.5 26v150h96v-150q175 -14 317 -151l-168 -152q-35 37 -68.5 55t-80.5 25z
M539 383v557q-191 -55 -191 -276q0 -225 191 -281z" />
    <glyph glyph-name="sterling" unicode="&#xa3;" 
d="M524 760h279v-125h-213q28 -50 37.5 -77.5t9.5 -59.5q0 -46 -21 -89t-77 -112l14 -4l47 -19q2 -1 59 -26q63 -32 93.5 -42.5t64.5 -10.5t60 13.5t59 49.5l27 -174q-92 -102 -209 -102q-50 0 -98 18.5t-158 79.5q-77 43 -125 43q-47 0 -76.5 -33t-30.5 -90h-203
q1 138 79.5 232t191.5 96q5 8 31 47q34 57 34 98q0 89 -84 162h-235v125h135q-51 64 -69.5 114t-18.5 119q0 167 117 277t297 110q100 0 189.5 -40t150.5 -113q35 -40 50.5 -90t18.5 -133h-235q-3 80 -47.5 128t-116.5 48q-68 0 -116 -48.5t-48 -117.5q0 -60 27 -110.5
t110 -143.5z" />
    <glyph glyph-name="currency" unicode="&#xa4;" horiz-adv-x="1452" 
d="M98 223l201 203q-82 127 -82 272q0 68 19.5 129.5t68.5 145.5l-209 205l148 147l209 -209q90 48 146.5 65t127.5 17q70 0 123 -16t145 -64l209 205l146 -145l-203 -203q88 -142 88 -281q0 -67 -18 -124.5t-64 -143.5l203 -203l-146 -147l-200 203q-139 -89 -273 -89
t-293 89l-200 -201zM731 961q-112 0 -189 -76.5t-77 -186.5q0 -107 77.5 -184.5t184.5 -77.5q109 0 185.5 76.5t76.5 185.5q0 107 -76 185t-182 78z" />
    <glyph glyph-name="yen" unicode="&#xa5;" 
d="M236 907l-218 451h279l221 -518l217 518h269l-213 -451h172v-135h-236l-80 -174v-14h275v-135h-275v-449h-264v449h-283v135h283v14l-82 174h-242v135h177z" />
    <glyph glyph-name="brokenbar" unicode="&#xa6;" 
d="M371 1366h284v-715h-284v715zM371 313h284v-655h-284v655z" />
    <glyph glyph-name="section" unicode="&#xa7;" 
d="M895 1059h-225q-6 70 -47 109.5t-107 39.5q-61 0 -103 -37.5t-42 -93.5q0 -57 49 -100q29 -23 60.5 -38t119.5 -48q183 -70 260.5 -156t77.5 -217q0 -221 -219 -325q85 -49 124.5 -113t39.5 -150q0 -150 -107.5 -246t-275.5 -96q-108 0 -194.5 41.5t-139.5 118.5
q-31 46 -44 91t-16 116h228q1 -83 48 -132.5t124 -49.5q66 0 109.5 43t43.5 108q0 75 -63 117q-28 20 -56.5 32.5t-115.5 39.5q-180 59 -259 147.5t-79 233.5q0 125 61 210t175 117q-175 81 -175 264q0 137 100.5 223.5t260.5 86.5q110 0 201 -41.5t137 -112.5
q44 -69 49 -182zM512 696q-86 0 -146.5 -56t-60.5 -138q0 -85 58.5 -141t146.5 -56t146.5 56t58.5 141q0 78 -60 136t-143 58z" />
    <glyph glyph-name="dieresis" unicode="&#xa8;" 
d="M295 1378q58 0 96.5 -39.5t38.5 -99.5q0 -57 -40 -96t-97 -39q-59 0 -98 39t-39 98t39.5 98t99.5 39zM731 1378q57 0 96 -39.5t39 -99.5q0 -57 -40 -96t-97 -39q-59 0 -98 39t-39 98t39.5 98t99.5 39z" />
    <glyph glyph-name="copyright" unicode="&#xa9;" horiz-adv-x="1581" 
d="M1028 606h131q-12 -152 -111.5 -242t-254.5 -90q-175 0 -282.5 114t-107.5 300q0 183 110.5 298.5t285.5 115.5q142 0 241.5 -82.5t110.5 -208.5h-131q-17 69 -75 107t-144 38q-104 0 -166 -73t-62 -197q0 -123 61 -194.5t165 -71.5q95 0 156 49t73 137zM801 1393
q187 0 347.5 -96t254.5 -260t94 -355q0 -115 -35.5 -223.5t-101 -195.5t-152.5 -152.5t-194.5 -101.5t-222.5 -36q-191 0 -354.5 95t-259 258.5t-95.5 355.5q0 196 95 359t260.5 257.5t363.5 94.5zM799 1270q-121 0 -229.5 -46t-186 -124t-123 -187t-45.5 -231
q0 -158 77.5 -293t210 -214t288.5 -79t288 78.5t208.5 213.5t76.5 294q0 119 -45 227.5t-121 187.5t-180.5 126t-218.5 47z" />
    <glyph glyph-name="ordfeminine" unicode="&#xaa;" horiz-adv-x="806" 
d="M539 1061v57h178v-571h-178v61q-74 -80 -197 -80q-126 0 -208.5 84t-82.5 213q0 135 86 223.5t217 88.5q112 0 185 -76zM389 993q-66 0 -107.5 -46t-41.5 -120q0 -69 42 -115t105 -46t108.5 49.5t45.5 118.5q0 70 -43 114.5t-109 44.5z" />
    <glyph glyph-name="guillemotleft" unicode="&#xab;" horiz-adv-x="866" 
d="M244 487l196 -333h-170l-194 333l194 347h170zM582 487l196 -333h-170l-194 333l194 347h170z" />
    <glyph glyph-name="logicalnot" unicode="&#xac;" 
d="M680 0v342h-612v248h886v-590h-274z" />
    <glyph glyph-name="uni00AD" unicode="&#xad;" horiz-adv-x="454" 
d="M455 614v-229h-455v229h455z" />
    <glyph glyph-name="registered" unicode="&#xae;" horiz-adv-x="1581" 
d="M489 1083h334q141 0 215 -57t74 -164q0 -137 -135 -194q71 -29 95.5 -80t27.5 -176q5 -87 20 -121h-162q-13 30 -20 155q-8 108 -51 140q-38 30 -117 30h-113v-325h-168v792zM657 979v-262h127q160 0 160 133q0 66 -36 97.5t-111 31.5h-140zM801 1393q187 0 347.5 -96
t254.5 -260t94 -355q0 -115 -35.5 -223.5t-101 -195.5t-152.5 -152.5t-194.5 -101.5t-222.5 -36t-223.5 36t-195.5 101.5t-152.5 152.5t-101.5 195.5t-36 223.5q0 196 95 359t260.5 257.5t363.5 94.5zM799 1270q-121 0 -229.5 -46t-186 -124t-123 -187t-45.5 -231
q0 -158 77.5 -293t210 -214t288.5 -79q155 0 287 78.5t209 213.5t77 294q0 119 -45 227.5t-121 187.5t-180.5 126t-218.5 47z" />
    <glyph glyph-name="macron" unicode="&#xaf;" 
d="M326 1176v114h372v-114h-372z" />
    <glyph glyph-name="degree" unicode="&#xb0;" 
d="M514 1372q131 0 222 -93t91 -226q0 -128 -92 -220t-221 -92q-132 0 -224.5 92.5t-92.5 223.5t92.5 223t224.5 92zM510 1262q-82 0 -140.5 -61t-58.5 -144q0 -85 59 -145t142 -60q82 0 141.5 59.5t59.5 141.5q0 88 -59 148.5t-144 60.5z" />
    <glyph glyph-name="plusminus" unicode="&#xb1;" 
d="M25 807h415v405h140v-405h417v-135h-417v-393h-140v393h-415v135zM25 195h972v-136h-972v136z" />
    <glyph glyph-name="twosuperior" unicode="&#xb2;" horiz-adv-x="675" 
d="M346 694h236v-151h-543l307 440q47 68 62.5 98t15.5 56q0 37 -26.5 60.5t-67.5 23.5q-54 0 -78 -31.5t-25 -104.5h-166v19q0 123 76 197.5t203 74.5q116 0 190 -62.5t74 -160.5q0 -58 -24 -115.5t-82 -134.5z" />
    <glyph glyph-name="threesuperior" unicode="&#xb3;" horiz-adv-x="675" 
d="M324 1212h-240v148h543l-238 -303q100 -9 161.5 -78t61.5 -170q0 -122 -83 -201.5t-210 -79.5q-121 0 -192.5 64t-85.5 184l162 6q8 -47 37 -73.5t75 -26.5q53 0 89 34t36 83q0 51 -35 83.5t-90 32.5q-42 0 -79 -22l-103 80z" />
    <glyph glyph-name="acute" unicode="&#xb4;" 
d="M561 1376h262l-272 -284h-160z" />
    <glyph glyph-name="mu" unicode="&#xb5;" 
d="M70 -346v1329h239v-522q0 -82 8 -121t33 -74q64 -86 158 -86q95 0 150 78.5t55 212.5v512h239v-983h-239v147q-65 -167 -209 -167q-65 0 -111 29.5t-84 96.5v-452h-239z" />
    <glyph glyph-name="paragraph" unicode="&#xb6;" 
d="M453 -215v848h-31q-161 2 -261 102.5t-100 261.5q0 100 45 185t123 129q88 55 250 55h410v-1581h-135v1493h-164v-1493h-137z" />
    <glyph glyph-name="periodcentered" unicode="&#xb7;" horiz-adv-x="534" 
d="M270 657q65 0 107.5 -43t42.5 -110q0 -64 -43.5 -107t-108.5 -43q-66 0 -108.5 43t-42.5 109t43 108.5t110 42.5z" />
    <glyph glyph-name="cedilla" unicode="&#xb8;" 
d="M430 -424l-104 92q65 32 111 83t83 130l180 -76q-50 -77 -113.5 -131t-156.5 -98z" />
    <glyph glyph-name="onesuperior" unicode="&#xb9;" horiz-adv-x="675" 
d="M311 1139l-155 -78v160l336 163v-841h-181v596z" />
    <glyph glyph-name="ordmasculine" unicode="&#xba;" horiz-adv-x="757" 
d="M381 1139q141 0 233.5 -88t92.5 -222q0 -126 -96 -213.5t-234 -87.5q-141 0 -233.5 86.5t-92.5 219.5q0 135 92 220t238 85zM379 987q-68 0 -109 -42t-41 -111t41.5 -111.5t108.5 -42.5q65 0 106 42t41 109q0 72 -39.5 114t-107.5 42z" />
    <glyph glyph-name="guillemotright" unicode="&#xbb;" horiz-adv-x="866" 
d="M623 504l-197 334h170l195 -334l-195 -346h-170zM285 504l-197 334h170l195 -334l-195 -346h-170z" />
    <glyph glyph-name="onequarter" unicode="&#xbc;" horiz-adv-x="1611" 
d="M311 1139l-155 -78v160l336 163v-841h-181v596zM1296 1335l-901 -1362l-80 54l899 1359zM1305 166h-314v137l305 512h183v-502h77v-147h-77v-166h-174v166zM1315 307v301l-174 -301h174z" />
    <glyph glyph-name="onehalf" unicode="&#xbd;" horiz-adv-x="1611" 
d="M311 1139l-155 -78v160l336 163v-841h-181v596zM1296 1335l-901 -1362l-80 54l899 1359zM1280 152h236v-152h-543l307 440q49 68 63.5 97t14.5 57q0 37 -26.5 59.5t-67.5 22.5q-54 0 -78 -30t-25 -103h-166v16q0 124 75.5 198t203.5 74q116 0 190 -62t74 -159
q0 -58 -24 -115.5t-82 -134.5z" />
    <glyph glyph-name="threequarters" unicode="&#xbe;" horiz-adv-x="1611" 
d="M324 1212h-240v148h543l-238 -303q100 -9 161.5 -78t61.5 -170q0 -122 -83 -201.5t-210 -79.5q-121 0 -192.5 64t-85.5 184l162 6q8 -47 37 -73.5t75 -26.5q53 0 89 34t36 83q0 51 -35 83.5t-90 32.5q-42 0 -79 -22l-103 80zM1296 1335l-901 -1362l-80 54l899 1359z
M1305 166h-314v137l305 512h183v-502h77v-147h-77v-166h-174v166zM1315 307v301l-174 -301h174z" />
    <glyph glyph-name="questiondown" unicode="&#xbf;" horiz-adv-x="915" 
d="M375 504h262q2 -33 2 -74q0 -123 -32 -181t-154 -153q-63 -50 -87 -85.5t-24 -80.5q0 -60 38.5 -97.5t100.5 -37.5q66 0 103 41t37 115h243q-4 -184 -106.5 -286.5t-282.5 -102.5q-175 0 -286 102.5t-111 263.5q0 100 42.5 175t139.5 147q79 57 98 87t19 97v23
q-2 8 -2 47zM504 977q66 0 108.5 -43t42.5 -109t-43 -108.5t-110 -42.5q-65 0 -107.5 43t-42.5 110q0 64 43.5 107t108.5 43z" />
    <glyph glyph-name="Agrave" unicode="&#xc0;" horiz-adv-x="1294" 
d="M907 236h-524l-82 -236h-297l471 1366h350l467 -1366h-307zM834 465l-189 565l-190 -565h379zM592 1759l192 -272h-178l-284 272h270z" />
    <glyph glyph-name="Aacute" unicode="&#xc1;" horiz-adv-x="1294" 
d="M907 236h-524l-82 -236h-297l471 1366h350l467 -1366h-307zM834 465l-189 565l-190 -565h379zM707 1759h268l-283 -272h-178z" />
    <glyph glyph-name="Acircumflex" unicode="&#xc2;" horiz-adv-x="1294" 
d="M907 236h-524l-82 -236h-297l471 1366h350l467 -1366h-307zM834 465l-189 565l-190 -565h379zM651 1626l-164 -139h-182l232 274h237l217 -274h-182z" />
    <glyph glyph-name="Atilde" unicode="&#xc3;" horiz-adv-x="1294" 
d="M907 236h-524l-82 -236h-297l471 1366h350l467 -1366h-307zM834 465l-189 565l-190 -565h379zM848 1745l170 -14q-62 -232 -219 -232q-27 0 -53.5 7t-96.5 32q-85 33 -106 33q-54 0 -66 -72l-172 10q15 70 33.5 108t52.5 71q58 55 131 55q29 0 66 -12t139 -54
q27 -10 43 -10q52 0 78 78z" />
    <glyph glyph-name="Adieresis" unicode="&#xc4;" horiz-adv-x="1294" 
d="M907 236h-524l-82 -236h-297l471 1366h350l467 -1366h-307zM834 465l-189 565l-190 -565h379zM428 1782q60 0 100.5 -42t40.5 -102q0 -57 -41.5 -98t-99.5 -41t-99.5 41.5t-41.5 99.5q0 60 41 101t100 41zM864 1782q60 0 101 -42t41 -102q0 -57 -42 -98t-100 -41
t-99.5 41.5t-41.5 99.5q0 60 41 101t100 41z" />
    <glyph glyph-name="Aring" unicode="&#xc5;" horiz-adv-x="1294" 
d="M907 236h-524l-82 -236h-297l471 1366h350l467 -1366h-307zM834 465l-189 565l-190 -565h379zM649 1821q80 0 134.5 -55t54.5 -136q0 -75 -55.5 -128.5t-133.5 -53.5q-80 0 -135 54t-55 132t55.5 132.5t134.5 54.5zM649 1726q-40 0 -67 -27t-27 -65t27 -65t67 -27
q37 0 64.5 26.5t27.5 63.5q0 40 -27 67t-65 27z" />
    <glyph glyph-name="AE" unicode="&#xc6;" horiz-adv-x="1740" 
d="M1182 571v-342h467v-229h-748v274h-469l-145 -274h-299l741 1366h920v-229h-467v-336h467v-230h-467zM901 496v657l-352 -657h352z" />
    <glyph glyph-name="Ccedilla" unicode="&#xc7;" horiz-adv-x="1300" 
d="M1087 373l170 -193q-119 -110 -237 -158.5t-270 -48.5q-303 0 -490 205q-88 96 -136 228.5t-48 273.5q0 163 61.5 309t171.5 244q177 160 445 160q159 0 277 -49.5t239 -167.5l-183 -185q-84 75 -158.5 108.5t-160.5 33.5q-180 0 -294 -125t-114 -322t119 -325t303 -128
q182 0 305 140zM573 -432l-124 94q171 80 200 217l248 -72q-96 -161 -324 -239z" />
    <glyph glyph-name="Egrave" unicode="&#xc8;" horiz-adv-x="948" 
d="M377 1137v-336h479v-230h-479v-342h479v-229h-760v1366h760v-229h-479zM418 1759l192 -272h-178l-285 272h271z" />
    <glyph glyph-name="Eacute" unicode="&#xc9;" horiz-adv-x="948" 
d="M377 1137v-336h479v-230h-479v-342h479v-229h-760v1366h760v-229h-479zM532 1759h269l-283 -272h-178z" />
    <glyph glyph-name="Ecircumflex" unicode="&#xca;" horiz-adv-x="948" 
d="M377 1137v-336h479v-230h-479v-342h479v-229h-760v1366h760v-229h-479zM477 1626l-162 -139h-182l232 274h235l217 -274h-182z" />
    <glyph glyph-name="Edieresis" unicode="&#xcb;" horiz-adv-x="948" 
d="M377 1137v-336h479v-230h-479v-342h479v-229h-760v1366h760v-229h-479zM258 1782q58 0 98.5 -42t40.5 -102q0 -57 -41.5 -98t-99.5 -41t-99.5 41.5t-41.5 99.5q0 59 41.5 100.5t101.5 41.5zM692 1782q58 0 98.5 -42t40.5 -102q0 -57 -41.5 -98t-99.5 -41t-99.5 41.5
t-41.5 99.5q0 59 41.5 100.5t101.5 41.5z" />
    <glyph glyph-name="Igrave" unicode="&#xcc;" horiz-adv-x="565" 
d="M424 1366v-1366h-281v1366h281zM225 1759l193 -272h-178l-283 272h268z" />
    <glyph glyph-name="Iacute" unicode="&#xcd;" horiz-adv-x="565" 
d="M424 1366v-1366h-281v1366h281zM342 1759h268l-284 -272h-179z" />
    <glyph glyph-name="Icircumflex" unicode="&#xce;" horiz-adv-x="565" 
d="M424 1366v-1366h-281v1366h281zM285 1626l-162 -139h-182l231 274h236l217 -274h-181z" />
    <glyph glyph-name="Idieresis" unicode="&#xcf;" horiz-adv-x="565" 
d="M424 1366v-1366h-281v1366h281zM102 1782q58 0 99 -42t41 -102q0 -57 -42 -98t-100 -41t-99.5 41.5t-41.5 99.5q0 59 41.5 100.5t101.5 41.5zM463 1782q58 0 98.5 -42t40.5 -102q0 -57 -41.5 -98t-99.5 -41q-59 0 -100.5 41.5t-41.5 99.5q0 59 42 100.5t102 41.5z" />
    <glyph glyph-name="Eth" unicode="&#xd0;" horiz-adv-x="1312" 
d="M143 801v565h387q166 0 283.5 -36.5t208.5 -115.5q105 -93 160 -225t55 -291q0 -165 -56.5 -305.5t-160.5 -234.5q-175 -158 -473 -158h-404v582h-133v219h133zM424 801h242v-219h-242v-351h53q113 0 187.5 22t134.5 73q74 63 113.5 157t39.5 207q0 204 -116 326.5
t-310 122.5h-102v-338z" />
    <glyph glyph-name="Ntilde" unicode="&#xd1;" horiz-adv-x="1413" 
d="M424 864v-864h-281v1366h277l571 -852v852h281v-1366h-275zM905 1745l172 -14q-62 -232 -219 -232q-27 0 -52.5 7t-96.5 32q-85 33 -109 33q-51 0 -63 -72l-172 10q15 70 33.5 108t52.5 71q58 55 131 55q29 0 65 -11.5t139 -54.5q27 -10 43 -10q52 0 76 78z" />
    <glyph glyph-name="Ograve" unicode="&#xd2;" horiz-adv-x="1564" 
d="M793 1393q150 0 284 -59.5t236 -170.5q174 -195 174 -487q0 -191 -93.5 -353t-254.5 -256t-351 -94q-147 0 -279 55t-227 148.5t-150.5 224t-55.5 275.5q0 200 94 364.5t258.5 258.5t364.5 94zM784 1133q-182 0 -302 -129t-120 -324q0 -191 121 -320t299 -129
q177 0 298.5 128.5t121.5 314.5q0 198 -118.5 328.5t-299.5 130.5zM725 1759l193 -272h-179l-284 272h270z" />
    <glyph glyph-name="Oacute" unicode="&#xd3;" horiz-adv-x="1564" 
d="M793 1393q150 0 284 -59.5t236 -170.5q174 -195 174 -487q0 -191 -93.5 -353t-254.5 -256t-351 -94q-147 0 -279 55t-227 148.5t-150.5 224t-55.5 275.5q0 200 94 364.5t258.5 258.5t364.5 94zM784 1133q-182 0 -302 -129t-120 -324q0 -191 121 -320t299 -129
q177 0 298.5 128.5t121.5 314.5q0 198 -118.5 328.5t-299.5 130.5zM840 1759h268l-283 -272h-178z" />
    <glyph glyph-name="Ocircumflex" unicode="&#xd4;" horiz-adv-x="1564" 
d="M793 1393q150 0 284 -59.5t236 -170.5q174 -195 174 -487q0 -191 -93.5 -353t-254.5 -256t-351 -94q-147 0 -279 55t-227 148.5t-150.5 224t-55.5 275.5q0 200 94 364.5t258.5 258.5t364.5 94zM784 1133q-182 0 -302 -129t-120 -324q0 -191 121 -320t299 -129
q177 0 298.5 128.5t121.5 314.5q0 198 -118.5 328.5t-299.5 130.5zM784 1626l-161 -139h-185l232 274h237l217 -274h-182z" />
    <glyph glyph-name="Otilde" unicode="&#xd5;" horiz-adv-x="1564" 
d="M793 1393q150 0 284 -59.5t236 -170.5q174 -195 174 -487q0 -191 -93.5 -353t-254.5 -256t-351 -94q-147 0 -279 55t-227 148.5t-150.5 224t-55.5 275.5q0 200 94 364.5t258.5 258.5t364.5 94zM784 1133q-182 0 -302 -129t-120 -324q0 -191 121 -320t299 -129
q177 0 298.5 128.5t121.5 314.5q0 198 -118.5 328.5t-299.5 130.5zM981 1745l170 -14q-62 -232 -217 -232q-29 0 -55 7t-95 32q-88 33 -108 33q-54 0 -66 -72l-172 10q15 70 34 108.5t54 70.5q55 55 129 55q29 0 66 -12t139 -54q27 -10 43 -10q52 0 78 78z" />
    <glyph glyph-name="Odieresis" unicode="&#xd6;" horiz-adv-x="1564" 
d="M793 1393q150 0 284 -59.5t236 -170.5q174 -195 174 -487q0 -191 -93.5 -353t-254.5 -256t-351 -94q-147 0 -279 55t-227 148.5t-150.5 224t-55.5 275.5q0 200 94 364.5t258.5 258.5t364.5 94zM784 1133q-182 0 -302 -129t-120 -324q0 -191 121 -320t299 -129
q177 0 298.5 128.5t121.5 314.5q0 198 -118.5 328.5t-299.5 130.5zM563 1782q58 0 98.5 -42t40.5 -102q0 -57 -41.5 -98t-99.5 -41q-59 0 -100 41.5t-41 99.5q0 59 41.5 100.5t101.5 41.5zM999 1782q58 0 99 -42t41 -102q0 -57 -42 -98t-100 -41q-59 0 -100 41.5t-41 99.5
q0 59 41.5 100.5t101.5 41.5z" />
    <glyph glyph-name="multiply" unicode="&#xd7;" 
d="M203 1133l309 -310l309 312l101 -99l-314 -311l312 -307l-97 -96l-309 311l-311 -314l-99 99l314 311l-309 307z" />
    <glyph glyph-name="Oslash" unicode="&#xd8;" horiz-adv-x="1560" 
d="M305 154l-147 -140l-68 74l143 139q-87 109 -123 210.5t-36 232.5q0 205 91 370.5t251 259t358 93.5q137 0 259.5 -47t217.5 -136l148 144l69 -76l-143 -139q86 -123 122 -227t36 -230q0 -197 -94.5 -359.5t-259.5 -256t-365 -93.5q-263 0 -459 181zM1120 946l-620 -608
q120 -105 270 -105q183 0 305.5 129.5t122.5 321.5q0 77 -18 137.5t-60 124.5zM434 418l617 606q-120 111 -269 111q-181 0 -302.5 -129.5t-121.5 -323.5q0 -154 76 -264z" />
    <glyph glyph-name="Ugrave" unicode="&#xd9;" horiz-adv-x="1308" 
d="M401 1366v-801q0 -96 14 -153t48 -97q31 -38 82 -61t108 -23q60 0 114 26t85 69q30 41 41.5 93t11.5 148v799h283v-791q0 -292 -135 -442q-69 -76 -172.5 -118t-223.5 -42q-125 0 -233 44.5t-180 125.5q-66 73 -94.5 173.5t-28.5 258.5v791h280zM596 1759l192 -272h-178
l-282 272h268z" />
    <glyph glyph-name="Uacute" unicode="&#xda;" horiz-adv-x="1308" 
d="M401 1366v-801q0 -96 14 -153t48 -97q31 -38 82 -61t108 -23q60 0 114 26t85 69q30 41 41.5 93t11.5 148v799h283v-791q0 -292 -135 -442q-69 -76 -172.5 -118t-223.5 -42q-125 0 -233 44.5t-180 125.5q-66 73 -94.5 173.5t-28.5 258.5v791h280zM711 1759h270l-285 -272
h-178z" />
    <glyph glyph-name="Ucircumflex" unicode="&#xdb;" horiz-adv-x="1308" 
d="M401 1366v-801q0 -96 14 -153t48 -97q31 -38 82 -61t108 -23q60 0 114 26t85 69q30 41 41.5 93t11.5 148v799h283v-791q0 -292 -135 -442q-69 -76 -172.5 -118t-223.5 -42q-125 0 -233 44.5t-180 125.5q-66 73 -94.5 173.5t-28.5 258.5v791h280zM657 1626l-163 -139h-183
l232 274h237l217 -274h-182z" />
    <glyph glyph-name="Udieresis" unicode="&#xdc;" horiz-adv-x="1308" 
d="M401 1366v-801q0 -96 14 -153t48 -97q31 -38 82 -61t108 -23q60 0 114 26t85 69q30 41 41.5 93t11.5 148v799h283v-791q0 -292 -135 -442q-69 -76 -172.5 -118t-223.5 -42q-125 0 -233 44.5t-180 125.5q-66 73 -94.5 173.5t-28.5 258.5v791h280zM436 1782q58 0 98.5 -42
t40.5 -102q0 -57 -41.5 -98t-99.5 -41t-99.5 41.5t-41.5 99.5q0 60 41.5 101t101.5 41zM872 1782q58 0 99 -42t41 -102q0 -57 -42 -98t-100 -41t-99.5 41.5t-41.5 99.5q0 59 41.5 100.5t101.5 41.5z" />
    <glyph glyph-name="Yacute" unicode="&#xdd;" horiz-adv-x="1140" 
d="M715 602v-602h-281v602l-457 764h334l264 -473l261 473h327zM629 1759h268l-283 -272h-178z" />
    <glyph glyph-name="Thorn" unicode="&#xde;" horiz-adv-x="1136" 
d="M420 322v-322h-281v1366h281v-149h155q243 0 374.5 -114t131.5 -323q0 -212 -130.5 -335t-356.5 -123h-174zM420 553h121q122 0 189 56t67 159q0 100 -67.5 158.5t-182.5 58.5h-127v-432z" />
    <glyph glyph-name="germandbls" unicode="&#xdf;" horiz-adv-x="1089" 
d="M145 729h-92v219h92v105q0 149 107.5 240t282.5 91q180 0 290.5 -89t110.5 -234q0 -186 -172 -262q123 -38 190.5 -136.5t67.5 -240.5q0 -187 -96 -316q-92 -124 -277 -124q-94 0 -172 36l45 215q37 -12 68 -12q82 0 130 57t48 152q0 121 -84 176q-28 19 -58 28t-85 13
v238q64 5 90 26q51 38 51 109q0 58 -39 97.5t-98 39.5q-76 0 -117 -57q-13 -22 -17.5 -46t-4.5 -77v-977h-261v729z" />
    <glyph glyph-name="agrave" unicode="&#xe0;" horiz-adv-x="1243" 
d="M856 827v121h260v-948h-260v131q-66 -85 -146 -124.5t-184 -39.5q-199 0 -327.5 139.5t-128.5 356.5q0 224 135 371t342 147q96 0 168 -36t141 -118zM600 762q-111 0 -181.5 -82.5t-70.5 -212.5q0 -124 72 -207.5t178 -83.5q109 0 185.5 88t76.5 211q0 126 -72.5 206.5
t-187.5 80.5zM573 1376l170 -284h-159l-273 284h262z" />
    <glyph glyph-name="aacute" unicode="&#xe1;" horiz-adv-x="1243" 
d="M856 827v121h260v-948h-260v131q-66 -85 -146 -124.5t-184 -39.5q-199 0 -327.5 139.5t-128.5 356.5q0 224 135 371t342 147q96 0 168 -36t141 -118zM600 762q-111 0 -181.5 -82.5t-70.5 -212.5q0 -124 72 -207.5t178 -83.5q109 0 185.5 88t76.5 211q0 126 -72.5 206.5
t-187.5 80.5zM672 1376h262l-270 -284h-162z" />
    <glyph glyph-name="acircumflex" unicode="&#xe2;" horiz-adv-x="1243" 
d="M856 827v121h260v-948h-260v131q-66 -85 -146 -124.5t-184 -39.5q-199 0 -327.5 139.5t-128.5 356.5q0 224 135 371t342 147q96 0 168 -36t141 -118zM600 762q-111 0 -181.5 -82.5t-70.5 -212.5q0 -124 72 -207.5t178 -83.5q109 0 185.5 88t76.5 211q0 126 -72.5 206.5
t-187.5 80.5zM625 1243l-144 -151h-182l209 284h242l196 -284h-182z" />
    <glyph glyph-name="atilde" unicode="&#xe3;" horiz-adv-x="1243" 
d="M856 827v121h260v-948h-260v131q-66 -85 -146 -124.5t-184 -39.5q-199 0 -327.5 139.5t-128.5 356.5q0 224 135 371t342 147q96 0 168 -36t141 -118zM600 762q-111 0 -181.5 -82.5t-70.5 -212.5q0 -124 72 -207.5t178 -83.5q109 0 185.5 88t76.5 211q0 126 -72.5 206.5
t-187.5 80.5zM805 1348l168 -13q-56 -229 -213 -229q-56 0 -182 59q-33 17 -48 17q-44 0 -61 -74l-168 14q52 228 213 228q58 0 186 -60q28 -14 48 -14q45 0 57 72z" />
    <glyph glyph-name="adieresis" unicode="&#xe4;" horiz-adv-x="1243" 
d="M856 827v121h260v-948h-260v131q-66 -85 -146 -124.5t-184 -39.5q-199 0 -327.5 139.5t-128.5 356.5q0 224 135 371t342 147q96 0 168 -36t141 -118zM600 762q-111 0 -181.5 -82.5t-70.5 -212.5q0 -124 72 -207.5t178 -83.5q109 0 185.5 88t76.5 211q0 126 -72.5 206.5
t-187.5 80.5zM436 1378q59 0 98 -39.5t39 -99.5q0 -57 -40 -96t-97 -39q-58 0 -97.5 39t-39.5 98t39.5 98t97.5 39zM872 1378q59 0 98.5 -39.5t39.5 -99.5q0 -57 -40.5 -96t-97.5 -39q-58 0 -97.5 39t-39.5 98t39.5 98t97.5 39z" />
    <glyph glyph-name="aring" unicode="&#xe5;" horiz-adv-x="1243" 
d="M856 827v121h260v-948h-260v131q-66 -85 -146 -124.5t-184 -39.5q-199 0 -327.5 139.5t-128.5 356.5q0 224 135 371t342 147q96 0 168 -36t141 -118zM600 762q-111 0 -181.5 -82.5t-70.5 -212.5q0 -124 72 -207.5t178 -83.5q109 0 185.5 88t76.5 211q0 126 -72.5 206.5
t-187.5 80.5zM610 1427q80 0 134.5 -54.5t54.5 -135.5q0 -75 -55.5 -128.5t-133.5 -53.5q-80 0 -135 54t-55 132t55 132t135 54zM610 1333q-40 0 -67 -27t-27 -65t27 -65t67 -27q37 0 64.5 26.5t27.5 63.5q0 40 -27 67t-65 27z" />
    <glyph glyph-name="ae" unicode="&#xe6;" horiz-adv-x="1935" 
d="M1608 324l235 -72q-74 -140 -183 -212.5t-247 -72.5q-98 0 -164 33.5t-123 110.5v-111h-249v117q-63 -78 -142.5 -114t-187.5 -36q-215 0 -347 137t-132 361q0 223 133.5 369.5t335.5 146.5q208 0 340 -141v108h249v-108q60 77 125 109t160 32q198 0 332.5 -146.5
t134.5 -363.5q0 -34 -2 -61h-750q20 -98 89.5 -154.5t170.5 -56.5q70 0 122.5 29.5t99.5 95.5zM1126 559h484q-41 203 -236 203q-97 0 -157 -49.5t-91 -153.5zM610 762q-115 0 -190.5 -82t-75.5 -207q0 -123 78 -209t192 -86q110 0 184 81.5t74 203.5q0 132 -73 215.5
t-189 83.5z" />
    <glyph glyph-name="ccedilla" unicode="&#xe7;" horiz-adv-x="958" 
d="M776 279l158 -170q-158 -142 -365 -142q-217 0 -359 142.5t-142 359.5q0 224 141 368t362 144q204 0 379 -158l-174 -157q-87 84 -196 84q-107 0 -178.5 -78t-71.5 -195q0 -120 74 -199t186 -79q52 0 93.5 18t92.5 62zM426 -424l-104 92q65 32 111 83t83 130l180 -76
q-50 -77 -113.5 -131t-156.5 -98z" />
    <glyph glyph-name="egrave" unicode="&#xe8;" horiz-adv-x="1138" 
d="M1079 412h-741q17 -98 84 -155.5t164 -57.5q72 0 130 33t89 90l239 -66q-71 -138 -190.5 -213.5t-269.5 -75.5q-226 0 -371 143.5t-145 364.5q0 223 139.5 364.5t359.5 141.5q227 0 370.5 -144.5t143.5 -373.5zM338 561h475q-17 94 -81.5 147.5t-160.5 53.5
q-94 0 -154 -52t-79 -149zM520 1376l170 -284h-160l-272 284h262z" />
    <glyph glyph-name="eacute" unicode="&#xe9;" horiz-adv-x="1138" 
d="M1079 412h-741q17 -98 84 -155.5t164 -57.5q72 0 130 33t89 90l239 -66q-71 -138 -190.5 -213.5t-269.5 -75.5q-226 0 -371 143.5t-145 364.5q0 223 139.5 364.5t359.5 141.5q227 0 370.5 -144.5t143.5 -373.5zM338 561h475q-17 94 -81.5 147.5t-160.5 53.5
q-94 0 -154 -52t-79 -149zM621 1376h260l-271 -284h-159z" />
    <glyph glyph-name="ecircumflex" unicode="&#xea;" horiz-adv-x="1138" 
d="M1079 412h-741q17 -98 84 -155.5t164 -57.5q72 0 130 33t89 90l239 -66q-71 -138 -190.5 -213.5t-269.5 -75.5q-226 0 -371 143.5t-145 364.5q0 223 139.5 364.5t359.5 141.5q227 0 370.5 -144.5t143.5 -373.5zM338 561h475q-17 94 -81.5 147.5t-160.5 53.5
q-94 0 -154 -52t-79 -149zM571 1243l-143 -151h-182l209 284h241l197 -284h-182z" />
    <glyph glyph-name="edieresis" unicode="&#xeb;" horiz-adv-x="1138" 
d="M1079 412h-741q17 -98 84 -155.5t164 -57.5q72 0 130 33t89 90l239 -66q-71 -138 -190.5 -213.5t-269.5 -75.5q-226 0 -371 143.5t-145 364.5q0 223 139.5 364.5t359.5 141.5q227 0 370.5 -144.5t143.5 -373.5zM338 561h475q-17 94 -81.5 147.5t-160.5 53.5
q-94 0 -154 -52t-79 -149zM352 1378q58 0 96.5 -39.5t38.5 -99.5q0 -57 -40 -96t-97 -39q-58 0 -97.5 39t-39.5 98t39.5 98t99.5 39zM788 1378q57 0 96.5 -39.5t39.5 -99.5q0 -57 -40.5 -96t-97.5 -39q-58 0 -97.5 39t-39.5 98t39.5 98t99.5 39z" />
    <glyph glyph-name="igrave" unicode="&#xec;" horiz-adv-x="518" 
d="M389 948v-948h-260v948h260zM211 1376l170 -284h-160l-272 284h262z" />
    <glyph glyph-name="iacute" unicode="&#xed;" horiz-adv-x="518" 
d="M389 948v-948h-260v948h260zM309 1376h262l-272 -284h-160z" />
    <glyph glyph-name="icircumflex" unicode="&#xee;" horiz-adv-x="518" 
d="M389 948v-948h-260v948h260zM262 1243l-143 -151h-182l208 284h242l197 -284h-183z" />
    <glyph glyph-name="idieresis" unicode="&#xef;" horiz-adv-x="518" 
d="M389 948v-948h-260v948h260zM80 1378q58 0 96.5 -39.5t38.5 -99.5q0 -57 -40 -96t-97 -39q-58 0 -97.5 39t-39.5 98t39.5 98t99.5 39zM438 1378q57 0 96 -39.5t39 -99.5q0 -57 -40 -96t-97 -39q-58 0 -97.5 39t-39.5 98t39.5 98t99.5 39z" />
    <glyph glyph-name="eth" unicode="&#xf0;" horiz-adv-x="1165" 
d="M356 1182l156 84q-28 25 -100.5 63t-110.5 49l51 82q56 -10 144 -48t147 -77l213 115l59 -102l-157 -82q161 -127 251.5 -326t90.5 -424q0 -279 -166 -422q-146 -127 -352 -127q-226 0 -370 142.5t-144 365.5q0 220 144 362t368 142q89 0 188 -35q-26 71 -61.5 125.5
t-96.5 116.5l-198 -109zM584 745q-114 0 -183 -74t-69 -196q0 -124 68.5 -200t181.5 -76q115 0 183.5 75t68.5 201q0 123 -68 196.5t-182 73.5z" />
    <glyph glyph-name="ntilde" unicode="&#xf1;" horiz-adv-x="1087" 
d="M129 948h260v-117q53 82 111 116t147 34q67 0 129 -23.5t105 -64.5q46 -46 65 -111.5t19 -181.5v-600h-260v588q0 71 -23 110q-19 29 -53 46.5t-72 17.5q-75 0 -121.5 -52t-46.5 -135v-575h-260v948zM727 1348l166 -13q-26 -113 -80 -171t-131 -58q-58 0 -184 59
q-33 17 -47 17q-42 0 -62 -74l-168 14q28 116 80.5 172t134.5 56q59 0 185 -60q28 -14 47 -14q44 0 59 72z" />
    <glyph glyph-name="ograve" unicode="&#xf2;" horiz-adv-x="1163" 
d="M586 981q224 0 369 -146t145 -370q0 -209 -150 -353.5t-368 -144.5q-224 0 -369 142.5t-145 363.5q0 226 144 367t374 141zM586 748q-116 0 -186 -75.5t-70 -199.5q0 -123 70 -198.5t184 -75.5q112 0 183 75.5t71 194.5q0 129 -67.5 204t-184.5 75zM535 1376l170 -284
h-162l-271 284h263z" />
    <glyph glyph-name="oacute" unicode="&#xf3;" horiz-adv-x="1163" 
d="M586 981q224 0 369 -146t145 -370q0 -209 -150 -353.5t-368 -144.5q-224 0 -369 142.5t-145 363.5q0 226 144 367t374 141zM586 748q-116 0 -186 -75.5t-70 -199.5q0 -123 70 -198.5t184 -75.5q112 0 183 75.5t71 194.5q0 129 -67.5 204t-184.5 75zM633 1376h262
l-272 -284h-160z" />
    <glyph glyph-name="ocircumflex" unicode="&#xf4;" horiz-adv-x="1163" 
d="M586 981q224 0 369 -146t145 -370q0 -209 -150 -353.5t-368 -144.5q-224 0 -369 142.5t-145 363.5q0 226 144 367t374 141zM586 748q-116 0 -186 -75.5t-70 -199.5q0 -123 70 -198.5t184 -75.5q112 0 183 75.5t71 194.5q0 129 -67.5 204t-184.5 75zM584 1243l-142 -151
h-182l209 284h240l198 -284h-182z" />
    <glyph glyph-name="otilde" unicode="&#xf5;" horiz-adv-x="1163" 
d="M586 981q224 0 369 -146t145 -370q0 -209 -150 -353.5t-368 -144.5q-224 0 -369 142.5t-145 363.5q0 226 144 367t374 141zM586 748q-116 0 -186 -75.5t-70 -199.5q0 -123 70 -198.5t184 -75.5q112 0 183 75.5t71 194.5q0 129 -67.5 204t-184.5 75zM766 1348l166 -13
q-26 -113 -80 -171t-131 -58q-58 0 -184 59q-33 17 -48 17q-41 0 -61 -74l-168 14q28 116 80.5 172t134.5 56q58 0 184 -60q28 -14 48 -14q44 0 59 72z" />
    <glyph glyph-name="odieresis" unicode="&#xf6;" horiz-adv-x="1163" 
d="M586 981q224 0 369 -146t145 -370q0 -209 -150 -353.5t-368 -144.5q-224 0 -369 142.5t-145 363.5q0 226 144 367t374 141zM586 748q-116 0 -186 -75.5t-70 -199.5q0 -123 70 -198.5t184 -75.5q112 0 183 75.5t71 194.5q0 129 -67.5 204t-184.5 75zM362 1378
q59 0 98.5 -39.5t39.5 -99.5q0 -57 -40.5 -96t-97.5 -39q-58 0 -97.5 39t-39.5 98t39.5 98t97.5 39zM801 1378q59 0 98 -39.5t39 -99.5q0 -57 -40 -96t-97 -39q-59 0 -98 39t-39 98t39 98t98 39z" />
    <glyph glyph-name="divide" unicode="&#xf7;" 
d="M25 795h972v-136h-972v136zM512 1194q44 0 75 -32t31 -75q0 -44 -31.5 -76t-74.5 -32q-44 0 -76.5 31.5t-32.5 74.5q0 46 31.5 77.5t77.5 31.5zM512 475q43 0 74.5 -31.5t31.5 -74.5q0 -44 -32 -76.5t-76 -32.5q-43 0 -75 32t-32 75q0 45 32 76.5t77 31.5z" />
    <glyph glyph-name="oslash" unicode="&#xf8;" horiz-adv-x="1165" 
d="M244 82l-109 -105l-65 68l106 105q-57 70 -82.5 147t-25.5 176q0 221 143 364.5t364 143.5q191 0 345 -113l112 109l62 -68l-109 -106q60 -82 87.5 -161.5t27.5 -172.5q0 -140 -67.5 -255.5t-186 -181t-262.5 -65.5q-193 0 -340 115zM803 631l-381 -379q73 -53 164 -53
q114 0 186 76.5t72 197.5q0 91 -41 158zM358 324l383 374q-73 50 -157 50q-118 0 -190 -76.5t-72 -202.5q0 -77 36 -145z" />
    <glyph glyph-name="ugrave" unicode="&#xf9;" horiz-adv-x="1052" 
d="M682 948h260v-600q0 -105 -24 -169t-82 -113q-119 -99 -308 -99q-203 0 -317 105q-100 90 -100 276v600h260v-583q0 -80 43.5 -129.5t113.5 -49.5q72 0 113 43.5t41 118.5v600zM477 1376l170 -284h-162l-270 284h262z" />
    <glyph glyph-name="uacute" unicode="&#xfa;" horiz-adv-x="1052" 
d="M682 948h260v-600q0 -105 -24 -169t-82 -113q-119 -99 -308 -99q-203 0 -317 105q-100 90 -100 276v600h260v-583q0 -80 43.5 -129.5t113.5 -49.5q72 0 113 43.5t41 118.5v600zM575 1376h263l-271 -284h-161z" />
    <glyph glyph-name="ucircumflex" unicode="&#xfb;" horiz-adv-x="1052" 
d="M682 948h260v-600q0 -105 -24 -169t-82 -113q-119 -99 -308 -99q-203 0 -317 105q-100 90 -100 276v600h260v-583q0 -80 43.5 -129.5t113.5 -49.5q72 0 113 43.5t41 118.5v600zM528 1243l-143 -151h-182l209 284h241l197 -284h-182z" />
    <glyph glyph-name="udieresis" unicode="&#xfc;" horiz-adv-x="1052" 
d="M682 948h260v-600q0 -105 -24 -169t-82 -113q-116 -99 -308 -99q-203 0 -317 105q-100 90 -100 276v600h260v-583q0 -80 43.5 -129.5t113.5 -49.5q72 0 113 43.5t41 118.5v600zM307 1378q59 0 98 -39.5t39 -99.5q0 -57 -40 -96t-97 -39q-59 0 -98 39t-39 98t39 98t98 39z
M745 1378q59 0 97.5 -39.5t38.5 -99.5q0 -57 -40.5 -96t-97.5 -39q-59 0 -98 39t-39 98t39.5 98t99.5 39z" />
    <glyph glyph-name="yacute" unicode="&#xfd;" horiz-adv-x="960" 
d="M465 385l221 563h277l-535 -1380h-278l178 455l-332 925h276zM528 1376h263l-271 -284h-162z" />
    <glyph glyph-name="thorn" unicode="&#xfe;" horiz-adv-x="1245" 
d="M127 1366h260v-535q59 78 132.5 114t178.5 36q147 0 265 -78q215 -147 215 -432q0 -227 -129.5 -365.5t-343.5 -138.5q-201 0 -318 135v-526h-260v1790zM647 762q-115 0 -187.5 -83.5t-72.5 -215.5q0 -129 69 -208t183 -79t187 81.5t73 207.5q0 130 -71 213.5t-181 83.5z
" />
    <glyph glyph-name="ydieresis" unicode="&#xff;" horiz-adv-x="960" 
d="M465 385l221 563h277l-535 -1380h-278l178 455l-332 925h276zM262 1378q58 0 96.5 -39.5t38.5 -99.5q0 -57 -40 -96t-97 -39q-58 0 -97.5 39t-39.5 98t39.5 98t99.5 39zM698 1378q57 0 96.5 -39.5t39.5 -99.5q0 -57 -40.5 -96t-97.5 -39q-58 0 -97.5 39t-39.5 98t39.5 98
t99.5 39z" />
    <glyph glyph-name="Amacron" unicode="&#x100;" horiz-adv-x="1294" 
d="M907 236h-524l-82 -236h-297l471 1366h350l467 -1366h-307zM834 465l-189 565l-190 -565h379zM446 1573v113h402v-113h-402z" />
    <glyph glyph-name="amacron" unicode="&#x101;" horiz-adv-x="1243" 
d="M856 827v121h260v-948h-260v131q-66 -85 -146 -124.5t-184 -39.5q-199 0 -327.5 139.5t-128.5 356.5q0 224 135 371t342 147q96 0 168 -36t141 -118zM600 762q-111 0 -181.5 -82.5t-70.5 -212.5q0 -124 72 -207.5t178 -83.5q109 0 185.5 88t76.5 211q0 126 -72.5 206.5
t-187.5 80.5zM436 1176v114h373v-114h-373z" />
    <glyph glyph-name="Abreve" unicode="&#x102;" horiz-adv-x="1294" 
d="M907 236h-524l-82 -236h-297l471 1366h350l467 -1366h-307zM834 465l-189 565l-190 -565h379zM295 1751h182q34 -57 71.5 -79.5t100.5 -22.5q61 0 98.5 22.5t71.5 79.5h182q-37 -124 -127.5 -190t-224.5 -66q-135 0 -226 66t-128 190z" />
    <glyph glyph-name="abreve" unicode="&#x103;" horiz-adv-x="1243" 
d="M856 827v121h260v-948h-260v131q-66 -85 -146 -124.5t-184 -39.5q-199 0 -327.5 139.5t-128.5 356.5q0 224 135 371t342 147q96 0 168 -36t141 -118zM600 762q-111 0 -181.5 -82.5t-70.5 -212.5q0 -124 72 -207.5t178 -83.5q109 0 185.5 88t76.5 211q0 126 -72.5 206.5
t-187.5 80.5zM659 1360h181q-7 -117 -64.5 -181.5t-152.5 -64.5t-152.5 64.5t-64.5 181.5h180q8 -35 8 -74q0 -57 29 -57q28 0 28 57q0 39 8 74z" />
    <glyph glyph-name="Aogonek" unicode="&#x104;" horiz-adv-x="1325" 
d="M807 1366l518 -1366q-117 -67 -117 -139q0 -41 32.5 -70t78.5 -29q38 0 98 23v-127q-83 -29 -145 -29q-91 0 -153 50t-62 122q0 58 36 105.5t115 93.5h-174l-106 285h-529l-108 -285h-291l524 1366h283zM864 487l-133 347q-49 154 -63 233q-27 -100 -74 -238l-131 -342
h401z" />
    <glyph glyph-name="aogonek" unicode="&#x105;" horiz-adv-x="1112" 
d="M995 666v-66q-4 -110 -4 -371q0 -100 9.5 -142.5t41.5 -86.5q-104 -63 -104 -139q0 -41 32.5 -70t78.5 -29q35 0 90 23v-117q-79 -26 -140 -26q-92 0 -149 47t-57 123q0 52 31 96.5t100 91.5h-150q-3 11 -8 16q-12 18 -14 36t-4 93q-63 -92 -142.5 -132t-199.5 -40
q-164 0 -256.5 77.5t-92.5 215.5q0 103 54 172.5t157 98.5q60 16 110.5 24.5t186.5 22.5q107 12 142.5 34.5t35.5 77.5q0 74 -49 114t-139 40q-95 0 -143 -39t-60 -127h-243q15 328 452 328q223 0 342 -92q54 -43 73 -96t19 -158zM743 391v105q-40 -31 -74 -40t-163 -24
q-184 -21 -184 -156q0 -69 45 -108t127 -39q115 0 182 71t67 191z" />
    <glyph glyph-name="Cacute" unicode="&#x106;" horiz-adv-x="1300" 
d="M1087 373l170 -193q-119 -110 -237 -158.5t-270 -48.5q-306 0 -490 205q-88 96 -136 228.5t-48 273.5q0 205 86.5 368t241.5 254t350 91q159 0 277 -49.5t239 -167.5l-183 -185q-84 75 -158.5 108.5t-160.5 33.5q-180 0 -294 -125t-114 -322t119 -325t303 -128
q182 0 305 140zM707 1759h268l-283 -272h-178z" />
    <glyph glyph-name="cacute" unicode="&#x107;" horiz-adv-x="958" 
d="M776 279l158 -170q-158 -142 -365 -142q-217 0 -359 142.5t-142 359.5q0 224 141 368t362 144q204 0 379 -158l-174 -157q-84 84 -194 84q-107 0 -178.5 -78t-71.5 -195q0 -122 73 -200t187 -78q51 0 92 18t92 62zM530 1376h263l-273 -284h-160z" />
    <glyph glyph-name="Ccircumflex" unicode="&#x108;" horiz-adv-x="1300" 
d="M1087 373l170 -193q-119 -110 -237 -158.5t-270 -48.5q-306 0 -490 205q-88 96 -136 228.5t-48 273.5q0 205 86.5 368t241.5 254t350 91q159 0 277 -49.5t239 -167.5l-183 -185q-84 75 -158.5 108.5t-160.5 33.5q-180 0 -294 -125t-114 -322t119 -325t303 -128
q182 0 305 140zM651 1626l-162 -139h-182l232 274h235l217 -274h-180z" />
    <glyph glyph-name="Cdotaccent" unicode="&#x10a;" horiz-adv-x="1300" 
d="M1087 373l170 -193q-119 -110 -237 -158.5t-270 -48.5q-306 0 -490 205q-88 96 -136 228.5t-48 273.5q0 205 86.5 368t241.5 254t350 91q159 0 277 -49.5t239 -167.5l-183 -185q-84 75 -158.5 108.5t-160.5 33.5q-180 0 -294 -125t-114 -322t119 -325t303 -128
q182 0 305 140zM649 1782q58 0 98.5 -42t40.5 -102q0 -57 -41.5 -98t-99.5 -41q-59 0 -100 41.5t-41 99.5q0 59 41.5 100.5t101.5 41.5z" />
    <glyph glyph-name="cdotaccent" unicode="&#x10b;" horiz-adv-x="958" 
d="M776 279l158 -170q-158 -142 -365 -142q-217 0 -359 142.5t-142 359.5q0 224 141 368t362 144q204 0 379 -158l-174 -157q-84 84 -194 84q-107 0 -178.5 -78t-71.5 -195q0 -122 73 -200t187 -78q51 0 92 18t92 62zM481 1378q58 0 96.5 -39.5t38.5 -99.5q0 -57 -40 -96
t-97 -39q-59 0 -98 39t-39 98t39.5 98t99.5 39z" />
    <glyph glyph-name="Ccaron" unicode="&#x10c;" horiz-adv-x="1300" 
d="M1087 373l170 -193q-119 -110 -237 -158.5t-270 -48.5q-306 0 -490 205q-88 96 -136 228.5t-48 273.5q0 205 86.5 368t241.5 254t350 91q159 0 277 -49.5t239 -167.5l-183 -185q-84 75 -158.5 108.5t-160.5 33.5q-180 0 -294 -125t-114 -322t119 -325t303 -128
q182 0 305 140zM647 1622l162 139h182l-231 -274h-236l-217 274h182z" />
    <glyph glyph-name="ccaron" unicode="&#x10d;" horiz-adv-x="958" 
d="M776 279l158 -170q-158 -142 -365 -142q-217 0 -359 142.5t-142 359.5q0 224 141 368t362 144q204 0 379 -158l-174 -157q-84 84 -194 84q-107 0 -178.5 -78t-71.5 -195q0 -122 73 -200t187 -78q51 0 92 18t92 62zM479 1225l144 151h180l-209 -284h-240l-196 284h182z
" />
    <glyph glyph-name="Dcaron" unicode="&#x10e;" horiz-adv-x="1312" 
d="M143 0v1366h387q166 0 283.5 -36.5t208.5 -115.5q215 -190 215 -516q0 -165 -56.5 -305.5t-160.5 -234.5q-175 -158 -473 -158h-404zM424 1139v-908h53q113 0 187.5 22t134.5 73q74 63 113.5 157t39.5 207q0 204 -116 326.5t-310 122.5h-102zM655 1622l162 139h182
l-231 -274h-238l-217 274h183z" />
    <glyph glyph-name="dcaron" unicode="&#x10f;" horiz-adv-x="1591" 
d="M856 844v522h260v-1366h-260v125q-62 -85 -135 -121.5t-182 -36.5q-211 0 -340 137.5t-129 360.5q0 243 151 385q140 131 322 131q96 0 170 -32.5t143 -104.5zM604 762q-113 0 -185.5 -84.5t-72.5 -214.5q0 -123 73 -205t183 -82q107 0 180.5 83t73.5 206
q0 129 -71.5 213t-180.5 84zM1522 1333l-162 -426l-174 47l114 439z" />
    <glyph glyph-name="Dcroat" unicode="&#x110;" horiz-adv-x="1312" 
d="M143 801v565h387q166 0 283.5 -36.5t208.5 -115.5q105 -93 160 -225t55 -291q0 -165 -56.5 -305.5t-160.5 -234.5q-175 -158 -473 -158h-404v582h-133v219h133zM424 801h242v-219h-242v-351h53q113 0 187.5 22t134.5 73q74 63 113.5 157t39.5 207q0 204 -116 326.5
t-310 122.5h-102v-338z" />
    <glyph glyph-name="dcroat" unicode="&#x111;" horiz-adv-x="1243" 
d="M856 1245v121h260v-121h121v-194h-121v-1051h-260v125q-62 -85 -135.5 -121.5t-183.5 -36.5q-209 0 -339 137.5t-130 360.5t134.5 369.5t338.5 146.5q98 0 172 -32.5t143 -104.5v207h-221v194h221zM602 762q-113 0 -185.5 -84.5t-72.5 -214.5q0 -123 73 -205t183 -82
q109 0 182.5 83t73.5 206q0 129 -72 213t-182 84z" />
    <glyph glyph-name="Emacron" unicode="&#x112;" horiz-adv-x="948" 
d="M377 1137v-336h479v-230h-479v-342h479v-229h-760v1366h760v-229h-479zM274 1573v113h402v-113h-402z" />
    <glyph glyph-name="emacron" unicode="&#x113;" horiz-adv-x="1138" 
d="M1079 412h-741q17 -98 84 -155.5t164 -57.5q72 0 130 33t89 90l239 -66q-71 -138 -190.5 -213.5t-269.5 -75.5q-226 0 -371 143.5t-145 364.5q0 223 139.5 364.5t359.5 141.5q227 0 370.5 -144.5t143.5 -373.5zM338 561h475q-17 94 -81.5 147.5t-160.5 53.5
q-94 0 -154 -52t-79 -149zM383 1176v114h373v-114h-373z" />
    <glyph glyph-name="Ebreve" unicode="&#x114;" horiz-adv-x="948" 
d="M377 1137v-336h479v-230h-479v-342h479v-229h-760v1366h760v-229h-479zM121 1751h182q34 -57 71.5 -79.5t100.5 -22.5q62 0 100 22.5t72 79.5h180q-37 -124 -127.5 -190t-224.5 -66q-135 0 -225.5 65.5t-128.5 190.5z" />
    <glyph glyph-name="Edotaccent" unicode="&#x116;" horiz-adv-x="948" 
d="M377 1137v-336h479v-230h-479v-342h479v-229h-760v1366h760v-229h-479zM475 1782q58 0 98.5 -42t40.5 -102q0 -57 -41.5 -98t-99.5 -41q-59 0 -100 41.5t-41 99.5q0 59 41.5 100.5t101.5 41.5z" />
    <glyph glyph-name="edotaccent" unicode="&#x117;" horiz-adv-x="1138" 
d="M1079 412h-741q17 -98 84 -155.5t164 -57.5q72 0 130 33t89 90l239 -66q-71 -138 -190.5 -213.5t-269.5 -75.5q-226 0 -371 143.5t-145 364.5q0 223 139.5 364.5t359.5 141.5q227 0 370.5 -144.5t143.5 -373.5zM338 561h475q-17 94 -81.5 147.5t-160.5 53.5
q-94 0 -154 -52t-79 -149zM571 1378q59 0 97.5 -39.5t38.5 -99.5q0 -57 -40.5 -96t-97.5 -39q-59 0 -98 39t-39 98t39.5 98t99.5 39z" />
    <glyph glyph-name="Eogonek" unicode="&#x118;" horiz-adv-x="1261" 
d="M1194 238v-238q-66 -40 -91.5 -70.5t-25.5 -68.5q0 -41 32 -70t79 -29q38 0 98 23l-14 -127q-79 -29 -146 -29q-89 0 -151 50.5t-62 123.5q0 57 35.5 104t112.5 93h-936v1366h1053v-227h-768v-322h706v-219h-706v-360h784z" />
    <glyph glyph-name="eogonek" unicode="&#x119;" horiz-adv-x="1130" 
d="M811 315h244q-35 -149 -159.5 -243.5t-287.5 -96.5q-71 -58 -71 -118q0 -38 33 -67.5t77 -29.5q33 0 92 21v-115q-82 -26 -139 -26q-94 0 -151.5 47t-57.5 123q0 47 24 85t83 82q-201 28 -319 164.5t-118 343.5q0 232 142.5 379.5t365.5 147.5q151 0 267.5 -69
t177.5 -195q57 -117 57 -308h-760q5 -135 77.5 -216t189.5 -81q88 0 143 40.5t90 131.5zM311 575h506q-6 125 -71.5 196t-174.5 71q-110 0 -176.5 -68t-83.5 -199z" />
    <glyph glyph-name="Ecaron" unicode="&#x11a;" horiz-adv-x="948" 
d="M377 1137v-336h479v-230h-479v-342h479v-229h-760v1366h760v-229h-479zM473 1622l162 139h182l-231 -274h-238l-215 274h180z" />
    <glyph glyph-name="ecaron" unicode="&#x11b;" horiz-adv-x="1138" 
d="M1079 412h-741q17 -98 84 -155.5t164 -57.5q72 0 130 33t89 90l239 -66q-71 -138 -190.5 -213.5t-269.5 -75.5q-226 0 -371 143.5t-145 364.5q0 223 139.5 364.5t359.5 141.5q227 0 370.5 -144.5t143.5 -373.5zM338 561h475q-17 94 -81.5 147.5t-160.5 53.5
q-94 0 -154 -52t-79 -149zM569 1225l142 151h182l-209 -284h-240l-198 284h182z" />
    <glyph glyph-name="Gcircumflex" unicode="&#x11c;" horiz-adv-x="1540" 
d="M797 766h684v-74q0 -158 -48 -281t-151 -227q-211 -211 -504 -211q-148 0 -278.5 54t-223.5 148t-146.5 225t-53.5 280q0 201 91 364.5t251 256t358 92.5q166 0 309.5 -68.5t243.5 -194.5l-211 -165q-75 89 -155 129.5t-181 40.5q-180 0 -301 -130.5t-121 -324.5
q0 -191 124 -322t304 -131q88 0 170 37t136 101q53 60 84 172h-381v229zM772 1626l-162 -139h-182l231 274h236l217 -274h-182z" />
    <glyph glyph-name="gcircumflex" unicode="&#x11d;" horiz-adv-x="1206" 
d="M821 831v117h256v-878q0 -146 -29.5 -238t-97.5 -158q-143 -143 -393 -143q-274 0 -465 188l162 164q122 -131 293 -131q130 0 202 73.5t72 207.5v96q-128 -162 -334 -162q-195 0 -321.5 141.5t-126.5 358.5q0 231 130.5 372.5t344.5 141.5q99 0 172 -36t135 -114z
M569 750q-112 0 -183 -76t-71 -195q0 -123 72 -201.5t184 -78.5q57 0 109.5 23.5t87.5 64.5q49 58 49 168q0 149 -69 221q-77 74 -179 74zM604 1243l-143 -151h-180l208 284h240l197 -284h-181z" />
    <glyph glyph-name="Gbreve" unicode="&#x11e;" horiz-adv-x="1540" 
d="M797 766h684v-74q0 -158 -48 -281t-151 -227q-211 -211 -504 -211q-148 0 -278.5 54t-223.5 148t-146.5 225t-53.5 280q0 201 91 364.5t251 256t358 92.5q166 0 309.5 -68.5t243.5 -194.5l-211 -165q-75 89 -155 129.5t-181 40.5q-180 0 -301 -130.5t-121 -324.5
q0 -191 124 -322t304 -131q88 0 170 37t136 101q53 60 84 172h-381v229zM418 1751h180q34 -57 71.5 -79.5t100.5 -22.5q62 0 100 22.5t72 79.5h180q-37 -124 -127.5 -190t-224.5 -66q-135 0 -225 65.5t-127 190.5z" />
    <glyph glyph-name="gbreve" unicode="&#x11f;" horiz-adv-x="1206" 
d="M821 831v117h256v-878q0 -146 -29.5 -238t-97.5 -158q-143 -143 -393 -143q-274 0 -465 188l162 164q122 -131 293 -131q130 0 202 73.5t72 207.5v96q-128 -162 -334 -162q-195 0 -321.5 141.5t-126.5 358.5q0 231 130.5 372.5t344.5 141.5q99 0 172 -36t135 -114z
M569 750q-112 0 -183 -76t-71 -195q0 -123 72 -201.5t184 -78.5q57 0 109.5 23.5t87.5 64.5q49 58 49 168q0 149 -69 221q-77 74 -179 74zM641 1360h180q-7 -117 -64.5 -181.5t-152.5 -64.5q-96 0 -153.5 65t-63.5 181h178q10 -44 10 -74q0 -57 27 -57q29 0 29 57
q0 30 10 74z" />
    <glyph glyph-name="Gdotaccent" unicode="&#x120;" horiz-adv-x="1540" 
d="M797 766h684v-74q0 -158 -48 -281t-151 -227q-211 -211 -504 -211q-148 0 -278.5 54t-223.5 148t-146.5 225t-53.5 280q0 201 91 364.5t251 256t358 92.5q166 0 309.5 -68.5t243.5 -194.5l-211 -165q-75 89 -155 129.5t-181 40.5q-180 0 -301 -130.5t-121 -324.5
q0 -191 124 -322t304 -131q88 0 170 37t136 101q53 60 84 172h-381v229zM770 1782q58 0 98.5 -42t40.5 -102q0 -57 -41.5 -98t-99.5 -41t-99.5 41.5t-41.5 99.5q0 59 41.5 100.5t101.5 41.5z" />
    <glyph glyph-name="gdotaccent" unicode="&#x121;" horiz-adv-x="1206" 
d="M821 831v117h256v-878q0 -146 -29.5 -238t-97.5 -158q-143 -143 -393 -143q-274 0 -465 188l162 164q122 -131 293 -131q130 0 202 73.5t72 207.5v96q-128 -162 -334 -162q-195 0 -321.5 141.5t-126.5 358.5q0 231 130.5 372.5t344.5 141.5q99 0 172 -36t135 -114z
M569 750q-112 0 -183 -76t-71 -195q0 -123 72 -201.5t184 -78.5q57 0 109.5 23.5t87.5 64.5q49 58 49 168q0 149 -69 221q-77 74 -179 74zM604 1378q58 0 96.5 -39.5t38.5 -99.5q0 -57 -40 -96t-97 -39q-58 0 -97.5 39t-39.5 98t39.5 98t99.5 39z" />
    <glyph glyph-name="Gcommaaccent" unicode="&#x122;" horiz-adv-x="1540" 
d="M797 766h684v-74q0 -158 -48 -281t-151 -227q-211 -211 -504 -211q-148 0 -278.5 54t-223.5 148t-146.5 225t-53.5 280q0 201 91 364.5t251 256t358 92.5q166 0 309.5 -68.5t243.5 -194.5l-211 -165q-75 89 -155 129.5t-181 40.5q-180 0 -301 -130.5t-121 -324.5
q0 -191 124 -322t304 -131q88 0 170 37t136 101q53 60 84 172h-381v229zM885 -86v-135q0 -123 -55.5 -179t-186.5 -63v84q76 7 106.5 32t32.5 81h-129v180h232z" />
    <glyph glyph-name="gcommaaccent" unicode="&#x123;" horiz-adv-x="1206" 
d="M821 831v117h256v-878q0 -146 -29.5 -238t-97.5 -158q-143 -143 -393 -143q-274 0 -465 188l162 164q122 -131 293 -131q130 0 202 73.5t72 207.5v96q-128 -162 -334 -162q-195 0 -321.5 141.5t-126.5 358.5q0 231 130.5 372.5t344.5 141.5q99 0 172 -36t135 -114z
M569 750q-112 0 -183 -76t-71 -195q0 -123 72 -201.5t184 -78.5q57 0 109.5 23.5t87.5 64.5q49 58 49 168q0 149 -69 221q-77 74 -179 74zM459 1165l162 426l176 -45l-115 -440z" />
    <glyph glyph-name="Hcircumflex" unicode="&#x124;" horiz-adv-x="1366" 
d="M424 559v-559h-281v1366h281v-578h518v578h281v-1366h-281v559h-518zM686 1626l-164 -139h-182l231 274h238l217 -274h-182z" />
    <glyph glyph-name="Hbar" unicode="&#x126;" horiz-adv-x="1409" 
d="M1286 1200h117v-162h-117v-1038h-285v594h-593v-594h-285v1038h-119v162h119v166h285v-166h593v166h285v-166zM408 1038v-229h593v229h-593z" />
    <glyph glyph-name="hbar" unicode="&#x127;" horiz-adv-x="1177" 
d="M381 1237h221v-156h-221v-268q54 103 132.5 152t188.5 49q93 0 168.5 -34.5t122.5 -98.5q36 -50 51 -108.5t15 -151.5v-621h-260v571q0 63 -9 99t-32 65q-58 70 -156 70q-118 0 -180 -100q-41 -64 -41 -197v-508h-260v1081h-141v156h141v129h260v-129z" />
    <glyph glyph-name="Imacron" unicode="&#x12a;" horiz-adv-x="565" 
d="M424 1366v-1366h-281v1366h281zM82 1573v113h401v-113h-401z" />
    <glyph glyph-name="imacron" unicode="&#x12b;" horiz-adv-x="518" 
d="M389 948v-948h-260v948h260zM74 1176v114h372v-114h-372z" />
    <glyph glyph-name="ibreve" unicode="&#x12d;" horiz-adv-x="518" 
d="M389 948v-948h-260v948h260zM297 1360h180q-7 -117 -64.5 -181.5t-152.5 -64.5t-152.5 64.5t-64.5 181.5h180q8 -35 8 -74q0 -57 29 -57t29 57q0 39 8 74z" />
    <glyph glyph-name="Iogonek" unicode="&#x12e;" horiz-adv-x="565" 
d="M424 1366v-1366q-84 -64 -113.5 -101.5t-29.5 -80.5q0 -31 28.5 -50.5t75.5 -19.5q34 0 74 12l18 -147q-82 -25 -145 -25q-104 0 -172 50t-68 126q0 135 156 236h-105v1366h281z" />
    <glyph glyph-name="iogonek" unicode="&#x12f;" horiz-adv-x="518" 
d="M389 948v-948q-58 -54 -77 -82.5t-19 -62.5q0 -32 23.5 -50t66.5 -18q29 0 63 10l17 -123q-63 -16 -119 -16q-92 0 -147.5 42.5t-55.5 113.5q0 50 31 99t86 87h-129v948h260zM260 1364q63 0 103 -41t40 -106q0 -60 -41 -101t-102 -41q-63 0 -104 41t-41 103q0 63 41 104
t104 41z" />
    <glyph glyph-name="Idotaccent" unicode="&#x130;" horiz-adv-x="565" 
d="M422 1366v-1366h-281v1366h281zM283 1782q58 0 98.5 -42t40.5 -102q0 -57 -41.5 -98t-99.5 -41q-59 0 -100.5 41.5t-41.5 99.5q0 59 42 100.5t102 41.5z" />
    <glyph glyph-name="dotlessi" unicode="&#x131;" horiz-adv-x="518" 
d="M389 948v-948h-260v948h260z" />
    <glyph glyph-name="IJ" unicode="&#x132;" horiz-adv-x="1351" 
d="M424 1366v-1366h-281v1366h281zM1233 1366v-881q0 -186 -54 -290.5t-180 -163.5q-62 -28 -144 -39.5t-224 -11.5v247q29 -2 57 -2q126 0 189 51q43 35 59 94t16 183v584h-321v229h602z" />
    <glyph glyph-name="ij" unicode="&#x133;" horiz-adv-x="1038" 
d="M389 948v-948h-260v948h260zM260 1364q63 0 103 -41t40 -106q0 -60 -41 -101t-102 -41q-63 0 -104 41t-41 103q0 63 41 104t104 41zM907 948v-979q0 -210 -90 -303q-94 -102 -278 -102q-41 0 -70 2v237h39q66 0 102.5 44t36.5 122v979h260zM778 1364q63 0 103.5 -41.5
t40.5 -105.5q0 -60 -41.5 -101t-102.5 -41q-63 0 -104 41t-41 103q0 63 41 104t104 41z" />
    <glyph glyph-name="Kcommaaccent" unicode="&#x136;" horiz-adv-x="1153" 
d="M424 608v-608h-281v1366h281v-594l387 594h326l-443 -657l443 -709h-330zM692 -86v-135q0 -123 -56 -178.5t-187 -63.5v84q77 8 108.5 33t32.5 80h-129v180h231z" />
    <glyph glyph-name="kcommaaccent" unicode="&#x137;" horiz-adv-x="968" 
d="M389 393v-393h-260v1366h260v-782l264 364h301l-321 -454l321 -494h-301zM594 -119v-117q0 -80 -20.5 -126t-67.5 -72q-37 -20 -148 -43v86q12 6 15 6l61 14q52 16 55 90h-118v162h223z" />
    <glyph glyph-name="kgreenlandic" unicode="&#x138;" horiz-adv-x="1091" 
d="M1061 987l-393 -387l444 -600h-309l-305 428l-119 -113v-315h-260v987h260v-401l387 401h295z" />
    <glyph glyph-name="Lacute" unicode="&#x139;" horiz-adv-x="923" 
d="M424 231h457v-231h-738v1366h281v-1135zM520 1759h268l-282 -272h-178z" />
    <glyph glyph-name="lacute" unicode="&#x13a;" horiz-adv-x="518" 
d="M389 0h-260v1366h260v-1366zM317 1759h269l-283 -272h-178z" />
    <glyph glyph-name="Lcommaaccent" unicode="&#x13b;" horiz-adv-x="923" 
d="M424 231h457v-231h-738v1366h281v-1135zM578 -86v-135q0 -123 -56.5 -178.5t-187.5 -63.5v84q77 8 108.5 33t32.5 80h-129v180h232z" />
    <glyph glyph-name="lcommaaccent" unicode="&#x13c;" horiz-adv-x="518" 
d="M389 0h-260v1366h260v-1366zM369 -119v-117q0 -80 -20.5 -126t-67.5 -72q-37 -20 -148 -43v86q12 6 14 6l62 14q52 16 55 90h-119v162h224z" />
    <glyph glyph-name="Lcaron" unicode="&#x13d;" horiz-adv-x="923" 
d="M424 231h457v-231h-738v1366h281v-1135zM907 1333l-162 -426l-174 47l115 439z" />
    <glyph glyph-name="lcaron" unicode="&#x13e;" horiz-adv-x="1001" 
d="M389 0h-260v1366h260v-1366zM934 1333l-162 -426l-176 47l115 439z" />
    <glyph glyph-name="Ldot" unicode="&#x13f;" horiz-adv-x="923" 
d="M424 231h457v-231h-738v1366h281v-1135zM737 864q69 0 114.5 -46.5t45.5 -117.5q0 -69 -46.5 -114t-115.5 -45q-71 0 -116.5 45.5t-45.5 115.5q0 71 46 116.5t118 45.5z" />
    <glyph glyph-name="ldot" unicode="&#x140;" horiz-adv-x="841" 
d="M389 0h-260v1366h260v-1366zM682 864q69 0 114.5 -46.5t45.5 -117.5q0 -69 -46.5 -114t-115.5 -45q-71 0 -116.5 45.5t-45.5 115.5q0 71 46 116.5t118 45.5z" />
    <glyph glyph-name="Lslash" unicode="&#x141;" horiz-adv-x="923" 
d="M143 731v635h281v-500l192 138v-244l-192 -131v-398h457v-231h-738v492l-118 -86v241z" />
    <glyph glyph-name="lslash" unicode="&#x142;" horiz-adv-x="540" 
d="M139 745v621h260v-481l115 82v-219l-115 -78v-670h-260v530l-112 -81v219z" />
    <glyph glyph-name="Nacute" unicode="&#x143;" horiz-adv-x="1413" 
d="M424 864v-864h-281v1366h277l571 -852v852h281v-1366h-275zM764 1759h270l-284 -272h-179z" />
    <glyph glyph-name="nacute" unicode="&#x144;" horiz-adv-x="1087" 
d="M129 948h260v-117q53 82 111 116t147 34q67 0 129 -23.5t105 -64.5q46 -46 65 -111.5t19 -181.5v-600h-260v588q0 71 -23 110q-19 29 -53 46.5t-72 17.5q-75 0 -121.5 -52t-46.5 -135v-575h-260v948zM594 1376h262l-272 -284h-160z" />
    <glyph glyph-name="Ncommaaccent" unicode="&#x145;" horiz-adv-x="1413" 
d="M424 864v-864h-281v1366h277l571 -852v852h281v-1366h-275zM821 -86v-135q0 -123 -55.5 -179t-185.5 -63v84q76 7 106.5 32t32.5 81h-129v180h231z" />
    <glyph glyph-name="ncommaaccent" unicode="&#x146;" horiz-adv-x="1087" 
d="M129 948h260v-117q53 82 111 116t147 34q67 0 129 -23.5t105 -64.5q46 -46 65 -111.5t19 -181.5v-600h-260v588q0 71 -23 110q-19 29 -53 46.5t-72 17.5q-75 0 -121.5 -52t-46.5 -135v-575h-260v948zM653 -119v-117q0 -80 -20.5 -126t-67.5 -72q-37 -21 -147 -43v86
q12 6 14 6l62 14q52 16 55 90h-119v162h223z" />
    <glyph glyph-name="Ncaron" unicode="&#x147;" horiz-adv-x="1413" 
d="M424 864v-864h-281v1366h277l571 -852v852h281v-1366h-275zM705 1622l161 139h185l-232 -274h-237l-217 274h182z" />
    <glyph glyph-name="ncaron" unicode="&#x148;" horiz-adv-x="1087" 
d="M129 948h260v-117q53 82 111 116t147 34q67 0 129 -23.5t105 -64.5q46 -46 65 -111.5t19 -181.5v-600h-260v588q0 71 -23 110q-19 29 -53 46.5t-72 17.5q-75 0 -121.5 -52t-46.5 -135v-575h-260v948zM543 1225l143 151h180l-207 -284h-241l-197 284h182z" />
    <glyph glyph-name="napostrophe" unicode="&#x149;" horiz-adv-x="1570" 
d="M416 1333l-162 -426l-176 47l115 439zM612 948h260v-117q53 82 111 116t147 34q67 0 129 -23.5t105 -64.5q46 -46 65 -111.5t19 -181.5v-600h-260v588q0 71 -23 110q-19 29 -53 46.5t-72 17.5q-75 0 -121.5 -52t-46.5 -135v-575h-260v948z" />
    <glyph glyph-name="Eng" unicode="&#x14a;" horiz-adv-x="1345" 
d="M125 1354h268v-230q31 62 53 93.5t52 60.5q116 113 299 113q193 0 319 -129q57 -60 81 -139t24 -208v-1126q0 -95 -42.5 -128.5t-162.5 -33.5h-246v158h27q100 0 123 53q10 23 13 62.5t3 156.5v793q0 80 -12.5 128.5t-42.5 84.5q-31 38 -81.5 60t-107.5 22
q-75 0 -139 -37.5t-98 -101.5q-45 -83 -45 -248v-758h-285v1354z" />
    <glyph glyph-name="eng" unicode="&#x14b;" horiz-adv-x="1185" 
d="M119 981h239v-176q66 114 144 161.5t198 47.5q190 0 287 -117q43 -51 60.5 -115t17.5 -170v-809q0 -57 -13.5 -88.5t-47.5 -48.5q-33 -16 -132 -16h-225v121h25q75 0 104 23.5t29 86.5v678q0 63 -6 94t-23 60q-25 40 -69.5 62t-100.5 22q-61 0 -113.5 -28.5t-80.5 -76.5
q-37 -67 -37 -194v-498h-256v981z" />
    <glyph glyph-name="Omacron" unicode="&#x14c;" horiz-adv-x="1564" 
d="M793 1393q150 0 284 -59.5t236 -170.5q174 -195 174 -487q0 -191 -93.5 -353t-254.5 -256t-351 -94q-147 0 -279 55t-227 148.5t-150.5 224t-55.5 275.5q0 200 94 364.5t258.5 258.5t364.5 94zM784 1133q-182 0 -302 -129t-120 -324q0 -191 121 -320t299 -129
q177 0 298.5 128.5t121.5 314.5q0 198 -118.5 328.5t-299.5 130.5zM580 1573v113h401v-113h-401z" />
    <glyph glyph-name="omacron" unicode="&#x14d;" horiz-adv-x="1163" 
d="M586 981q224 0 369 -146t145 -370q0 -209 -150 -353.5t-368 -144.5q-224 0 -369 142.5t-145 363.5q0 226 144 367t374 141zM586 748q-116 0 -186 -75.5t-70 -199.5q0 -123 70 -198.5t184 -75.5q112 0 183 75.5t71 194.5q0 129 -67.5 204t-184.5 75zM397 1176v114h373
v-114h-373z" />
    <glyph glyph-name="Ohungarumlaut" unicode="&#x150;" horiz-adv-x="1564" 
d="M793 1393q150 0 284 -59.5t236 -170.5q174 -195 174 -487q0 -191 -93.5 -353t-254.5 -256t-351 -94q-147 0 -279 55t-227 148.5t-150.5 224t-55.5 275.5q0 200 94 364.5t258.5 258.5t364.5 94zM784 1133q-182 0 -302 -129t-120 -324q0 -191 121 -320t299 -129
q177 0 298.5 128.5t121.5 314.5q0 198 -118.5 328.5t-299.5 130.5zM659 1757h238l-248 -270h-153zM1022 1757h235l-247 -270h-154z" />
    <glyph glyph-name="ohungarumlaut" unicode="&#x151;" horiz-adv-x="1163" 
d="M586 981q224 0 369 -146t145 -370q0 -209 -150 -353.5t-368 -144.5q-224 0 -369 142.5t-145 363.5q0 226 144 367t374 141zM586 748q-116 0 -186 -75.5t-70 -199.5q0 -123 70 -198.5t184 -75.5q112 0 183 75.5t71 194.5q0 129 -67.5 204t-184.5 75zM459 1370h231
l-233 -278h-142zM813 1370h231l-233 -278h-139z" />
    <glyph glyph-name="OE" unicode="&#x152;" horiz-adv-x="2052" 
d="M1491 571v-342h467v-229h-741v162q-40 -48 -71.5 -73t-82.5 -50q-141 -66 -295 -66q-193 0 -350.5 93t-247.5 256.5t-90 363.5q0 150 53 281.5t145 224.5t220.5 147t275.5 54q136 0 242.5 -43.5t200.5 -137.5v154h741v-229h-467v-336h467v-230h-467zM803 1133
q-189 0 -313.5 -129t-124.5 -324q0 -192 121.5 -319.5t304.5 -127.5t308.5 130.5t125.5 320.5q0 195 -119 322t-303 127z" />
    <glyph glyph-name="oe" unicode="&#x153;" horiz-adv-x="1857" 
d="M1583 319l213 -71q-32 -62 -59.5 -96.5t-71.5 -69.5q-142 -115 -324 -115q-144 0 -272 72q-36 20 -60.5 42.5t-56.5 63.5q-32 -42 -57 -63.5t-78 -50.5q-119 -64 -244 -64q-222 0 -363.5 142.5t-141.5 365.5t141.5 364.5t365.5 141.5q248 0 377 -170q138 170 379 170
q153 0 273 -76t176 -207q27 -65 37 -126t12 -164h-735q5 -46 17 -75t38 -57q77 -77 190 -77q159 0 244 120zM1083 557h492q-19 99 -82 152t-164 53q-97 0 -160 -52.5t-86 -152.5zM584 750q-109 0 -181.5 -77t-72.5 -194q0 -120 73.5 -200t182.5 -80q106 0 178 76t72 188
q0 123 -71.5 205t-180.5 82z" />
    <glyph glyph-name="Racute" unicode="&#x154;" horiz-adv-x="1196" 
d="M424 543v-543h-281v1366h422q254 0 387 -110t133 -320q0 -161 -82.5 -266.5t-240.5 -145.5l377 -524h-340zM424 707h127q120 0 185 56t65 159q0 98 -61 155.5t-165 57.5h-151v-428zM655 1759h271l-285 -272h-178z" />
    <glyph glyph-name="racute" unicode="&#x155;" horiz-adv-x="681" 
d="M129 948h260v-139q20 53 37.5 79t46.5 48q64 45 154 45q16 0 30 -2v-266q-40 4 -55 4q-54 0 -100 -23t-74 -63q-23 -32 -31 -68.5t-8 -105.5v-457h-260v948zM391 1376h262l-272 -284h-160z" />
    <glyph glyph-name="Rcommaaccent" unicode="&#x156;" horiz-adv-x="1196" 
d="M424 543v-543h-281v1366h422q254 0 387 -110t133 -320q0 -161 -82.5 -266.5t-240.5 -145.5l377 -524h-340zM424 707h127q120 0 185 56t65 159q0 98 -61 155.5t-165 57.5h-151v-428zM713 -86v-135q0 -123 -55.5 -179t-186.5 -63v84q76 7 106.5 32t32.5 81h-129v180h232z
" />
    <glyph glyph-name="rcommaaccent" unicode="&#x157;" horiz-adv-x="681" 
d="M129 948h260v-139q20 53 37.5 79t46.5 48q64 45 154 45q16 0 30 -2v-266q-40 4 -55 4q-54 0 -100 -23t-74 -63q-23 -32 -31 -68.5t-8 -105.5v-457h-260v948zM373 -119v-117q0 -121 -45.5 -167t-192.5 -74v86q12 6 17 6l61 14q52 16 55 90h-118v162h223z" />
    <glyph glyph-name="Rcaron" unicode="&#x158;" horiz-adv-x="1196" 
d="M424 543v-543h-281v1366h422q254 0 387 -110t133 -320q0 -161 -82.5 -266.5t-240.5 -145.5l377 -524h-340zM424 707h127q120 0 185 56t65 159q0 98 -61 155.5t-165 57.5h-151v-428zM596 1622l162 139h184l-231 -274h-238l-217 274h182z" />
    <glyph glyph-name="rcaron" unicode="&#x159;" horiz-adv-x="681" 
d="M129 948h260v-139q20 53 37.5 79t46.5 48q64 45 154 45q16 0 30 -2v-266q-40 4 -55 4q-54 0 -100 -23t-74 -63q-23 -32 -31 -68.5t-8 -105.5v-457h-260v948zM340 1225l143 151h183l-209 -284h-242l-197 284h183z" />
    <glyph glyph-name="Sacute" unicode="&#x15a;" horiz-adv-x="1067" 
d="M61 399h273v-18q0 -69 53 -114.5t133 -45.5q76 0 128 42t52 104q0 66 -55 108q-25 19 -54 32t-112 44q-224 79 -314.5 175t-90.5 253q0 186 124.5 300t325.5 114q199 0 321.5 -110.5t139.5 -307.5h-283q-8 86 -51.5 128t-126.5 42q-75 0 -121.5 -40t-46.5 -104
q0 -82 84 -129q46 -25 160 -67q113 -41 177 -75t108 -77q108 -102 108 -264q0 -187 -129.5 -301.5t-341.5 -114.5q-215 0 -339 114.5t-122 311.5zM590 1759h270l-285 -272h-178z" />
    <glyph glyph-name="sacute" unicode="&#x15b;" horiz-adv-x="858" 
d="M780 674h-245v16q0 43 -34 70.5t-87 27.5q-47 0 -76 -24t-29 -62q0 -41 27 -61q21 -16 39 -23t123 -40q160 -50 228.5 -119.5t68.5 -184.5q0 -138 -101.5 -222.5t-267.5 -84.5q-169 0 -267.5 82t-105.5 230h250q9 -62 38.5 -90.5t86.5 -28.5q46 0 75 25t29 65
q0 43 -36 69t-140 58q-154 46 -225.5 118.5t-71.5 184.5q0 135 101 218t266 83q163 0 256 -81t98 -226zM479 1376h260l-270 -284h-160z" />
    <glyph glyph-name="Scircumflex" unicode="&#x15c;" horiz-adv-x="1067" 
d="M61 399h273v-18q0 -69 53 -114.5t133 -45.5q76 0 128 42t52 104q0 66 -55 108q-25 19 -54 32t-112 44q-224 79 -314.5 175t-90.5 253q0 186 124.5 300t325.5 114q199 0 321.5 -110.5t139.5 -307.5h-283q-8 86 -51.5 128t-126.5 42q-75 0 -121.5 -40t-46.5 -104
q0 -82 84 -129q46 -25 160 -67q113 -41 177 -75t108 -77q108 -102 108 -264q0 -187 -129.5 -301.5t-341.5 -114.5q-215 0 -339 114.5t-122 311.5zM535 1626l-162 -139h-183l232 274h237l218 -274h-183z" />
    <glyph glyph-name="scircumflex" unicode="&#x15d;" horiz-adv-x="858" 
d="M780 674h-245v16q0 43 -34 70.5t-87 27.5q-47 0 -76 -24t-29 -62q0 -41 27 -61q21 -16 39 -23t123 -40q160 -50 228.5 -119.5t68.5 -184.5q0 -138 -101.5 -222.5t-267.5 -84.5q-169 0 -267.5 82t-105.5 230h250q9 -62 38.5 -90.5t86.5 -28.5q46 0 75 25t29 65
q0 43 -36 69t-140 58q-154 46 -225.5 118.5t-71.5 184.5q0 135 101 218t266 83q163 0 256 -81t98 -226zM430 1243l-143 -151h-183l209 284h242l197 -284h-183z" />
    <glyph glyph-name="Scedilla" unicode="&#x15e;" horiz-adv-x="1253" 
d="M655 -29l-55 -84q65 11 90 11q83 0 133.5 -42t50.5 -110q0 -83 -68.5 -134.5t-178.5 -51.5q-131 0 -260 55l36 80q105 -43 193 -43q52 0 83.5 24t31.5 62q0 35 -27.5 56.5t-73.5 21.5q-35 0 -96 -19l-47 41l88 137q-243 17 -375.5 143.5t-132.5 340.5h285q5 -74 18 -113
t45 -74q78 -84 244 -84q126 0 199 53t73 144q0 74 -57 113q-49 32 -274 94q-183 52 -249.5 78.5t-121.5 68.5q-54 41 -83.5 107.5t-29.5 148.5q0 181 141.5 290.5t374.5 109.5q252 0 390.5 -111.5t144.5 -320.5h-268q-4 105 -75 160t-200 55q-107 0 -170 -44.5t-63 -119.5
q0 -79 61 -115q30 -17 74.5 -30.5t185.5 -49.5q249 -67 330 -112q172 -100 172 -301q0 -197 -143 -312.5t-396 -122.5z" />
    <glyph glyph-name="scedilla" unicode="&#x15f;" horiz-adv-x="1005" 
d="M526 -27l-53 -82q56 11 86 11q76 0 124 -39.5t48 -102.5q0 -77 -64.5 -125.5t-166.5 -48.5q-119 0 -244 52l33 73q102 -41 184 -41q48 0 77.5 23t29.5 61q0 34 -26 55t-69 21q-32 0 -88 -20l-47 38l86 127q-187 13 -290.5 106.5t-108.5 250.5h246q6 -98 59.5 -145.5
t159.5 -47.5q89 0 141.5 38t52.5 102q0 55 -46.5 83t-192.5 60q-195 40 -277 86q-56 32 -86.5 88t-30.5 125q0 140 112 216.5t317 76.5q251 0 362 -123q34 -37 49.5 -80.5t18.5 -112.5h-236q-9 85 -55.5 121.5t-143.5 36.5q-81 0 -125.5 -30.5t-44.5 -86.5q0 -57 47 -83
t209 -58q211 -41 294 -108t83 -195q0 -144 -111.5 -228.5t-312.5 -93.5z" />
    <glyph glyph-name="Scaron" unicode="&#x160;" horiz-adv-x="1067" 
d="M61 399h273v-18q0 -69 53 -114.5t133 -45.5q76 0 128 42t52 104q0 66 -55 108q-25 19 -54 32t-112 44q-224 79 -314.5 175t-90.5 253q0 186 124.5 300t325.5 114q199 0 321.5 -110.5t139.5 -307.5h-283q-8 86 -51.5 128t-126.5 42q-75 0 -121.5 -40t-46.5 -104
q0 -82 84 -129q46 -25 160 -67q113 -41 177 -75t108 -77q108 -102 108 -264q0 -187 -129.5 -301.5t-341.5 -114.5q-215 0 -339 114.5t-122 311.5zM530 1622l162 139h185l-232 -274h-237l-218 274h183z" />
    <glyph glyph-name="scaron" unicode="&#x161;" horiz-adv-x="858" 
d="M780 674h-245v16q0 43 -34 70.5t-87 27.5q-47 0 -76 -24t-29 -62q0 -41 27 -61q21 -16 39 -23t123 -40q160 -50 228.5 -119.5t68.5 -184.5q0 -138 -101.5 -222.5t-267.5 -84.5q-169 0 -267.5 82t-105.5 230h250q9 -62 38.5 -90.5t86.5 -28.5q46 0 75 25t29 65
q0 43 -36 69t-140 58q-154 46 -225.5 118.5t-71.5 184.5q0 135 101 218t266 83q163 0 256 -81t98 -226zM428 1225l141 151h183l-209 -284h-240l-199 284h183z" />
    <glyph glyph-name="Tcommaaccent" unicode="&#x162;" horiz-adv-x="944" 
d="M612 1137v-1137h-280v1137h-326v229h930v-229h-324zM586 -86v-135q0 -123 -55.5 -179t-186.5 -63v84q76 7 106.5 32t32.5 81h-129v180h232z" />
    <glyph glyph-name="tcommaaccent" unicode="&#x163;" horiz-adv-x="579" 
d="M401 733v-454q0 -34 17 -48t57 -14h45v-217h-207q-92 0 -132 42t-40 138v553h-108v219h108v254h260v-254h119v-219h-119zM399 -119v-117q0 -84 -19.5 -128t-68 -69t-149.5 -44v86q12 6 16 6l62 14q52 16 55 90h-119v162h223z" />
    <glyph glyph-name="Tcaron" unicode="&#x164;" horiz-adv-x="944" 
d="M612 1137v-1137h-280v1137h-326v229h930v-229h-324zM469 1622l162 139h182l-231 -274h-236l-217 274h182z" />
    <glyph glyph-name="tcaron" unicode="&#x165;" horiz-adv-x="1064" 
d="M401 733v-454q0 -34 17 -48t57 -14h45v-217h-207q-92 0 -132 42t-40 138v553h-108v219h108v254h260v-254h119v-219h-119zM993 1333l-162 -426l-174 47l115 439z" />
    <glyph glyph-name="Tbar" unicode="&#x166;" horiz-adv-x="1148" 
d="M717 860h342v-196h-342v-664h-285v664h-342v196h342v266h-422v240h1129v-240h-422v-266z" />
    <glyph glyph-name="tbar" unicode="&#x167;" horiz-adv-x="692" 
d="M453 686h153v-156h-153v-188q0 -98 24.5 -128t104.5 -30q11 0 77 4v-190q-91 -8 -155 -8q-103 0 -165 21.5t-97 68.5q-29 35 -39 80t-10 137v233h-132v156h132v135h-173v166h173v307h260v-307h206v-166h-206v-135z" />
    <glyph glyph-name="utilde" unicode="&#x169;" horiz-adv-x="1052" 
d="M682 948h260v-600q0 -105 -24 -169t-82 -113q-119 -99 -308 -99q-203 0 -317 105q-100 90 -100 276v600h260v-583q0 -80 43.5 -129.5t113.5 -49.5q72 0 113 43.5t41 118.5v600zM709 1348l168 -13q-56 -229 -213 -229q-56 0 -185 59q-33 17 -45 17q-44 0 -61 -74l-168 14
q52 228 213 228q58 0 184 -60q28 -14 47 -14q22 0 38 18.5t22 53.5z" />
    <glyph glyph-name="Umacron" unicode="&#x16a;" horiz-adv-x="1308" 
d="M401 1366v-801q0 -96 14 -153t48 -97q31 -38 82 -61t108 -23q60 0 114 26t85 69q30 41 41.5 93t11.5 148v799h283v-791q0 -292 -135 -442q-69 -76 -172.5 -118t-223.5 -42q-125 0 -233 44.5t-180 125.5q-66 73 -94.5 173.5t-28.5 258.5v791h280zM453 1573v113h401v-113
h-401z" />
    <glyph glyph-name="umacron" unicode="&#x16b;" horiz-adv-x="1052" 
d="M682 948h260v-600q0 -105 -24 -169t-82 -113q-119 -99 -308 -99q-203 0 -317 105q-100 90 -100 276v600h260v-583q0 -80 43.5 -129.5t113.5 -49.5q72 0 113 43.5t41 118.5v600zM340 1176v114h373v-114h-373z" />
    <glyph glyph-name="ubreve" unicode="&#x16d;" horiz-adv-x="1052" 
d="M682 948h260v-600q0 -105 -24 -169t-82 -113q-119 -99 -308 -99q-203 0 -317 105q-100 90 -100 276v600h260v-583q0 -80 43.5 -129.5t113.5 -49.5q72 0 113 43.5t41 118.5v600zM563 1360h180q-7 -117 -64.5 -181.5t-152.5 -64.5t-152.5 64.5t-64.5 181.5h180q9 -39 9 -74
q0 -57 28 -57q29 0 29 57q0 39 8 74z" />
    <glyph glyph-name="Uring" unicode="&#x16e;" horiz-adv-x="1308" 
d="M401 1366v-801q0 -96 14 -153t48 -97q31 -38 82 -61t108 -23q60 0 114 26t85 69q30 41 41.5 93t11.5 148v799h283v-791q0 -292 -135 -442q-69 -76 -172.5 -118t-223.5 -42q-125 0 -233 44.5t-180 125.5q-66 73 -94.5 173.5t-28.5 258.5v791h280zM655 1821q80 0 134.5 -55
t54.5 -136q0 -75 -55.5 -128.5t-133.5 -53.5q-80 0 -135 54t-55 132q0 79 54.5 133t135.5 54zM655 1726q-40 0 -67 -27t-27 -65t27 -65t67 -27q37 0 65 27t28 63q0 40 -27 67t-66 27z" />
    <glyph glyph-name="uring" unicode="&#x16f;" horiz-adv-x="1052" 
d="M682 948h260v-600q0 -105 -24 -169t-82 -113q-119 -99 -308 -99q-203 0 -317 105q-100 90 -100 276v600h260v-583q0 -80 43.5 -129.5t113.5 -49.5q72 0 113 43.5t41 118.5v600zM528 1427q80 0 134.5 -54.5t54.5 -135.5q0 -75 -56.5 -128.5t-134.5 -53.5q-80 0 -135 54
t-55 132t55.5 132t136.5 54zM526 1333q-40 0 -67 -27t-27 -65t28 -65t66 -27t66.5 26.5t28.5 63.5q0 40 -27.5 67t-67.5 27z" />
    <glyph glyph-name="Uhungarumlaut" unicode="&#x170;" horiz-adv-x="1308" 
d="M401 1366v-801q0 -96 14 -153t48 -97q31 -38 82 -61t108 -23q60 0 114 26t85 69q30 41 41.5 93t11.5 148v799h283v-791q0 -292 -135 -442q-69 -76 -172.5 -118t-223.5 -42q-125 0 -233 44.5t-180 125.5q-66 73 -94.5 173.5t-28.5 258.5v791h280zM532 1757h238l-248 -270
h-155zM893 1757h237l-247 -270h-154z" />
    <glyph glyph-name="uhungarumlaut" unicode="&#x171;" horiz-adv-x="1054" 
d="M682 948h260v-600q0 -105 -24 -169t-82 -113q-119 -99 -308 -99q-203 0 -317 105q-100 90 -100 276v600h260v-583q0 -80 43.5 -129.5t113.5 -49.5q72 0 113 43.5t41 118.5v600zM401 1370h232l-234 -278h-141zM758 1370h231l-235 -278h-140z" />
    <glyph glyph-name="Uogonek" unicode="&#x172;" horiz-adv-x="1308" 
d="M1188 1366v-791q0 -242 -89 -383t-276 -196q-77 -59 -107 -98t-30 -80q0 -31 28 -50.5t74 -19.5q24 0 74 12l19 -147q-79 -25 -144 -25q-104 0 -171.5 49.5t-67.5 126.5q0 119 118 211q-170 9 -307 109q-101 75 -144.5 188.5t-43.5 302.5v791h280v-801q0 -95 14.5 -152.5
t47.5 -95.5q31 -38 82 -61t108 -23q60 0 114 26t85 69q30 39 41.5 91.5t11.5 147.5v799h283z" />
    <glyph glyph-name="uogonek" unicode="&#x173;" horiz-adv-x="1052" 
d="M705 -6l-9 -8q-48 -46 -64 -72.5t-16 -58.5t24 -50t65 -18q29 0 63 10l16 -121q-58 -18 -116 -18q-93 0 -149 42.5t-56 113.5q0 41 17 75.5t59 79.5h-7h-10q-196 0 -311 103q-100 90 -100 276v600h260v-581q0 -80 43.5 -129.5t113.5 -49.5q72 0 113 43t41 119v598h260
v-600q0 -145 -57 -229.5t-180 -124.5z" />
    <glyph glyph-name="Wcircumflex" unicode="&#x174;" horiz-adv-x="1755" 
d="M1233 489l227 877h293l-381 -1366h-282l-216 895l-215 -895h-282l-373 1366h297l219 -862l221 862h279zM881 1626l-162 -139h-182l231 274h236l217 -274h-183z" />
    <glyph glyph-name="Ycircumflex" unicode="&#x176;" horiz-adv-x="1140" 
d="M715 602v-602h-281v602l-457 764h334l264 -473l261 473h327zM573 1626l-161 -139h-185l232 274h237l217 -274h-182z" />
    <glyph glyph-name="ycircumflex" unicode="&#x177;" horiz-adv-x="960" 
d="M465 385l221 563h277l-535 -1380h-278l178 455l-332 925h276zM481 1243l-143 -151h-182l209 284h241l197 -284h-182z" />
    <glyph glyph-name="Ydieresis" unicode="&#x178;" horiz-adv-x="1140" 
d="M715 602v-602h-281v602l-457 764h334l264 -473l261 473h327zM352 1782q58 0 99 -42t41 -102q0 -57 -42 -98t-100 -41t-99.5 41.5t-41.5 99.5q0 59 41.5 100.5t101.5 41.5zM788 1782q58 0 99 -42t41 -102q0 -57 -42 -98t-100 -41t-99.5 41.5t-41.5 99.5q0 59 41.5 100.5
t101.5 41.5z" />
    <glyph glyph-name="Zacute" unicode="&#x179;" horiz-adv-x="1128" 
d="M467 229h575v-229h-1015l639 1137h-568v229h1006zM621 1759h268l-283 -272h-178z" />
    <glyph glyph-name="zacute" unicode="&#x17a;" horiz-adv-x="862" 
d="M440 219h367v-219h-776l399 729h-362v219h768zM479 1376h262l-270 -284h-162z" />
    <glyph glyph-name="Zdotaccent" unicode="&#x17b;" horiz-adv-x="1128" 
d="M467 229h575v-229h-1015l639 1137h-568v229h1006zM563 1782q58 0 98.5 -42t40.5 -102q0 -57 -41.5 -98t-99.5 -41q-59 0 -100 41.5t-41 99.5q0 59 41.5 100.5t101.5 41.5z" />
    <glyph glyph-name="zdotaccent" unicode="&#x17c;" horiz-adv-x="862" 
d="M440 219h367v-219h-776l399 729h-362v219h768zM430 1378q58 0 96.5 -39.5t38.5 -99.5q0 -57 -40 -96t-97 -39q-58 0 -97.5 39t-39.5 98t39.5 98t99.5 39z" />
    <glyph glyph-name="Zcaron" unicode="&#x17d;" horiz-adv-x="1128" 
d="M467 229h575v-229h-1015l639 1137h-568v229h1006zM561 1622l162 139h182l-231 -274h-236l-217 274h182z" />
    <glyph glyph-name="zcaron" unicode="&#x17e;" horiz-adv-x="862" 
d="M440 219h367v-219h-776l399 729h-362v219h768zM430 1225l141 151h183l-209 -284h-240l-199 284h183z" />
    <glyph glyph-name="florin" unicode="&#x192;" 
d="M422 823h-105l23 125h104l33 185q34 190 144 279.5t305 84.5l-43 -240q-68 -8 -101 -35.5t-45 -88.5l-32 -185h122l-20 -125h-123l-125 -708q-67 -390 -455 -387l43 243q126 9 150 144z" />
    <glyph glyph-name="uni01CD" unicode="&#x1cd;" horiz-adv-x="1294" 
d="M907 236h-524l-82 -236h-297l471 1366h350l467 -1366h-307zM834 465l-189 565l-190 -565h379zM645 1622l164 139h182l-231 -274h-238l-217 274h182z" />
    <glyph glyph-name="uni01CE" unicode="&#x1ce;" horiz-adv-x="1243" 
d="M856 827v121h260v-948h-260v131q-66 -85 -146 -124.5t-184 -39.5q-199 0 -327.5 139.5t-128.5 356.5q0 224 135 371t342 147q96 0 168 -36t141 -118zM600 762q-111 0 -181.5 -82.5t-70.5 -212.5q0 -124 72 -207.5t178 -83.5q109 0 185.5 88t76.5 211q0 126 -72.5 206.5
t-187.5 80.5zM623 1225l141 151h182l-209 -284h-239l-199 284h182z" />
    <glyph glyph-name="uni01D3" unicode="&#x1d3;" horiz-adv-x="1308" 
d="M401 1366v-801q0 -96 14 -153t48 -97q31 -38 82 -61t108 -23q60 0 114 26t85 69q30 41 41.5 93t11.5 148v799h283v-791q0 -292 -135 -442q-69 -76 -172.5 -118t-223.5 -42q-125 0 -233 44.5t-180 125.5q-66 73 -94.5 173.5t-28.5 258.5v791h280zM651 1622l162 139h184
l-231 -274h-238l-217 274h183z" />
    <glyph glyph-name="Gcaron" unicode="&#x1e6;" horiz-adv-x="1540" 
d="M797 766h684v-74q0 -158 -48 -281t-151 -227q-211 -211 -504 -211q-148 0 -278.5 54t-223.5 148t-146.5 225t-53.5 280q0 201 91 364.5t251 256t358 92.5q166 0 309.5 -68.5t243.5 -194.5l-211 -165q-75 89 -155 129.5t-181 40.5q-180 0 -301 -130.5t-121 -324.5
q0 -191 124 -322t304 -131q88 0 170 37t136 101q53 60 84 172h-381v229zM768 1622l162 139h182l-231 -274h-236l-217 274h180z" />
    <glyph glyph-name="gcaron" unicode="&#x1e7;" horiz-adv-x="1206" 
d="M821 831v117h256v-878q0 -146 -29.5 -238t-97.5 -158q-143 -143 -393 -143q-274 0 -465 188l162 164q122 -131 293 -131q130 0 202 73.5t72 207.5v96q-128 -162 -334 -162q-195 0 -321.5 141.5t-126.5 358.5q0 231 130.5 372.5t344.5 141.5q99 0 172 -36t135 -114z
M569 750q-112 0 -183 -76t-71 -195q0 -123 72 -201.5t184 -78.5q57 0 109.5 23.5t87.5 64.5q49 58 49 168q0 149 -69 221q-77 74 -179 74zM602 1225l143 151h181l-207 -284h-242l-196 284h182z" />
    <glyph glyph-name="uni01F4" unicode="&#x1f4;" horiz-adv-x="1540" 
d="M797 766h684v-74q0 -158 -48 -281t-151 -227q-211 -211 -504 -211q-148 0 -278.5 54t-223.5 148t-146.5 225t-53.5 280q0 201 91 364.5t251 256t358 92.5q166 0 309.5 -68.5t243.5 -194.5l-211 -165q-75 89 -155 129.5t-181 40.5q-180 0 -301 -130.5t-121 -324.5
q0 -191 124 -322t304 -131q88 0 170 37t136 101q53 60 84 172h-381v229zM827 1759h269l-283 -272h-178z" />
    <glyph glyph-name="scommaaccent" unicode="&#x219;" horiz-adv-x="858" 
d="M780 674h-245v16q0 43 -34 70.5t-87 27.5q-47 0 -76 -24t-29 -62q0 -41 27 -61q21 -16 39 -23t123 -40q160 -50 228.5 -119.5t68.5 -184.5q0 -138 -101.5 -222.5t-267.5 -84.5q-169 0 -267.5 82t-105.5 230h250q9 -62 38.5 -90.5t86.5 -28.5q46 0 75 25t29 65
q0 43 -36 69t-140 58q-154 46 -225.5 118.5t-71.5 184.5q0 135 101 218t266 83q163 0 256 -81t98 -226zM539 -119v-117q0 -121 -45.5 -167t-192.5 -74v86q12 6 16 6l62 14q52 16 55 90h-119v162h224z" />
    <glyph glyph-name="uni021A" unicode="&#x21a;" horiz-adv-x="944" 
d="M612 1137v-1137h-280v1137h-326v229h930v-229h-324zM586 -86v-135q0 -123 -55.5 -179t-186.5 -63v84q76 7 106.5 32t32.5 81h-129v180h232z" />
    <glyph glyph-name="uni021B" unicode="&#x21b;" horiz-adv-x="579" 
d="M401 733v-454q0 -34 17 -48t57 -14h45v-217h-207q-92 0 -132 42t-40 138v553h-108v219h108v254h260v-254h119v-219h-119zM399 -119v-117q0 -84 -19.5 -128t-68 -69t-149.5 -44v86q12 6 16 6l62 14q52 16 55 90h-119v162h223z" />
    <glyph glyph-name="afii57929" unicode="&#x2bc;" horiz-adv-x="483" 
d="M416 1333l-162 -426l-176 47l115 439z" />
    <glyph glyph-name="circumflex" unicode="&#x2c6;" 
d="M514 1243l-143 -151h-183l209 284h242l197 -284h-183z" />
    <glyph glyph-name="caron" unicode="&#x2c7;" 
d="M510 1225l143 151h183l-209 -284h-242l-197 284h183z" />
    <glyph glyph-name="uni02C9" unicode="&#x2c9;" 
d="M326 1176v114h372v-114h-372z" />
    <glyph glyph-name="breve" unicode="&#x2d8;" 
d="M549 1360h180q-7 -117 -64.5 -181.5t-152.5 -64.5t-152.5 64.5t-64.5 181.5h180q8 -35 8 -74q0 -57 29 -57t29 57q0 39 8 74z" />
    <glyph glyph-name="dotaccent" unicode="&#x2d9;" 
d="M512 1378q58 0 96.5 -39.5t38.5 -99.5q0 -57 -40 -96t-97 -39q-58 0 -97.5 39t-39.5 98t39.5 98t99.5 39z" />
    <glyph glyph-name="ring" unicode="&#x2da;" 
d="M514 1427q80 0 134 -54.5t54 -135.5q0 -75 -56 -128.5t-134 -53.5q-80 0 -135 54t-55 132t55.5 132t136.5 54zM512 1333q-40 0 -67 -27t-27 -65t28 -65t66 -27t66 26.5t28 63.5q0 40 -27 67t-67 27z" />
    <glyph glyph-name="ogonek" unicode="&#x2db;" 
d="M469 0h131l-10 -10q-25 -25 -37 -35q-49 -46 -49 -100q0 -32 23.5 -50t66.5 -18q29 0 63 10l17 -123q-63 -16 -117 -16q-93 0 -149 42.5t-56 113.5q0 104 117 186z" />
    <glyph glyph-name="tilde" unicode="&#x2dc;" 
d="M694 1348l168 -13q-56 -229 -213 -229q-56 0 -182 59q-33 17 -47 17q-42 0 -62 -74l-168 14q52 228 213 228q59 0 187 -60q28 -14 47 -14q45 0 57 72z" />
    <glyph glyph-name="hungarumlaut" unicode="&#x2dd;" 
d="M387 1370h231l-235 -278h-139zM741 1370h232l-234 -278h-141z" />
    <glyph glyph-name="uni0387" unicode="&#x387;" horiz-adv-x="534" 
d="M270 657q65 0 107.5 -43t42.5 -110q0 -64 -43.5 -107t-108.5 -43q-66 0 -108.5 43t-42.5 109t43 108.5t110 42.5z" />
    <glyph glyph-name="Wacute" unicode="&#x1e82;" horiz-adv-x="569" 
d="M512 614v-229h-455v229h455z" />
    <glyph glyph-name="Wdieresis" unicode="&#x1e84;" horiz-adv-x="1755" 
d="M1233 489l227 877h293l-381 -1366h-282l-216 895l-215 -895h-282l-373 1366h297l219 -862l221 862h279zM662 1782q58 0 98.5 -42t40.5 -102q0 -57 -42 -98t-100 -41q-59 0 -100 41.5t-41 99.5q0 59 42 100.5t102 41.5zM1096 1782q58 0 98.5 -42t40.5 -102
q0 -57 -41.5 -98t-99.5 -41q-59 0 -100.5 41.5t-41.5 99.5q0 59 42 100.5t102 41.5z" />
    <glyph glyph-name="uni2006" unicode="&#x2006;" horiz-adv-x="137" 
 />
    <glyph glyph-name="uni2007" unicode="&#x2007;" horiz-adv-x="1138" 
 />
    <glyph glyph-name="uni2011" unicode="&#x2011;" horiz-adv-x="454" 
d="M455 614v-229h-455v229h455z" />
    <glyph glyph-name="figuredash" unicode="&#x2012;" 
d="M930 598v-219h-834v219h834z" />
    <glyph glyph-name="endash" unicode="&#x2013;" 
d="M930 598v-219h-834v219h834z" />
    <glyph glyph-name="emdash" unicode="&#x2014;" horiz-adv-x="1370" 
d="M1370 598v-199h-1370v199h1370z" />
    <glyph glyph-name="afii00208" unicode="&#x2015;" horiz-adv-x="1370" 
d="M1370 598v-199h-1370v199h1370z" />
    <glyph glyph-name="underscoredbl" unicode="&#x2017;" 
d="M0 -109h1024v-118h-1024v118zM0 -348h1024v-119h-1024v119z" />
    <glyph glyph-name="quoteleft" unicode="&#x2018;" horiz-adv-x="483" 
d="M70 967l161 426l177 -45l-115 -441z" />
    <glyph glyph-name="quoteright" unicode="&#x2019;" horiz-adv-x="483" 
d="M416 1333l-162 -426l-176 47l115 439z" />
    <glyph glyph-name="quotesinglbase" unicode="&#x201a;" horiz-adv-x="497" 
d="M430 215l-170 -455l-182 47l119 472z" />
    <glyph glyph-name="quotedblleft" unicode="&#x201c;" horiz-adv-x="888" 
d="M459 922l174 471l180 -47l-121 -488zM70 922l174 471l182 -47l-123 -488z" />
    <glyph glyph-name="quotedblright" unicode="&#x201d;" horiz-adv-x="888" 
d="M432 1329l-174 -471l-182 47l123 488zM819 1329l-174 -471l-182 47l123 488z" />
    <glyph glyph-name="quotedblbase" unicode="&#x201e;" horiz-adv-x="888" 
d="M432 215l-174 -471l-182 47l123 488zM819 215l-174 -471l-182 47l123 488z" />
    <glyph glyph-name="dagger" unicode="&#x2020;" 
d="M403 1366h220v-348h301v-187h-301v-1230h-220v1230h-301v187h301v348z" />
    <glyph glyph-name="daggerdbl" unicode="&#x2021;" 
d="M403 1366h220v-358h301v-187h-301v-659h301v-187h-301v-374h-220v374h-301v187h301v659h-301v187h301v358z" />
    <glyph glyph-name="bullet" unicode="&#x2022;" horiz-adv-x="1366" 
d="M690 979q114 0 196.5 -83.5t82.5 -199.5q0 -118 -83 -201t-200 -83t-201 82.5t-84 199.5q0 120 83.5 202.5t205.5 82.5z" />
    <glyph glyph-name="ellipsis" unicode="&#x2026;" horiz-adv-x="1601" 
d="M270 276q65 0 107.5 -43t42.5 -110q0 -64 -43.5 -107t-108.5 -43q-66 0 -108.5 43t-42.5 109t43 108.5t110 42.5zM805 276q65 0 107 -43t42 -110q0 -64 -43 -107t-108 -43q-66 0 -109 43t-43 109t43.5 108.5t110.5 42.5zM1337 276q65 0 107.5 -43t42.5 -110
q0 -64 -43.5 -107t-108.5 -43q-66 0 -108.5 43t-42.5 109t43 108.5t110 42.5z" />
    <glyph glyph-name="perthousand" unicode="&#x2030;" horiz-adv-x="2076" 
d="M586 1120v-217q0 -123 -64.5 -188.5t-185.5 -65.5q-127 0 -195 68q-33 33 -46 81t-13 136v176q0 145 57 205q68 71 193 71q112 0 182 -61q40 -37 56 -82t16 -123zM244 1110v-186q0 -48 2 -63.5t10 -31.5q22 -36 80 -36q52 0 72 29t20 106v186q0 70 -20 98.5t-70 28.5
q-55 0 -74.5 -27t-19.5 -104zM1350 451v-218q0 -123 -64 -188t-186 -65q-128 0 -195 67q-32 32 -45.5 81t-13.5 136v176q0 145 57 205q69 72 193 72q111 0 182 -62q40 -35 56 -80.5t16 -123.5zM1008 440v-186q0 -70 12 -94q23 -37 80 -37q52 0 72 29t20 106v186
q0 70 -20 98.5t-70 28.5q-55 0 -74.5 -27t-19.5 -104zM1206 1339l-901 -1364l-80 54l899 1362zM1993 451v-218q0 -123 -64 -188t-186 -65q-128 0 -195 67q-32 32 -45.5 81t-13.5 136v176q0 78 13 125.5t44 79.5q69 72 193 72q111 0 182 -62q40 -35 56 -80.5t16 -123.5z
M1651 440v-186q0 -70 12 -94q23 -37 80 -37q52 0 72 29t20 106v186q0 70 -20 98.5t-70 28.5q-55 0 -74.5 -27t-19.5 -104z" />
    <glyph glyph-name="guilsinglleft" unicode="&#x2039;" horiz-adv-x="528" 
d="M244 487l196 -333h-170l-194 333l194 347h170z" />
    <glyph glyph-name="guilsinglright" unicode="&#x203a;" horiz-adv-x="528" 
d="M285 500l-197 334h170l195 -334l-195 -346h-170z" />
    <glyph glyph-name="exclamdbl" unicode="&#x203c;" horiz-adv-x="913" 
d="M360 1366v-362l-73 -582h-131l-72 577v367h276zM365 301v-301h-287v301h287zM831 1366v-362l-73 -582h-131l-72 577v367h276zM838 301v-301h-287v301h287z" />
    <glyph glyph-name="uni203E" unicode="&#x203e;" 
d="M0 1786h1024v-168h-1024v168z" />
    <glyph glyph-name="fraction" unicode="&#x2044;" horiz-adv-x="260" 
d="M621 1335l-902 -1362l-81 54l899 1359z" />
    <glyph glyph-name="zerosuperior" unicode="&#x2070;" horiz-adv-x="675" 
d="M614 1108v-313q0 -131 -69.5 -199t-202.5 -68q-137 0 -213 70q-37 35 -51.5 86.5t-14.5 146.5v259q0 145 60 208q72 78 213 78q124 0 199 -63q43 -37 61 -84t18 -121zM244 1087v-274q0 -46 3 -62.5t13 -29.5q28 -35 82 -35q51 0 73.5 30t22.5 99v281q0 65 -23 93t-75 28
t-74 -29.5t-22 -100.5z" />
    <glyph glyph-name="foursuperior" unicode="&#x2074;" horiz-adv-x="675" 
d="M369 709h-314v137l305 514h183v-504h78v-147h-78v-166h-174v166zM379 850v301l-174 -301h174z" />
    <glyph glyph-name="fivesuperior" unicode="&#x2075;" horiz-adv-x="675" 
d="M262 1206v-155q46 18 100 18q110 0 183 -74.5t73 -187.5q0 -123 -81.5 -202t-208.5 -79q-101 0 -168.5 48t-108.5 149l158 55q19 -48 46 -69t69 -21q51 0 84.5 33.5t33.5 83.5t-34.5 83.5t-85.5 33.5q-33 0 -57.5 -13.5t-51.5 -44.5h-115v496h453v-154h-289z" />
    <glyph glyph-name="sixsuperior" unicode="&#x2076;" horiz-adv-x="675" 
d="M567 1360l-217 -313q14 2 29 2q101 0 172.5 -71.5t71.5 -172.5q0 -115 -85.5 -196t-205.5 -81t-200.5 76.5t-80.5 190.5q0 56 22 112.5t74 132.5l215 320h205zM340 907q-51 0 -85 -32t-34 -78t33 -77.5t82 -31.5t83 32t34 77q0 47 -32.5 78.5t-80.5 31.5z" />
    <glyph glyph-name="sevensuperior" unicode="&#x2077;" horiz-adv-x="675" 
d="M373 1206h-273v154h525l-342 -817h-189z" />
    <glyph glyph-name="eightsuperior" unicode="&#x2078;" horiz-adv-x="675" 
d="M510 973q55 -26 84 -75t29 -114q0 -112 -80.5 -184t-206.5 -72t-204.5 69t-78.5 179q0 143 117 197q-41 23 -65.5 67.5t-24.5 98.5q0 104 74 170.5t190 66.5q113 0 185.5 -65.5t72.5 -167.5q0 -55 -24.5 -100t-67.5 -70zM344 1229q-44 0 -72 -25t-28 -65t28.5 -67.5
t69.5 -27.5q40 0 70 28t30 65t-30 64.5t-68 27.5zM340 891q-47 0 -80 -30.5t-33 -74.5t32 -73t79 -29q46 0 78.5 29.5t32.5 72.5t-32.5 74t-76.5 31z" />
    <glyph glyph-name="ninesuperior" unicode="&#x2079;" horiz-adv-x="675" 
d="M115 543l215 315q-10 -4 -23 -4q-109 0 -182.5 72t-73.5 178q0 115 84 193.5t207 78.5q122 0 202.5 -76.5t80.5 -191.5q0 -57 -22 -114t-73 -132l-213 -319h-202zM342 1219q-49 0 -83 -32t-34 -77q0 -47 33 -79t80 -32q49 0 83 31.5t34 77.5t-33.5 78.5t-79.5 32.5z" />
    <glyph glyph-name="zeroinferior" unicode="&#x2080;" horiz-adv-x="675" 
d="M614 563v-311q0 -132 -69 -200t-203 -68q-138 0 -213 69q-37 35 -51.5 87t-14.5 147v258q0 146 60 209q74 77 213 77q124 0 199 -63q43 -37 61 -84t18 -121zM244 545v-275q0 -48 3 -64.5t13 -29.5q28 -35 82 -35q52 0 74 30t22 99v283q0 63 -23 91t-75 28t-74 -29
t-22 -98z" />
    <glyph glyph-name="oneinferior" unicode="&#x2081;" horiz-adv-x="675" 
d="M311 594l-155 -76v158l336 166v-842h-181v594z" />
    <glyph glyph-name="twoinferior" unicode="&#x2082;" horiz-adv-x="675" 
d="M346 152h236v-152h-543l307 440q49 68 63.5 97t14.5 57q0 37 -26.5 59.5t-67.5 22.5q-54 0 -78 -30t-25 -103h-166v16q0 124 75.5 198t203.5 74q116 0 190 -62t74 -159q0 -58 -24 -115.5t-82 -134.5z" />
    <glyph glyph-name="threeinferior" unicode="&#x2083;" horiz-adv-x="675" 
d="M324 668h-240v147h543l-238 -303q100 -9 161.5 -78t61.5 -170q0 -122 -83 -201t-210 -79q-73 0 -134.5 28.5t-98.5 79.5q-34 49 -45 139l162 7q8 -47 37 -74t75 -27q53 0 89 34t36 83q0 51 -35 84t-92 33q-39 0 -77 -25l-103 82z" />
    <glyph glyph-name="fourinferior" unicode="&#x2084;" horiz-adv-x="675" 
d="M369 166h-314v137l305 512h183v-502h78v-147h-78v-166h-174v166zM379 307v301l-174 -301h174z" />
    <glyph glyph-name="fiveinferior" unicode="&#x2085;" horiz-adv-x="675" 
d="M262 662v-156q49 18 100 18q109 0 182.5 -74t73.5 -186q0 -123 -81.5 -201.5t-208.5 -78.5q-101 0 -168.5 47.5t-108.5 148.5l158 56q19 -50 45.5 -71.5t69.5 -21.5q51 0 84.5 33.5t33.5 83.5q0 51 -34 85t-86 34q-33 0 -57.5 -13t-51.5 -44h-115v493h453v-153h-289z" />
    <glyph glyph-name="sixinferior" unicode="&#x2086;" horiz-adv-x="675" 
d="M567 815l-217 -313q14 2 29 2q101 0 172.5 -71.5t71.5 -172.5q0 -115 -85.5 -195.5t-205.5 -80.5t-200.5 76t-80.5 190q0 57 22 113.5t74 132.5l215 319h205zM340 362q-51 0 -85 -32t-34 -78t33 -77.5t82 -31.5t83 32.5t34 78.5t-33 77t-80 31z" />
    <glyph glyph-name="seveninferior" unicode="&#x2087;" horiz-adv-x="675" 
d="M373 662h-273v153h525l-342 -815h-189z" />
    <glyph glyph-name="eightinferior" unicode="&#x2088;" horiz-adv-x="675" 
d="M510 430q113 -55 113 -190q0 -112 -80.5 -184t-206.5 -72t-204.5 68.5t-78.5 178.5q0 145 117 199q-41 22 -65.5 66.5t-24.5 99.5q0 103 74.5 169t189.5 66q113 0 185.5 -65t72.5 -166q0 -56 -24.5 -101.5t-67.5 -68.5zM342 684q-43 0 -70.5 -25t-27.5 -63
q0 -40 28.5 -67t69.5 -27q40 0 70 27.5t30 64.5t-29.5 63.5t-70.5 26.5zM340 348q-47 0 -80 -30t-33 -74t32 -74.5t79 -30.5q46 0 78.5 30.5t32.5 74.5q0 43 -32.5 73.5t-76.5 30.5z" />
    <glyph glyph-name="nineinferior" unicode="&#x2089;" horiz-adv-x="675" 
d="M115 0l215 313q-10 -2 -23 -2q-109 0 -182.5 71t-73.5 177q0 115 84 193.5t207 78.5q122 0 202.5 -76.5t80.5 -191.5q0 -107 -95 -244l-213 -319h-202zM342 674q-47 0 -82 -32.5t-35 -76.5q0 -46 33 -77t80 -31q51 0 84 31t33 77q0 44 -33.5 76.5t-79.5 32.5z" />
    <glyph glyph-name="franc" unicode="&#x20a3;" horiz-adv-x="1433" 
d="M883 801v147h260v-139q18 51 35.5 78t46.5 49q64 45 153 45q17 0 31 -2v-266q-40 4 -53 4q-114 0 -174 -86q-23 -32 -31 -68.5t-8 -105.5v-457h-260v571h-459v-571h-281v1366h760v-229h-479v-336h459z" />
    <glyph glyph-name="lira" unicode="&#x20a4;" horiz-adv-x="1288" 
d="M797 780v-90h-199q2 -3 3.5 -7.5t2.5 -7t2 -3.5q17 -38 19 -43q3 -6 16 -68h160v-90h-180q-14 -75 -47 -123.5t-111 -105.5q9 3 20.5 8t14.5 6q74 31 141 31q39 0 71 -8t167 -52q36 -8 65 -8q110 0 207 117l100 -232q-146 -137 -307 -137q-50 0 -100 12t-148 48
q-119 43 -174 43q-95 0 -203 -82l-141 209q163 101 184 274h-208v90h202q-4 7 -8 25q-19 49 -55 104h-139v90h84q-54 105 -54 185q0 86 46 170t124 141q134 102 359 102q317 0 446 -194q69 -101 80 -307h-262q-6 141 -67 207.5t-185 66.5q-107 0 -175.5 -54.5t-68.5 -140.5
q0 -36 12 -67.5t48 -89.5l12 -19h246z" />
    <glyph glyph-name="peseta" unicode="&#x20a7;" horiz-adv-x="1886" 
d="M1044 725h156v-150h74v-143h-74v-262q0 -17 8 -23t29 -6h37v-141h-137q-60 0 -87.5 27t-27.5 86v319h-68v143h68v103q-126 -209 -424 -209h-174v-469h-281v1366h437q243 0 374 -113.5t131 -324.5q0 -104 -41 -203zM424 700h121q122 0 189 56t67 159q0 101 -67.5 160.5
t-182.5 59.5h-127v-435zM1829 397h-168v17q0 23 -18.5 37t-47.5 14q-57 0 -57 -45q0 -34 61 -51q126 -37 168 -64q72 -50 72 -135t-66.5 -136.5t-173.5 -51.5q-109 0 -171 51t-66 145h172q4 -38 20 -53.5t48 -15.5q26 0 41.5 12.5t15.5 34.5t-20.5 35t-82.5 32
q-98 28 -144 72.5t-46 112.5q0 83 65 133.5t171 50.5q107 0 166 -51t61 -144z" />
    <glyph glyph-name="Euro" unicode="&#x20ac;" 
d="M86 811h64q37 262 181.5 422t344.5 160q195 0 344 -146l-115 -266q-45 73 -102 112.5t-119 39.5q-91 0 -157 -85.5t-91 -236.5h377l-86 -262h-287q29 -148 101.5 -233t167.5 -85q71 0 135 41.5t110 116.5v-340q-125 -76 -258 -76q-204 0 -356.5 161.5t-187.5 414.5h-152z
" />
    <glyph glyph-name="uni2101" unicode="&#x2101;" horiz-adv-x="1921" 
d="M604 684h-313l-51 -137h-201l297 819h229l295 -819h-209zM553 834l-107 303l-106 -303h213zM1581 1335l-901 -1362l-82 54l901 1359zM1270 250h186v-17q0 -40 31 -65t78 -25q43 0 72.5 23t29.5 57t-26.5 54.5t-104.5 48.5q-143 47 -200.5 105t-57.5 153q0 112 80 182
t209 70q128 0 205.5 -69t87.5 -192h-193q-3 54 -27 77.5t-75 23.5q-43 0 -69 -21.5t-26 -56.5q0 -37 27.5 -58t118.5 -51q138 -50 193 -105.5t55 -147.5q0 -113 -83 -182.5t-216 -69.5q-140 0 -217.5 70t-77.5 196z" />
    <glyph glyph-name="afii61248" unicode="&#x2105;" horiz-adv-x="843" 
d="M422 864q52 0 88.5 -37t36.5 -88q0 -53 -36.5 -90t-88.5 -37t-89.5 37t-37.5 88q0 54 36.5 90.5t90.5 36.5z" />
    <glyph glyph-name="afii61289" unicode="&#x2113;" 
d="M520 532q-49 -272 -49 -374q0 -52 29 -52q20 0 36 19t46 76q18 43 47 43q39 0 39 -45q0 -61 -54 -138q-72 -104 -170 -104q-51 0 -91 27.5t-60 76.5q-23 59 -23 166q0 74 4 121q-70 -80 -92 -80q-12 0 -23.5 19.5t-11.5 40.5q0 20 10 34t72 82q3 3 62 76
q75 433 181 642.5t249 209.5q75 0 120.5 -53t45.5 -141q0 -83 -40 -189.5t-108 -206.5q-28 -42 -70 -90t-149 -160zM541 678q100 111 164 254q28 63 46.5 129.5t18.5 103.5q0 31 -12.5 50.5t-32.5 19.5q-53 0 -93 -121.5t-91 -435.5z" />
    <glyph glyph-name="uni2117" unicode="&#x2117;" horiz-adv-x="356" 
d="M268 1118v-571h-178v571h178zM178 1372q40 0 67 -27.5t27 -68.5q0 -40 -27.5 -67t-68.5 -27q-40 0 -67 27t-27 67q0 41 27.5 68.5t68.5 27.5z" />
    <glyph glyph-name="trademark" unicode="&#x2122;" horiz-adv-x="1744" 
d="M408 1217v-670h-191v670h-201v149h594v-149h-202zM918 1022v-475h-191v819h211l246 -479l248 479h210v-819h-190v475l-268 -510z" />
    <glyph glyph-name="uni2126" unicode="&#x2126;" horiz-adv-x="1363" 
d="M57 0v233h301q-158 98 -232.5 224.5t-74.5 296.5q0 133 49.5 252.5t133.5 205.5t201 136.5t247 50.5q174 0 319.5 -85.5t229.5 -234t84 -325.5q0 -170 -74.5 -296.5t-234.5 -224.5h303v-233h-547v215q63 35 101 68t73 84q106 149 106 338q0 194 -103 326t-255 132
t-256 -132t-104 -324q0 -341 280 -492v-215h-547z" />
    <glyph glyph-name="onethird" unicode="&#x2153;" horiz-adv-x="1611" 
d="M311 1139l-155 -78v160l336 163v-841h-181v596zM1296 1335l-901 -1362l-80 54l899 1359zM1260 668h-240v147h543l-238 -303q100 -9 161.5 -78t61.5 -170q0 -122 -83 -201t-210 -79q-73 0 -134.5 28.5t-98.5 79.5q-35 50 -45 139l162 7q8 -47 37 -74t75 -27q53 0 89 34
t36 83q0 51 -35 84t-92 33q-41 0 -78 -25l-102 82z" />
    <glyph glyph-name="twothirds" unicode="&#x2154;" horiz-adv-x="1611" 
d="M346 694h236v-151h-543l307 440q47 68 62.5 98t15.5 56q0 37 -26.5 60.5t-67.5 23.5q-54 0 -78 -31.5t-25 -104.5h-166v19q0 123 76 197.5t203 74.5q116 0 190 -62.5t74 -160.5q0 -58 -24 -115.5t-82 -134.5zM1298 1335l-901 -1362l-82 54l902 1359zM1262 668h-240v147
h543l-238 -303q100 -9 161.5 -78t61.5 -170q0 -122 -83 -201t-210 -79q-73 0 -134.5 28.5t-98.5 79.5q-35 50 -45 139l162 7q8 -47 37 -74t75 -27q53 0 89 34t36 83q0 51 -35 84t-92 33q-39 0 -77 -25l-103 82z" />
    <glyph glyph-name="oneeighth" unicode="&#x215b;" horiz-adv-x="1611" 
d="M311 1139l-155 -78v160l336 163v-841h-181v596zM1296 1335l-901 -1362l-80 54l899 1359zM1446 430q113 -53 113 -190q0 -112 -80.5 -184t-206.5 -72t-204.5 68.5t-78.5 178.5q0 145 117 199q-41 22 -65.5 66.5t-24.5 99.5q0 103 74.5 169t189.5 66q113 0 185.5 -65
t72.5 -166q0 -56 -24.5 -101.5t-67.5 -68.5zM1278 684q-43 0 -70.5 -25t-27.5 -63q0 -40 28.5 -67t69.5 -27q40 0 70 27.5t30 64.5t-29.5 63.5t-70.5 26.5zM1276 348q-47 0 -80 -30t-33 -74t32 -74.5t79 -30.5q46 0 78 30.5t32 74.5q0 43 -32 73.5t-76 30.5z" />
    <glyph glyph-name="threeeighths" unicode="&#x215c;" horiz-adv-x="1611" 
d="M324 1212h-240v148h543l-238 -303q100 -9 161.5 -78t61.5 -170q0 -122 -83 -201.5t-210 -79.5q-121 0 -192.5 64t-85.5 184l162 6q8 -47 37 -73.5t75 -26.5q53 0 89 34t36 83q0 51 -35 83.5t-90 32.5q-42 0 -79 -22l-103 80zM1296 1335l-901 -1362l-80 54l899 1359z
M1446 430q113 -55 113 -190q0 -112 -80.5 -184t-206.5 -72t-204.5 68.5t-78.5 178.5q0 145 117 199q-41 22 -65.5 66.5t-24.5 99.5q0 103 74.5 169t189.5 66q113 0 185.5 -65t72.5 -166q0 -56 -24.5 -101.5t-67.5 -68.5zM1278 684q-43 0 -70.5 -25t-27.5 -63q0 -40 28.5 -67
t69.5 -27q40 0 70 27.5t30 64.5t-29.5 63.5t-70.5 26.5zM1276 348q-47 0 -80 -30t-33 -74t32 -74.5t79 -30.5q46 0 78 30.5t32 74.5q0 43 -32 73.5t-76 30.5z" />
    <glyph glyph-name="fiveeighths" unicode="&#x215d;" horiz-adv-x="1611" 
d="M262 1206v-155q46 18 100 18q110 0 183 -74.5t73 -187.5q0 -123 -81.5 -202t-208.5 -79q-101 0 -168.5 48t-108.5 149l158 55q19 -48 46 -69t69 -21q51 0 84.5 33.5t33.5 83.5t-34.5 83.5t-85.5 33.5q-33 0 -57.5 -13.5t-51.5 -44.5h-115v496h453v-154h-289zM1296 1335
l-901 -1362l-80 54l899 1359zM1446 430q113 -55 113 -190q0 -112 -80.5 -184t-206.5 -72t-204.5 68.5t-78.5 178.5q0 145 117 199q-43 22 -67.5 66.5t-24.5 99.5q0 103 74.5 169t189.5 66q114 0 187 -65t73 -166q0 -56 -24.5 -101.5t-67.5 -68.5zM1278 684q-44 0 -72 -25
t-28 -63q0 -40 28.5 -67t69.5 -27t71.5 27.5t30.5 64.5q0 35 -30 62.5t-70 27.5zM1276 348q-47 0 -80 -30t-33 -74t32 -74.5t79 -30.5q46 0 78 30.5t32 74.5q0 43 -32 73.5t-76 30.5z" />
    <glyph glyph-name="seveneighths" unicode="&#x215e;" horiz-adv-x="1611" 
d="M373 1206h-273v154h525l-342 -817h-189zM1296 1335l-901 -1362l-80 54l899 1359zM1446 430q113 -55 113 -190q0 -112 -80.5 -184t-206.5 -72t-204.5 68.5t-78.5 178.5q0 145 117 199q-41 22 -65.5 66.5t-24.5 99.5q0 103 74.5 169t189.5 66q113 0 185.5 -65t72.5 -166
q0 -56 -24.5 -101.5t-67.5 -68.5zM1278 684q-43 0 -70.5 -25t-27.5 -63q0 -40 28.5 -67t69.5 -27q40 0 70 27.5t30 64.5t-29.5 63.5t-70.5 26.5zM1276 348q-47 0 -80 -30t-33 -74t32 -74.5t79 -30.5q46 0 78 30.5t32 74.5q0 43 -32 73.5t-76 30.5z" />
    <glyph glyph-name="arrowleft" unicode="&#x2190;" horiz-adv-x="1366" 
d="M1337 743v-104h-1024q31 -38 69 -114t38 -99q0 -12 -9 -20.5t-22 -8.5q-11 0 -19 6t-26 29q-52 61 -112 108t-158 105q-47 25 -47 41q0 13 5.5 20.5t26.5 18.5q125 76 177.5 118.5t119.5 121.5q18 18 33 18q13 0 22 -8.5t9 -22.5q0 -24 -32 -86t-75 -123h1024z" />
    <glyph glyph-name="arrowup" unicode="&#x2191;" horiz-adv-x="1366" 
d="M737 27h-104v1026q-38 -31 -114 -69t-99 -38q-12 0 -20.5 9t-8.5 22q0 10 5.5 17t29.5 28q62 53 110 114t101 156q25 47 43 47q13 0 20.5 -5.5t18.5 -26.5q76 -127 117 -178.5t120 -118.5q19 -16 19 -33q0 -13 -8.5 -22t-22.5 -9q-25 0 -86.5 32t-120.5 75v-1026z" />
    <glyph glyph-name="arrowright" unicode="&#x2192;" horiz-adv-x="1366" 
d="M27 635v104h1024q-31 40 -69 116t-38 99q0 12 9 20.5t22 8.5q11 0 19 -6t26 -29q53 -62 114.5 -111t155.5 -102q47 -25 47 -43q0 -13 -5.5 -20.5t-26.5 -18.5q-127 -76 -180 -118t-117 -119q-19 -19 -33 -19q-13 0 -22 8.5t-9 22.5q0 24 31.5 85t75.5 122h-1024z" />
    <glyph glyph-name="arrowdown" unicode="&#x2193;" horiz-adv-x="1366" 
d="M629 1337h104v-1024q39 32 114 69.5t99 37.5q12 0 20.5 -9t8.5 -22q0 -11 -6 -19t-29 -26q-61 -52 -109 -113.5t-102 -156.5q-25 -47 -43 -47q-13 0 -20.5 5.5t-18.5 26.5q-76 127 -117 178.5t-120 118.5q-19 16 -19 33q0 13 8.5 22t22.5 9q24 0 83.5 -31t123.5 -76v1024
z" />
    <glyph glyph-name="arrowboth" unicode="&#x2194;" horiz-adv-x="1366" 
d="M1051 635h-740q45 -60 77 -121t32 -86q0 -14 -9 -22.5t-22 -8.5q-11 0 -16 4t-24 25l-3 3t-2.5 3t-3.5 4q-57 66 -113 109.5t-180 116.5q-20 11 -20 30q0 18 47 41q94 54 154.5 102t115.5 111q18 23 26 29t19 6q13 0 22 -8.5t9 -20.5q0 -23 -38 -97t-71 -116h740
q-31 38 -69 114t-38 99q0 12 9 20.5t22 8.5q11 0 19 -6t26 -29q53 -62 112.5 -109t157.5 -104q47 -23 47 -41q0 -13 -5.5 -20.5t-26.5 -18.5q-126 -75 -178.5 -117t-118.5 -120q-16 -19 -33 -19q-13 0 -22 8.5t-9 22.5q0 24 31.5 85t75.5 122z" />
    <glyph glyph-name="arrowupdn" unicode="&#x2195;" horiz-adv-x="1366" 
d="M737 1053v-742q60 46 121 78.5t86 32.5q14 0 22.5 -9t8.5 -22q0 -11 -4 -16t-25 -24l-3 -3t-3 -2.5t-4 -3.5q-67 -59 -110 -115t-115 -180q-11 -20 -31 -20q-18 0 -41 47q-55 95 -103.5 157.5t-109.5 112.5q-23 20 -29 28t-6 19q0 13 8.5 22t20.5 9q24 0 99 -39t114 -72
v742q-38 -31 -114 -69t-99 -38q-12 0 -20.5 9t-8.5 22q0 11 6 19t29 26q61 52 109 113t104 157q23 47 41 47q13 0 20.5 -5.5t18.5 -26.5q76 -127 117 -178.5t120 -118.5q19 -16 19 -33q0 -13 -8.5 -22t-22.5 -9q-25 0 -86.5 32t-120.5 75z" />
    <glyph glyph-name="arrowupdnbse" unicode="&#x21a8;" horiz-adv-x="1366" 
d="M737 1053v-742q60 46 121 78.5t86 32.5q14 0 22.5 -9t8.5 -22q0 -11 -4 -16t-25 -24l-3 -3t-3 -2.5t-4 -3.5q-67 -59 -110 -115t-115 -180q-11 -20 -31 -20q-16 0 -43 47q-96 175 -211 270q-23 20 -29 28t-6 19q0 13 8.5 22t20.5 9q23 0 97.5 -38.5t115.5 -72.5v742
q-38 -31 -114 -69t-99 -38q-12 0 -20.5 9t-8.5 22q0 11 6 19t29 26q61 52 109 113t104 157q23 47 41 47q13 0 20.5 -5.5t18.5 -26.5q76 -127 117 -178.5t120 -118.5q19 -16 19 -33q0 -13 -8.5 -22t-22.5 -9q-25 0 -86.5 32t-120.5 75zM412 -139h540v-88h-540v88z" />
    <glyph glyph-name="partialdiff" unicode="&#x2202;" 
d="M133 1155l31 209q196 -23 326.5 -73.5t234.5 -143.5q256 -229 256 -623q0 -212 -88 -342q-64 -97 -163.5 -148.5t-219.5 -51.5q-200 0 -333.5 132.5t-133.5 331.5q0 186 119.5 313.5t294.5 127.5q85 0 139 -22t123 -85q-15 30 -25 45q-42 90 -98.5 147.5t-136.5 92.5
q-101 46 -162 63t-164 27zM518 688q-100 0 -168.5 -72t-68.5 -178q0 -100 67.5 -172.5t161.5 -72.5q97 0 163 72.5t66 178.5q0 103 -63.5 173.5t-157.5 70.5z" />
    <glyph glyph-name="emptyset" unicode="&#x2205;" horiz-adv-x="1265" 
d="M899 1366l98 -51l-98 -180q231 -164 231 -418q0 -137 -67 -251.5t-183.5 -180.5t-256.5 -66q-95 0 -162 33l-129 -252l-99 51l125 250q-221 164 -221 414q0 137 66.5 251.5t181.5 180t252 65.5q81 0 166 -28zM852 1028l-338 -676q65 -16 119 -16q158 0 270.5 111
t112.5 268q0 97 -44.5 182t-119.5 131zM410 406l340 673q-61 17 -111 17q-160 0 -273.5 -111t-113.5 -268q0 -183 158 -311z" />
    <glyph glyph-name="Delta" unicode="&#x2206;" horiz-adv-x="1316" 
d="M16 0l502 1366h279l506 -1366h-1287zM358 233h596l-295 850z" />
    <glyph glyph-name="product" unicode="&#x220f;" horiz-adv-x="1366" 
d="M41 1536h1282v-215h-147v-1618h147v-215h-526v215h139v1618h-508v-1618h137v-215h-524v215h149v1618h-149v215z" />
    <glyph glyph-name="summation" unicode="&#x2211;" horiz-adv-x="1366" 
d="M1264 1536v-512h-242l-29 264h-624l499 -741l-495 -813h639l16 274h254v-520h-1212v283l481 774l-481 706v285h1194z" />
    <glyph glyph-name="minus" unicode="&#x2212;" 
d="M25 795h972v-136h-972v136z" />
    <glyph glyph-name="uni2218" unicode="&#x2218;" 
d="M518 983q114 0 195.5 -84t81.5 -201q0 -120 -82 -203t-199 -83t-200 83.5t-83 200.5q0 120 83.5 203.5t203.5 83.5zM516 885q-78 0 -133 -55t-55 -134q0 -76 55 -131t131 -55t130 54.5t54 131.5q0 76 -54 132.5t-128 56.5z" />
    <glyph glyph-name="radical" unicode="&#x221a;" horiz-adv-x="1366" 
d="M1366 1694v-221h-354l-391 -1473h-310l-133 541h-178v221h332l61 -232q13 -48 49 -288h15q42 236 64.5 335t84.5 330l209 787h551z" />
    <glyph glyph-name="infinity" unicode="&#x221e;" horiz-adv-x="1366" 
d="M688 573q-146 -198 -332 -198q-141 0 -230 90t-89 233q0 138 90 228t229 90q184 0 324 -197q138 197 332 197q139 0 228 -90.5t89 -231.5q0 -140 -88.5 -229.5t-226.5 -89.5q-189 0 -326 198zM776 696q54 -81 104 -117t107 -36q65 0 107.5 43.5t42.5 109.5
q0 64 -43.5 108t-108.5 44q-57 0 -104.5 -34.5t-104.5 -117.5zM590 694q-54 81 -104 117.5t-107 36.5q-64 0 -107 -44t-43 -110q0 -64 43.5 -107.5t108.5 -43.5q57 0 104.5 34.5t104.5 116.5z" />
    <glyph glyph-name="orthogonal" unicode="&#x221f;" horiz-adv-x="692" 
d="M33 1044h626v-178h-626v178z" />
    <glyph glyph-name="intersection" unicode="&#x2229;" horiz-adv-x="1245" 
d="M1176 0h-269v629q-3 202 -10.5 259.5t-36.5 104.5q-35 60 -99.5 95.5t-137.5 35.5q-82 0 -150 -41t-100 -110q-35 -77 -35 -344v-629h-268v623q0 256 17.5 353.5t78.5 178.5q77 103 194 157t263 54q160 0 285.5 -65t197.5 -185q42 -71 56 -169t14 -324v-623z" />
    <glyph glyph-name="union" unicode="&#x222a;" horiz-adv-x="1245" 
d="M70 1366h268v-629q0 -162 10.5 -240.5t36.5 -123.5q35 -60 99.5 -95.5t138.5 -35.5q82 0 149.5 41t99.5 110q35 77 35 344v629h269v-623q0 -177 -7.5 -268.5t-27 -149t-62.5 -114.5q-77 -103 -193.5 -157t-262.5 -54q-159 0 -285.5 65t-198.5 185q-41 71 -55 169t-14 324
v623z" />
    <glyph glyph-name="integral" unicode="&#x222b;" 
d="M115 -492l47 254q46 -20 86 -20q39 0 68.5 19t41.5 51q8 21 9.5 50t1.5 163v925q1 211 3.5 255.5t16.5 99.5q29 107 123.5 169t228.5 62q71 0 168 -20l-47 -254q-46 20 -88 20q-83 0 -108 -70q-11 -28 -11 -127v-1003q0 -214 -2.5 -258t-19.5 -103q-29 -112 -126 -170.5
t-251 -58.5q-92 0 -141 16z" />
    <glyph glyph-name="uni222E" unicode="&#x222e;" 
d="M113 -489l47 251q59 -20 102 -20q40 0 69 19t40 51q10 25 10 135v184q-127 26 -214 142t-87 257q0 145 83 255t218 145v182q0 102 14 167.5t47 115.5q88 141 285 141q75 0 182 -20l-47 -254q-59 20 -106 20q-83 0 -105 -70q-10 -25 -10 -110v-172q93 -23 152 -72
q71 -59 111 -146t40 -182q0 -145 -85.5 -257.5t-217.5 -143.5v-197q0 -123 -11.5 -184t-45.5 -115q-45 -76 -120.5 -110.5t-193.5 -34.5q-81 0 -157 23zM641 805v-547q86 32 133 103.5t47 168.5t-50 173.5t-130 101.5zM381 258v547q-80 -28 -129 -103t-49 -170
q0 -94 50 -171t128 -103z" />
    <glyph glyph-name="uni2236" unicode="&#x2236;" horiz-adv-x="843" 
d="M422 1169q44 0 75 -31.5t31 -74.5q0 -44 -31.5 -76.5t-74.5 -32.5q-44 0 -76.5 32t-32.5 75q0 46 31.5 77t77.5 31zM422 522q43 0 74.5 -31.5t31.5 -74.5q0 -44 -32 -76.5t-76 -32.5q-43 0 -75 32t-32 75q0 45 32 76.5t77 31.5z" />
    <glyph glyph-name="similar" unicode="&#x223c;" 
d="M158 489l-140 117q113 271 301 271q70 0 232 -72q85 -37 110.5 -46t51.5 -9q46 0 81.5 30t73.5 101l140 -115q-38 -91 -71.5 -138t-82.5 -81q-76 -51 -158 -51q-41 0 -81 13t-154 64q-105 48 -154 48q-42 0 -76 -30.5t-73 -101.5z" />
    <glyph glyph-name="approxequal" unicode="&#x2248;" 
d="M158 713l-140 98q110 270 301 270q75 0 232 -71q88 -37 112.5 -45.5t51.5 -8.5q45 0 75 22.5t78 90.5l140 -96q-61 -146 -134 -207t-186 -61q-42 0 -80.5 12t-146.5 61q-103 47 -154 47q-42 0 -74.5 -24t-74.5 -88zM158 285l-140 98q113 270 301 270q73 0 232 -71
q86 -37 111 -45.5t51 -8.5q47 0 78 22.5t77 90.5l140 -96q-62 -146 -135 -207.5t-187 -61.5q-40 0 -77.5 12.5t-147.5 61.5q-103 47 -154 47q-42 0 -74.5 -24t-74.5 -88z" />
    <glyph glyph-name="notequal" unicode="&#x2260;" 
d="M532 965l138 262l178 -92l-90 -170h198v-236h-294l-89 -166h381v-235h-469l-123 -236l-178 92l76 144h-192v235h280l88 166h-368v236h464z" />
    <glyph glyph-name="equivalence" unicode="&#x2261;" 
d="M68 1206h886v-248h-886v248zM68 807h886v-248h-886v248zM68 408h886v-248h-886v248z" />
    <glyph glyph-name="lessequal" unicode="&#x2264;" 
d="M954 1303v-265l-579 -194l579 -195v-264l-886 340v238zM954 330v-248h-886v248h886z" />
    <glyph glyph-name="greaterequal" unicode="&#x2265;" 
d="M68 385v264l577 195l-577 194v265l886 -340v-238zM68 82v248h886v-248h-886z" />
    <glyph glyph-name="dotmath" unicode="&#x22c5;" horiz-adv-x="534" 
d="M270 657q65 0 107.5 -43t42.5 -110q0 -64 -43.5 -107t-108.5 -43q-66 0 -108.5 43t-42.5 109t43 108.5t110 42.5z" />
    <glyph glyph-name="house" unicode="&#x2302;" horiz-adv-x="1538" 
d="M172 0v821l596 672l598 -672v-821h-1194zM276 104h986v672l-494 553l-492 -553v-672z" />
    <glyph glyph-name="revlogicalnot" unicode="&#x2310;" 
d="M342 0h-274v590h886v-248h-612v-342z" />
    <glyph glyph-name="uni2319" unicode="&#x2319;" 
d="M342 590v-342h612v-248h-886v590h274z" />
    <glyph glyph-name="integraltp" unicode="&#x2320;" 
d="M655 -512h-286v1462q1 211 3.5 255.5t16.5 99.5q29 107 123.5 169t228.5 62q71 0 168 -20l-47 -254q-46 20 -88 20q-83 0 -108 -70q-11 -32 -11 -127v-1597z" />
    <glyph glyph-name="integralbt" unicode="&#x2321;" 
d="M369 1536h286v-1462q0 -211 -2.5 -255t-17.5 -100q-29 -107 -123.5 -169t-228.5 -62q-70 0 -168 20l47 254q46 -20 88 -20q83 0 108 70q11 28 11 127v1597z" />
    <glyph glyph-name="filledbox" unicode="&#x25a0;" horiz-adv-x="1366" 
d="M1366 0h-1366v1366h1366v-1366z" />
    <glyph glyph-name="uni25A1" unicode="&#x25a1;" horiz-adv-x="1366" 
d="M1366 0h-1366v1366h1366v-1366zM1270 96v1174h-1174v-1174h1174z" />
    <glyph glyph-name="H18551" unicode="&#x25ab;" horiz-adv-x="692" 
d="M33 1044h219v211h190v-211h217v-178h-217v-213h-190v213h-219v178z" />
    <glyph glyph-name="filledrect" unicode="&#x25ac;" horiz-adv-x="1366" 
d="M1366 682v-682h-1366v682h1366z" />
    <glyph glyph-name="uni25AE" unicode="&#x25ae;" horiz-adv-x="1366" 
d="M1024 0h-682v1366h682v-1366z" />
    <glyph glyph-name="uni25AF" unicode="&#x25af;" horiz-adv-x="1366" 
d="M684 1206q108 0 206.5 -41.5t170 -111t114 -166.5t42.5 -203q0 -107 -42.5 -204.5t-114 -168t-170 -112t-206.5 -41.5q-224 0 -379 154t-155 378q0 139 72 258t195 188.5t267 69.5z" />
    <glyph glyph-name="triagup" unicode="&#x25b2;" horiz-adv-x="1366" 
d="M1296 137h-1228l614 1149z" />
    <glyph glyph-name="uni25B4" unicode="&#x25b4;" 
d="M954 301h-886l444 829z" />
    <glyph glyph-name="uni25B8" unicode="&#x25b8;" 
d="M145 244v886l830 -444z" />
    <glyph glyph-name="triagdn" unicode="&#x25bc;" horiz-adv-x="1366" 
d="M68 1229h1228l-614 -1149z" />
    <glyph glyph-name="uni25BE" unicode="&#x25be;" 
d="M68 1065h886l-442 -829z" />
    <glyph glyph-name="uni25C2" unicode="&#x25c2;" 
d="M877 1130v-886l-830 442z" />
    <glyph glyph-name="lozenge" unicode="&#x25ca;" horiz-adv-x="1366" 
d="M684 1419l530 -735l-530 -737l-532 737zM684 1237l-403 -553l403 -555l403 555z" />
    <glyph glyph-name="circle" unicode="&#x25cb;" horiz-adv-x="1366" 
d="M684 1206q108 0 206.5 -41.5t170 -111t114 -166.5t42.5 -203q0 -107 -42.5 -204.5t-114 -168t-170 -112t-206.5 -41.5q-224 0 -379 154t-155 378q0 139 72 258t195 188.5t267 69.5zM684 1112q-180 0 -309 -125.5t-129 -298.5q0 -183 127 -309.5t311 -126.5q180 0 308 127
t128 305q0 177 -128 302.5t-308 125.5z" />
    <glyph glyph-name="invbullet" unicode="&#x25d8;" horiz-adv-x="1366" 
d="M0 0v1366h1366v-1366h-1366zM688 969q-121 0 -204 -82.5t-83 -202.5q0 -119 83 -203t200 -84t199 84t82 203q0 117 -81.5 201t-195.5 84z" />
    <glyph glyph-name="invcircle" unicode="&#x25d9;" horiz-adv-x="1366" 
d="M1366 0h-1366v1366h1366v-1366zM684 1208q-144 0 -267 -69.5t-195 -188.5t-72 -258q0 -224 155 -379t379 -155q108 0 206.5 42t170 112.5t114 168t42.5 203.5t-42.5 203.5t-114 167.5t-170 111.5t-206.5 41.5zM684 1112q180 0 308 -125.5t128 -302.5q0 -178 -128 -305
t-308 -127q-184 0 -311 126.5t-127 309.5q0 173 129 298.5t309 125.5z" />
    <glyph glyph-name="openbullet" unicode="&#x25e6;" 
d="M518 983q114 0 195.5 -84t81.5 -201q0 -120 -82 -203t-199 -83t-200 83.5t-83 200.5q0 120 83.5 203.5t203.5 83.5zM516 885q-78 0 -133 -55t-55 -134q0 -76 55 -131t131 -55t130 54.5t54 131.5q0 76 -54 132.5t-128 56.5z" />
    <glyph glyph-name="smileface" unicode="&#x263a;" horiz-adv-x="1366" 
d="M694 1331q127 0 245 -52t203.5 -139t137 -206.5t51.5 -249.5q0 -176 -87 -325.5t-236 -236.5t-324 -87q-133 0 -253 51.5t-207 139t-138 208.5t-51 254q0 175 87.5 323t239.5 234t332 86zM692 1245q-258 0 -426 -186q-69 -76 -107 -173.5t-38 -197.5q0 -155 75 -285.5
t204.5 -206t283.5 -75.5q153 0 282.5 75.5t205 205t75.5 282.5q0 150 -75.5 279.5t-203.5 205.5t-276 76zM494 954q35 0 61.5 -26.5t26.5 -63.5t-26.5 -63.5t-63.5 -26.5t-64 26.5t-27 63.5q0 38 27 64t66 26zM889 954q35 0 61.5 -26.5t26.5 -63.5t-26.5 -63.5t-63.5 -26.5
t-63.5 26.5t-26.5 63.5q0 38 27 64t65 26zM1106 762q-7 -123 -29.5 -194.5t-72.5 -135.5q-116 -143 -320 -143q-224 0 -336 168q-41 59 -59 123.5t-27 181.5q15 -66 32.5 -103t53.5 -79q126 -144 336 -144q209 0 338 144q35 42 52 79t32 103z" />
    <glyph glyph-name="invsmileface" unicode="&#x263b;" horiz-adv-x="1366" 
d="M694 1331q127 0 245 -52t203.5 -139t137 -206.5t51.5 -249.5q0 -176 -87 -325.5t-236 -236.5t-324 -87q-133 0 -253 51.5t-207 139t-138 208.5t-51 254q0 132 52 251t139.5 205t210 136.5t257.5 50.5zM492 954q-37 0 -64 -26t-27 -64q0 -37 26.5 -63.5t64.5 -26.5
q37 0 62.5 26.5t25.5 63.5t-26.5 63.5t-61.5 26.5zM889 954q-38 0 -65 -26t-27 -64t26.5 -65t63.5 -27t63.5 27t26.5 65q0 37 -26.5 63.5t-61.5 26.5zM1106 762q-15 -65 -32.5 -102.5t-51.5 -77.5q-128 -146 -338 -146q-211 0 -336 146q-35 40 -53 77t-33 103
q9 -125 31.5 -196t73.5 -134q116 -143 317 -143q227 0 338 170q40 61 58.5 125.5t25.5 177.5z" />
    <glyph glyph-name="sun" unicode="&#x263c;" horiz-adv-x="1366" 
d="M326 967l-154 153l72 72l153 -154q103 83 234 99v215h102v-215q135 -16 232 -97l153 152l72 -72l-152 -151q79 -101 97 -234h215v-104h-215q-18 -129 -97 -234l152 -151l-72 -72l-153 152q-106 -83 -232 -97v-215h-102v215q-120 12 -234 97l-153 -152l-72 72l152 151
q-83 107 -95 234h-215v104h215q13 123 97 232zM688 1010q-139 0 -236.5 -94.5t-97.5 -229.5q0 -137 96 -233.5t232 -96.5q135 0 230.5 96.5t95.5 231.5q0 132 -95 229t-225 97z" />
    <glyph glyph-name="female" unicode="&#x2640;" horiz-adv-x="1366" 
d="M631 428v215q-139 22 -228.5 127t-89.5 246q0 155 107.5 265t259.5 110q154 0 262.5 -110t108.5 -265q0 -142 -90.5 -246.5t-231.5 -126.5v-215h334v-88h-334v-340h-98v340h-330v88h330zM686 1294q-117 0 -196.5 -80.5t-79.5 -197.5q0 -114 80 -195.5t192 -81.5
q114 0 193 81.5t79 195.5t-79 196t-189 82z" />
    <glyph glyph-name="male" unicode="&#x2642;" horiz-adv-x="1366" 
d="M1167 1022l-311 -309q74 -103 74 -226q0 -154 -108.5 -263t-260.5 -109t-260 109.5t-108 264.5q0 154 108 263.5t260 109.5q124 0 230 -80l309 310q-41 9 -107.5 34t-109.5 48q-43 22 -43 47q0 10 7.5 17t18.5 7q6 0 41 -6q85 -18 170 -18q72 0 113.5 5t101.5 23l21 2
q20 0 20 -20q0 -8 -10 -47q-20 -81 -20 -178q0 -87 18 -172q6 -35 6 -41q0 -11 -7 -19t-17 -8q-14 0 -21.5 7t-26.5 36q-28 40 -52.5 100t-35.5 113zM565 766q-117 0 -196.5 -80t-79.5 -197q0 -114 80 -195t192 -81q114 0 193.5 80.5t79.5 195.5q0 114 -79.5 195.5
t-189.5 81.5z" />
    <glyph glyph-name="spade" unicode="&#x2660;" horiz-adv-x="1366" 
d="M221 0v37q143 28 209 59t129 101q56 65 83 142.5t32 182.5l-16 -34t-11 -23q-40 -68 -114.5 -110t-155.5 -42q-100 0 -173 76t-73 180q0 87 51 169.5t162 176.5q290 236 336 490q29 -88 49.5 -137t56 -102t79 -97.5t124.5 -118.5q150 -136 199 -211.5t49 -171.5
q0 -106 -73 -179t-177 -73q-89 0 -158 50t-129 157q12 -221 120 -334t343 -151v-37h-942z" />
    <glyph glyph-name="club" unicode="&#x2663;" horiz-adv-x="1366" 
d="M1149 0h-932v37q230 32 340.5 160.5t112.5 363.5q-42 -72 -70 -106q-56 -71 -136.5 -112.5t-162.5 -41.5q-122 0 -208.5 91t-86.5 220q0 126 78 213.5t192 87.5q36 0 66 -8.5t80 -34.5q13 -5 31 -16q-72 110 -72 205q0 122 88.5 207.5t214.5 85.5q125 0 213 -86t88 -207
q0 -95 -72 -205q83 41 110 50t67 9q114 0 192 -87.5t78 -213.5q0 -130 -87 -220.5t-212 -90.5q-75 0 -154 39t-133 102q-34 45 -78 119q3 -133 30 -217.5t91 -155.5q63 -66 126.5 -94.5t205.5 -56.5v-37z" />
    <glyph glyph-name="heart" unicode="&#x2665;" horiz-adv-x="1366" 
d="M680 -23q-34 136 -107.5 263t-273.5 395q-111 151 -147.5 230.5t-36.5 168.5q0 115 77 195t187 80q73 0 138 -37t108 -103q27 -39 55 -127q37 132 114 200.5t187 68.5q112 0 191 -79t79 -190q0 -103 -49.5 -206t-175.5 -263q-152 -191 -235 -333.5t-111 -262.5z" />
    <glyph glyph-name="diamond" unicode="&#x2666;" horiz-adv-x="1366" 
d="M682 1419q45 -96 227.5 -353.5t292.5 -381.5q-145 -172 -289 -376.5t-231 -360.5q-64 123 -206.5 325t-311.5 412q205 257 320.5 421t197.5 314z" />
    <glyph glyph-name="musicalnote" unicode="&#x266a;" horiz-adv-x="1366" 
d="M627 319v1047h94v-125q29 -36 31 -37l106 -129q186 -220 186 -461q0 -188 -116 -331h-58q68 160 68 305q0 132 -64 237t-153 117v-623q0 -148 -87.5 -242.5t-223.5 -94.5q-66 0 -104 33t-38 91q0 93 75 164.5t173 71.5q57 0 111 -23z" />
    <glyph glyph-name="uni266C" unicode="&#x266c;" horiz-adv-x="1366" 
d="M1262 1421v-1028q0 -95 -35 -166q-38 -78 -113.5 -124t-163.5 -46q-66 0 -102.5 32.5t-36.5 90.5q0 94 74.5 165t171.5 71q56 0 110 -23v553l-673 -184v-483q0 -146 -87.5 -240t-224.5 -94q-66 0 -103.5 32.5t-37.5 90.5q0 91 75 161t173 70q52 0 110 -20v923zM494 918
l673 184v143l-673 -184v-143z" />
    <glyph glyph-name="dotlessj" unicode="&#xf6be;" horiz-adv-x="518" 
d="M389 948v-979q0 -210 -90 -303q-94 -102 -279 -102q-40 0 -69 2v237h39q66 0 102.5 44t36.5 122v979h260z" />
    <glyph glyph-name="commaaccent" unicode="&#xf6c3;" 
d="M623 -119v-117q0 -121 -45.5 -167t-192.5 -74v86q12 6 16 6l62 14q52 16 55 90h-119v162h224z" />
    <glyph glyph-name="Acute" unicode="&#xf6c9;" 
d="M569 1759h269l-283 -272h-178z" />
    <glyph glyph-name="Caron" unicode="&#xf6ca;" 
d="M510 1622l162 139h182l-231 -274h-236l-217 274h182z" />
    <glyph glyph-name="Dieresis" unicode="&#xf6cb;" 
d="M295 1782q58 0 98.5 -42t40.5 -102q0 -57 -41.5 -98t-99.5 -41q-59 0 -100 41.5t-41 99.5q0 59 41.5 100.5t101.5 41.5zM731 1782q58 0 98.5 -42t40.5 -102q0 -57 -41.5 -98t-99.5 -41q-59 0 -100 41.5t-41 99.5q0 59 41.5 100.5t101.5 41.5z" />
    <glyph glyph-name="Grave" unicode="&#xf6ce;" 
d="M455 1759l192 -272h-178l-283 272h269z" />
    <glyph glyph-name="Hungarumlaut" unicode="&#xf6cf;" 
d="M391 1757h236l-248 -270h-154zM752 1757h237l-248 -270h-155z" />
    <glyph glyph-name="Macron" unicode="&#xf6d0;" 
d="M311 1573v113h402v-113h-402z" />
    <glyph glyph-name="commasuperior" unicode="&#xf6e2;" horiz-adv-x="348" 
d="M291 686l-115 -303l-117 27l76 313z" />
    <glyph glyph-name="periodsuperior" unicode="&#xf6e8;" horiz-adv-x="348" 
d="M174 727q43 0 70.5 -28t27.5 -72q0 -41 -28.5 -69t-69.5 -28q-43 0 -70.5 28t-27.5 71t27.5 70.5t70.5 27.5z" />
    <glyph glyph-name="Dbreve" horiz-adv-x="1312" 
d="M143 0v1366h387q166 0 283.5 -36.5t208.5 -115.5q215 -190 215 -516q0 -165 -56.5 -305.5t-160.5 -234.5q-175 -158 -473 -158h-404zM424 1139v-908h53q113 0 187.5 22t134.5 73q74 63 113.5 157t39.5 207q0 204 -116 326.5t-310 122.5h-102zM303 1751h182
q34 -57 71.5 -79.5t100.5 -22.5q62 0 100 22.5t72 79.5h181q-37 -124 -128 -190t-225 -66q-135 0 -225.5 65.5t-128.5 190.5z" />
    <glyph glyph-name="Adotaccent" horiz-adv-x="1294" 
d="M907 236h-524l-82 -236h-297l471 1366h350l467 -1366h-307zM834 465l-189 565l-190 -565h379zM649 1782q58 0 98.5 -42t40.5 -102q0 -57 -41.5 -98t-99.5 -41q-59 0 -100 41.5t-41 99.5q0 59 41.5 100.5t101.5 41.5z" />
    <glyph glyph-name="Fdotaccent" horiz-adv-x="956" 
d="M424 1137v-336h479v-230h-479v-571h-281v1366h760v-229h-479zM479 1782q58 0 98.5 -42t40.5 -102q0 -57 -41.5 -98t-99.5 -41q-59 0 -100 41.5t-41 99.5q0 59 41.5 100.5t101.5 41.5z" />
    <glyph glyph-name="ahungarumlaut" horiz-adv-x="1243" 
d="M856 827v121h260v-948h-260v131q-66 -85 -146 -124.5t-184 -39.5q-199 0 -327.5 139.5t-128.5 356.5q0 224 135 371t342 147q96 0 168 -36t141 -118zM600 762q-111 0 -181.5 -82.5t-70.5 -212.5q0 -124 72 -207.5t178 -83.5q109 0 185.5 88t76.5 211q0 126 -72.5 206.5
t-187.5 80.5zM498 1370h231l-233 -278h-140zM854 1370h231l-235 -278h-139z" />
    <glyph glyph-name="adotaccent" horiz-adv-x="1243" 
d="M856 827v121h260v-948h-260v131q-66 -85 -146 -124.5t-184 -39.5q-199 0 -327.5 139.5t-128.5 356.5q0 224 135 371t342 147q96 0 168 -36t141 -118zM600 762q-111 0 -181.5 -82.5t-70.5 -212.5q0 -124 72 -207.5t178 -83.5q109 0 185.5 88t76.5 211q0 126 -72.5 206.5
t-187.5 80.5zM623 1378q58 0 96.5 -39.5t38.5 -99.5q0 -57 -40 -96t-97 -39q-59 0 -98.5 39.5t-39.5 97.5q0 59 40 98t100 39z" />
    <glyph glyph-name="one.numerator" horiz-adv-x="473" 
d="M217 1212l-108 -53v109l235 112v-575h-127v407z" />
    <glyph glyph-name="two.numerator" horiz-adv-x="473" 
d="M242 909h164v-102h-379l215 299q33 47 43 66.5t10 37.5q0 26 -18.5 42t-47.5 16q-38 0 -53.5 -20.5t-17.5 -71.5h-115q-1 94 50 146t143 52q82 0 134 -43t52 -110q0 -38 -17 -76t-59 -94z" />
    <glyph glyph-name="three.numerator" horiz-adv-x="473" 
d="M227 1262h-168v100h381l-168 -207q70 -7 113 -54t43 -116q0 -82 -58 -136t-147 -54q-85 0 -134 43t-60 125l114 4q4 -32 25 -50t53 -18q37 0 61.5 23t24.5 57q0 35 -24.5 57.5t-61.5 22.5q-29 0 -55 -17l-72 56z" />
    <glyph glyph-name="four.numerator" horiz-adv-x="473" 
d="M260 920h-221v94l215 348h127v-344h55v-98h-55v-115h-121v115zM266 1016v205l-121 -205h121z" />
    <glyph glyph-name="five.numerator" horiz-adv-x="473" 
d="M184 1257v-106q38 12 70 12q77 0 128.5 -51t51.5 -127q0 -85 -57 -138.5t-146 -53.5q-71 0 -118 32.5t-76 102.5l108 37q14 -33 33 -47.5t49 -14.5q35 0 59.5 23t24.5 57t-24.5 57t-59.5 23q-25 0 -41.5 -8.5t-35.5 -30.5h-80v338h317v-105h-203z" />
    <glyph glyph-name="six.numerator" horiz-adv-x="473" 
d="M397 1362l-151 -215q10 2 20 2q72 0 122 -48.5t50 -117.5q0 -78 -60 -133t-145 -55q-84 0 -140 51.5t-56 128.5q0 72 67 168l150 219h143zM240 1053q-35 0 -59.5 -22t-24.5 -54q0 -31 23 -52.5t57 -21.5q35 0 59 21.5t24 52.5q0 32 -22.5 54t-56.5 22z" />
    <glyph glyph-name="seven.numerator" horiz-adv-x="473" 
d="M260 1257h-190v105h366l-239 -557h-131z" />
    <glyph glyph-name="eight.numerator" horiz-adv-x="473" 
d="M356 1100q80 -39 80 -129q0 -78 -56 -127t-144 -49q-89 0 -144 47.5t-55 122.5q0 96 82 135q-29 15 -46.5 45t-17.5 67q0 71 52 116.5t133 45.5q80 0 131 -44t51 -113q0 -80 -66 -117zM240 1274q-31 0 -50.5 -17t-19.5 -45q0 -26 20 -44.5t48 -18.5q29 0 50 18.5t21 44.5
q0 25 -20.5 43.5t-48.5 18.5zM238 1044q-34 0 -57 -20t-23 -51t22.5 -51.5t57.5 -20.5q32 0 54.5 20.5t22.5 51.5q0 29 -22.5 50t-54.5 21z" />
    <glyph glyph-name="nine.numerator" horiz-adv-x="473" 
d="M82 805l149 215q-6 -2 -14 -2q-76 0 -128 49t-52 121q0 78 59 132t146 54q85 0 140.5 -52t55.5 -132q0 -72 -65 -166l-150 -219h-141zM240 1266q-34 0 -58 -21.5t-24 -52.5t23 -52.5t57 -21.5q35 0 58 21t23 53q0 31 -22.5 52.5t-56.5 21.5z" />
    <glyph glyph-name="zero.numerator" horiz-adv-x="473" 
d="M430 1192v-213q0 -90 -48.5 -137t-141.5 -47q-98 0 -148 47q-26 25 -36.5 60.5t-10.5 101.5v174q0 103 43 143q50 53 148 53q93 0 143.5 -47.5t50.5 -134.5zM172 1178v-187q0 -51 15 -70.5t53 -19.5q35 0 50 21t15 69v193q0 43 -16 62.5t-51 19.5t-50.5 -20.5
t-15.5 -67.5z" />
    <glyph glyph-name="one.denominator" horiz-adv-x="473" 
d="M217 406l-108 -52v109l235 112v-575h-127v406z" />
    <glyph glyph-name="two.denominator" horiz-adv-x="473" 
d="M242 102h164v-102h-379l215 301q33 46 43 66t10 39q0 25 -18.5 40t-47.5 15q-38 0 -53.5 -20t-17.5 -70h-115q-1 92 50 144t143 52q82 0 134 -42.5t52 -108.5q0 -38 -17 -76t-59 -94z" />
    <glyph glyph-name="three.denominator" horiz-adv-x="473" 
d="M227 457h-168v100h381l-168 -207q70 -7 113 -54t43 -116q0 -82 -58 -136t-147 -54q-85 0 -134 43t-60 125l114 4q4 -32 25 -50t53 -18q37 0 61.5 23t24.5 57q0 35 -24.5 57.5t-61.5 22.5q-34 0 -55 -16l-72 55z" />
    <glyph glyph-name="four.denominator" horiz-adv-x="473" 
d="M260 113h-221v94l215 350h127v-344h55v-100h-55v-113h-121v113zM266 209v207l-121 -207h121z" />
    <glyph glyph-name="five.denominator" horiz-adv-x="473" 
d="M184 453v-107q37 12 70 12q77 0 128.5 -51t51.5 -127q0 -83 -57 -136.5t-146 -53.5q-72 0 -118.5 32t-75.5 101l108 37q14 -33 33 -47.5t49 -14.5q35 0 59.5 23t24.5 57t-24.5 57t-59.5 23q-25 0 -41.5 -8.5t-35.5 -30.5h-80v338h317v-104h-203z" />
    <glyph glyph-name="six.denominator" horiz-adv-x="473" 
d="M397 557l-151 -215q10 2 20 2q72 0 122 -48.5t50 -117.5q0 -78 -60 -133t-145 -55q-84 0 -140 51.5t-56 128.5q0 72 67 168l150 219h143zM240 248q-35 0 -59.5 -22t-24.5 -54q0 -31 23 -52.5t57 -21.5q35 0 59 21.5t24 52.5q0 32 -22.5 54t-56.5 22z" />
    <glyph glyph-name="seven.denominator" horiz-adv-x="473" 
d="M260 453h-190v104h366l-239 -557h-131z" />
    <glyph glyph-name="eight.denominator" horiz-adv-x="473" 
d="M356 293q80 -36 80 -129q0 -76 -56 -125t-144 -49t-143.5 47t-55.5 121q0 99 82 135q-29 15 -46.5 45.5t-17.5 67.5q0 71 51.5 116t133.5 45q80 0 131 -44t51 -113q0 -80 -66 -117zM240 467q-31 0 -50.5 -16.5t-19.5 -44.5q0 -26 20 -45t48 -19q29 0 50 19t21 45
q0 25 -20.5 43t-48.5 18zM238 238q-34 0 -57 -20.5t-23 -51.5q0 -30 22.5 -50t57.5 -20q32 0 54.5 20.5t22.5 49.5t-22.5 50.5t-54.5 21.5z" />
    <glyph glyph-name="nine.denominator" horiz-adv-x="473" 
d="M82 0l149 215q-6 -2 -14 -2q-76 0 -128 49t-52 121q0 78 58.5 131t146.5 53q85 0 140.5 -52t55.5 -130q0 -71 -65 -168l-150 -217h-141zM240 459q-34 0 -58 -21.5t-24 -50.5q0 -31 23 -52.5t57 -21.5q35 0 58 20.5t23 51.5t-22.5 52.5t-56.5 21.5z" />
    <glyph glyph-name="zero.denominator" horiz-adv-x="473" 
d="M430 385v-213q0 -89 -49 -135.5t-141 -46.5q-98 0 -148 47q-26 25 -36.5 59.5t-10.5 100.5v176q0 100 43 143q50 53 148 53q92 0 143 -48t51 -136zM172 373v-189q0 -50 15 -69t53 -19q35 0 50 20.5t15 67.5v193q0 44 -16 64t-51 20t-50.5 -20.5t-15.5 -67.5z" />
    <glyph glyph-name="oneone" horiz-adv-x="1611" 
d="M311 1139l-155 -78v160l336 163v-841h-181v596zM1296 1335l-901 -1362l-80 54l899 1359zM1247 594l-155 -76v158l335 166v-842h-180v594z" />
    <glyph glyph-name="onefifth" horiz-adv-x="1611" 
d="M311 1139l-155 -78v160l336 163v-841h-181v596zM1296 1335l-901 -1362l-80 54l899 1359zM1200 662v-156q50 18 100 18q107 0 180.5 -75t73.5 -185q0 -123 -81 -201.5t-207 -78.5q-101 0 -168.5 47.5t-108.5 148.5l158 56q17 -49 44.5 -71t70.5 -22q49 0 82.5 33.5
t33.5 83.5q0 51 -33.5 85t-84.5 34q-33 0 -57.5 -13t-51.5 -44h-115v493h451v-153h-287z" />
    <glyph glyph-name="twofifth" horiz-adv-x="1611" 
d="M346 694h236v-151h-543l307 440q47 68 62.5 98t15.5 56q0 37 -26.5 60.5t-67.5 23.5q-54 0 -78 -31.5t-25 -104.5h-166v19q0 123 76 197.5t203 74.5q116 0 190 -62.5t74 -160.5q0 -58 -24 -115.5t-82 -134.5zM1298 1335l-901 -1362l-82 54l902 1359zM1200 662v-156
q50 18 100 18q107 0 180.5 -75t73.5 -185q0 -123 -81 -201.5t-207 -78.5q-101 0 -168.5 47.5t-108.5 148.5l158 56q17 -49 44.5 -71t70.5 -22q49 0 82.5 33.5t33.5 83.5q0 51 -33.5 85t-84.5 34q-33 0 -57.5 -13t-51.5 -44h-115v493h451v-153h-287z" />
    <glyph glyph-name="threefifth" horiz-adv-x="1611" 
d="M324 1212h-240v148h543l-238 -303q100 -9 161.5 -78t61.5 -170q0 -122 -83 -201.5t-210 -79.5q-121 0 -192.5 64t-85.5 184l162 6q8 -47 37 -73.5t75 -26.5q53 0 89 34t36 83q0 51 -35 83.5t-90 32.5q-42 0 -79 -22l-103 80zM1296 1335l-901 -1362l-80 54l899 1359z
M1198 662v-156q50 18 100 18q109 0 182.5 -74t73.5 -186q0 -123 -81.5 -201.5t-208.5 -78.5q-101 0 -168.5 47.5t-108.5 148.5l158 56q19 -50 45.5 -71.5t69.5 -21.5q51 0 84.5 33.5t33.5 83.5q0 51 -34.5 85t-86.5 34q-33 0 -57 -13t-51 -44h-115v493h453v-153h-289z" />
    <glyph glyph-name="fourfifth" horiz-adv-x="1611" 
d="M371 709h-316v137l307 514h181v-504h78v-147h-78v-166h-172v166zM379 850v301l-172 -301h172zM1298 1335l-901 -1362l-82 54l902 1359zM1200 662v-156q50 18 100 18q109 0 182.5 -74t73.5 -186q0 -123 -81.5 -201.5t-208.5 -78.5q-101 0 -168.5 47.5t-108.5 148.5l158 56
q19 -50 45.5 -71.5t69.5 -21.5q51 0 84.5 33.5t33.5 83.5q0 51 -34 85t-86 34q-33 0 -57.5 -13t-51.5 -44h-115v493h453v-153h-289z" />
    <glyph glyph-name="onesixth" horiz-adv-x="1611" 
d="M311 1139l-155 -78v160l336 163v-841h-181v596zM1296 1335l-901 -1362l-80 54l899 1359zM1503 815l-217 -313q14 2 31 2q101 0 172.5 -71.5t71.5 -172.5q0 -115 -85.5 -195.5t-207.5 -80.5q-120 0 -200.5 76t-80.5 190q0 57 21.5 112.5t74.5 133.5l215 319h205zM1276 362
q-49 0 -84 -32t-35 -78t33 -77.5t82 -31.5q51 0 85 32.5t34 78.5t-33 77t-82 31z" />
    <glyph glyph-name="fivesixth" horiz-adv-x="1611" 
d="M262 1206v-155q46 18 100 18q110 0 183 -74.5t73 -187.5q0 -123 -81.5 -202t-208.5 -79q-101 0 -168.5 48t-108.5 149l158 55q19 -48 46 -69t69 -21q51 0 84.5 33.5t33.5 83.5t-34.5 83.5t-85.5 33.5q-33 0 -57.5 -13.5t-51.5 -44.5h-115v496h453v-154h-289zM1296 1335
l-901 -1362l-80 54l899 1359zM1503 815l-217 -313q14 2 31 2q101 0 172.5 -71.5t71.5 -172.5q0 -115 -85.5 -195.5t-207.5 -80.5q-120 0 -200.5 76t-80.5 190q0 57 22 113.5t74 132.5l215 319h205zM1276 362q-49 0 -84 -32t-35 -78t33 -77.5t82 -31.5q51 0 85 32.5t34 78.5
t-33 77t-82 31z" />
    <glyph glyph-name="Dotaccent" 
d="M512 1782q58 0 98.5 -42t40.5 -102q0 -57 -41.5 -98t-99.5 -41t-99.5 41.5t-41.5 99.5q0 59 41.5 100.5t101.5 41.5z" />
    <glyph glyph-name="Ring" 
d="M514 1821q80 0 134 -54.5t54 -136.5q0 -75 -56 -128.5t-134 -53.5q-80 0 -135 54t-55 132t55.5 132.5t136.5 54.5zM512 1726q-40 0 -67 -27t-27 -65t28 -65t66 -27t66 26.5t28 63.5q0 40 -27 67t-67 27z" />
    <glyph glyph-name="Circumflex" 
d="M514 1626l-162 -139h-182l231 274h236l217 -274h-180z" />
    <glyph glyph-name="Breve" 
d="M160 1751h180q35 -57 73 -79.5t99 -22.5q63 0 100.5 22.5t71.5 79.5h182q-38 -125 -128.5 -190.5t-225.5 -65.5q-134 0 -224.5 66t-127.5 190z" />
    <glyph glyph-name="Tilde" 
d="M711 1745l172 -14q-62 -232 -219 -232q-28 0 -53 6.5t-97 32.5q-85 33 -108 33q-54 0 -66 -72l-170 10q15 70 33.5 108t52.5 71q58 55 129 55q31 0 68 -11.5t139 -54.5q27 -10 43 -10q52 0 76 78z" />
    <glyph glyph-name="Cedilla" 
d="M412 -432l-125 94q87 41 136 93.5t66 123.5l246 -72q-96 -162 -323 -239z" />
    <glyph glyph-name="Ogonek" 
d="M733 0h176q-81 -62 -111 -101t-30 -81q0 -31 28 -50.5t74 -19.5q34 0 74 12l19 -147q-79 -25 -144 -25q-104 0 -171.5 49.5t-67.5 126.5q0 132 153 236z" />
    <glyph glyph-name="commaaccent.sc" 
d="M627 -86v-135q0 -123 -55.5 -179t-186.5 -63v84q76 7 106.5 32t32.5 81h-129v180h232z" />
    <glyph glyph-name="Comma.high" horiz-adv-x="346" 
d="M279 1333l-162 -426l-176 47l114 439z" />
    <glyph glyph-name="Dieresis.alt" 
d="M332 1782q58 0 98.5 -42t40.5 -102q0 -57 -41.5 -98t-99.5 -41q-59 0 -100.5 41.5t-41.5 99.5q0 59 42 100.5t102 41.5zM692 1782q58 0 98.5 -42t40.5 -102q0 -57 -41.5 -98t-99.5 -41t-99.5 41.5t-41.5 99.5q0 59 41.5 100.5t101.5 41.5z" />
    <glyph glyph-name="comma.high" horiz-adv-x="346" 
d="M279 1333l-162 -426l-176 47l114 439z" />
    <glyph glyph-name="dieresis.alt" 
d="M334 1378q58 0 96.5 -39.5t38.5 -99.5q0 -57 -40 -96t-97 -39q-58 0 -97.5 39t-39.5 98t39.5 98t99.5 39zM692 1378q57 0 96 -39.5t39 -99.5q0 -57 -40 -96t-97 -39q-58 0 -97.5 39t-39.5 98t39.5 98t99.5 39z" />
    <glyph glyph-name="commareversed" horiz-adv-x="346" 
d="M76 1165l162 426l176 -45l-117 -440z" />
    <glyph glyph-name="zerozero.afrac" horiz-adv-x="589" 
d="M590 739v-114h-590v114h590zM487 1192v-213q0 -90 -48.5 -137t-141.5 -47q-97 0 -147 47q-26 25 -37 61t-11 101v174q0 103 43 143q50 53 148 53q93 0 143.5 -47.5t50.5 -134.5zM229 1178v-187q0 -51 15 -70.5t53 -19.5q35 0 50 21t15 69v193q0 43 -16 62.5t-51 19.5
t-50.5 -20.5t-15.5 -67.5zM487 385v-213q0 -89 -49 -135.5t-141 -46.5q-97 0 -147 47q-27 25 -37.5 60t-10.5 100v176q0 100 43 143q50 53 148 53q92 0 143 -48t51 -136zM229 373v-189q0 -50 15 -69t53 -19q35 0 50 20.5t15 67.5v193q0 44 -16 64t-51 20t-50.5 -20.5
t-15.5 -67.5z" />
    </font>
</defs>
</svg>
