<?xml version="1.0" standalone="no"?>
<!DOCTYPE svg PUBLIC "-//W3C//DTD SVG 1.1//EN" "http://www.w3.org/Graphics/SVG/1.1/DTD/svg11.dtd" >
<svg xmlns="http://www.w3.org/2000/svg" xmlns:xlink="http://www.w3.org/1999/xlink" version="1.1">
<metadata>
Created by FontForge 20170731 at Mon May 23 10:51:20 2022
 By Aleksey,,,
Copyright 2010 URW++ Design &#38; Development Hamburg
</metadata>
<defs>
<font id="NeuzeitGro-Reg" horiz-adv-x="1024" >
  <font-face 
    font-family="NeuzeitGro"
    font-weight="400"
    font-stretch="normal"
    units-per-em="2048"
    panose-1="0 0 5 0 0 0 0 0 0 0"
    ascent="1366"
    descent="-682"
    x-height="944"
    cap-height="1366"
    bbox="-375 -512 1942 1778"
    underline-thickness="110"
    underline-position="-308"
    unicode-range="U+0020-FB04"
  />
<missing-glyph horiz-adv-x="614" 
 />
    <glyph glyph-name="ff" unicode="ff" horiz-adv-x="1097" 
d="M328 807v-807h-156v807h-129v137h129v127q0 141 68.5 219t191.5 78q27 0 43 -2v-139q-88 -12 -117.5 -43t-29.5 -113v-127h147v-137h-147zM895 807v-807h-156v807h-129v137h129v127q0 141 68.5 219t191.5 78q27 0 43 -2v-139q-88 -12 -117.5 -43t-29.5 -113v-127h147
v-137h-147z" />
    <glyph glyph-name="fi" unicode="fi" horiz-adv-x="1042" 
d="M328 807v-807h-156v807h-129v137h129v127q0 141 68.5 219t191.5 78q27 0 43 -2v-139q-88 -12 -117.5 -43t-29.5 -113v-127h147v-137h-147zM885 944v-944h-156v944h156zM807 1311q42 0 71 -30t29 -73q0 -41 -29.5 -69.5t-70.5 -28.5q-43 0 -71.5 28.5t-28.5 71.5t28.5 72
t71.5 29z" />
    <glyph glyph-name="fl" unicode="fl" horiz-adv-x="1042" 
d="M328 807v-807h-156v807h-129v137h129v127q0 141 68.5 219t191.5 78q27 0 43 -2v-139q-88 -12 -117.5 -43t-29.5 -113v-127h147v-137h-147zM885 0h-156v1366h156v-1366z" />
    <glyph glyph-name="ffi" unicode="ffi" horiz-adv-x="1605" 
d="M326 807v-807h-156v807h-129v137h129v127q0 141 68.5 219t191.5 78q27 0 43 -2v-139q-88 -12 -117.5 -43t-29.5 -113v-127h147v-137h-147zM893 807v-807h-156v807h-129v137h129v127q0 141 68.5 219t191.5 78q27 0 43 -2v-139q-88 -12 -117.5 -43t-29.5 -113v-127h147
v-137h-147zM1450 944v-944h-156v944h156zM1372 1311q43 0 72 -30t29 -73q0 -41 -29.5 -69.5t-71.5 -28.5q-43 0 -71.5 28.5t-28.5 71.5t28.5 72t71.5 29z" />
    <glyph glyph-name="ffl" unicode="ffl" horiz-adv-x="1607" 
d="M328 807v-807h-156v807h-129v137h129v127q0 141 68.5 219t191.5 78q27 0 43 -2v-139q-88 -12 -117.5 -43t-29.5 -113v-127h147v-137h-147zM895 807v-807h-156v807h-129v137h129v127q0 141 68.5 219t191.5 78q27 0 43 -2v-139q-88 -12 -117.5 -43t-29.5 -113v-127h147
v-137h-147zM1452 0h-156v1366h156v-1366z" />
    <glyph glyph-name=".notdef" horiz-adv-x="614" 
 />
    <glyph glyph-name=".null" horiz-adv-x="0" 
 />
    <glyph glyph-name="nonmarkingreturn" horiz-adv-x="682" 
 />
    <glyph glyph-name="space" unicode=" " horiz-adv-x="614" 
 />
    <glyph glyph-name="exclam" unicode="!" horiz-adv-x="526" 
d="M344 1366v-1036h-158v1036h158zM264 197q46 0 76.5 -31t30.5 -78q0 -44 -31 -74t-76 -30q-46 0 -76 30t-30 76t30 76.5t76 30.5z" />
    <glyph glyph-name="quotedbl" unicode="&#x22;" horiz-adv-x="690" 
d="M252 819h-127l-27 547h183zM565 819h-127l-26 547h180z" />
    <glyph glyph-name="numbersign" unicode="#" 
d="M901 592v-103h-211l-61 -434h-103l60 434h-180l-62 -434h-106l61 434h-219v103h233l29 192h-213v105h227l58 401h104l-55 -401h180l57 401h103l-55 -401h196v-105h-211l-26 -192h194zM633 788h-189l-28 -200h188z" />
    <glyph glyph-name="dollar" unicode="$" 
d="M539 1194v-442q144 -55 213 -99q72 -44 114.5 -123t42.5 -168q0 -90 -43.5 -168t-120.5 -128q-45 -29 -89 -43t-117 -23v-190h-84v190q-66 4 -109.5 19t-91.5 47q-152 100 -152 268q0 19 2 31h142q-2 -4 -2 -13q-6 -78 54.5 -139.5t156.5 -73.5v486q-81 30 -121 48.5
t-80 43.5q-68 45 -106.5 116.5t-38.5 155.5q0 88 41.5 165t113.5 124q73 46 191 59v148h84v-148q158 -19 250 -110.5t94 -229.5h-146q-15 170 -198 197zM455 784v410q-96 -12 -147.5 -63.5t-51.5 -133.5q0 -76 47.5 -127t151.5 -86zM539 590v-451q98 8 157.5 66t59.5 149
q0 82 -52 138.5t-165 97.5z" />
    <glyph glyph-name="percent" unicode="%" horiz-adv-x="1251" 
d="M522 1122v-221q0 -112 -54 -169.5t-159 -57.5q-110 0 -166 65q-28 29 -36.5 62.5t-8.5 109.5v209q0 74 12 118t40 73q58 61 161 61q92 0 156 -55q34 -34 44.5 -70.5t10.5 -124.5zM199 1118v-188q0 -61 3 -80.5t15 -38.5q29 -43 94 -43q72 0 97 49q16 31 16 107v211
q0 72 -27 106.5t-84 34.5q-66 0 -92 -37q-15 -18 -18.5 -39t-3.5 -82zM1153 440v-221q0 -110 -54.5 -167.5t-158.5 -57.5q-109 0 -168 65q-26 29 -34.5 62t-8.5 108v209q0 77 11 118.5t40 72.5q58 61 162 61q95 0 156 -55q35 -34 45 -69.5t10 -125.5zM829 436v-188
q0 -60 3.5 -79t15.5 -38q29 -43 94 -43q71 0 96 49q17 33 17 105v211q0 73 -27 107t-84 34q-66 0 -92 -37q-15 -19 -19 -40t-4 -81zM1128 1337l-938 -1353l-65 47l936 1351z" />
    <glyph glyph-name="ampersand" unicode="&#x26;" horiz-adv-x="1222" 
d="M958 283l216 -283h-173l-137 186q-121 -120 -207 -166.5t-184 -46.5q-162 0 -273.5 112.5t-111.5 276.5q0 126 69.5 215.5t256.5 204.5q-76 105 -99.5 156t-23.5 111q0 109 80.5 182.5t199.5 73.5q117 0 195 -71.5t78 -178.5q0 -53 -23.5 -107.5t-64.5 -93.5
q-37 -37 -138 -104l256 -353q103 103 195 201l105 -98q-51 -52 -216 -217zM539 858q92 58 123.5 98t31.5 97q0 54 -33.5 86t-87.5 32q-57 0 -93 -33.5t-36 -88.5q0 -44 15.5 -75.5t79.5 -115.5zM772 301l-278 369q-110 -74 -156 -115q-44 -38 -69 -89.5t-25 -105.5
q0 -98 69 -169.5t166 -71.5q73 0 131.5 36.5t161.5 145.5z" />
    <glyph glyph-name="quotesingle" unicode="'" horiz-adv-x="380" 
d="M258 819h-133l-27 547h187z" />
    <glyph glyph-name="parenleft" unicode="(" horiz-adv-x="616" 
d="M543 -381l-103 -98q-182 223 -267 447.5t-85 482.5q0 264 93 514t263 442l99 -102q-310 -383 -310 -848q0 -224 80.5 -441t229.5 -397z" />
    <glyph glyph-name="parenright" unicode=")" horiz-adv-x="616" 
d="M72 1309l102 98q183 -224 267.5 -448t84.5 -482q0 -265 -92.5 -513.5t-263.5 -442.5l-98 102q309 382 309 848q0 226 -79.5 441.5t-229.5 396.5z" />
    <glyph glyph-name="asterisk" unicode="*" horiz-adv-x="866" 
d="M428 967l-143 -195l-82 62l145 192l-229 74l31 94l229 -68v236h98v-236l234 74l32 -96l-239 -78l147 -192l-76 -62z" />
    <glyph glyph-name="plus" unicode="+" 
d="M45 745h420v396h94v-396h420v-90h-420v-395h-94v395h-420v90z" />
    <glyph glyph-name="comma" unicode="," horiz-adv-x="473" 
d="M346 160l-207 -486l-112 35l172 498z" />
    <glyph glyph-name="hyphen" unicode="-" horiz-adv-x="423" 
d="M424 567v-141h-424v141h424z" />
    <glyph glyph-name="period" unicode="." horiz-adv-x="473" 
d="M236 197q46 0 76 -31t30 -78q0 -44 -31 -74t-75 -30q-46 0 -76.5 30t-30.5 76t30.5 76.5t76.5 30.5z" />
    <glyph glyph-name="slash" unicode="/" horiz-adv-x="808" 
d="M731 1366l-686 -1808h-133l686 1808h133z" />
    <glyph glyph-name="zero" unicode="0" 
d="M918 954v-542q0 -115 -23 -190.5t-74 -129.5q-109 -115 -309 -115q-205 0 -315 119q-54 57 -72.5 131t-18.5 230v450q0 133 18 206.5t64 129.5q105 127 320 127q189 0 303 -102q59 -54 83 -124.5t24 -189.5zM268 903v-457q0 -119 8.5 -159t42.5 -78q32 -37 84.5 -58.5
t110.5 -21.5q63 0 117.5 24.5t83.5 65.5q43 62 43 203v522q0 79 -15.5 125.5t-54.5 83.5q-70 64 -174 64q-66 0 -120 -26t-83 -73q-26 -36 -34.5 -80t-8.5 -135z" />
    <glyph glyph-name="one" unicode="1" 
d="M528 1118l-301 -200v155l463 303v-1376h-162v1118z" />
    <glyph glyph-name="two" unicode="2" 
d="M373 150h481v-150h-766l475 680q104 150 136 215.5t32 126.5q0 89 -63.5 146t-163.5 57q-69 0 -122.5 -30.5t-76.5 -84.5q-22 -53 -24 -141h-154q6 195 106 299t283 104q167 0 273 -94.5t106 -243.5q0 -87 -35 -171t-121 -204z" />
    <glyph glyph-name="three" unicode="3" 
d="M625 1198h-478v148h775l-402 -510q179 0 292.5 -115.5t113.5 -296.5q0 -192 -129 -319.5t-324 -127.5q-161 0 -271 86.5t-145 241.5l148 27q28 -98 96 -151.5t164 -53.5q125 0 211 82.5t86 202.5q0 123 -84 200.5t-217 77.5q-85 0 -164 -47l-68 59z" />
    <glyph glyph-name="four" unicode="4" 
d="M627 307h-547v127l704 950v-929h160v-148h-160v-307h-157v307zM627 455v522l-383 -522h383z" />
    <glyph glyph-name="five" unicode="5" 
d="M758 1366v-156h-441v-366q101 39 201 39q181 0 300.5 -126.5t119.5 -318.5q0 -197 -130 -324.5t-331 -127.5q-145 0 -249.5 72.5t-157.5 207.5l149 56q44 -84 68 -105q32 -32 84.5 -51t109.5 -19q123 0 206 84.5t83 210.5q0 130 -84 210.5t-219 80.5q-164 0 -303 -139
v772h594z" />
    <glyph glyph-name="six" unicode="6" 
d="M762 1346l-350 -547q74 26 133 26q170 0 286.5 -118t116.5 -291q0 -182 -129.5 -311.5t-310.5 -129.5q-183 0 -307.5 127.5t-124.5 313.5q0 75 23 141t81 160l391 629h191zM516 686q-117 0 -197.5 -78t-80.5 -192q0 -120 79.5 -203.5t194.5 -83.5t195.5 82t80.5 199
q0 116 -79 196t-193 80z" />
    <glyph glyph-name="seven" unicode="7" 
d="M696 1194h-524v152h758l-541 -1346h-176z" />
    <glyph glyph-name="eight" unicode="8" 
d="M676 741q61 -20 94 -37.5t64 -50.5q102 -102 102 -264q0 -181 -120 -297.5t-308 -116.5q-186 0 -304 112.5t-118 287.5q0 169 102 274q32 34 65 53t95 39q-54 19 -82.5 37.5t-56.5 52.5q-70 86 -70 201q0 146 107 242t270 96q161 0 266 -95t105 -241q0 -121 -76 -209
q-28 -31 -55.5 -48t-79.5 -36zM516 1227q-98 0 -159.5 -55t-61.5 -142q0 -88 63 -148.5t154 -60.5q88 0 154.5 62t66.5 145q0 80 -64.5 139.5t-152.5 59.5zM514 655q-110 0 -188 -77t-78 -187q0 -109 76.5 -186.5t185.5 -77.5t185.5 77.5t76.5 186.5q0 107 -76 185.5
t-182 78.5z" />
    <glyph glyph-name="nine" unicode="9" 
d="M270 0l344 547q-77 -27 -131 -27q-172 0 -289.5 119.5t-117.5 294.5q0 183 128 309.5t314 126.5q184 0 307 -123.5t123 -306.5q0 -78 -21.5 -145t-72.5 -152l-393 -643h-191zM518 1219q-117 0 -198.5 -81t-81.5 -198q0 -116 78.5 -196t193.5 -80q118 0 197 78.5t79 195.5
q0 118 -77.5 199.5t-190.5 81.5z" />
    <glyph glyph-name="colon" unicode=":" horiz-adv-x="473" 
d="M236 197q46 0 76 -31t30 -78q0 -44 -31 -74t-75 -30q-46 0 -76.5 30t-30.5 76t30.5 76.5t76.5 30.5zM236 786q46 0 76 -30.5t30 -77.5q0 -44 -31 -74.5t-75 -30.5q-46 0 -76.5 30.5t-30.5 76.5t30.5 76t76.5 30z" />
    <glyph glyph-name="semicolon" unicode=";" horiz-adv-x="473" 
d="M346 160l-207 -486l-112 35l172 498zM248 776q46 0 76 -30.5t30 -77.5q0 -44 -31 -74.5t-75 -30.5q-46 0 -76.5 30.5t-30.5 76.5t30.5 76t76.5 30z" />
    <glyph glyph-name="less" unicode="&#x3c;" 
d="M954 1182v-170l-704 -326l704 -326v-170l-886 424v146z" />
    <glyph glyph-name="equal" unicode="=" 
d="M45 889h934v-88h-934v88zM45 600h934v-88h-934v88z" />
    <glyph glyph-name="greater" unicode="&#x3e;" 
d="M70 190v170l704 326l-704 328v168l886 -422v-148z" />
    <glyph glyph-name="question" unicode="?" horiz-adv-x="872" 
d="M451 338h-154q-1 80 0 124.5t8 90t16 69t31.5 54t48 52.5t70.5 58q86 66 116.5 115.5t30.5 120.5q0 94 -57 154.5t-145 60.5q-85 0 -141 -53t-56 -133v-27h-149q2 165 94 260.5t250 95.5t261 -100t103 -254q0 -101 -47.5 -180t-157.5 -162q-83 -63 -103.5 -105
t-20.5 -145q0 -57 2 -96zM379 197q46 0 76 -31t30 -78q0 -44 -31 -74t-75 -30q-46 0 -76.5 30t-30.5 76t30.5 76.5t76.5 30.5z" />
    <glyph glyph-name="at" unicode="@" horiz-adv-x="1591" 
d="M1356 373h88q-65 -145 -170 -228q-94 -75 -216 -118t-243 -43q-134 0 -258.5 55.5t-215.5 148t-145.5 220t-54.5 264.5q0 142 55 271t148.5 222.5t222 149t269.5 55.5q167 0 310 -76.5t226.5 -207.5t83.5 -285q0 -237 -166 -398q-66 -63 -145.5 -100t-151.5 -37
q-62 0 -101 28t-46 79q-65 -57 -118.5 -82t-113.5 -25q-98 0 -160.5 73t-62.5 187q0 201 121 373q63 90 147 139t175 49q66 0 106.5 -22.5t77.5 -79.5l26 74h164l-194 -551q-35 -103 -35 -133q0 -19 12.5 -30t34.5 -11q64 0 131 45q98 63 156.5 176.5t58.5 241.5
q0 133 -73 246t-198 179t-272 66q-166 0 -306 -82t-221 -223.5t-81 -308.5q0 -166 80.5 -306t219 -221t302.5 -81q117 0 229.5 44t192.5 121q41 43 111 142zM862 553l109 303q6 18 6 43q0 56 -29 90.5t-76 34.5q-95 0 -188 -150q-60 -93 -100.5 -219.5t-40.5 -216.5
q0 -48 27.5 -77t72.5 -29q63 0 107 47q29 31 64.5 85.5t47.5 88.5z" />
    <glyph glyph-name="A" unicode="A" horiz-adv-x="1241" 
d="M926 315h-613l-125 -315h-178l514 1366h205l502 -1366h-193zM872 463l-249 686l-258 -686h507z" />
    <glyph glyph-name="B" unicode="B" horiz-adv-x="1128" 
d="M170 1366h385q209 0 322.5 -94.5t113.5 -267.5q0 -138 -78 -222q-27 -30 -55.5 -48.5t-83.5 -39.5q59 -12 91.5 -25.5t64.5 -39.5q112 -86 112 -260q0 -97 -39 -176t-108 -123q-60 -39 -136 -54.5t-204 -15.5h-385v1366zM342 1225v-471h174q154 0 223 55q40 31 62 80
t22 106q0 67 -29 120.5t-79 76.5q-37 19 -87.5 26t-144.5 7h-141zM342 614v-475h172q107 0 160.5 9.5t97.5 35.5q98 55 98 195q0 123 -75 179t-238 56h-215z" />
    <glyph glyph-name="C" unicode="C" horiz-adv-x="1290" 
d="M1126 322l115 -115q-103 -121 -222.5 -176.5t-277.5 -55.5q-289 0 -469 201q-86 97 -134 230t-48 276q0 152 49.5 283.5t135.5 225t207.5 147t260.5 53.5q188 0 342 -93q42 -27 76 -56.5t84 -84.5l-119 -110q-100 103 -184.5 144.5t-193.5 41.5q-209 0 -345.5 -156
t-136.5 -395q0 -238 139 -393.5t351 -155.5q112 0 201 46t169 143z" />
    <glyph glyph-name="D" unicode="D" horiz-adv-x="1282" 
d="M170 0v1366h362q309 0 484.5 -176t175.5 -485q0 -173 -55.5 -314t-159.5 -233q-177 -158 -475 -158h-332zM342 1221v-1074h61q172 0 263 22t165 81q185 147 185 452q0 248 -128 383.5t-362 135.5h-184z" />
    <glyph glyph-name="E" unicode="E" horiz-adv-x="968" 
d="M326 1219v-457h538v-148h-538v-467h538v-147h-710v1366h710v-147h-538z" />
    <glyph glyph-name="F" unicode="F" horiz-adv-x="933" 
d="M342 1219v-457h532v-148h-532v-614h-172v1366h704v-147h-532z" />
    <glyph glyph-name="G" unicode="G" horiz-adv-x="1499" 
d="M766 739h651q2 -29 2 -77q0 -137 -33 -239.5t-108 -197.5q-200 -250 -514 -250q-192 0 -346 90.5t-241 252t-87 362.5q0 204 86.5 366.5t240.5 253.5t347 91q155 0 286 -63t228 -185l-129 -105q-72 80 -115 109q-119 86 -270 86q-212 0 -355 -158t-143 -393
q0 -152 65 -278t178.5 -198.5t250.5 -72.5q114 0 222 55t171 146q39 53 58 110t30 148h-475v147z" />
    <glyph glyph-name="H" unicode="H" horiz-adv-x="1349" 
d="M342 604v-604h-172v1366h172v-614h666v614h172v-1366h-172v604h-666z" />
    <glyph glyph-name="I" unicode="I" horiz-adv-x="512" 
d="M342 1366v-1366h-172v1366h172z" />
    <glyph glyph-name="J" unicode="J" horiz-adv-x="765" 
d="M621 1366v-944q0 -286 -218 -385q-96 -45 -282 -45q-39 0 -68 2v149q41 -4 84 -4q147 0 225 66q49 43 68 111t19 202v701h-396v147h568z" />
    <glyph glyph-name="K" unicode="K" horiz-adv-x="1103" 
d="M342 631v-631h-172v1366h172v-629l530 629h207l-569 -676l569 -690h-219z" />
    <glyph glyph-name="L" unicode="L" horiz-adv-x="874" 
d="M342 156h481v-156h-653v1366h172v-1210z" />
    <glyph glyph-name="M" unicode="M" horiz-adv-x="1695" 
d="M342 1001v-1001h-172v1366h170l506 -1024l512 1024h168v-1366h-172v999l-508 -1013z" />
    <glyph glyph-name="N" unicode="N" horiz-adv-x="1398" 
d="M342 1044v-1044h-172v1366h158l729 -1028v1028h172v-1366h-152z" />
    <glyph glyph-name="O" unicode="O" horiz-adv-x="1519" 
d="M766 1391q142 0 274 -61.5t230 -174.5q83 -96 121.5 -213.5t38.5 -271.5q0 -160 -60 -298t-172 -233q-92 -79 -204.5 -121.5t-231.5 -42.5q-152 0 -293 68t-236 188q-143 181 -143 445q0 151 51.5 283.5t141 227.5t215 149.5t268.5 54.5zM762 1231q-214 0 -355 -156.5
t-141 -392.5q0 -238 140 -393.5t352 -155.5q103 0 199 43t165 121q60 66 95.5 168t35.5 207q0 269 -155 418q-68 66 -156.5 103.5t-179.5 37.5z" />
    <glyph glyph-name="P" unicode="P" horiz-adv-x="1087" 
d="M342 522v-522h-172v1366h365q243 0 372 -107.5t129 -310.5q0 -101 -38 -188t-107 -144q-119 -94 -338 -94h-211zM342 670h178q107 0 170 24q78 28 125 95.5t47 154.5q0 88 -46 154t-128 94q-79 27 -190 27h-156v-549z" />
    <glyph glyph-name="Q" unicode="Q" horiz-adv-x="1529" 
d="M1440 68l-119 -109l-145 164q-100 -77 -199 -112.5t-215 -35.5q-139 0 -273 61.5t-231 168.5q-164 182 -164 471q0 151 51.5 284t140.5 227.5t214 149t268 54.5q188 0 341 -91.5t240 -252.5t87 -359q0 -136 -35.5 -245t-112.5 -212zM1075 463l99 -107q45 82 64 156.5
t19 167.5q0 238 -139.5 394.5t-351.5 156.5q-113 0 -215.5 -51t-171.5 -142q-109 -140 -109 -354q0 -239 138.5 -394t351.5 -155q90 0 158.5 26t140.5 87l-101 112z" />
    <glyph glyph-name="R" unicode="R" horiz-adv-x="1146" 
d="M342 573v-573h-172v1366h373q218 0 342.5 -105.5t124.5 -291.5q0 -115 -51 -204t-146 -140q-50 -27 -104.5 -39.5t-147.5 -18.5l531 -567h-220zM342 690h172q155 0 237.5 68.5t82.5 197.5q0 127 -75 195t-216 68h-201v-529z" />
    <glyph glyph-name="S" unicode="S" horiz-adv-x="1003" 
d="M78 367h164q6 -117 67.5 -177.5t173.5 -60.5q116 0 189 64t73 167q0 89 -57.5 140.5t-218.5 105.5q-121 41 -175.5 68t-100.5 69q-107 96 -107 258q0 173 113.5 281.5t294.5 108.5t290.5 -106.5t114.5 -285.5h-172q-1 52 -8.5 82.5t-24.5 59.5q-29 45 -83 70.5t-119 25.5
q-101 0 -166.5 -62.5t-65.5 -160.5q0 -102 78 -158q32 -23 73 -41t146 -55q109 -38 169 -71t101 -77q93 -99 93 -241q0 -177 -119.5 -286.5t-311.5 -109.5q-256 0 -364 185q-47 78 -47 178v29z" />
    <glyph glyph-name="T" unicode="T" horiz-adv-x="907" 
d="M541 1219v-1219h-172v1219h-349v147h867v-147h-346z" />
    <glyph glyph-name="U" unicode="U" horiz-adv-x="1302" 
d="M317 1366v-813q0 -130 20.5 -204t70.5 -124q43 -41 109.5 -66.5t131.5 -25.5t131.5 27.5t110.5 72.5q55 53 73.5 119.5t18.5 204.5v809h176v-809q0 -154 -27.5 -250.5t-93.5 -169.5q-69 -78 -168.5 -120t-216.5 -42q-121 0 -224.5 44.5t-172.5 127.5q-63 72 -87 161
t-24 249v809h172z" />
    <glyph glyph-name="V" unicode="V" horiz-adv-x="1124" 
d="M557 281l375 1085h182l-475 -1366h-168l-461 1366h180z" />
    <glyph glyph-name="W" unicode="W" horiz-adv-x="1763" 
d="M1262 315l313 1051h178l-418 -1366h-151l-301 1073l-303 -1073h-152l-418 1366h183l311 -1047l303 1047h162z" />
    <glyph glyph-name="X" unicode="X" horiz-adv-x="1130" 
d="M569 545l-348 -545h-209l457 696l-440 670h207l333 -518l336 518h201l-438 -670l450 -696h-198z" />
    <glyph glyph-name="Y" unicode="Y" horiz-adv-x="1083" 
d="M631 602v-602h-172v602l-471 764h202l353 -586l348 586h205z" />
    <glyph glyph-name="Z" unicode="Z" horiz-adv-x="1103" 
d="M311 147h693v-147h-977l774 1219h-688v147h970z" />
    <glyph glyph-name="bracketleft" unicode="[" horiz-adv-x="614" 
d="M158 1366h329v-102h-192v-1604h192v-102h-329v1808z" />
    <glyph glyph-name="backslash" unicode="\" horiz-adv-x="808" 
d="M76 1366h133l686 -1808h-133z" />
    <glyph glyph-name="bracketright" unicode="]" horiz-adv-x="614" 
d="M457 1366v-1808h-330v102h192v1604h-192v102h330z" />
    <glyph glyph-name="asciicircum" unicode="^" 
d="M221 764h-160l355 604h192l353 -604h-160l-291 489z" />
    <glyph glyph-name="underscore" unicode="_" 
d="M0 -143h1024v-111h-1024v111z" />
    <glyph glyph-name="grave" unicode="`" 
d="M424 1352l168 -271h-111l-241 271h184z" />
    <glyph glyph-name="a" unicode="a" horiz-adv-x="1181" 
d="M868 788v156h156v-944h-156v182q-71 -106 -154 -155.5t-190 -49.5q-195 0 -319.5 138.5t-124.5 353.5q0 217 126.5 357.5t321.5 140.5q107 0 189 -43.5t151 -135.5zM551 827q-150 0 -229 -112q-78 -108 -78 -250q0 -151 87 -251.5t216 -100.5q134 0 228.5 108t94.5 260
q0 154 -89 250t-230 96z" />
    <glyph glyph-name="b" unicode="b" horiz-adv-x="1173" 
d="M311 162v-162h-155v1366h155v-584q70 97 149.5 141t182.5 44q198 0 323.5 -139t125.5 -359q0 -217 -123.5 -354.5t-317.5 -137.5q-109 0 -190 44t-150 141zM623 827q-135 0 -224.5 -100.5t-89.5 -255.5q0 -161 84.5 -259.5t222.5 -98.5q140 0 226 97t86 255t-86 260
t-219 102z" />
    <glyph glyph-name="c" unicode="c" horiz-adv-x="935" 
d="M795 223l96 -106q-80 -73 -163 -106.5t-185 -33.5q-203 0 -333 138.5t-130 353.5q0 220 132 359t339 139q199 0 344 -142l-100 -100q-107 98 -240 98q-139 0 -227 -97t-88 -251q0 -157 87.5 -255.5t225.5 -98.5q134 0 242 102z" />
    <glyph glyph-name="d" unicode="d" horiz-adv-x="1175" 
d="M862 801v565h156v-1366h-156v162q-71 -97 -151 -141t-187 -44q-195 0 -319.5 137.5t-124.5 352.5t126 357.5t318 142.5q205 0 338 -166zM557 827q-139 0 -226 -100.5t-87 -261.5q0 -155 84.5 -253.5t218.5 -98.5q136 0 225.5 101t89.5 255q0 159 -85 258.5t-220 99.5z
" />
    <glyph glyph-name="e" unicode="e" horiz-adv-x="1103" 
d="M1032 422h-786q6 -60 19 -97t42 -75q94 -129 254 -129q88 0 165 44t118 118l137 -52q-58 -118 -171 -186t-249 -68q-211 0 -346 138.5t-135 353.5q0 218 134 358t341 140q205 0 342 -138.5t137 -345.5q0 -38 -2 -61zM248 537h620q-4 55 -16 90t-37 71q-44 60 -113 94.5
t-147 34.5t-145.5 -34.5t-108.5 -96.5q-37 -57 -53 -159z" />
    <glyph glyph-name="f" unicode="f" horiz-adv-x="530" 
d="M328 807v-807h-156v807h-129v137h129v127q0 141 68.5 219t191.5 78q27 0 43 -2v-139q-88 -12 -117.5 -43t-29.5 -113v-127h147v-137h-147z" />
    <glyph glyph-name="g" unicode="g" horiz-adv-x="1167" 
d="M854 782v162h156v-950q0 -118 -30 -201t-95 -145q-128 -125 -348 -125q-265 0 -418 172l106 106q58 -61 90 -82q40 -25 101 -40t121 -15q74 0 139.5 24.5t105.5 67.5q72 78 72 226v198q-69 -104 -153.5 -153.5t-194.5 -49.5q-187 0 -311.5 140.5t-124.5 351.5
q0 114 39.5 217t109.5 170q114 111 299 111q107 0 185.5 -43.5t150.5 -141.5zM547 823q-138 0 -226 -97t-88 -251q0 -152 88.5 -253t221.5 -101q67 0 130 30.5t109 84.5q31 35 49.5 99t18.5 134q0 93 -16.5 148.5t-57.5 101.5q-43 48 -104.5 76t-124.5 28z" />
    <glyph glyph-name="h" unicode="h" horiz-adv-x="1040" 
d="M311 1366v-553q65 80 133 117t152 37q62 0 121.5 -23t97.5 -63q74 -74 74 -246v-635h-156v627q0 97 -45.5 148.5t-130.5 51.5q-109 0 -184 -84q-35 -40 -48.5 -81t-13.5 -109v-553h-155v1366h155z" />
    <glyph glyph-name="i" unicode="i" horiz-adv-x="468" 
d="M311 944v-944h-155v944h155zM236 1311q42 0 71 -30t29 -73q0 -41 -29.5 -69.5t-70.5 -28.5q-43 0 -72 28.5t-29 71.5t29 72t72 29z" />
    <glyph glyph-name="j" unicode="j" horiz-adv-x="468" 
d="M311 944v-1042q0 -97 -18.5 -160t-61.5 -109q-89 -98 -237 -98h-41v148h22q82 2 131.5 61.5t49.5 157.5v1042h155zM236 1311q42 0 71 -30t29 -73q0 -41 -29.5 -69.5t-70.5 -28.5q-43 0 -72 28.5t-29 71.5t29 72t72 29z" />
    <glyph glyph-name="k" unicode="k" horiz-adv-x="909" 
d="M311 422v-422h-155v1366h155v-836l377 414h197l-422 -461l420 -483h-195z" />
    <glyph glyph-name="l" unicode="l" horiz-adv-x="468" 
d="M311 0h-155v1366h155v-1366z" />
    <glyph glyph-name="m" unicode="m" horiz-adv-x="1581" 
d="M156 944h155v-131q54 82 117.5 118t151.5 36q191 0 254 -172q53 91 123 131.5t176 40.5q164 0 239 -101q34 -45 46 -98t12 -164v-604h-156v567q0 86 -5 119t-22 62q-22 37 -65.5 58t-98.5 21q-103 0 -158 -67t-55 -193v-567h-155v565q0 125 -31 180q-42 82 -154 82
q-103 0 -161 -69.5t-58 -192.5v-565h-155v944z" />
    <glyph glyph-name="n" unicode="n" horiz-adv-x="1042" 
d="M156 944h155v-133q61 83 127 119.5t154 36.5q131 0 219 -78q44 -43 62 -99t18 -153v-637h-156v602q0 116 -35 162q-20 29 -60 46t-87 17q-110 0 -180 -79q-34 -37 -48 -76t-14 -97v-575h-155v944z" />
    <glyph glyph-name="o" unicode="o" horiz-adv-x="1122" 
d="M563 967q209 0 343 -140t134 -358q0 -136 -64 -249t-175 -178t-244 -65q-211 0 -344 139t-133 357q0 220 134 357t349 137zM563 823q-146 0 -234.5 -96.5t-88.5 -255.5q0 -157 88 -253.5t233 -96.5q140 0 230 98.5t90 251.5q0 158 -87.5 255t-230.5 97z" />
    <glyph glyph-name="p" unicode="p" horiz-adv-x="1179" 
d="M156 944h155v-172q68 105 147 150t197 45q196 0 320.5 -136.5t124.5 -351.5q0 -222 -124 -362t-321 -140q-106 0 -206 50q-45 23 -73 47t-65 73v-589h-155v1386zM629 827q-141 0 -229.5 -102.5t-88.5 -267.5q0 -155 86 -249.5t226 -94.5q139 0 225 99.5t86 260.5
q0 165 -82 256q-41 46 -100.5 72t-122.5 26z" />
    <glyph glyph-name="q" unicode="q" horiz-adv-x="1173" 
d="M862 944h156v-1386h-156v600q-68 -94 -150 -137.5t-192 -43.5q-100 0 -190 42.5t-152 117.5q-98 124 -98 338q0 221 125 356.5t330 135.5q107 0 184.5 -44t142.5 -141v162zM553 827q-137 0 -223 -100t-86 -258q0 -157 85 -256.5t220 -99.5q137 0 223 98t86 254
q0 174 -88 268q-41 43 -100 68.5t-117 25.5z" />
    <glyph glyph-name="r" unicode="r" horiz-adv-x="651" 
d="M156 944h155v-160q22 50 40 76.5t46 48.5q74 58 181 58h36v-158q-16 2 -43 2q-131 0 -204 -109q-31 -45 -43.5 -93.5t-12.5 -129.5v-479h-155v944z" />
    <glyph glyph-name="s" unicode="s" horiz-adv-x="841" 
d="M748 686h-156v10q0 66 -49 105t-131 39q-78 0 -124 -36.5t-46 -98.5q0 -61 41.5 -93t169.5 -67q165 -45 229 -109q76 -76 76 -184q0 -123 -92.5 -199t-243.5 -76q-161 0 -250.5 74t-101.5 217h153q8 -80 59 -122t140 -42q79 0 127.5 38.5t48.5 101.5q0 62 -47 97.5
t-168 66.5q-154 41 -225.5 109t-71.5 175q0 123 91.5 199t240.5 76q151 0 237.5 -74t92.5 -207z" />
    <glyph glyph-name="t" unicode="t" horiz-adv-x="530" 
d="M322 807v-614q0 -34 15 -46t56 -12h72v-135h-146q-82 0 -117.5 34.5t-35.5 112.5v660h-131v137h131v297h156v-297h143v-137h-143z" />
    <glyph glyph-name="u" unicode="u" horiz-adv-x="993" 
d="M705 944h157v-604q0 -98 -21 -157.5t-73 -106.5q-110 -99 -272 -99q-164 0 -273 101q-94 91 -94 262v604h156v-600q0 -100 58.5 -163.5t152.5 -63.5q50 0 94 19t72 52q43 51 43 152v604z" />
    <glyph glyph-name="v" unicode="v" horiz-adv-x="890" 
d="M717 944h162l-357 -944h-164l-346 944h164l266 -721z" />
    <glyph glyph-name="w" unicode="w" horiz-adv-x="1417" 
d="M1245 944h160l-336 -944h-141l-217 717l-228 -717h-147l-324 944h160l242 -694l217 694h153l213 -694z" />
    <glyph glyph-name="x" unicode="x" horiz-adv-x="913" 
d="M457 342l-252 -342h-191l348 469l-354 475h197l252 -346l258 346h190l-356 -475l340 -469h-191z" />
    <glyph glyph-name="y" unicode="y" horiz-adv-x="897" 
d="M432 244l283 700h170l-563 -1399h-170l196 484l-336 915h166z" />
    <glyph glyph-name="z" unicode="z" horiz-adv-x="821" 
d="M307 137h434v-137h-696l492 807h-439v137h695z" />
    <glyph glyph-name="braceleft" unicode="{" 
d="M559 1053v-318q0 -95 -25 -145.5t-88 -85.5q63 -34 88 -87.5t25 -150.5v-307q0 -115 39.5 -155t155.5 -42v-143q-144 1 -194 10.5t-87 40.5q-43 37 -62.5 96.5t-19.5 155.5v326q0 89 -26 132t-91 62v131q63 17 90 60.5t27 126.5v356q0 143 66 209q35 37 95.5 52.5
t170.5 15.5h31v-152q-115 -3 -155 -41.5t-40 -146.5z" />
    <glyph glyph-name="bar" unicode="|" 
d="M426 1366h170v-1708h-170v1708z" />
    <glyph glyph-name="braceright" unicode="}" 
d="M465 -43v317q0 96 25 147.5t88 86.5q-63 34 -88 86t-25 149v310q0 114 -40 154.5t-155 41.5v144h29q120 0 177.5 -15.5t94.5 -56.5q62 -71 62 -234v-323q0 -89 26 -132.5t91 -62.5v-131q-63 -19 -90 -62t-27 -126v-354q0 -145 -66 -211q-37 -38 -95 -53t-171 -15
q-17 0 -31 2v150q114 3 154.5 42.5t40.5 145.5z" />
    <glyph glyph-name="asciitilde" unicode="~" horiz-adv-x="1366" 
d="M283 1186l-90 71q108 232 280 232q77 0 236 -80q86 -42 120.5 -54t67.5 -12q56 0 99 35t87 117l91 -72q-104 -231 -295 -231q-41 0 -86 16.5t-160 73.5q-109 53 -168 53q-53 0 -95.5 -35t-86.5 -114z" />
    <glyph glyph-name="uni00A0" unicode="&#xa0;" horiz-adv-x="614" 
 />
    <glyph glyph-name="exclamdown" unicode="&#xa1;" horiz-adv-x="526" 
d="M186 -416v1034h158v-1034h-158zM264 965q46 0 76.5 -30.5t30.5 -76.5t-30.5 -76t-76.5 -30t-76 30.5t-30 77.5q0 44 31 74.5t75 30.5z" />
    <glyph glyph-name="cent" unicode="&#xa2;" 
d="M608 1026v-707q112 3 205 99l94 -103q-66 -64 -132.5 -94t-166.5 -41v-172h-84v172q-204 34 -311 158t-107 326q0 133 51 244t142 177q48 34 97 52t128 28v162h84v-162q88 -5 168 -43t135 -102l-98 -96q-93 93 -205 102zM524 319v707q-130 -26 -198 -116t-68 -236
q0 -145 68.5 -237t197.5 -118z" />
    <glyph glyph-name="sterling" unicode="&#xa3;" 
d="M453 741h303v-100h-234q45 -55 63.5 -97t18.5 -91q0 -56 -26 -109t-86 -117q44 -14 145 -61q76 -35 117 -35q44 0 71 22t47 76l80 -59q-16 -65 -47 -104q-31 -37 -79.5 -60.5t-94.5 -23.5q-70 0 -205 69q-89 44 -117.5 55t-58.5 11q-48 0 -75 -31t-27 -86h-144
q3 112 67.5 183t162.5 71h12q63 63 84 99.5t21 82.5q0 55 -24.5 99.5t-86.5 105.5h-229v100h143q-60 75 -82 129t-22 127q0 158 113 264.5t282 106.5q94 0 175.5 -37.5t135.5 -105.5q30 -39 43 -84t16 -117h-151q2 10 2 23q0 74 -68 130t-157 56q-94 0 -161 -65.5
t-67 -157.5q0 -61 31 -120t109 -149z" />
    <glyph glyph-name="currency" unicode="&#xa4;" horiz-adv-x="1411" 
d="M135 223l189 191q-97 135 -97 286q0 75 22 137.5t77 147.5l-195 193l92 92l195 -195q89 58 150 79.5t139 21.5q76 0 135 -21t147 -80l197 193l90 -90l-193 -193q101 -140 101 -289q0 -75 -20.5 -134t-76.5 -146l193 -193l-92 -92l-191 193q-133 -101 -284 -101
q-138 0 -297 101l-191 -193zM711 1032q-139 0 -235.5 -96t-96.5 -236q0 -136 96 -232.5t230 -96.5q136 0 231.5 96t95.5 233t-94.5 234.5t-226.5 97.5z" />
    <glyph glyph-name="yen" unicode="&#xa5;" 
d="M289 877l-240 469h180l287 -590l281 590h178l-238 -469h197v-105h-248l-90 -180v-14h297v-105h-297v-473h-162v473h-303v105h303v14l-92 180h-252v105h199z" />
    <glyph glyph-name="brokenbar" unicode="&#xa6;" 
d="M426 1366h170v-688h-170v688zM426 313h170v-655h-170v655z" />
    <glyph glyph-name="section" unicode="&#xa7;" 
d="M860 1094h-145q-7 78 -60 125t-131 47t-132 -50t-54 -122q0 -74 57 -125q31 -31 57.5 -43.5t147.5 -53.5q309 -104 309 -374q0 -228 -221 -324q88 -62 124 -121t36 -143q0 -145 -99.5 -237.5t-254.5 -92.5q-167 0 -271 101t-104 264h145q5 -109 68 -173.5t166 -64.5
q89 0 146.5 56t57.5 141q0 81 -67 137q-35 30 -68.5 44t-138.5 42q-315 86 -315 360q0 267 243 349q-78 40 -119.5 108t-41.5 154q0 127 91 212t228 85q93 0 173 -37.5t124 -102.5q44 -66 49 -161zM512 743q-105 0 -180.5 -72t-75.5 -173q0 -109 71 -178.5t183 -69.5t183 70
t71 180q0 97 -75.5 170t-176.5 73z" />
    <glyph glyph-name="dieresis" unicode="&#xa8;" 
d="M307 1311q41 0 68.5 -28t27.5 -71q0 -40 -27.5 -67t-68.5 -27t-68.5 27.5t-27.5 68.5t27.5 69t68.5 28zM717 1311q41 0 68.5 -28t27.5 -71q0 -40 -27.5 -67t-68.5 -27t-68.5 27.5t-27.5 68.5t27.5 69t68.5 28z" />
    <glyph glyph-name="copyright" unicode="&#xa9;" horiz-adv-x="1601" 
d="M1090 606h88q-12 -154 -114 -247t-259 -93q-175 0 -283 115.5t-108 302.5q0 186 110 303t287 117q141 0 241.5 -80t110.5 -203h-86q-20 88 -91 138.5t-175 50.5q-129 0 -208 -89.5t-79 -236.5t78 -235.5t207 -88.5q116 0 191 65.5t90 180.5zM809 1391q187 0 347.5 -96
t254.5 -259.5t94 -353.5q0 -143 -55.5 -274t-150 -226t-225 -151t-273.5 -56q-191 0 -354 95t-258 258t-95 354q0 146 56 277t151.5 226t228 150.5t279.5 55.5zM809 1309q-129 0 -245 -49t-199 -133t-132 -200t-49 -245q0 -127 49 -242.5t131.5 -199.5t197 -133.5
t239.5 -49.5q166 0 307.5 84t224 228t82.5 313q0 168 -81.5 312.5t-221.5 229.5t-303 85z" />
    <glyph glyph-name="ordfeminine" unicode="&#xaa;" horiz-adv-x="768" 
d="M549 1040v76h113v-569h-113v90q-77 -102 -205 -102q-123 0 -203 82.5t-80 211.5q0 130 81 214.5t206 84.5t201 -88zM362 1032q-82 0 -132 -56.5t-50 -148.5q0 -85 51.5 -141.5t128.5 -56.5q78 0 134.5 61.5t56.5 147.5t-52 140t-137 54z" />
    <glyph glyph-name="guillemotleft" unicode="&#xab;" horiz-adv-x="849" 
d="M211 481l207 -336h-123l-207 336l207 350h123zM541 481l207 -336h-123l-205 336l205 350h123z" />
    <glyph glyph-name="logicalnot" unicode="&#xac;" 
d="M788 0v420h-720v149h886v-569h-166z" />
    <glyph glyph-name="uni00AD" unicode="&#xad;" horiz-adv-x="423" 
d="M424 567v-141h-424v141h424z" />
    <glyph glyph-name="registered" unicode="&#xae;" horiz-adv-x="1601" 
d="M498 1079h338q138 0 211 -57t73 -164q0 -141 -145 -194q78 -26 105 -77.5t30 -178.5q5 -100 20 -132h-104q-15 25 -22 150q-4 79 -16 114t-40 54q-47 33 -153 33h-189v-351h-108v803zM606 1006v-310h195q211 0 211 156q0 78 -47.5 116t-147.5 38h-211zM809 1391
q187 0 347.5 -96t254.5 -259.5t94 -353.5q0 -143 -55.5 -274t-150 -226t-225 -151t-273.5 -56q-191 0 -354 95t-258 258t-95 354q0 146 56 277t151.5 226t228 150.5t279.5 55.5zM809 1309q-129 0 -245 -49t-199 -133t-132 -200t-49 -245q0 -127 49 -242.5t131.5 -199.5
t197 -133.5t239.5 -49.5q166 0 307.5 84t224 228t82.5 313q0 168 -81.5 312.5t-221.5 229.5t-303 85z" />
    <glyph glyph-name="macron" unicode="&#xaf;" 
d="M791 1278v-127h-558v127h558z" />
    <glyph glyph-name="degree" unicode="&#xb0;" 
d="M516 1360q120 0 204.5 -86t84.5 -209q0 -119 -85.5 -204t-205.5 -85q-122 0 -207.5 86t-85.5 207t86 206t209 85zM510 1282q-86 0 -147.5 -62.5t-61.5 -150.5q0 -89 62.5 -152t150.5 -63q86 0 148.5 62t62.5 147q0 92 -62 155.5t-153 63.5z" />
    <glyph glyph-name="plusminus" unicode="&#xb1;" 
d="M45 768h420v395h94v-395h420v-90h-420v-387h-94v387h-420v90zM45 199h934v-90h-934v90z" />
    <glyph glyph-name="twosuperior" unicode="&#xb2;" horiz-adv-x="671" 
d="M264 641h291v-104h-500l303 413q65 88 85 125.5t20 71.5q0 50 -37.5 81.5t-97.5 31.5q-67 0 -97 -36t-32 -116h-113q5 125 68.5 189.5t181.5 64.5q107 0 175.5 -58t68.5 -149q0 -53 -22.5 -104.5t-76.5 -120.5z" />
    <glyph glyph-name="threesuperior" unicode="&#xb3;" horiz-adv-x="671" 
d="M387 1243h-287v103h508l-252 -302q106 -3 176 -74t70 -175q0 -117 -82 -194t-207 -77q-107 0 -177 53.5t-93 153.5l107 19q36 -121 157 -121q75 0 126.5 46t51.5 113q0 69 -50 112.5t-130 43.5q-55 0 -104 -29l-51 43z" />
    <glyph glyph-name="acute" unicode="&#xb4;" 
d="M602 1352h182l-239 -271h-113z" />
    <glyph glyph-name="mu" unicode="&#xb5;" 
d="M102 -340v1323h148v-555q0 -101 13.5 -151t51.5 -93q77 -86 187 -86q123 0 198.5 97.5t75.5 253.5v534h146v-983h-146v186q-43 -109 -110.5 -161t-165.5 -52q-83 0 -141.5 36t-108.5 116v-465h-148z" />
    <glyph glyph-name="paragraph" unicode="&#xb6;" 
d="M477 -215v846h-33q-163 0 -265.5 101.5t-102.5 262.5q0 100 45 185t123 131q96 55 250 55h368v-1581h-108v1505h-166v-1505h-111z" />
    <glyph glyph-name="periodcentered" unicode="&#xb7;" horiz-adv-x="473" 
d="M236 604q46 0 76 -30.5t30 -77.5q0 -44 -31 -74.5t-75 -30.5q-46 0 -76.5 30.5t-30.5 76.5t30.5 76t76.5 30z" />
    <glyph glyph-name="cedilla" unicode="&#xb8;" 
d="M412 -436l-66 69q79 46 127.5 107t75.5 151l129 -49q-47 -98 -108 -161.5t-158 -116.5z" />
    <glyph glyph-name="onesuperior" unicode="&#xb9;" horiz-adv-x="671" 
d="M340 1190l-188 -117v109l305 188v-831h-117v651z" />
    <glyph glyph-name="ordmasculine" unicode="&#xba;" horiz-adv-x="731" 
d="M367 1130q134 0 219.5 -84.5t85.5 -216.5q0 -125 -89 -211t-218 -86q-135 0 -220.5 84t-85.5 215q0 133 85.5 216t222.5 83zM367 1032q-86 0 -139.5 -55t-53.5 -146t52.5 -145.5t140.5 -54.5q83 0 136.5 56t53.5 144q0 91 -52 146t-138 55z" />
    <glyph glyph-name="guillemotright" unicode="&#xbb;" horiz-adv-x="849" 
d="M641 506l-207 336h123l205 -336l-205 -350h-123zM309 506l-207 336h123l207 -336l-207 -350h-123z" />
    <glyph glyph-name="onequarter" unicode="&#xbc;" horiz-adv-x="1597" 
d="M338 1190l-186 -117v109l303 188v-831h-117v651zM1300 1327l-935 -1354l-68 47l936 1352zM1323 180h-338v84l453 578v-559h100v-103h-100v-180h-115v180zM1325 281v282l-217 -282h217z" />
    <glyph glyph-name="onehalf" unicode="&#xbd;" horiz-adv-x="1597" 
d="M338 1190l-186 -117v109l303 188v-831h-117v651zM1300 1327l-935 -1354l-68 47l936 1352zM1192 104h291v-104h-500l303 412q66 88 85.5 124.5t19.5 71.5q0 49 -37.5 80t-96.5 31q-69 0 -99 -35t-32 -115h-112q5 123 68.5 187.5t181.5 64.5q107 0 175 -58t68 -149
q0 -52 -22.5 -103.5t-75.5 -119.5z" />
    <glyph glyph-name="threequarters" unicode="&#xbe;" horiz-adv-x="1597" 
d="M387 1243h-287v103h508l-252 -302q106 -3 176 -74t70 -175q0 -117 -82 -194t-207 -77q-107 0 -177 53.5t-93 153.5l107 19q36 -121 157 -121q75 0 126.5 46t51.5 113q0 69 -50 112.5t-130 43.5q-55 0 -104 -29l-51 43zM1300 1327l-938 -1354l-67 47l938 1352zM1323 180
h-340v84l455 578v-559h98v-103h-98v-180h-115v180zM1325 281v282l-217 -282h217z" />
    <glyph glyph-name="questiondown" unicode="&#xbf;" horiz-adv-x="872" 
d="M424 610h151q1 -80 0 -124.5t-8 -90t-16 -69t-31.5 -54t-48 -52.5t-70.5 -58q-84 -64 -115.5 -114.5t-31.5 -121.5q0 -92 57.5 -153.5t145.5 -61.5q85 0 140.5 53.5t55.5 135.5v26h150q-1 -167 -93.5 -262.5t-250.5 -95.5t-261.5 100.5t-103.5 255.5q0 101 47.5 180
t157.5 162q59 44 83 73.5t33 66.5t9 110v94zM496 965q46 0 76 -30.5t30 -76.5t-30 -76t-76 -30t-76.5 30.5t-30.5 77.5q0 44 31.5 74.5t75.5 30.5z" />
    <glyph glyph-name="Agrave" unicode="&#xc0;" horiz-adv-x="1241" 
d="M926 315h-613l-125 -315h-178l514 1366h205l502 -1366h-193zM872 463l-249 686l-258 -686h507zM528 1741l181 -268h-121l-248 268h188z" />
    <glyph glyph-name="Aacute" unicode="&#xc1;" horiz-adv-x="1241" 
d="M926 315h-613l-125 -315h-178l514 1366h205l502 -1366h-193zM872 463l-249 686l-258 -686h507zM713 1741h188l-248 -268h-123z" />
    <glyph glyph-name="Acircumflex" unicode="&#xc2;" horiz-adv-x="1241" 
d="M926 315h-613l-125 -315h-178l514 1366h205l502 -1366h-193zM872 463l-249 686l-258 -686h507zM621 1642l-154 -169h-135l221 272h143l213 -272h-133z" />
    <glyph glyph-name="Atilde" unicode="&#xc3;" horiz-adv-x="1241" 
d="M926 315h-613l-125 -315h-178l514 1366h205l502 -1366h-193zM872 463l-249 686l-258 -686h507zM850 1708l111 -43q-49 -92 -95.5 -131t-105.5 -39q-31 0 -57.5 8.5t-88.5 40.5q-68 35 -100 35q-60 0 -96 -86l-111 33q46 99 90.5 140.5t104.5 41.5q29 0 60.5 -11t94.5 -44
q74 -35 95 -35q57 0 98 90z" />
    <glyph glyph-name="Adieresis" unicode="&#xc4;" horiz-adv-x="1241" 
d="M926 315h-613l-125 -315h-178l514 1366h205l502 -1366h-193zM872 463l-249 686l-258 -686h507zM412 1716q44 0 74 -31t30 -75q0 -43 -30.5 -73t-73.5 -30q-44 0 -74.5 30.5t-30.5 74.5t30.5 74t74.5 30zM829 1716q45 0 75 -30t30 -76q0 -43 -31 -73t-74 -30
q-44 0 -74 30.5t-30 74.5t30 74t74 30z" />
    <glyph glyph-name="Aring" unicode="&#xc5;" horiz-adv-x="1241" 
d="M926 315h-613l-125 -315h-178l514 1366h205l502 -1366h-193zM872 463l-249 686l-258 -686h507zM623 1778q69 0 115 -47.5t46 -118.5q0 -66 -48 -113t-115 -47q-69 0 -116.5 47.5t-47.5 116.5q0 68 48 115t118 47zM623 1712q-43 0 -72 -28t-29 -70q0 -40 29 -68t70 -28
t69.5 28t28.5 68q0 41 -28 69.5t-68 28.5z" />
    <glyph glyph-name="AE" unicode="&#xc6;" horiz-adv-x="1665" 
d="M1032 614v-467h533v-147h-705v342h-495l-191 -342h-182l764 1366h809v-147h-533v-457h533v-148h-533zM860 485v756l-418 -756h418z" />
    <glyph glyph-name="Ccedilla" unicode="&#xc7;" horiz-adv-x="1290" 
d="M1126 322l115 -115q-103 -121 -222.5 -176.5t-277.5 -55.5q-289 0 -469 201q-86 97 -134 230t-48 276q0 152 49.5 283.5t135.5 225t207.5 147t260.5 53.5q153 0 271 -55t231 -179l-119 -110q-98 102 -183.5 144t-194.5 42q-209 0 -345.5 -156t-136.5 -395
q0 -238 139 -393.5t351 -155.5q113 0 202 45.5t168 143.5zM584 -428l-88 70q78 50 121 106t63 135l160 -55q-32 -77 -93.5 -138.5t-162.5 -117.5z" />
    <glyph glyph-name="Egrave" unicode="&#xc8;" horiz-adv-x="968" 
d="M326 1219v-457h538v-148h-538v-467h538v-147h-710v1366h710v-147h-538zM391 1741l182 -268h-122l-246 268h186z" />
    <glyph glyph-name="Eacute" unicode="&#xc9;" horiz-adv-x="968" 
d="M326 1219v-457h538v-148h-538v-467h538v-147h-710v1366h710v-147h-538zM578 1741h186l-246 -268h-123z" />
    <glyph glyph-name="Ecircumflex" unicode="&#xca;" horiz-adv-x="968" 
d="M326 1219v-457h538v-148h-538v-467h538v-147h-710v1366h710v-147h-538zM485 1642l-153 -169h-137l223 272h143l213 -272h-135z" />
    <glyph glyph-name="Edieresis" unicode="&#xcb;" horiz-adv-x="968" 
d="M326 1219v-457h538v-148h-538v-467h538v-147h-710v1366h710v-147h-538zM274 1716q44 0 74.5 -31t30.5 -75q0 -43 -31 -73t-74 -30q-44 0 -74 30.5t-30 74.5t30 74t74 30zM692 1716q44 0 74.5 -31t30.5 -75q0 -43 -31 -73t-74 -30q-44 0 -74 30.5t-30 74.5t30 74t74 30z
" />
    <glyph glyph-name="Igrave" unicode="&#xcc;" horiz-adv-x="512" 
d="M342 1366v-1366h-172v1366h172zM164 1741l180 -268h-123l-246 268h189z" />
    <glyph glyph-name="Iacute" unicode="&#xcd;" horiz-adv-x="512" 
d="M342 1366v-1366h-172v1366h172zM350 1741h187l-246 -268h-123z" />
    <glyph glyph-name="Icircumflex" unicode="&#xce;" horiz-adv-x="512" 
d="M342 1366v-1366h-172v1366h172zM258 1642l-156 -169h-135l223 272h142l213 -272h-133z" />
    <glyph glyph-name="Idieresis" unicode="&#xcf;" horiz-adv-x="512" 
d="M342 1366v-1366h-172v1366h172zM104 1716q44 0 74.5 -31t30.5 -75q0 -43 -31 -73t-74 -30q-44 0 -74 30.5t-30 74.5t30 74t74 30zM408 1716q44 0 74 -31t30 -75q0 -43 -30.5 -73t-73.5 -30q-44 0 -74.5 30.5t-30.5 74.5t30.5 74t74.5 30z" />
    <glyph glyph-name="Eth" unicode="&#xd0;" horiz-adv-x="1282" 
d="M170 762v604h362q309 0 484.5 -176.5t175.5 -487.5q0 -172 -55.5 -312t-159.5 -232q-177 -158 -475 -158h-332v623h-154v139h154zM342 762h334v-139h-334v-476h61q173 0 264.5 22t163.5 81q185 144 185 450q0 249 -127.5 385t-360.5 136h-186v-459z" />
    <glyph glyph-name="Ntilde" unicode="&#xd1;" horiz-adv-x="1398" 
d="M342 1044v-1044h-172v1366h158l729 -1028v1028h172v-1366h-152zM928 1708l112 -43q-51 -92 -97 -131t-105 -39q-30 0 -57.5 9t-86.5 40q-68 35 -100 35q-62 0 -96 -86l-113 33q47 100 91 141t104 41q30 0 61 -11t96 -44q71 -35 92 -35q61 0 99 90z" />
    <glyph glyph-name="Ograve" unicode="&#xd2;" horiz-adv-x="1519" 
d="M766 1391q142 0 274 -61.5t230 -174.5q83 -96 121.5 -213.5t38.5 -271.5q0 -160 -60 -298t-172 -233q-92 -79 -204.5 -121.5t-231.5 -42.5q-152 0 -293 68t-236 188q-143 181 -143 445q0 151 51.5 283.5t141 227.5t215 149.5t268.5 54.5zM762 1231q-214 0 -355 -156.5
t-141 -392.5q0 -238 140 -393.5t352 -155.5q103 0 199 43t165 121q60 66 95.5 168t35.5 207q0 269 -155 418q-68 66 -156.5 103.5t-179.5 37.5zM668 1741l182 -268h-123l-248 268h189z" />
    <glyph glyph-name="Oacute" unicode="&#xd3;" horiz-adv-x="1519" 
d="M766 1391q142 0 274 -61.5t230 -174.5q83 -96 121.5 -213.5t38.5 -271.5q0 -160 -60 -298t-172 -233q-92 -79 -204.5 -121.5t-231.5 -42.5q-152 0 -293 68t-236 188q-143 181 -143 445q0 151 51.5 283.5t141 227.5t215 149.5t268.5 54.5zM762 1231q-214 0 -355 -156.5
t-141 -392.5q0 -238 140 -393.5t352 -155.5q103 0 199 43t165 121q60 66 95.5 168t35.5 207q0 269 -155 418q-68 66 -156.5 103.5t-179.5 37.5zM852 1741h188l-245 -268h-123z" />
    <glyph glyph-name="Ocircumflex" unicode="&#xd4;" horiz-adv-x="1519" 
d="M766 1391q142 0 274 -61.5t230 -174.5q83 -96 121.5 -213.5t38.5 -271.5q0 -160 -60 -298t-172 -233q-92 -79 -204.5 -121.5t-231.5 -42.5q-152 0 -293 68t-236 188q-143 181 -143 445q0 151 51.5 283.5t141 227.5t215 149.5t268.5 54.5zM762 1231q-214 0 -355 -156.5
t-141 -392.5q0 -238 140 -393.5t352 -155.5q103 0 199 43t165 121q60 66 95.5 168t35.5 207q0 269 -155 418q-68 66 -156.5 103.5t-179.5 37.5zM762 1642l-154 -169h-137l223 272h142l213 -272h-134z" />
    <glyph glyph-name="Otilde" unicode="&#xd5;" horiz-adv-x="1519" 
d="M766 1391q142 0 274 -61.5t230 -174.5q83 -96 121.5 -213.5t38.5 -271.5q0 -160 -60 -298t-172 -233q-92 -79 -204.5 -121.5t-231.5 -42.5q-152 0 -293 68t-236 188q-143 181 -143 445q0 151 51.5 283.5t141 227.5t215 149.5t268.5 54.5zM762 1231q-214 0 -355 -156.5
t-141 -392.5q0 -238 140 -393.5t352 -155.5q103 0 199 43t165 121q60 66 95.5 168t35.5 207q0 269 -155 418q-68 66 -156.5 103.5t-179.5 37.5zM989 1708l113 -43q-51 -92 -97.5 -131t-105.5 -39q-30 0 -56.5 9t-86.5 40q-68 35 -101 35q-62 0 -96 -86l-113 33
q47 100 91 141t104 41q29 0 61.5 -11t96.5 -44q71 -35 92 -35q60 0 98 90z" />
    <glyph glyph-name="Odieresis" unicode="&#xd6;" horiz-adv-x="1519" 
d="M766 1391q142 0 274 -61.5t230 -174.5q83 -96 121.5 -213.5t38.5 -271.5q0 -160 -60 -298t-172 -233q-92 -79 -204.5 -121.5t-231.5 -42.5q-152 0 -293 68t-236 188q-143 181 -143 445q0 151 51.5 283.5t141 227.5t215 149.5t268.5 54.5zM762 1231q-214 0 -355 -156.5
t-141 -392.5q0 -238 140 -393.5t352 -155.5q103 0 199 43t165 121q60 66 95.5 168t35.5 207q0 269 -155 418q-68 66 -156.5 103.5t-179.5 37.5zM551 1716q44 0 74 -31t30 -75q0 -43 -30.5 -73t-73.5 -30q-44 0 -74.5 30.5t-30.5 74.5t30.5 74t74.5 30zM969 1716q44 0 74 -31
t30 -75q0 -43 -30.5 -73t-73.5 -30q-44 0 -74.5 30.5t-30.5 74.5t30.5 74t74.5 30z" />
    <glyph glyph-name="multiply" unicode="&#xd7;" 
d="M188 1087l322 -323l324 326l65 -66l-324 -324l324 -323l-63 -64l-324 324l-324 -326l-65 66l326 323l-324 324z" />
    <glyph glyph-name="Oslash" unicode="&#xd8;" horiz-adv-x="1515" 
d="M311 152l-153 -162l-56 53l154 164q-91 113 -128.5 218t-37.5 249q0 324 199 520q95 94 217.5 145.5t251.5 51.5q246 0 450 -177l144 156l57 -55l-145 -156q89 -123 125 -228t36 -243q0 -151 -51.5 -284t-141 -227t-215 -148t-269.5 -54q-124 0 -226 41.5t-211 135.5z
M1145 1036l-719 -770q148 -133 326 -133q218 0 357.5 156t139.5 401q0 106 -23.5 183.5t-80.5 162.5zM373 328l719 770q-156 135 -330 135q-215 0 -355.5 -156t-140.5 -395q0 -106 25.5 -190t81.5 -164z" />
    <glyph glyph-name="Ugrave" unicode="&#xd9;" horiz-adv-x="1302" 
d="M317 1366v-813q0 -130 20.5 -204t70.5 -124q43 -41 109.5 -66.5t131.5 -25.5t131.5 27.5t110.5 72.5q55 53 73.5 119.5t18.5 204.5v809h176v-809q0 -154 -27.5 -250.5t-93.5 -169.5q-69 -78 -168.5 -120t-216.5 -42q-121 0 -224.5 44.5t-172.5 127.5q-63 72 -87 161
t-24 249v809h172zM561 1741l180 -268h-123l-245 268h188z" />
    <glyph glyph-name="Uacute" unicode="&#xda;" horiz-adv-x="1302" 
d="M317 1366v-813q0 -130 20.5 -204t70.5 -124q43 -41 109.5 -66.5t131.5 -25.5t131.5 27.5t110.5 72.5q55 53 73.5 119.5t18.5 204.5v809h176v-809q0 -154 -27.5 -250.5t-93.5 -169.5q-69 -78 -168.5 -120t-216.5 -42q-121 0 -224.5 44.5t-172.5 127.5q-63 72 -87 161
t-24 249v809h172zM745 1741h189l-248 -268h-123z" />
    <glyph glyph-name="Ucircumflex" unicode="&#xdb;" horiz-adv-x="1302" 
d="M317 1366v-813q0 -130 20.5 -204t70.5 -124q43 -41 109.5 -66.5t131.5 -25.5t131.5 27.5t110.5 72.5q55 53 73.5 119.5t18.5 204.5v809h176v-809q0 -154 -27.5 -250.5t-93.5 -169.5q-69 -78 -168.5 -120t-216.5 -42q-121 0 -224.5 44.5t-172.5 127.5q-63 72 -87 161
t-24 249v809h172zM653 1642l-153 -169h-135l221 272h143l213 -272h-135z" />
    <glyph glyph-name="Udieresis" unicode="&#xdc;" horiz-adv-x="1302" 
d="M317 1366v-813q0 -130 20.5 -204t70.5 -124q43 -41 109.5 -66.5t131.5 -25.5t131.5 27.5t110.5 72.5q55 53 73.5 119.5t18.5 204.5v809h176v-809q0 -154 -27.5 -250.5t-93.5 -169.5q-69 -78 -168.5 -120t-216.5 -42q-121 0 -224.5 44.5t-172.5 127.5q-63 72 -87 161
t-24 249v809h172zM442 1716q44 0 74.5 -31t30.5 -75q0 -43 -31 -73t-74 -30q-44 0 -74 30.5t-30 74.5t30 74t74 30zM862 1716q44 0 74.5 -30t30.5 -76q0 -43 -31 -73t-74 -30q-44 0 -74 30.5t-30 74.5t30 74t74 30z" />
    <glyph glyph-name="Yacute" unicode="&#xdd;" horiz-adv-x="1083" 
d="M631 602v-602h-172v602l-471 764h202l353 -586l348 586h205zM635 1741h186l-246 -268h-122z" />
    <glyph glyph-name="Thorn" unicode="&#xde;" horiz-adv-x="1087" 
d="M332 350v-350h-172v1366h172v-172h192q243 0 372.5 -108t129.5 -310q0 -101 -38 -188t-107 -144q-119 -94 -338 -94h-211zM332 498h178q107 0 170 24q78 28 125 95.5t47 154.5q0 88 -46 154t-128 94q-80 27 -191 27h-155v-549z" />
    <glyph glyph-name="germandbls" unicode="&#xdf;" horiz-adv-x="1013" 
d="M168 807h-109v137h109v117q0 148 90.5 230.5t251.5 82.5q154 0 248 -83.5t94 -221.5q0 -46 -15.5 -96.5t-41.5 -85.5q-20 -29 -46.5 -48t-80.5 -44q58 -13 91.5 -30.5t67.5 -51.5q109 -109 109 -291q0 -198 -101.5 -318t-267.5 -120q-88 0 -159 39l41 127q70 -21 108 -21
q100 0 161.5 80t61.5 209q0 139 -68 209t-208 75v150q47 6 71.5 14t45.5 25q33 25 53 68.5t20 91.5q0 79 -52 130.5t-130 51.5q-46 0 -87.5 -17.5t-66.5 -46.5q-34 -42 -34 -133v-1036h-156v807z" />
    <glyph glyph-name="agrave" unicode="&#xe0;" horiz-adv-x="1181" 
d="M868 788v156h156v-944h-156v182q-71 -106 -154 -155.5t-190 -49.5q-195 0 -319.5 138.5t-124.5 353.5q0 217 126.5 357.5t321.5 140.5q107 0 189 -43.5t151 -135.5zM551 827q-150 0 -229 -112q-78 -108 -78 -250q0 -151 87 -251.5t216 -100.5q134 0 228.5 108t94.5 260
q0 154 -89 250t-230 96zM502 1352l170 -271h-113l-242 271h185z" />
    <glyph glyph-name="aacute" unicode="&#xe1;" horiz-adv-x="1181" 
d="M868 788v156h156v-944h-156v182q-71 -106 -154 -155.5t-190 -49.5q-195 0 -319.5 138.5t-124.5 353.5q0 217 126.5 357.5t321.5 140.5q107 0 189 -43.5t151 -135.5zM551 827q-150 0 -229 -112q-78 -108 -78 -250q0 -151 87 -251.5t216 -100.5q134 0 228.5 108t94.5 260
q0 154 -89 250t-230 96zM678 1352h184l-241 -271h-111z" />
    <glyph glyph-name="acircumflex" unicode="&#xe2;" horiz-adv-x="1181" 
d="M868 788v156h156v-944h-156v182q-71 -106 -154 -155.5t-190 -49.5q-195 0 -319.5 138.5t-124.5 353.5q0 217 126.5 357.5t321.5 140.5q107 0 189 -43.5t151 -135.5zM551 827q-150 0 -229 -112q-78 -108 -78 -250q0 -151 87 -251.5t216 -100.5q134 0 228.5 108t94.5 260
q0 154 -89 250t-230 96zM590 1253l-150 -172h-133l211 273h148l208 -273h-135z" />
    <glyph glyph-name="atilde" unicode="&#xe3;" horiz-adv-x="1181" 
d="M868 788v156h156v-944h-156v182q-71 -106 -154 -155.5t-190 -49.5q-195 0 -319.5 138.5t-124.5 353.5q0 217 126.5 357.5t321.5 140.5q107 0 189 -43.5t151 -135.5zM551 827q-150 0 -229 -112q-78 -108 -78 -250q0 -151 87 -251.5t216 -100.5q134 0 228.5 108t94.5 260
q0 154 -89 250t-230 96zM819 1311l103 -37q-46 -92 -91 -132t-102 -40q-32 0 -66 14.5t-110 59.5q-40 26 -68 26q-58 0 -96 -84l-104 47q82 160 194 160q38 0 79.5 -17t111.5 -63q31 -20 55 -20q56 0 94 86z" />
    <glyph glyph-name="adieresis" unicode="&#xe4;" horiz-adv-x="1181" 
d="M868 788v156h156v-944h-156v182q-71 -106 -154 -155.5t-190 -49.5q-195 0 -319.5 138.5t-124.5 353.5q0 217 126.5 357.5t321.5 140.5q107 0 189 -43.5t151 -135.5zM551 827q-150 0 -229 -112q-78 -108 -78 -250q0 -151 87 -251.5t216 -100.5q135 0 229 107.5t94 260.5
q0 154 -89 250t-230 96zM395 1311q41 0 69 -28t28 -71q0 -40 -28 -67t-69 -27t-68.5 27.5t-27.5 68.5t27.5 69t68.5 28zM805 1311q41 0 68.5 -28t27.5 -71q0 -40 -27.5 -67t-68.5 -27t-68.5 27.5t-27.5 68.5t27.5 69t68.5 28z" />
    <glyph glyph-name="aring" unicode="&#xe5;" horiz-adv-x="1181" 
d="M868 788v156h156v-944h-156v182q-71 -106 -154 -155.5t-190 -49.5q-195 0 -319.5 138.5t-124.5 353.5q0 217 126.5 357.5t321.5 140.5q107 0 189 -43.5t151 -135.5zM551 827q-150 0 -229 -112q-78 -108 -78 -250q0 -151 87 -251.5t216 -100.5q135 0 229 107.5t94 260.5
q0 154 -89 250t-230 96zM559 1386q69 0 116.5 -47.5t47.5 -117.5q0 -66 -48 -113t-116 -47q-70 0 -118 47t-48 115q0 69 48 116t118 47zM559 1321q-43 0 -71.5 -27.5t-28.5 -70.5q0 -41 28.5 -69t71.5 -28q41 0 69.5 28.5t28.5 68.5q0 41 -28.5 69.5t-69.5 28.5z" />
    <glyph glyph-name="ae" unicode="&#xe6;" horiz-adv-x="1898" 
d="M1645 285l133 -56q-134 -252 -418 -252q-112 0 -190.5 43.5t-135.5 137.5v-158h-153v174q-130 -197 -349 -197q-201 0 -326.5 137t-125.5 357q0 217 125.5 356.5t320.5 139.5q219 0 355 -176v153h153v-153q34 53 61.5 79t69.5 48q88 49 203 49q206 0 336 -148
q60 -69 93.5 -158t33.5 -180q0 -32 -2 -59h-795q11 -70 27 -110.5t49 -78.5q43 -52 108 -82t134 -30q176 0 293 164zM1034 537h633q-20 137 -103 213.5t-210 76.5q-79 0 -148.5 -33.5t-111.5 -93.5q-45 -61 -60 -163zM563 827q-175 0 -258 -137q-61 -94 -61 -223
q0 -152 91 -253t226 -101t227.5 104t92.5 258q0 157 -88.5 254.5t-229.5 97.5z" />
    <glyph glyph-name="ccedilla" unicode="&#xe7;" horiz-adv-x="935" 
d="M795 223l96 -106q-80 -73 -163 -106.5t-185 -33.5q-203 0 -333 138.5t-130 353.5q0 220 132 359t339 139q199 0 344 -142l-100 -100q-107 98 -240 98q-139 0 -227 -97t-88 -251q0 -157 87.5 -255.5t225.5 -98.5q134 0 242 102zM387 -436l-65 69q78 46 126 107.5t76 150.5
l129 -49q-47 -98 -108 -161.5t-158 -116.5z" />
    <glyph glyph-name="egrave" unicode="&#xe8;" horiz-adv-x="1103" 
d="M1032 422h-786q6 -60 19 -97t42 -75q94 -129 254 -129q88 0 165 44t118 118l137 -52q-58 -118 -171 -186t-249 -68q-211 0 -346 138.5t-135 353.5q0 218 134 358t341 140q205 0 342 -138.5t137 -345.5q0 -38 -2 -61zM248 537h620q-4 55 -16 90t-37 71q-44 60 -113 94.5
t-147 34.5t-145.5 -34.5t-108.5 -96.5q-37 -57 -53 -159zM463 1352l170 -271h-113l-239 271h182z" />
    <glyph glyph-name="eacute" unicode="&#xe9;" horiz-adv-x="1103" 
d="M1032 422h-786q6 -60 19 -97t42 -75q94 -129 254 -129q88 0 165 44t118 118l137 -52q-58 -118 -171 -186t-249 -68q-211 0 -346 138.5t-135 353.5q0 218 134 358t341 140q205 0 342 -138.5t137 -345.5q0 -38 -2 -61zM248 537h620q-4 55 -16 90t-37 71q-44 60 -113 94.5
t-147 34.5t-145.5 -34.5t-108.5 -96.5q-37 -57 -53 -159zM641 1352h182l-239 -271h-113z" />
    <glyph glyph-name="ecircumflex" unicode="&#xea;" horiz-adv-x="1103" 
d="M1032 422h-786q6 -60 19 -97t42 -75q94 -129 254 -129q88 0 165 44t118 118l137 -52q-58 -118 -171 -186t-249 -68q-211 0 -346 138.5t-135 353.5q0 218 134 358t341 140q205 0 342 -138.5t137 -345.5q0 -38 -2 -61zM248 537h620q-4 55 -16 90t-37 71q-44 60 -113 94.5
t-147 34.5t-145.5 -34.5t-108.5 -96.5q-37 -57 -53 -159zM551 1253l-150 -172h-133l213 273h148l207 -273h-136z" />
    <glyph glyph-name="edieresis" unicode="&#xeb;" horiz-adv-x="1103" 
d="M1032 422h-786q6 -60 19 -97t42 -75q94 -129 254 -129q88 0 165 44t118 118l137 -52q-58 -118 -171 -186t-249 -68q-211 0 -346 138.5t-135 353.5q0 218 134 358t341 140q205 0 342 -138.5t137 -345.5q0 -38 -2 -61zM248 537h620q-4 55 -16 90t-37 71q-44 60 -113 94.5
t-147 34.5t-145.5 -34.5t-108.5 -96.5q-37 -57 -53 -159zM346 1311q41 0 68.5 -28t27.5 -71q0 -40 -27.5 -67t-68.5 -27t-68.5 27.5t-27.5 68.5t27.5 69t68.5 28zM756 1311q41 0 68.5 -28t27.5 -71q0 -40 -27.5 -67t-68.5 -27t-69 27.5t-28 68.5t28 69t69 28z" />
    <glyph glyph-name="igrave" unicode="&#xec;" horiz-adv-x="468" 
d="M313 944v-944h-155v944h155zM147 1352l168 -271h-110l-242 271h184z" />
    <glyph glyph-name="iacute" unicode="&#xed;" horiz-adv-x="468" 
d="M311 944v-944h-155v944h155zM324 1352h182l-240 -271h-112z" />
    <glyph glyph-name="icircumflex" unicode="&#xee;" horiz-adv-x="468" 
d="M311 944v-944h-155v944h155zM233 1253l-149 -172h-133l213 273h147l207 -273h-135z" />
    <glyph glyph-name="idieresis" unicode="&#xef;" horiz-adv-x="468" 
d="M311 944v-944h-155v944h155zM92 1311q41 0 68.5 -28t27.5 -71q0 -40 -27.5 -67t-68.5 -27t-68.5 27.5t-27.5 68.5t27.5 69t68.5 28zM377 1311q41 0 68.5 -28t27.5 -71q0 -40 -27.5 -67t-68.5 -27t-68.5 27.5t-27.5 68.5t27.5 69t68.5 28z" />
    <glyph glyph-name="eth" unicode="&#xf0;" horiz-adv-x="1124" 
d="M369 1147l182 100q-38 35 -106 82t-101 60l49 63q50 -17 124 -61.5t130 -90.5l211 115l45 -78l-178 -96q150 -141 234.5 -332.5t84.5 -390.5q0 -264 -145 -403q-66 -66 -155 -102t-187 -36q-211 0 -344 139t-133 359q0 217 134 354.5t345 137.5q66 0 121.5 -16t124.5 -54
q-25 71 -75.5 148.5t-111.5 138.5l-206 -117zM559 823q-141 0 -230 -97t-89 -251q0 -159 88 -256.5t231 -97.5q145 0 234.5 99t89.5 257q0 153 -90.5 249.5t-233.5 96.5z" />
    <glyph glyph-name="ntilde" unicode="&#xf1;" horiz-adv-x="1042" 
d="M156 944h155v-133q61 83 127 119.5t154 36.5q131 0 219 -78q44 -43 62 -99t18 -153v-637h-156v602q0 116 -35 162q-20 29 -60 46t-87 17q-110 0 -180 -79q-34 -37 -48 -76t-14 -97v-575h-155v944zM750 1311l102 -37q-46 -92 -91 -132t-102 -40q-32 0 -67 15t-109 59
q-43 26 -67 26q-59 0 -97 -84l-104 47q43 83 89.5 121.5t105.5 38.5q38 0 78.5 -17t111.5 -63q31 -20 53 -20q59 0 97 86z" />
    <glyph glyph-name="ograve" unicode="&#xf2;" horiz-adv-x="1122" 
d="M563 967q209 0 343 -140t134 -358q0 -136 -64 -249t-175 -178t-244 -65q-211 0 -344 139t-133 357q0 220 134 357t349 137zM563 823q-146 0 -234.5 -96.5t-88.5 -255.5q0 -157 88 -253.5t233 -96.5q140 0 230 98.5t90 251.5q0 158 -87.5 255t-230.5 97zM473 1352
l168 -271h-111l-241 271h184z" />
    <glyph glyph-name="oacute" unicode="&#xf3;" horiz-adv-x="1122" 
d="M563 967q209 0 343 -140t134 -358q0 -136 -64 -249t-175 -178t-244 -65q-211 0 -344 139t-133 357q0 220 134 357t349 137zM563 823q-146 0 -234.5 -96.5t-88.5 -255.5q0 -157 88 -253.5t233 -96.5q140 0 230 98.5t90 251.5q0 158 -87.5 255t-230.5 97zM649 1352h182
l-239 -271h-113z" />
    <glyph glyph-name="ocircumflex" unicode="&#xf4;" horiz-adv-x="1122" 
d="M563 967q209 0 343 -140t134 -358q0 -136 -64 -249t-175 -178t-244 -65q-211 0 -344 139t-133 357q0 220 134 357t349 137zM563 823q-146 0 -234.5 -96.5t-88.5 -255.5q0 -157 88 -253.5t233 -96.5q140 0 230 98.5t90 251.5q0 158 -87.5 255t-230.5 97zM559 1253
l-147 -172h-136l213 273h148l207 -273h-135z" />
    <glyph glyph-name="otilde" unicode="&#xf5;" horiz-adv-x="1122" 
d="M563 967q209 0 343 -140t134 -358q0 -136 -64 -249t-175 -178t-244 -65q-211 0 -344 139t-133 357q0 220 134 357t349 137zM563 823q-146 0 -234.5 -96.5t-88.5 -255.5q0 -157 88 -253.5t233 -96.5q140 0 230 98.5t90 251.5q0 158 -87.5 255t-230.5 97zM788 1311l105 -37
q-48 -93 -92.5 -132.5t-102.5 -39.5q-31 0 -65.5 15t-108.5 59q-43 26 -67 26q-59 0 -97 -84l-104 47q43 83 89.5 121.5t105.5 38.5q37 0 77.5 -17t110.5 -63q31 -20 55 -20q59 0 94 86z" />
    <glyph glyph-name="odieresis" unicode="&#xf6;" horiz-adv-x="1122" 
d="M563 967q209 0 343 -140t134 -358q0 -207 -139.5 -349.5t-343.5 -142.5q-211 0 -344 139t-133 357q0 220 134 357t349 137zM563 823q-146 0 -234.5 -96.5t-88.5 -255.5q0 -157 88 -253.5t233 -96.5q140 0 230 98.5t90 251.5q0 158 -87.5 255t-230.5 97zM356 1311
q41 0 69 -28t28 -71q0 -40 -28 -67t-69 -27t-68.5 27.5t-27.5 68.5t27.5 69t68.5 28zM764 1311q41 0 68.5 -28t27.5 -71q0 -40 -27.5 -67t-68.5 -27t-68.5 27.5t-27.5 68.5t27.5 69t68.5 28z" />
    <glyph glyph-name="divide" unicode="&#xf7;" 
d="M45 745h934v-90h-934v90zM514 1157q32 0 56 -24t24 -58t-24 -58t-58 -24t-58 24t-24 58t24.5 58t59.5 24zM512 406q34 0 58 -24t24 -58t-24 -58t-58 -24t-58 24t-24 58t24 58t58 24z" />
    <glyph glyph-name="oslash" unicode="&#xf8;" horiz-adv-x="1122" 
d="M244 88l-109 -115l-57 56l110 114q-59 80 -83.5 155t-24.5 173q0 218 133 357t342 139q175 0 315 -107l123 129l56 -55l-123 -127q62 -83 88 -158.5t26 -173.5q0 -218 -136.5 -358t-350.5 -140q-175 0 -309 111zM817 696l-465 -497q93 -78 211 -78q140 0 230 99.5
t90 254.5q0 65 -14.5 114t-51.5 107zM299 256l463 496q-88 71 -205 71q-143 0 -232 -97.5t-89 -254.5q0 -65 14 -113t49 -102z" />
    <glyph glyph-name="ugrave" unicode="&#xf9;" horiz-adv-x="993" 
d="M705 944h157v-604q0 -98 -21 -157.5t-73 -106.5q-110 -99 -272 -99q-164 0 -273 101q-94 91 -94 262v604h156v-600q0 -100 58.5 -163.5t152.5 -63.5q50 0 94 19t72 52q43 51 43 152v604zM408 1352l170 -271h-113l-242 271h185z" />
    <glyph glyph-name="uacute" unicode="&#xfa;" horiz-adv-x="993" 
d="M705 944h157v-604q0 -98 -21 -157.5t-73 -106.5q-110 -99 -272 -99q-164 0 -273 101q-94 91 -94 262v604h156v-600q0 -100 58.5 -163.5t152.5 -63.5q50 0 94 19t72 52q43 51 43 152v604zM584 1352h184l-242 -271h-110z" />
    <glyph glyph-name="ucircumflex" unicode="&#xfb;" horiz-adv-x="993" 
d="M705 944h157v-604q0 -98 -21 -157.5t-73 -106.5q-110 -99 -272 -99q-164 0 -273 101q-94 91 -94 262v604h156v-600q0 -100 58.5 -163.5t152.5 -63.5q50 0 94 19t72 52q43 51 43 152v604zM496 1253l-150 -172h-133l211 273h147l209 -273h-135z" />
    <glyph glyph-name="udieresis" unicode="&#xfc;" horiz-adv-x="993" 
d="M705 944h157v-604q0 -98 -21 -157.5t-73 -106.5q-110 -99 -272 -99q-164 0 -273 101q-94 91 -94 262v604h156v-600q0 -101 58.5 -164t152.5 -63q50 0 94 19t72 52q43 51 43 152v604zM291 1311q41 0 68.5 -28t27.5 -71q0 -40 -27.5 -67t-68.5 -27t-68.5 27.5t-27.5 68.5
t27.5 69t68.5 28zM700 1311q41 0 69 -28t28 -71q0 -40 -28 -67t-69 -27t-68.5 27.5t-27.5 68.5t27.5 69t68.5 28z" />
    <glyph glyph-name="yacute" unicode="&#xfd;" horiz-adv-x="897" 
d="M432 244l283 700h170l-563 -1399h-170l196 484l-336 915h166zM537 1352h184l-242 -271h-112z" />
    <glyph glyph-name="thorn" unicode="&#xfe;" horiz-adv-x="1175" 
d="M152 1366h155v-594q68 105 147 150t197 45q196 0 320.5 -136.5t124.5 -351.5q0 -222 -124 -362t-321 -140q-107 0 -207 50q-44 22 -72 46t-65 74v-589h-155v1808zM625 827q-141 0 -229.5 -102.5t-88.5 -267.5q0 -155 85.5 -249.5t225.5 -94.5t226 99.5t86 260.5
q0 165 -82 256q-41 46 -100.5 72t-122.5 26z" />
    <glyph glyph-name="ydieresis" unicode="&#xff;" horiz-adv-x="897" 
d="M432 244l283 700h170l-563 -1399h-170l196 484l-336 915h166zM244 1311q41 0 68.5 -28t27.5 -71q0 -40 -27.5 -67t-68.5 -27t-69 27.5t-28 68.5t28 69t69 28zM653 1311q41 0 69 -28t28 -71q0 -40 -28 -67t-69 -27t-68.5 27.5t-27.5 68.5t27.5 69t68.5 28z" />
    <glyph glyph-name="Amacron" unicode="&#x100;" horiz-adv-x="1241" 
d="M926 315h-613l-125 -315h-178l514 1366h205l502 -1366h-193zM872 463l-249 686l-258 -686h507zM907 1663v-117h-575v117h575z" />
    <glyph glyph-name="amacron" unicode="&#x101;" horiz-adv-x="1181" 
d="M868 788v156h156v-944h-156v182q-71 -106 -154 -155.5t-190 -49.5q-195 0 -319.5 138.5t-124.5 353.5q0 217 126.5 357.5t321.5 140.5q107 0 189 -43.5t151 -135.5zM551 827q-150 0 -229 -112q-78 -108 -78 -250q0 -151 87 -251.5t216 -100.5q134 0 228.5 108t94.5 260
q0 154 -89 250t-230 96zM829 1278v-127h-555v127h555z" />
    <glyph glyph-name="Abreve" unicode="&#x102;" horiz-adv-x="1241" 
d="M926 315h-613l-125 -315h-178l514 1366h205l502 -1366h-193zM872 463l-249 686l-258 -686h507zM303 1716h133q31 -58 73.5 -83t111.5 -25t111 24.5t73 83.5h133q-28 -105 -111 -163t-206 -58t-206.5 58.5t-111.5 162.5z" />
    <glyph glyph-name="abreve" unicode="&#x103;" horiz-adv-x="1181" 
d="M868 788v156h156v-944h-156v182q-71 -106 -154 -155.5t-190 -49.5q-195 0 -319.5 138.5t-124.5 353.5q0 217 126.5 357.5t321.5 140.5q107 0 189 -43.5t151 -135.5zM551 827q-150 0 -229 -112q-78 -108 -78 -250q0 -151 87 -251.5t216 -100.5q134 0 228.5 108t94.5 260
q0 154 -89 250t-230 96zM248 1341h127q29 -57 69.5 -80.5t106.5 -23.5q68 0 108.5 23.5t69.5 80.5h127q-26 -100 -106.5 -155.5t-198.5 -55.5q-117 0 -197 55.5t-106 155.5z" />
    <glyph glyph-name="Aogonek" unicode="&#x104;" horiz-adv-x="1241" 
d="M1231 0h-35q-80 -62 -110.5 -102t-30.5 -84q0 -37 33.5 -62.5t82.5 -25.5q26 0 78 14l19 -105q-60 -22 -119 -22q-95 0 -158 48.5t-63 121.5q0 60 37.5 116.5t107.5 100.5h-35l-112 315h-613l-125 -315h-178l514 1366h205zM872 463l-249 686l-258 -686h507z" />
    <glyph glyph-name="aogonek" unicode="&#x105;" horiz-adv-x="1181" 
d="M1024 0h-45q-3 -3 -23 -18q-57 -47 -79.5 -81.5t-22.5 -72.5q0 -40 30.5 -64t80.5 -24q33 0 73 12l19 -94q-56 -20 -111 -20q-91 0 -149 45t-58 116q0 114 131 201h-2v182q-71 -106 -154 -155.5t-190 -49.5q-195 0 -319.5 138.5t-124.5 353.5q0 217 126.5 357.5
t321.5 140.5q107 0 189 -43.5t151 -135.5v156h156v-944zM551 827q-150 0 -229 -112q-78 -108 -78 -250q0 -151 87 -251.5t216 -100.5q134 0 228.5 108t94.5 260q0 154 -89 250t-230 96z" />
    <glyph glyph-name="Cacute" unicode="&#x106;" horiz-adv-x="1290" 
d="M1126 322l115 -115q-103 -121 -222.5 -176.5t-277.5 -55.5q-289 0 -469 201q-86 97 -134 230t-48 276q0 152 49.5 283.5t135.5 225t207.5 147t260.5 53.5q188 0 342 -93q42 -27 76 -56.5t84 -84.5l-119 -110q-100 103 -184.5 144.5t-193.5 41.5q-209 0 -345.5 -156
t-136.5 -395q0 -238 139 -393.5t351 -155.5q112 0 201 46t169 143zM848 1741h188l-248 -268h-122z" />
    <glyph glyph-name="cacute" unicode="&#x107;" horiz-adv-x="935" 
d="M795 223l96 -106q-80 -73 -163 -106.5t-185 -33.5q-203 0 -333 138.5t-130 353.5q0 220 132 359t339 139q199 0 344 -142l-100 -100q-107 98 -240 98q-139 0 -227 -97t-88 -251q0 -157 87.5 -255.5t225.5 -98.5q134 0 242 102zM678 1352h184l-241 -271h-111z" />
    <glyph glyph-name="Ccircumflex" unicode="&#x108;" horiz-adv-x="1290" 
d="M1126 322l115 -115q-103 -121 -222.5 -176.5t-277.5 -55.5q-289 0 -469 201q-86 97 -134 230t-48 276q0 152 49.5 283.5t135.5 225t207.5 147t260.5 53.5q188 0 342 -93q42 -27 76 -56.5t84 -84.5l-119 -110q-100 103 -184.5 144.5t-193.5 41.5q-209 0 -345.5 -156
t-136.5 -395q0 -238 139 -393.5t351 -155.5q112 0 201 46t169 143zM729 1642l-154 -169h-137l224 272h143l211 -272h-133z" />
    <glyph glyph-name="Cdotaccent" unicode="&#x10a;" horiz-adv-x="1290" 
d="M1126 322l115 -115q-103 -121 -222.5 -176.5t-277.5 -55.5q-289 0 -469 201q-86 97 -134 230t-48 276q0 152 49.5 283.5t135.5 225t207.5 147t260.5 53.5q188 0 342 -93q42 -27 76 -56.5t84 -84.5l-119 -110q-100 103 -184.5 144.5t-193.5 41.5q-209 0 -345.5 -156
t-136.5 -395q0 -238 139 -393.5t351 -155.5q112 0 201 46t169 143zM756 1716q44 0 74 -31t30 -75q0 -43 -30.5 -73t-73.5 -30q-44 0 -74.5 30.5t-30.5 74.5t30.5 74t74.5 30z" />
    <glyph glyph-name="cdotaccent" unicode="&#x10b;" horiz-adv-x="935" 
d="M795 223l96 -106q-80 -73 -163 -106.5t-185 -33.5q-203 0 -333 138.5t-130 353.5q0 220 132 359t339 139q199 0 344 -142l-100 -100q-107 98 -240 98q-139 0 -227 -97t-88 -251q0 -157 87.5 -255.5t225.5 -98.5q134 0 242 102zM575 1311q41 0 69 -28t28 -71
q0 -40 -28 -67t-69 -27t-68.5 27.5t-27.5 68.5t27.5 69t68.5 28z" />
    <glyph glyph-name="Ccaron" unicode="&#x10c;" horiz-adv-x="1290" 
d="M1126 322l115 -115q-103 -121 -222.5 -176.5t-277.5 -55.5q-289 0 -469 201q-86 97 -134 230t-48 276q0 152 49.5 283.5t135.5 225t207.5 147t260.5 53.5q188 0 342 -93q42 -27 76 -56.5t84 -84.5l-119 -110q-100 103 -184.5 144.5t-193.5 41.5q-209 0 -345.5 -156
t-136.5 -395q0 -238 139 -393.5t351 -155.5q112 0 201 46t169 143zM754 1575l153 170h137l-223 -272h-143l-211 272h133z" />
    <glyph glyph-name="ccaron" unicode="&#x10d;" horiz-adv-x="935" 
d="M795 223l96 -106q-80 -73 -163 -106.5t-185 -33.5q-203 0 -333 138.5t-130 353.5q0 220 132 359t339 139q199 0 344 -142l-100 -100q-107 98 -240 98q-139 0 -227 -97t-88 -251q0 -157 87.5 -255.5t225.5 -98.5q134 0 242 102zM578 1182l149 172h133l-213 -273h-147
l-207 273h135z" />
    <glyph glyph-name="Dcaron" unicode="&#x10e;" horiz-adv-x="1282" 
d="M170 0v1366h362q309 0 484.5 -176t175.5 -485q0 -173 -55.5 -314t-159.5 -233q-177 -158 -475 -158h-332zM342 1221v-1074h61q172 0 263 22t165 81q185 147 185 452q0 248 -128 383.5t-362 135.5h-184zM639 1575l154 170h137l-223 -272h-142l-213 272h133z" />
    <glyph glyph-name="dcaron" unicode="&#x10f;" horiz-adv-x="1490" 
d="M862 801v565h156v-1366h-156v162q-71 -97 -151 -141t-187 -44q-195 0 -319.5 137.5t-124.5 352.5t126 357.5t318 142.5q205 0 338 -166zM557 827q-139 0 -226 -100.5t-87 -261.5q0 -155 84.5 -253.5t218.5 -98.5q136 0 225.5 101t89.5 255q0 159 -85 258.5t-220 99.5z
M1411 1343l-186 -417l-113 39l166 428z" />
    <glyph glyph-name="Dcroat" unicode="&#x110;" horiz-adv-x="1282" 
d="M170 762v604h362q309 0 484.5 -176.5t175.5 -487.5q0 -172 -55.5 -312t-159.5 -232q-177 -158 -475 -158h-332v623h-154v139h154zM342 762h334v-139h-334v-476h61q173 0 264.5 22t163.5 81q185 144 185 450q0 249 -127.5 385t-360.5 136h-186v-459z" />
    <glyph glyph-name="dcroat" unicode="&#x111;" horiz-adv-x="1175" 
d="M862 1198v168h156v-168h149v-125h-149v-1073h-156v162q-72 -97 -151.5 -141t-186.5 -44q-195 0 -319.5 137.5t-124.5 352.5q0 216 125.5 358t316.5 142q106 0 188 -40t152 -126v272h-280v125h280zM557 827q-139 0 -226 -101t-87 -261q0 -155 84.5 -253.5t218.5 -98.5
q136 0 225.5 101t89.5 255q0 159 -85 258.5t-220 99.5z" />
    <glyph glyph-name="Emacron" unicode="&#x112;" horiz-adv-x="968" 
d="M326 1219v-457h538v-148h-538v-467h538v-147h-710v1366h710v-147h-538zM797 1663v-117h-576v117h576z" />
    <glyph glyph-name="emacron" unicode="&#x113;" horiz-adv-x="1103" 
d="M1032 422h-786q6 -60 19 -97t42 -75q94 -129 254 -129q88 0 165 44t118 118l137 -52q-58 -118 -171 -186t-249 -68q-211 0 -346 138.5t-135 353.5q0 218 134 358t341 140q205 0 342 -138.5t137 -345.5q0 -38 -2 -61zM248 537h620q-4 55 -16 90t-37 71q-44 60 -113 94.5
t-147 34.5t-145.5 -34.5t-108.5 -96.5q-37 -57 -53 -159zM836 1278v-127h-557v127h557z" />
    <glyph glyph-name="Ebreve" unicode="&#x114;" horiz-adv-x="968" 
d="M326 1219v-457h538v-148h-538v-467h538v-147h-710v1366h710v-147h-538zM168 1716h131q31 -59 73 -83.5t111 -24.5q70 0 112.5 24.5t74.5 83.5h131q-28 -104 -111.5 -162.5t-206.5 -58.5t-206 58.5t-109 162.5z" />
    <glyph glyph-name="Edotaccent" unicode="&#x116;" horiz-adv-x="968" 
d="M326 1219v-457h538v-148h-538v-467h538v-147h-710v1366h710v-147h-538zM483 1716q44 0 74.5 -31t30.5 -75q0 -43 -31 -73t-74 -30q-44 0 -74 30.5t-30 74.5t30 74t74 30z" />
    <glyph glyph-name="edotaccent" unicode="&#x117;" horiz-adv-x="1103" 
d="M1032 422h-786q6 -60 19 -97t42 -75q94 -129 254 -129q88 0 165 44t118 118l137 -52q-58 -118 -171 -186t-249 -68q-211 0 -346 138.5t-135 353.5q0 218 134 358t341 140q205 0 342 -138.5t137 -345.5q0 -38 -2 -61zM248 537h620q-4 55 -16 90t-37 71q-44 60 -113 94.5
t-147 34.5t-145.5 -34.5t-108.5 -96.5q-37 -57 -53 -159zM551 1311q41 0 68.5 -28t27.5 -71q0 -40 -27.5 -67t-68.5 -27t-68.5 27.5t-27.5 68.5t27.5 69t68.5 28z" />
    <glyph glyph-name="Eogonek" unicode="&#x118;" horiz-adv-x="968" 
d="M864 0h-8q-81 -59 -112 -100t-31 -86q0 -37 33.5 -62.5t82.5 -25.5q29 0 78 14l19 -105q-60 -22 -119 -22q-95 0 -158 48.5t-63 121.5q0 123 145 217h-577v1366h710v-147h-538v-457h538v-148h-538v-467h538v-147z" />
    <glyph glyph-name="eogonek" unicode="&#x119;" horiz-adv-x="1103" 
d="M844 283l137 -52q-34 -77 -111.5 -141.5t-171.5 -93.5q-74 -60 -98.5 -93t-24.5 -75q0 -40 31 -64t82 -24q32 0 74 12l18 -94q-56 -20 -110 -20q-92 0 -150.5 45t-58.5 116q0 98 100 178q-216 4 -348.5 140t-132.5 352q0 218 134 358t341 140q205 0 342 -138.5
t137 -345.5q0 -38 -2 -61h-786q6 -60 19 -97t42 -75q94 -129 254 -129q88 0 165 44t118 118zM248 537h620q-4 55 -16 90t-37 71q-44 60 -113 94.5t-147 34.5t-145.5 -34.5t-108.5 -96.5q-37 -57 -53 -159z" />
    <glyph glyph-name="Ecaron" unicode="&#x11a;" horiz-adv-x="968" 
d="M326 1219v-457h538v-148h-538v-467h538v-147h-710v1366h710v-147h-538zM483 1575l154 170h135l-221 -272h-143l-213 272h135z" />
    <glyph glyph-name="ecaron" unicode="&#x11b;" horiz-adv-x="1103" 
d="M1032 422h-786q6 -60 19 -97t42 -75q94 -129 254 -129q88 0 165 44t118 118l137 -52q-58 -118 -171 -186t-249 -68q-211 0 -346 138.5t-135 353.5q0 218 134 358t341 140q205 0 342 -138.5t137 -345.5q0 -38 -2 -61zM248 537h620q-4 55 -16 90t-37 71q-44 60 -113 94.5
t-147 34.5t-145.5 -34.5t-108.5 -96.5q-37 -57 -53 -159zM553 1182l149 172h134l-213 -273h-148l-207 273h135z" />
    <glyph glyph-name="Gcircumflex" unicode="&#x11c;" horiz-adv-x="1499" 
d="M766 739h651q2 -29 2 -77q0 -137 -33 -239.5t-108 -197.5q-200 -250 -514 -250q-192 0 -346 90.5t-241 252t-87 362.5q0 204 86.5 366.5t240.5 253.5t347 91q155 0 286 -63t228 -185l-129 -105q-72 80 -115 109q-119 86 -270 86q-212 0 -355 -158t-143 -393
q0 -152 65 -278t178.5 -198.5t250.5 -72.5q114 0 222 55t171 146q39 53 58 110t30 148h-475v147zM752 1642l-154 -169h-137l223 272h143l211 -272h-133z" />
    <glyph glyph-name="gcircumflex" unicode="&#x11d;" horiz-adv-x="1167" 
d="M854 782v162h156v-950q0 -118 -30 -201t-95 -145q-128 -125 -348 -125q-265 0 -418 172l106 106q58 -61 90 -82q40 -25 101 -40t121 -15q74 0 139.5 24.5t105.5 67.5q72 78 72 226v198q-69 -104 -153.5 -153.5t-194.5 -49.5q-187 0 -311.5 140.5t-124.5 351.5
q0 114 39.5 217t109.5 170q114 111 299 111q107 0 185.5 -43.5t150.5 -141.5zM547 823q-138 0 -226 -97t-88 -251q0 -152 88.5 -253t221.5 -101q67 0 130 30.5t109 84.5q31 35 49.5 99t18.5 134q0 93 -16.5 148.5t-57.5 101.5q-43 48 -104.5 76t-124.5 28zM582 1253
l-150 -172h-133l213 273h147l207 -273h-135z" />
    <glyph glyph-name="Gbreve" unicode="&#x11e;" horiz-adv-x="1499" 
d="M766 739h651q2 -29 2 -77q0 -137 -33 -239.5t-108 -197.5q-200 -250 -514 -250q-192 0 -346 90.5t-241 252t-87 362.5q0 204 86.5 366.5t240.5 253.5t347 91q155 0 286 -63t228 -185l-129 -105q-72 80 -115 109q-119 86 -270 86q-212 0 -355 -158t-143 -393
q0 -152 65 -278t178.5 -198.5t250.5 -72.5q114 0 222 55t171 146q39 53 58 110t30 148h-475v147zM434 1716h131q31 -58 73.5 -83t111.5 -25q70 0 112 24.5t74 83.5h131q-28 -105 -111 -163t-206 -58t-206.5 58.5t-109.5 162.5z" />
    <glyph glyph-name="gbreve" unicode="&#x11f;" horiz-adv-x="1167" 
d="M854 782v162h156v-950q0 -118 -30 -201t-95 -145q-128 -125 -348 -125q-265 0 -418 172l106 106q58 -61 90 -82q40 -25 101 -40t121 -15q74 0 139.5 24.5t105.5 67.5q72 78 72 226v198q-69 -104 -153.5 -153.5t-194.5 -49.5q-187 0 -311.5 140.5t-124.5 351.5
q0 114 39.5 217t109.5 170q114 111 299 111q107 0 185.5 -43.5t150.5 -141.5zM547 823q-138 0 -226 -97t-88 -251q0 -152 88.5 -253t221.5 -101q67 0 130 30.5t109 84.5q31 35 49.5 99t18.5 134q0 93 -16.5 148.5t-57.5 101.5q-43 48 -104.5 76t-124.5 28zM236 1341h126
q29 -57 70 -80.5t107 -23.5q67 0 107 23.5t71 80.5h127q-26 -100 -106.5 -155.5t-198.5 -55.5q-117 0 -197 55.5t-106 155.5z" />
    <glyph glyph-name="Gdotaccent" unicode="&#x120;" horiz-adv-x="1499" 
d="M766 739h651q2 -29 2 -77q0 -137 -33 -239.5t-108 -197.5q-200 -250 -514 -250q-192 0 -346 90.5t-241 252t-87 362.5q0 204 86.5 366.5t240.5 253.5t347 91q155 0 286 -63t228 -185l-129 -105q-72 80 -115 109q-119 86 -270 86q-212 0 -355 -158t-143 -393
q0 -152 65 -278t178.5 -198.5t250.5 -72.5q114 0 222 55t171 146q39 53 58 110t30 148h-475v147zM750 1716q44 0 74 -31t30 -75q0 -43 -30.5 -73t-73.5 -30q-44 0 -74.5 30.5t-30.5 74.5t30.5 74t74.5 30z" />
    <glyph glyph-name="gdotaccent" unicode="&#x121;" horiz-adv-x="1167" 
d="M854 782v162h156v-950q0 -118 -30 -201t-95 -145q-128 -125 -348 -125q-265 0 -418 172l106 106q58 -61 90 -82q40 -25 101 -40t121 -15q74 0 139.5 24.5t105.5 67.5q72 78 72 226v198q-69 -104 -153.5 -153.5t-194.5 -49.5q-187 0 -311.5 140.5t-124.5 351.5
q0 114 39.5 217t109.5 170q114 111 299 111q107 0 185.5 -43.5t150.5 -141.5zM547 823q-138 0 -226 -97t-88 -251q0 -152 88.5 -253t221.5 -101q67 0 130 30.5t109 84.5q31 35 49.5 99t18.5 134q0 93 -16.5 148.5t-57.5 101.5q-43 48 -104.5 76t-124.5 28zM541 1311
q41 0 68.5 -28t27.5 -71q0 -40 -27.5 -67t-68.5 -27t-69 27.5t-28 68.5t28 69t69 28z" />
    <glyph glyph-name="Gcommaaccent" unicode="&#x122;" horiz-adv-x="1499" 
d="M766 739h651q2 -29 2 -77q0 -137 -33 -239.5t-108 -197.5q-200 -250 -514 -250q-192 0 -346 90.5t-241 252t-87 362.5q0 204 86.5 366.5t240.5 253.5t347 91q155 0 286 -63t228 -185l-129 -105q-72 80 -115 109q-119 86 -270 86q-212 0 -355 -158t-143 -393
q0 -152 65 -278t178.5 -198.5t250.5 -72.5q114 0 222 55t171 146q39 53 58 110t30 148h-475v147zM819 -86v-143q0 -117 -51 -174q-15 -15 -49.5 -32.5t-63.5 -23.5v68q49 15 71 46t22 87h-72v172h143z" />
    <glyph glyph-name="gcommaaccent" unicode="&#x123;" horiz-adv-x="1167" 
d="M854 782v162h156v-950q0 -118 -30 -201t-95 -145q-128 -125 -348 -125q-265 0 -418 172l106 106q58 -61 90 -82q40 -25 101 -40t121 -15q74 0 139.5 24.5t105.5 67.5q72 78 72 226v198q-69 -104 -153.5 -153.5t-194.5 -49.5q-187 0 -311.5 140.5t-124.5 351.5
q0 114 39.5 217t109.5 170q114 111 299 111q107 0 185.5 -43.5t150.5 -141.5zM547 823q-138 0 -226 -97t-88 -251q0 -152 88.5 -253t221.5 -101q67 0 130 30.5t109 84.5q31 35 49.5 99t18.5 134q0 93 -16.5 148.5t-57.5 101.5q-43 48 -104.5 76t-124.5 28zM408 1180l186 415
l115 -39l-166 -428z" />
    <glyph glyph-name="Hcircumflex" unicode="&#x124;" horiz-adv-x="1349" 
d="M342 604v-604h-172v1366h172v-614h666v614h172v-1366h-172v604h-666zM676 1642l-154 -169h-135l221 272h144l213 -272h-136z" />
    <glyph glyph-name="Hbar" unicode="&#x126;" horiz-adv-x="1349" 
d="M170 989h-115v115h115v262h172v-262h666v262h172v-262h114v-115h-114v-989h-172v604h-666v-604h-172v989zM342 989v-237h666v237h-666z" />
    <glyph glyph-name="hbar" unicode="&#x127;" horiz-adv-x="1040" 
d="M313 1208h312v-100h-312v-295q65 80 132.5 117t150.5 37q64 0 124.5 -23.5t96.5 -62.5q74 -74 74 -246v-635h-156v627q0 96 -45.5 148t-130.5 52q-109 0 -184 -84q-35 -40 -48.5 -81t-13.5 -109v-553h-155v1108h-127v100h127v158h155v-158z" />
    <glyph glyph-name="Imacron" unicode="&#x12a;" horiz-adv-x="512" 
d="M342 1366v-1366h-172v1366h172zM545 1663v-117h-576v117h576z" />
    <glyph glyph-name="imacron" unicode="&#x12b;" horiz-adv-x="468" 
d="M313 944v-944h-155v944h155zM514 1278v-127h-557v127h557z" />
    <glyph glyph-name="ibreve" unicode="&#x12d;" horiz-adv-x="468" 
d="M311 944v-944h-155v944h155zM-70 1341h127q29 -57 70 -80.5t109 -23.5q66 0 106.5 23.5t69.5 80.5h127q-26 -100 -105.5 -155.5t-197.5 -55.5t-199 55.5t-107 155.5z" />
    <glyph glyph-name="Iogonek" unicode="&#x12e;" horiz-adv-x="512" 
d="M393 -260l19 -105q-60 -22 -119 -22q-95 0 -158 48.5t-63 121.5q0 122 145 217h-47v1366h172v-1366q-143 -95 -143 -186q0 -37 33.5 -62.5t82.5 -25.5q35 0 78 14z" />
    <glyph glyph-name="iogonek" unicode="&#x12f;" horiz-adv-x="468" 
d="M313 944v-944q-79 -65 -103 -97.5t-24 -74.5q0 -40 31 -64t82 -24q32 0 74 12l18 -94q-56 -20 -110 -20q-92 0 -150.5 45t-58.5 116q0 115 133 201h-47v944h155zM236 1311q42 0 71 -30t29 -73q0 -41 -29.5 -69.5t-70.5 -28.5q-43 0 -72 28.5t-29 71.5t29 72t72 29z" />
    <glyph glyph-name="Idotaccent" unicode="&#x130;" horiz-adv-x="512" 
d="M342 1366v-1366h-172v1366h172zM256 1716q44 0 74 -31t30 -75q0 -43 -30.5 -73t-73.5 -30q-44 0 -74 30.5t-30 74.5t30 74t74 30z" />
    <glyph glyph-name="dotlessi" unicode="&#x131;" horiz-adv-x="468" 
d="M311 944v-944h-155v944h155z" />
    <glyph glyph-name="IJ" unicode="&#x132;" horiz-adv-x="1277" 
d="M342 1366v-1366h-172v1366h172zM1133 1366v-944q0 -286 -218 -385q-96 -45 -282 -45q-39 0 -68 2v149q41 -4 84 -4q147 0 225 66q49 43 68 111t19 202v701h-396v147h568z" />
    <glyph glyph-name="ij" unicode="&#x133;" horiz-adv-x="937" 
d="M311 944v-944h-155v944h155zM236 1311q42 0 71 -30t29 -73q0 -41 -29.5 -69.5t-70.5 -28.5q-43 0 -72 28.5t-29 71.5t29 72t72 29zM782 944v-1042q0 -97 -18.5 -160t-61.5 -109q-89 -98 -237 -98h-41v148h22q82 2 131.5 61.5t49.5 157.5v1042h155zM705 1311q42 0 71 -30
t29 -73q0 -41 -29.5 -69.5t-70.5 -28.5q-43 0 -72 28.5t-29 71.5t29 72t72 29z" />
    <glyph glyph-name="Kcommaaccent" unicode="&#x136;" horiz-adv-x="1103" 
d="M342 631v-631h-172v1366h172v-629l530 629h207l-569 -676l569 -690h-219zM623 -86v-143q0 -116 -52 -174q-16 -16 -50 -33t-62 -23v68q49 15 70.5 46t21.5 87h-72v172h144z" />
    <glyph glyph-name="kcommaaccent" unicode="&#x137;" horiz-adv-x="909" 
d="M311 422v-422h-155v1366h155v-836l377 414h197l-422 -461l420 -483h-195zM520 -115v-114q0 -96 -33.5 -142t-132.5 -84v70q12 8 13 8l41 23q35 21 38 96h-67v143h141z" />
    <glyph glyph-name="kgreenlandic" unicode="&#x138;" horiz-adv-x="1009" 
d="M983 985l-428 -401l475 -584h-190l-389 481l-166 -149v-332h-158v985h158v-485l514 485h184z" />
    <glyph glyph-name="Lacute" unicode="&#x139;" horiz-adv-x="874" 
d="M342 156h481v-156h-653v1366h172v-1210zM420 1741h188l-246 -268h-122z" />
    <glyph glyph-name="lacute" unicode="&#x13a;" horiz-adv-x="468" 
d="M311 0h-155v1366h155v-1366zM328 1741h186l-246 -268h-123z" />
    <glyph glyph-name="Lcommaaccent" unicode="&#x13b;" horiz-adv-x="874" 
d="M342 156h481v-156h-653v1366h172v-1210zM506 -86v-143q0 -101 -38.5 -156t-123.5 -74v68q49 17 69.5 47t20.5 86h-72v172h144z" />
    <glyph glyph-name="lcommaaccent" unicode="&#x13c;" horiz-adv-x="468" 
d="M311 0h-155v1366h155v-1366zM301 -115v-114q0 -96 -33.5 -142t-132.5 -84v70q2 1 5 3.5t4.5 3.5t2.5 1l41 23q36 22 39 96h-67v143h141z" />
    <glyph glyph-name="Lcaron" unicode="&#x13d;" horiz-adv-x="874" 
d="M342 156h481v-156h-653v1366h172v-1210zM858 1343l-188 -417l-113 39l166 428z" />
    <glyph glyph-name="lcaron" unicode="&#x13e;" horiz-adv-x="786" 
d="M311 0h-155v1366h155v-1366zM707 1343l-189 -417l-112 39l165 428z" />
    <glyph glyph-name="Ldot" unicode="&#x13f;" horiz-adv-x="874" 
d="M342 156h481v-156h-653v1366h172v-1210zM711 813q50 0 82 -33t32 -84q0 -48 -32.5 -80t-81.5 -32q-50 0 -82.5 32.5t-32.5 81.5q0 50 33 82.5t82 32.5z" />
    <glyph glyph-name="ldot" unicode="&#x140;" horiz-adv-x="698" 
d="M311 0h-155v1366h155v-1366zM584 813q50 0 82 -33t32 -84q0 -48 -32.5 -80t-81.5 -32q-50 0 -82.5 32.5t-32.5 81.5q0 50 32.5 82.5t82.5 32.5z" />
    <glyph glyph-name="Lslash" unicode="&#x141;" horiz-adv-x="874" 
d="M170 707v659h172v-567l227 168v-160l-227 -168v-483h481v-156h-653v549l-139 -107v160z" />
    <glyph glyph-name="lslash" unicode="&#x142;" horiz-adv-x="477" 
d="M160 756v610h155v-524l140 104v-145l-140 -103v-698h-155v612l-137 -104v145z" />
    <glyph glyph-name="Nacute" unicode="&#x143;" horiz-adv-x="1398" 
d="M342 1044v-1044h-172v1366h158l729 -1028v1028h172v-1366h-152zM793 1741h186l-246 -268h-123z" />
    <glyph glyph-name="nacute" unicode="&#x144;" horiz-adv-x="1042" 
d="M156 944h155v-133q61 83 127 119.5t154 36.5q131 0 219 -78q44 -43 62 -99t18 -153v-637h-156v602q0 116 -35 162q-20 29 -60 46t-87 17q-110 0 -180 -79q-34 -37 -48 -76t-14 -97v-575h-155v944zM608 1352h185l-242 -271h-113z" />
    <glyph glyph-name="Ncommaaccent" unicode="&#x145;" horiz-adv-x="1398" 
d="M342 1044v-1044h-172v1366h158l729 -1028v1028h172v-1366h-152zM768 -86v-143q0 -117 -51 -174q-15 -15 -49.5 -32.5t-63.5 -23.5v68q49 15 70.5 46t21.5 87h-71v172h143z" />
    <glyph glyph-name="ncommaaccent" unicode="&#x146;" horiz-adv-x="1042" 
d="M156 944h155v-133q61 83 127 119.5t154 36.5q131 0 219 -78q44 -43 62 -99t18 -153v-637h-156v602q0 116 -35 162q-20 29 -60 46t-87 17q-110 0 -180 -79q-34 -37 -48 -76t-14 -97v-575h-155v944zM588 -115v-114q0 -96 -33.5 -142t-132.5 -84v70q2 1 5 3.5t4.5 3.5t2.5 1
l41 23q36 22 39 96h-68v143h142z" />
    <glyph glyph-name="Ncaron" unicode="&#x147;" horiz-adv-x="1398" 
d="M342 1044v-1044h-172v1366h158l729 -1028v1028h172v-1366h-152zM698 1575l154 170h135l-221 -272h-143l-213 272h135z" />
    <glyph glyph-name="ncaron" unicode="&#x148;" horiz-adv-x="1042" 
d="M156 944h155v-133q61 83 127 119.5t154 36.5q131 0 219 -78q44 -43 62 -99t18 -153v-637h-156v602q0 116 -35 162q-20 29 -60 46t-87 17q-110 0 -180 -79q-34 -37 -48 -76t-14 -97v-575h-155v944zM522 1182l148 172h133l-211 -273h-148l-206 273h133z" />
    <glyph glyph-name="napostrophe" unicode="&#x149;" horiz-adv-x="1495" 
d="M375 1343l-189 -417l-112 39l166 428zM610 944h156v-133q61 83 127 119.5t154 36.5q131 0 219 -78q44 -43 62 -99t18 -153v-637h-156v602q0 116 -35 162q-20 29 -60 46t-87 17q-111 0 -181 -79q-34 -37 -47.5 -75.5t-13.5 -97.5v-575h-156v944z" />
    <glyph glyph-name="Eng" unicode="&#x14a;" horiz-adv-x="1329" 
d="M131 1346h162v-295q27 69 49 108.5t55 75.5q63 69 154 106t197 37q108 0 200.5 -38.5t153.5 -110.5q54 -63 75 -138t21 -206v-1061q0 -106 -45.5 -143t-177.5 -37h-133v100h14q59 0 89.5 7t51 33t26 67t5.5 118v879q0 106 -19 169t-65 113q-46 48 -112.5 74.5
t-141.5 26.5q-104 0 -188.5 -48t-134.5 -134q-35 -62 -50.5 -138.5t-15.5 -191.5v-719h-170v1346z" />
    <glyph glyph-name="eng" unicode="&#x14b;" horiz-adv-x="1114" 
d="M127 981h147v-209q104 240 355 240q176 0 280 -117q43 -51 59.5 -112t16.5 -167v-784q0 -68 -18 -105.5t-60 -56.5q-34 -14 -139 -14h-119v80h13q97 0 131 27.5t34 105.5v719q0 68 -6.5 105t-25.5 71q-29 54 -87 84.5t-130 30.5q-78 0 -144.5 -36.5t-101.5 -99.5
q-49 -83 -49 -233v-510h-156v981z" />
    <glyph glyph-name="Omacron" unicode="&#x14c;" horiz-adv-x="1519" 
d="M766 1391q142 0 274 -61.5t230 -174.5q83 -96 121.5 -213.5t38.5 -271.5q0 -160 -60 -298t-172 -233q-92 -79 -204.5 -121.5t-231.5 -42.5q-152 0 -293 68t-236 188q-143 181 -143 445q0 151 51.5 283.5t141 227.5t215 149.5t268.5 54.5zM762 1231q-214 0 -355 -156.5
t-141 -392.5q0 -238 140 -393.5t352 -155.5q103 0 199 43t165 121q60 66 95.5 168t35.5 207q0 269 -155 418q-68 66 -156.5 103.5t-179.5 37.5zM1049 1663v-117h-576v117h576z" />
    <glyph glyph-name="omacron" unicode="&#x14d;" horiz-adv-x="1122" 
d="M563 967q209 0 343 -140t134 -358q0 -136 -64 -249t-175 -178t-244 -65q-211 0 -344 139t-133 357q0 220 134 357t349 137zM563 823q-146 0 -234.5 -96.5t-88.5 -255.5q0 -157 88 -253.5t233 -96.5q140 0 230 98.5t90 251.5q0 158 -87.5 255t-230.5 97zM840 1278v-127
h-557v127h557z" />
    <glyph glyph-name="Ohungarumlaut" unicode="&#x150;" horiz-adv-x="1519" 
d="M766 1391q142 0 274 -61.5t230 -174.5q83 -96 121.5 -213.5t38.5 -271.5q0 -160 -60 -298t-172 -233q-92 -79 -204.5 -121.5t-231.5 -42.5q-152 0 -293 68t-236 188q-143 181 -143 445q0 151 51.5 283.5t141 227.5t215 149.5t268.5 54.5zM762 1231q-214 0 -355 -156.5
t-141 -392.5q0 -238 140 -393.5t352 -155.5q103 0 199 43t165 121q60 66 95.5 168t35.5 207q0 269 -155 418q-68 66 -156.5 103.5t-179.5 37.5zM672 1739h174l-207 -266h-113zM993 1739h174l-209 -266h-110z" />
    <glyph glyph-name="ohungarumlaut" unicode="&#x151;" horiz-adv-x="1122" 
d="M563 967q209 0 343 -140t134 -358q0 -136 -64 -249t-175 -178t-244 -65q-211 0 -344 139t-133 357q0 220 134 357t349 137zM563 823q-146 0 -234.5 -96.5t-88.5 -255.5q0 -157 88 -253.5t233 -96.5q140 0 230 98.5t90 251.5q0 158 -87.5 255t-230.5 97zM479 1350h170
l-203 -269h-100zM780 1350h170l-200 -269h-103z" />
    <glyph glyph-name="OE" unicode="&#x152;" horiz-adv-x="2043" 
d="M1411 614v-467h531v-147h-701v236q-47 -66 -81 -100t-87 -66q-151 -95 -325 -95q-133 0 -257.5 53.5t-214.5 149.5q-86 92 -134 226.5t-48 285.5q0 202 85.5 362.5t237.5 249.5t343 89q155 0 271 -59t210 -185v219h701v-147h-531v-457h531v-148h-531zM766 1231
q-221 0 -358.5 -151t-137.5 -394q0 -238 138.5 -394.5t347.5 -156.5q104 0 200.5 44.5t163.5 123.5q57 66 91 167t34 204q0 251 -131.5 404t-347.5 153z" />
    <glyph glyph-name="oe" unicode="&#x153;" horiz-adv-x="1890" 
d="M1659 285l125 -54q-32 -58 -58.5 -90t-68.5 -63q-135 -101 -293 -101q-75 0 -151 25.5t-138 71.5q-40 28 -64 59t-53 92q-29 -61 -53.5 -92t-70.5 -65q-126 -91 -279 -91q-207 0 -341 138.5t-134 353.5q0 220 133 359t344 139q158 0 279 -86q42 -30 67 -61t55 -89
q35 63 63.5 95t76.5 63q119 78 262 78q173 0 299 -106t160 -279q10 -59 10 -162h-789q6 -64 21 -104t47 -78q46 -54 113.5 -85.5t138.5 -31.5q51 0 107.5 16.5t97.5 44.5q25 16 44 37.5t50 65.5zM1038 535h637q-8 60 -19 94t-36 69q-43 61 -112.5 95t-151.5 34
q-154 0 -244 -112q-34 -40 -49.5 -78t-24.5 -102zM563 823q-141 0 -232 -98t-91 -250q0 -157 90 -255.5t235 -98.5q139 0 230.5 98.5t91.5 247.5q0 156 -91.5 256t-232.5 100z" />
    <glyph glyph-name="Racute" unicode="&#x154;" horiz-adv-x="1146" 
d="M342 573v-573h-172v1366h373q218 0 342.5 -105.5t124.5 -291.5q0 -115 -51 -204t-146 -140q-50 -27 -104.5 -39.5t-147.5 -18.5l531 -567h-220zM342 690h172q155 0 237.5 68.5t82.5 197.5q0 127 -75 195t-216 68h-201v-529zM666 1741h188l-248 -268h-121z" />
    <glyph glyph-name="racute" unicode="&#x155;" horiz-adv-x="651" 
d="M156 944h155v-160q22 50 40 76.5t46 48.5q74 58 181 58h36v-158q-16 2 -43 2q-131 0 -204 -109q-31 -45 -43.5 -93.5t-12.5 -129.5v-479h-155v944zM414 1352h182l-242 -271h-110z" />
    <glyph glyph-name="Rcommaaccent" unicode="&#x156;" horiz-adv-x="1146" 
d="M342 573v-573h-172v1366h373q218 0 342.5 -105.5t124.5 -291.5q0 -115 -51 -204t-146 -140q-50 -27 -104.5 -39.5t-147.5 -18.5l531 -567h-220zM342 690h172q155 0 237.5 68.5t82.5 197.5q0 127 -75 195t-216 68h-201v-529zM643 -86v-143q0 -117 -51 -174
q-15 -15 -49.5 -32.5t-63.5 -23.5v68q49 15 70.5 46t21.5 87h-71v172h143z" />
    <glyph glyph-name="rcommaaccent" unicode="&#x157;" horiz-adv-x="651" 
d="M156 944h155v-160q22 50 40 76.5t46 48.5q74 58 181 58h36v-158q-16 2 -43 2q-131 0 -204 -109q-31 -45 -43.5 -93.5t-12.5 -129.5v-479h-155v944zM307 -115v-114q0 -96 -33.5 -142t-132.5 -84v70q12 8 13 8l41 23q35 21 38 96h-67v143h141z" />
    <glyph glyph-name="Rcaron" unicode="&#x158;" horiz-adv-x="1146" 
d="M342 573v-573h-172v1366h373q218 0 342.5 -105.5t124.5 -291.5q0 -115 -51 -204t-146 -140q-50 -27 -104.5 -39.5t-147.5 -18.5l531 -567h-220zM342 690h172q155 0 237.5 68.5t82.5 197.5q0 127 -75 195t-216 68h-201v-529zM573 1575l154 170h135l-221 -272h-143
l-213 272h133z" />
    <glyph glyph-name="rcaron" unicode="&#x159;" horiz-adv-x="651" 
d="M156 944h155v-160q22 50 40 76.5t46 48.5q74 58 181 58h36v-158q-16 2 -43 2q-131 0 -204 -109q-31 -45 -43.5 -93.5t-12.5 -129.5v-479h-155v944zM367 1182l149 172h133l-213 -273h-147l-207 273h135z" />
    <glyph glyph-name="Sacute" unicode="&#x15a;" horiz-adv-x="1003" 
d="M78 367h164q6 -117 67.5 -177.5t173.5 -60.5q116 0 189 64t73 167q0 89 -57.5 140.5t-218.5 105.5q-121 41 -175.5 68t-100.5 69q-107 96 -107 258q0 173 113.5 281.5t294.5 108.5t290.5 -106.5t114.5 -285.5h-172q-1 52 -8.5 82.5t-24.5 59.5q-29 45 -83 70.5t-119 25.5
q-101 0 -166.5 -62.5t-65.5 -160.5q0 -102 78 -158q32 -23 73 -41t146 -55q109 -38 169 -71t101 -77q93 -99 93 -241q0 -177 -119.5 -286.5t-311.5 -109.5q-256 0 -364 185q-47 78 -47 178v29zM596 1741h186l-245 -268h-123z" />
    <glyph glyph-name="sacute" unicode="&#x15b;" horiz-adv-x="841" 
d="M748 686h-156v10q0 66 -49 105t-131 39q-78 0 -124 -36.5t-46 -98.5q0 -61 41.5 -93t169.5 -67q165 -45 229 -109q76 -76 76 -184q0 -123 -92.5 -199t-243.5 -76q-161 0 -250.5 74t-101.5 217h153q8 -80 59 -122t140 -42q79 0 127.5 38.5t48.5 101.5q0 62 -47 97.5
t-168 66.5q-154 41 -225.5 109t-71.5 175q0 123 91.5 199t240.5 76q151 0 237.5 -74t92.5 -207zM510 1352h182l-239 -271h-113z" />
    <glyph glyph-name="Scircumflex" unicode="&#x15c;" horiz-adv-x="1003" 
d="M78 367h164q6 -117 67.5 -177.5t173.5 -60.5q116 0 189 64t73 167q0 89 -57.5 140.5t-218.5 105.5q-121 41 -175.5 68t-100.5 69q-107 96 -107 258q0 173 113.5 281.5t294.5 108.5t290.5 -106.5t114.5 -285.5h-172q-1 52 -8.5 82.5t-24.5 59.5q-29 45 -83 70.5t-119 25.5
q-101 0 -166.5 -62.5t-65.5 -160.5q0 -102 78 -158q32 -23 73 -41t146 -55q109 -38 169 -71t101 -77q93 -99 93 -241q0 -177 -119.5 -286.5t-311.5 -109.5q-256 0 -364 185q-47 78 -47 178v29zM504 1642l-154 -169h-135l221 272h144l213 -272h-136z" />
    <glyph glyph-name="scircumflex" unicode="&#x15d;" horiz-adv-x="841" 
d="M748 686h-156v10q0 66 -49 105t-131 39q-78 0 -124 -36.5t-46 -98.5q0 -61 41.5 -93t169.5 -67q165 -45 229 -109q76 -76 76 -184q0 -123 -92.5 -199t-243.5 -76q-161 0 -250.5 74t-101.5 217h153q8 -80 59 -122t140 -42q79 0 127.5 38.5t48.5 101.5q0 62 -47 97.5
t-168 66.5q-154 41 -225.5 109t-71.5 175q0 123 91.5 199t240.5 76q151 0 237.5 -74t92.5 -207zM420 1253l-150 -172h-133l213 273h148l207 -273h-136z" />
    <glyph glyph-name="Scedilla" unicode="&#x15e;" horiz-adv-x="1003" 
d="M78 367h164q6 -117 67.5 -177.5t173.5 -60.5q116 0 189 64t73 167q0 89 -57.5 140.5t-218.5 105.5q-121 41 -175.5 68t-100.5 69q-107 96 -107 258q0 173 113.5 281.5t294.5 108.5t290.5 -106.5t114.5 -285.5h-172q-1 52 -8.5 82.5t-24.5 59.5q-29 45 -83 70.5t-119 25.5
q-101 0 -166.5 -62.5t-65.5 -160.5q0 -102 78 -158q32 -23 73 -41t146 -55q109 -38 169 -71t101 -77q93 -99 93 -241q0 -177 -119.5 -286.5t-311.5 -109.5q-256 0 -364 185q-47 78 -47 178v29zM336 -428l-86 70q78 50 121 106t63 135l158 -55q-64 -152 -256 -256z" />
    <glyph glyph-name="scedilla" unicode="&#x15f;" horiz-adv-x="841" 
d="M748 686h-156v10q0 66 -49 105t-131 39q-78 0 -124 -36.5t-46 -98.5q0 -61 41.5 -93t169.5 -67q165 -45 229 -109q76 -76 76 -184q0 -123 -92.5 -199t-243.5 -76q-161 0 -250.5 74t-101.5 217h153q8 -80 59 -122t140 -42q79 0 127.5 38.5t48.5 101.5q0 62 -47 97.5
t-168 66.5q-154 41 -225.5 109t-71.5 175q0 123 91.5 199t240.5 76q151 0 237.5 -74t92.5 -207zM252 -436l-66 69q80 46 127.5 106.5t75.5 151.5l129 -49q-47 -98 -108 -161.5t-158 -116.5z" />
    <glyph glyph-name="Scaron" unicode="&#x160;" horiz-adv-x="1003" 
d="M78 367h164q6 -117 67.5 -177.5t173.5 -60.5q116 0 189 64t73 167q0 89 -57.5 140.5t-218.5 105.5q-121 41 -175.5 68t-100.5 69q-107 96 -107 258q0 173 113.5 281.5t294.5 108.5t290.5 -106.5t114.5 -285.5h-172q-1 52 -8.5 82.5t-24.5 59.5q-29 45 -83 70.5t-119 25.5
q-101 0 -166.5 -62.5t-65.5 -160.5q0 -102 78 -158q32 -23 73 -41t146 -55q109 -38 169 -71t101 -77q93 -99 93 -241q0 -177 -119.5 -286.5t-311.5 -109.5q-256 0 -364 185q-47 78 -47 178v29zM502 1575l153 170h138l-224 -272h-143l-211 272h133z" />
    <glyph glyph-name="scaron" unicode="&#x161;" horiz-adv-x="841" 
d="M748 686h-156v10q0 66 -49 105t-131 39q-78 0 -124 -36.5t-46 -98.5q0 -61 41.5 -93t169.5 -67q165 -45 229 -109q76 -76 76 -184q0 -123 -92.5 -199t-243.5 -76q-161 0 -250.5 74t-101.5 217h153q8 -80 59 -122t140 -42q79 0 127.5 38.5t48.5 101.5q0 62 -47 97.5
t-168 66.5q-154 41 -225.5 109t-71.5 175q0 123 91.5 199t240.5 76q151 0 237.5 -74t92.5 -207zM422 1182l149 172h134l-213 -273h-148l-207 273h135z" />
    <glyph glyph-name="Tcommaaccent" unicode="&#x162;" horiz-adv-x="907" 
d="M541 1219v-1219h-172v1219h-349v147h867v-147h-346zM522 -86v-143q0 -101 -38.5 -156t-123.5 -74v68q50 17 70.5 47.5t20.5 85.5h-72v172h143z" />
    <glyph glyph-name="tcommaaccent" unicode="&#x163;" horiz-adv-x="530" 
d="M322 807v-614q0 -34 15 -46t56 -12h72v-135h-146q-82 0 -117.5 34.5t-35.5 112.5v660h-131v137h131v297h156v-297h143v-137h-143zM334 -115v-114q0 -96 -33.5 -142t-132.5 -84v70q2 1 5 3.5t4.5 3.5t2.5 1l41 23q36 22 39 96h-67v143h141z" />
    <glyph glyph-name="Tcaron" unicode="&#x164;" horiz-adv-x="907" 
d="M541 1219v-1219h-172v1219h-349v147h867v-147h-346zM453 1575l153 170h137l-223 -272h-143l-211 272h133z" />
    <glyph glyph-name="tcaron" unicode="&#x165;" horiz-adv-x="983" 
d="M322 807v-614q0 -34 15 -46t56 -12h72v-135h-146q-82 0 -117.5 34.5t-35.5 112.5v660h-131v137h131v297h156v-297h143v-137h-143zM905 1343l-188 -417l-113 39l166 428z" />
    <glyph glyph-name="Tbar" unicode="&#x166;" horiz-adv-x="1060" 
d="M614 838h377v-123h-377v-715h-170v715h-376v123h376v383h-456v145h1083v-145h-457v-383z" />
    <glyph glyph-name="tbar" unicode="&#x167;" horiz-adv-x="585" 
d="M344 702h164v-100h-164v-309q0 -98 16 -129q26 -51 115 -51q36 0 80 8v-121q-71 -8 -121 -8q-154 0 -211 80q-22 33 -29.5 73t-7.5 127v330h-137v100h137v177h-178v106h178v307h158v-307h211v-106h-211v-177z" />
    <glyph glyph-name="utilde" unicode="&#x169;" horiz-adv-x="993" 
d="M705 944h157v-604q0 -98 -21 -157.5t-73 -106.5q-110 -99 -272 -99q-164 0 -273 101q-94 91 -94 262v604h156v-600q0 -100 58.5 -163.5t152.5 -63.5q50 0 94 19t72 52q43 51 43 152v604zM725 1311l102 -37q-46 -92 -90.5 -132t-101.5 -40q-32 0 -66 14.5t-110 59.5
q-40 26 -68 26q-58 0 -96 -84l-105 47q82 160 195 160q38 0 78.5 -17t111.5 -63q31 -20 56 -20q56 0 94 86z" />
    <glyph glyph-name="Umacron" unicode="&#x16a;" horiz-adv-x="1302" 
d="M317 1366v-813q0 -130 20.5 -204t70.5 -124q43 -41 109.5 -66.5t131.5 -25.5t131.5 27.5t110.5 72.5q55 53 73.5 119.5t18.5 204.5v809h176v-809q0 -154 -27.5 -250.5t-93.5 -169.5q-69 -78 -168.5 -120t-216.5 -42q-121 0 -224.5 44.5t-172.5 127.5q-63 72 -87 161
t-24 249v809h172zM940 1663v-117h-575v117h575z" />
    <glyph glyph-name="umacron" unicode="&#x16b;" horiz-adv-x="993" 
d="M705 944h157v-604q0 -98 -21 -157.5t-73 -106.5q-110 -99 -272 -99q-164 0 -273 101q-94 91 -94 262v604h156v-600q0 -100 58.5 -163.5t152.5 -63.5q50 0 94 19t72 52q43 51 43 152v604zM774 1278v-127h-557v127h557z" />
    <glyph glyph-name="ubreve" unicode="&#x16d;" horiz-adv-x="993" 
d="M705 944h157v-604q0 -98 -21 -157.5t-73 -106.5q-110 -99 -272 -99q-164 0 -273 101q-94 91 -94 262v604h156v-600q0 -100 58.5 -163.5t152.5 -63.5q50 0 94 19t72 52q43 51 43 152v604zM193 1341h124q31 -57 72 -80.5t107 -23.5q67 0 107 23.5t71 80.5h127
q-26 -100 -106.5 -155.5t-198.5 -55.5t-198 55.5t-105 155.5z" />
    <glyph glyph-name="Uring" unicode="&#x16e;" horiz-adv-x="1302" 
d="M317 1366v-813q0 -130 20.5 -204t70.5 -124q43 -41 109.5 -66.5t131.5 -25.5t131.5 27.5t110.5 72.5q55 53 73.5 119.5t18.5 204.5v809h176v-809q0 -154 -27.5 -250.5t-93.5 -169.5q-69 -78 -168.5 -120t-216.5 -42q-121 0 -224.5 44.5t-172.5 127.5q-63 72 -87 161
t-24 249v809h172zM655 1778q69 0 115.5 -47.5t46.5 -118.5q0 -66 -48 -113t-116 -47q-69 0 -116.5 47.5t-47.5 116.5q0 68 48 115t118 47zM653 1712q-42 0 -70 -28t-28 -70q0 -41 28.5 -68.5t69.5 -27.5t70 28t29 68q0 42 -28 70t-71 28z" />
    <glyph glyph-name="uring" unicode="&#x16f;" horiz-adv-x="993" 
d="M705 944h157v-604q0 -98 -21 -157.5t-73 -106.5q-110 -99 -272 -99q-164 0 -273 101q-94 91 -94 262v604h156v-600q0 -100 58.5 -163.5t152.5 -63.5q50 0 94 19t72 52q43 51 43 152v604zM498 1386q69 0 115 -47t46 -118q0 -66 -48 -113t-115 -47q-69 0 -116.5 47
t-47.5 115q0 69 48 116t118 47zM496 1321q-42 0 -70.5 -28t-28.5 -70q0 -41 29 -69t70 -28t69.5 28.5t28.5 68.5q0 42 -28 70t-70 28z" />
    <glyph glyph-name="Uhungarumlaut" unicode="&#x170;" horiz-adv-x="1302" 
d="M317 1366v-813q0 -130 20.5 -204t70.5 -124q43 -41 109.5 -66.5t131.5 -25.5t131.5 27.5t110.5 72.5q55 53 73.5 119.5t18.5 204.5v809h176v-809q0 -154 -27.5 -250.5t-93.5 -169.5q-69 -78 -168.5 -120t-216.5 -42q-121 0 -224.5 44.5t-172.5 127.5q-63 72 -87 161
t-24 249v809h172zM563 1739h176l-209 -266h-112zM885 1739h174l-207 -266h-113z" />
    <glyph glyph-name="uhungarumlaut" unicode="&#x171;" horiz-adv-x="993" 
d="M705 944h157v-604q0 -98 -21 -157.5t-73 -106.5q-110 -99 -272 -99q-164 0 -273 101q-94 91 -94 262v604h156v-600q0 -100 58.5 -163.5t152.5 -63.5q50 0 94 19t72 52q43 51 43 152v604zM414 1350h170l-201 -269h-102zM715 1350h170l-201 -269h-102z" />
    <glyph glyph-name="Uogonek" unicode="&#x172;" horiz-adv-x="1302" 
d="M819 0l-10 -8l-10 -8q-121 -87 -121 -166q0 -40 33 -65t84 -25q35 0 77 12l21 -105q-61 -20 -121 -20q-95 0 -158 48t-63 120q0 107 111 192q-204 0 -343 111q-98 76 -136 179.5t-38 291.5v809h172v-811q0 -130 20.5 -204t70.5 -124q43 -41 109.5 -66.5t131.5 -25.5
t131.5 27.5t110.5 73.5q55 54 73.5 119t18.5 204v807h176v-809q0 -195 -50 -311t-165 -189q-52 -36 -125 -57z" />
    <glyph glyph-name="uogonek" unicode="&#x173;" horiz-adv-x="993" 
d="M862 944v-604q0 -119 -35.5 -189.5t-121.5 -119.5q-48 -26 -111 -43q-64 -51 -88.5 -85.5t-24.5 -74.5t31 -64t82 -24q32 0 72 12l20 -94q-56 -20 -113 -20q-91 0 -148.5 45t-57.5 116q0 101 100 181q-163 12 -250.5 105.5t-87.5 254.5v604h156v-600q0 -100 58.5 -163.5
t152.5 -63.5q50 0 94 19t72 52q43 51 43 152v604h157z" />
    <glyph glyph-name="Wcircumflex" unicode="&#x174;" horiz-adv-x="1763" 
d="M1262 315l313 1051h178l-418 -1366h-151l-301 1073l-303 -1073h-152l-418 1366h183l311 -1047l303 1047h162zM883 1642l-154 -169h-137l223 272h143l211 -272h-133z" />
    <glyph glyph-name="Ycircumflex" unicode="&#x176;" horiz-adv-x="1083" 
d="M631 602v-602h-172v602l-471 764h202l353 -586l348 586h205zM543 1642l-154 -169h-135l221 272h143l213 -272h-135z" />
    <glyph glyph-name="ycircumflex" unicode="&#x177;" horiz-adv-x="897" 
d="M432 244l283 700h170l-563 -1399h-170l196 484l-336 915h166zM446 1253l-147 -172h-135l213 273h147l207 -273h-135z" />
    <glyph glyph-name="Ydieresis" unicode="&#x178;" horiz-adv-x="1083" 
d="M631 602v-602h-172v602l-471 764h202l353 -586l348 586h205zM332 1716q44 0 74 -31t30 -75q0 -43 -30.5 -73t-73.5 -30q-44 0 -74.5 30.5t-30.5 74.5t30.5 74t74.5 30zM752 1716q44 0 74 -31t30 -75q0 -43 -30.5 -73t-73.5 -30q-44 0 -74.5 30.5t-30.5 74.5t30.5 74
t74.5 30z" />
    <glyph glyph-name="Zacute" unicode="&#x179;" horiz-adv-x="1103" 
d="M311 147h693v-147h-977l774 1219h-688v147h970zM643 1741h188l-247 -268h-121z" />
    <glyph glyph-name="zacute" unicode="&#x17a;" horiz-adv-x="821" 
d="M307 137h434v-137h-696l492 807h-439v137h695zM500 1352h184l-242 -271h-112z" />
    <glyph glyph-name="Zdotaccent" unicode="&#x17b;" horiz-adv-x="1103" 
d="M311 147h693v-147h-977l774 1219h-688v147h970zM551 1716q44 0 74 -31t30 -75q0 -43 -30.5 -73t-73.5 -30q-44 0 -74.5 30.5t-30.5 74.5t30.5 74t74.5 30z" />
    <glyph glyph-name="zdotaccent" unicode="&#x17c;" horiz-adv-x="821" 
d="M307 137h434v-137h-696l492 807h-439v137h695zM412 1311q41 0 68.5 -28t27.5 -71q0 -40 -27.5 -67t-68.5 -27t-69 27.5t-28 68.5t28 69t69 28z" />
    <glyph glyph-name="Zcaron" unicode="&#x17d;" horiz-adv-x="1103" 
d="M311 147h693v-147h-977l774 1219h-688v147h970zM549 1575l156 170h135l-224 -272h-141l-213 272h133z" />
    <glyph glyph-name="zcaron" unicode="&#x17e;" horiz-adv-x="821" 
d="M307 137h434v-137h-696l492 807h-439v137h695zM412 1182l149 172h133l-211 -273h-147l-209 273h135z" />
    <glyph glyph-name="florin" unicode="&#x192;" 
d="M477 844h-129l17 100h129l45 248q25 140 107 217.5t208 77.5q23 0 39 -2l-25 -139q-86 -9 -121.5 -40.5t-52.5 -113.5l-43 -248h146l-17 -100h-147l-133 -756q-26 -170 -123 -262.5t-252 -97.5l27 145q74 6 122.5 60.5t67.5 152.5z" />
    <glyph glyph-name="uni01CD" unicode="&#x1cd;" horiz-adv-x="1241" 
d="M926 315h-613l-125 -315h-178l514 1366h205l502 -1366h-193zM872 463l-249 686l-258 -686h507zM618 1575l154 170h137l-223 -272h-141l-213 272h133z" />
    <glyph glyph-name="uni01CE" unicode="&#x1ce;" horiz-adv-x="1181" 
d="M868 788v156h156v-944h-156v182q-71 -106 -154 -155.5t-190 -49.5q-195 0 -319.5 138.5t-124.5 353.5q0 217 126.5 357.5t321.5 140.5q107 0 189 -43.5t151 -135.5zM551 827q-150 0 -229 -112q-78 -108 -78 -250q0 -151 87 -251.5t216 -100.5q134 0 228.5 108t94.5 260
q0 154 -89 250t-230 96zM592 1182l147 172h135l-212 -273h-148l-207 273h135z" />
    <glyph glyph-name="uni01D3" unicode="&#x1d3;" horiz-adv-x="1302" 
d="M317 1366v-813q0 -130 20.5 -204t70.5 -124q43 -41 109.5 -66.5t131.5 -25.5t131.5 27.5t110.5 72.5q55 53 73.5 119.5t18.5 204.5v809h176v-809q0 -154 -27.5 -250.5t-93.5 -169.5q-69 -78 -168.5 -120t-216.5 -42q-121 0 -224.5 44.5t-172.5 127.5q-63 72 -87 161
t-24 249v809h172zM651 1575l154 170h137l-223 -272h-144l-210 272h133z" />
    <glyph glyph-name="Gcaron" unicode="&#x1e6;" horiz-adv-x="1499" 
d="M766 739h651q2 -29 2 -77q0 -137 -33 -239.5t-108 -197.5q-200 -250 -514 -250q-192 0 -346 90.5t-241 252t-87 362.5q0 204 86.5 366.5t240.5 253.5t347 91q155 0 286 -63t228 -185l-129 -105q-72 80 -115 109q-119 86 -270 86q-212 0 -355 -158t-143 -393
q0 -152 65 -278t178.5 -198.5t250.5 -72.5q114 0 222 55t171 146q39 53 58 110t30 148h-475v147zM750 1575l153 170h135l-221 -272h-143l-213 272h135z" />
    <glyph glyph-name="gcaron" unicode="&#x1e7;" horiz-adv-x="1167" 
d="M854 782v162h156v-950q0 -118 -30 -201t-95 -145q-128 -125 -348 -125q-265 0 -418 172l106 106q58 -61 90 -82q40 -25 101 -40t121 -15q74 0 139.5 24.5t105.5 67.5q72 78 72 226v198q-69 -104 -153.5 -153.5t-194.5 -49.5q-187 0 -311.5 140.5t-124.5 351.5
q0 114 39.5 217t109.5 170q114 111 299 111q107 0 185.5 -43.5t150.5 -141.5zM547 823q-138 0 -226 -97t-88 -251q0 -152 88.5 -253t221.5 -101q67 0 130 30.5t109 84.5q31 35 49.5 99t18.5 134q0 93 -16.5 148.5t-57.5 101.5q-43 48 -104.5 76t-124.5 28zM584 1182l149 172
h133l-213 -273h-147l-207 273h135z" />
    <glyph glyph-name="uni01F4" unicode="&#x1f4;" horiz-adv-x="1499" 
d="M766 739h651q2 -29 2 -77q0 -137 -33 -239.5t-108 -197.5q-200 -250 -514 -250q-192 0 -346 90.5t-241 252t-87 362.5q0 204 86.5 366.5t240.5 253.5t347 91q155 0 286 -63t228 -185l-129 -105q-72 80 -115 109q-119 86 -270 86q-212 0 -355 -158t-143 -393
q0 -152 65 -278t178.5 -198.5t250.5 -72.5q114 0 222 55t171 146q39 53 58 110t30 148h-475v147zM844 1741h186l-246 -268h-122z" />
    <glyph glyph-name="scommaaccent" unicode="&#x219;" horiz-adv-x="841" 
d="M748 686h-156v10q0 66 -49 105t-131 39q-78 0 -124 -36.5t-46 -98.5q0 -61 41.5 -93t169.5 -67q165 -45 229 -109q76 -76 76 -184q0 -123 -92.5 -199t-243.5 -76q-161 0 -250.5 74t-101.5 217h153q8 -80 59 -122t140 -42q79 0 127.5 38.5t48.5 101.5q0 62 -47 97.5
t-168 66.5q-154 41 -225.5 109t-71.5 175q0 123 91.5 199t240.5 76q151 0 237.5 -74t92.5 -207zM487 -115v-114q0 -96 -33 -142t-132 -84v70q2 1 5 3.5t4.5 3.5t2.5 1l41 23q36 22 39 96h-68v143h141z" />
    <glyph glyph-name="uni021A" unicode="&#x21a;" horiz-adv-x="907" 
d="M541 1219v-1219h-172v1219h-349v147h867v-147h-346zM522 -86v-143q0 -101 -38.5 -156t-123.5 -74v68q50 17 70.5 47.5t20.5 85.5h-72v172h143z" />
    <glyph glyph-name="uni021B" unicode="&#x21b;" horiz-adv-x="530" 
d="M322 807v-614q0 -34 15 -46t56 -12h72v-135h-146q-82 0 -117.5 34.5t-35.5 112.5v660h-131v137h131v297h156v-297h143v-137h-143zM334 -115v-114q0 -96 -33.5 -142t-132.5 -84v70q2 1 5 3.5t4.5 3.5t2.5 1l41 23q36 22 39 96h-67v143h141z" />
    <glyph glyph-name="afii57929" unicode="&#x2bc;" horiz-adv-x="452" 
d="M375 1343l-189 -417l-112 39l166 428z" />
    <glyph glyph-name="circumflex" unicode="&#x2c6;" 
d="M512 1253l-150 -172h-133l213 273h148l207 -273h-135z" />
    <glyph glyph-name="caron" unicode="&#x2c7;" 
d="M514 1182l150 172h133l-213 -273h-148l-207 273h136z" />
    <glyph glyph-name="uni02C9" unicode="&#x2c9;" 
d="M791 1278v-127h-558v127h558z" />
    <glyph glyph-name="breve" unicode="&#x2d8;" 
d="M207 1341h127q29 -57 69.5 -80.5t108.5 -23.5q66 0 106.5 23.5t69.5 80.5h127q-26 -100 -105.5 -155.5t-197.5 -55.5t-198.5 55.5t-106.5 155.5z" />
    <glyph glyph-name="dotaccent" unicode="&#x2d9;" 
d="M512 1311q41 0 68.5 -28t27.5 -71q0 -40 -27.5 -67t-68.5 -27t-68.5 27.5t-27.5 68.5t27.5 69t68.5 28z" />
    <glyph glyph-name="ring" unicode="&#x2da;" 
d="M514 1386q69 0 115.5 -47.5t46.5 -117.5q0 -66 -48 -113t-116 -47q-69 0 -116.5 47t-47.5 115q0 69 48 116t118 47zM512 1321q-42 0 -70 -28t-28 -70q0 -41 28.5 -69t69.5 -28t69.5 28.5t28.5 68.5q0 42 -28 70t-70 28z" />
    <glyph glyph-name="ogonek" unicode="&#x2db;" 
d="M485 0h109q-79 -65 -103 -97.5t-24 -74.5q0 -40 31 -64t82 -24q31 0 73 12l19 -94q-56 -20 -111 -20q-92 0 -150.5 45t-58.5 116q0 118 133 201z" />
    <glyph glyph-name="tilde" unicode="&#x2dc;" 
d="M741 1311l103 -37q-46 -92 -91 -132t-102 -40q-32 0 -67 15t-109 59q-43 26 -67 26q-59 0 -97 -84l-104 47q43 83 89.5 121.5t104.5 38.5q38 0 79.5 -17t111.5 -63q31 -20 53 -20q58 0 96 86z" />
    <glyph glyph-name="hungarumlaut" unicode="&#x2dd;" 
d="M430 1350h170l-201 -269h-102zM731 1350h170l-201 -269h-102z" />
    <glyph glyph-name="uni0387" unicode="&#x387;" horiz-adv-x="473" 
d="M236 604q46 0 76 -30.5t30 -77.5q0 -44 -31 -74.5t-75 -30.5q-46 0 -76.5 30.5t-30.5 76.5t30.5 76t76.5 30z" />
    <glyph glyph-name="Wacute" unicode="&#x1e82;" horiz-adv-x="555" 
d="M489 567v-141h-423v141h423z" />
    <glyph glyph-name="Wdieresis" unicode="&#x1e84;" horiz-adv-x="1763" 
d="M1262 315l313 1051h178l-418 -1366h-151l-301 1073l-303 -1073h-152l-418 1366h183l311 -1047l303 1047h162zM672 1716q44 0 74 -31t30 -75q0 -43 -30.5 -73t-73.5 -30q-44 0 -74.5 30.5t-30.5 74.5t30.5 74t74.5 30zM1090 1716q44 0 74 -31t30 -75q0 -43 -30.5 -73
t-73.5 -30q-44 0 -74.5 30.5t-30.5 74.5t30.5 74t74.5 30z" />
    <glyph glyph-name="uni2006" unicode="&#x2006;" horiz-adv-x="137" 
 />
    <glyph glyph-name="uni2007" unicode="&#x2007;" horiz-adv-x="1138" 
 />
    <glyph glyph-name="uni2011" unicode="&#x2011;" horiz-adv-x="423" 
d="M424 567v-141h-424v141h424z" />
    <glyph glyph-name="figuredash" unicode="&#x2012;" 
d="M881 561v-137h-736v137h736z" />
    <glyph glyph-name="endash" unicode="&#x2013;" 
d="M881 561v-137h-736v137h736z" />
    <glyph glyph-name="emdash" unicode="&#x2014;" horiz-adv-x="1273" 
d="M1274 561v-131h-1274v131h1274z" />
    <glyph glyph-name="afii00208" unicode="&#x2015;" horiz-adv-x="1273" 
d="M1274 561v-131h-1274v131h1274z" />
    <glyph glyph-name="underscoredbl" unicode="&#x2017;" 
d="M0 -121h1024v-80h-1024v80zM0 -360h1024v-80h-1024v80z" />
    <glyph glyph-name="quoteleft" unicode="&#x2018;" horiz-adv-x="452" 
d="M80 977l186 416l115 -39l-166 -428z" />
    <glyph glyph-name="quoteright" unicode="&#x2019;" horiz-adv-x="452" 
d="M375 1343l-189 -417l-112 39l166 428z" />
    <glyph glyph-name="quotesinglbase" unicode="&#x201a;" horiz-adv-x="456" 
d="M379 156l-191 -428l-114 41l168 438z" />
    <glyph glyph-name="quotedblleft" unicode="&#x201c;" horiz-adv-x="825" 
d="M438 913l205 480l115 -41l-178 -488zM80 913l205 480l114 -41l-178 -490z" />
    <glyph glyph-name="quotedblright" unicode="&#x201d;" horiz-adv-x="825" 
d="M387 1343l-207 -481l-112 41l176 490zM745 1343l-206 -481l-115 41l178 490z" />
    <glyph glyph-name="quotedblbase" unicode="&#x201e;" horiz-adv-x="825" 
d="M387 158l-207 -482l-112 41l176 488zM745 158l-206 -482l-115 41l178 490z" />
    <glyph glyph-name="dagger" unicode="&#x2020;" 
d="M444 1366h138v-362h301v-123h-301v-1313h-138v1313h-301v123h301v362z" />
    <glyph glyph-name="daggerdbl" unicode="&#x2021;" 
d="M444 1366h138v-367h301v-122h-301v-816h301v-122h-301v-371h-138v371h-301v122h301v816h-301v122h301v367z" />
    <glyph glyph-name="bullet" unicode="&#x2022;" horiz-adv-x="1366" 
d="M690 977q114 0 196.5 -83.5t82.5 -199.5q0 -118 -83 -201t-200 -83t-201 82.5t-84 199.5q0 120 83.5 202.5t205.5 82.5z" />
    <glyph glyph-name="ellipsis" unicode="&#x2026;" horiz-adv-x="1417" 
d="M236 197q46 0 76 -31t30 -78q0 -44 -31 -74t-75 -30q-46 0 -76.5 30t-30.5 76t30.5 76.5t76.5 30.5zM709 197q46 0 76 -31t30 -78q0 -44 -31 -74t-75 -30q-46 0 -76.5 30t-30.5 76t30.5 76.5t76.5 30.5zM1180 197q46 0 76 -31t30 -78q0 -44 -31 -74t-75 -30
q-46 0 -76.5 30t-30.5 76t30.5 76.5t76.5 30.5z" />
    <glyph glyph-name="perthousand" unicode="&#x2030;" horiz-adv-x="1837" 
d="M522 1122v-221q0 -112 -54 -169.5t-159 -57.5q-110 0 -166 65q-28 29 -36.5 62.5t-8.5 109.5v209q0 74 12 118t40 73q58 61 161 61q92 0 156 -55q34 -34 44.5 -70.5t10.5 -124.5zM199 1118v-188q0 -61 3 -80.5t15 -38.5q29 -43 94 -43q72 0 97 49q16 31 16 107v211
q0 72 -27 106.5t-84 34.5q-66 0 -92 -37q-15 -18 -18.5 -39t-3.5 -82zM1167 440v-221q0 -110 -54.5 -167.5t-158.5 -57.5q-109 0 -168 65q-26 29 -34.5 62t-8.5 108v209q0 77 11.5 118.5t40.5 72.5q58 61 161 61q95 0 156 -55q35 -34 45 -69.5t10 -125.5zM844 436v-188
q0 -61 3 -79.5t15 -37.5q29 -43 94 -43q72 0 97 49q16 31 16 105v211q0 73 -27 107t-84 34q-66 0 -92 -37q-15 -18 -18.5 -39t-3.5 -82zM1135 1337l-936 -1353l-68 47l936 1351zM1739 440v-221q0 -110 -54.5 -167.5t-158.5 -57.5q-109 0 -168 65q-26 29 -34.5 62t-8.5 108
v209q0 77 11 118.5t40 72.5q58 61 162 61q94 0 155 -55q35 -34 45.5 -70t10.5 -125zM1415 436v-188q0 -61 3 -79t16 -38q29 -43 94 -43q71 0 96 49q16 31 16 105v211q0 73 -26.5 107t-83.5 34q-66 0 -92 -37q-15 -19 -19 -40t-4 -81z" />
    <glyph glyph-name="guilsinglleft" unicode="&#x2039;" horiz-adv-x="520" 
d="M209 481l209 -336h-123l-207 336l207 350h123z" />
    <glyph glyph-name="guilsinglright" unicode="&#x203a;" horiz-adv-x="520" 
d="M309 496l-207 335h123l207 -335l-207 -351h-123z" />
    <glyph glyph-name="exclamdbl" unicode="&#x203c;" horiz-adv-x="819" 
d="M283 1366v-362l-39 -617h-88l-39 614v365h166zM287 248v-248h-172v248h172zM700 1366v-362l-38 -617h-89l-38 614v365h165zM705 248v-248h-173v248h173z" />
    <glyph glyph-name="uni203E" unicode="&#x203e;" 
d="M0 1749h1024v-107h-1024v107z" />
    <glyph glyph-name="fraction" unicode="&#x2044;" horiz-adv-x="253" 
d="M629 1327l-936 -1354l-68 47l936 1352z" />
    <glyph glyph-name="zerosuperior" unicode="&#x2070;" horiz-adv-x="671" 
d="M596 1108v-320q0 -130 -64 -194q-70 -70 -196 -70q-131 0 -203 72q-34 35 -45.5 80t-11.5 139v264q0 83 11.5 127t41.5 76q66 78 203 78q120 0 194 -62q39 -34 54.5 -76.5t15.5 -113.5zM193 1077v-268q0 -69 4.5 -91t23.5 -44q42 -45 115 -45q75 0 109 40t34 126v307
q0 74 -36.5 112.5t-106.5 38.5q-79 0 -119 -53q-24 -36 -24 -123z" />
    <glyph glyph-name="foursuperior" unicode="&#x2074;" horiz-adv-x="671" 
d="M399 719h-340v84l455 577v-559h98v-102h-98v-180h-115v180zM401 819v283l-217 -283h217z" />
    <glyph glyph-name="fivesuperior" unicode="&#x2075;" horiz-adv-x="671" 
d="M225 1229v-195q58 21 115 21q116 0 192 -76t76 -191q0 -121 -81.5 -198.5t-209.5 -77.5q-194 0 -266 178l109 39q29 -62 63.5 -86.5t91.5 -24.5q74 0 124 49t50 121q0 74 -49.5 119t-130.5 45q-51 0 -86.5 -16t-109.5 -74v471h385v-104h-273z" />
    <glyph glyph-name="sixsuperior" unicode="&#x2076;" horiz-adv-x="671" 
d="M506 1346l-215 -316q33 8 63 8q112 0 186 -70.5t74 -176.5q0 -109 -82.5 -188t-199.5 -79t-197 77t-80 190q0 45 14.5 85t51.5 97l246 373h139zM338 942q-70 0 -118 -44t-48 -107q0 -67 47 -113.5t115 -46.5t116 45.5t48 109.5q0 66 -47 111t-113 45z" />
    <glyph glyph-name="sevensuperior" unicode="&#x2077;" horiz-adv-x="671" 
d="M438 1241h-321v105h491l-344 -807h-127z" />
    <glyph glyph-name="eightsuperior" unicode="&#x2078;" horiz-adv-x="671" 
d="M465 983q68 -25 105.5 -79.5t37.5 -129.5q0 -109 -77 -179.5t-197 -70.5q-119 0 -195 68.5t-76 175.5q0 77 39 133.5t109 81.5q-54 20 -84.5 65.5t-30.5 104.5q0 89 69 148t173 59t172 -58t68 -149q0 -57 -30.5 -102.5t-82.5 -67.5zM338 1260q-57 0 -93 -30t-36 -77
q0 -49 36.5 -82t92.5 -33q51 0 90 34.5t39 78.5q0 43 -38.5 76t-90.5 33zM338 926q-66 0 -112 -43t-46 -105q0 -63 45.5 -106t110.5 -43t110.5 43t45.5 106q0 60 -45.5 104t-108.5 44z" />
    <glyph glyph-name="ninesuperior" unicode="&#x2079;" horiz-adv-x="671" 
d="M172 539l211 315q-31 -10 -61 -10q-112 0 -188.5 72t-76.5 178q0 112 82 189t201 77q118 0 197 -74.5t79 -185.5q0 -47 -13.5 -87t-47.5 -93l-246 -381h-137zM340 1255q-69 0 -117.5 -45.5t-48.5 -109.5q0 -66 47 -111t115 -45q70 0 117 44t47 110t-46.5 111.5
t-113.5 45.5z" />
    <glyph glyph-name="zeroinferior" unicode="&#x2080;" horiz-adv-x="671" 
d="M596 569v-319q0 -132 -64 -193q-69 -69 -198 -69q-130 0 -201 71q-34 35 -45.5 79.5t-11.5 137.5v265q0 83 11.5 126.5t41.5 75.5q66 78 203 78q121 0 194 -61q38 -34 54 -76.5t16 -114.5zM193 539v-269q0 -68 4.5 -90.5t23.5 -42.5q42 -45 115 -45q75 0 109 39.5
t34 124.5v307q0 74 -36.5 113t-106.5 39q-79 0 -119 -53q-24 -36 -24 -123z" />
    <glyph glyph-name="oneinferior" unicode="&#x2081;" horiz-adv-x="671" 
d="M340 651l-188 -116v108l305 188v-831h-117v651z" />
    <glyph glyph-name="twoinferior" unicode="&#x2082;" horiz-adv-x="671" 
d="M264 104h291v-104h-500l303 412q67 90 86 125.5t19 70.5q0 49 -37 80t-96 31q-69 0 -99 -35t-32 -115h-113q5 123 68.5 187.5t181.5 64.5q107 0 175.5 -58t68.5 -149q0 -51 -22.5 -103t-76.5 -120z" />
    <glyph glyph-name="threeinferior" unicode="&#x2083;" horiz-adv-x="671" 
d="M387 705h-287v102h508l-252 -301q106 -3 176 -74t70 -174q0 -118 -82 -195t-207 -77q-107 0 -177 53.5t-93 153.5l107 20q35 -123 157 -123q75 0 126.5 46.5t51.5 113.5q0 69 -50.5 112.5t-131.5 43.5q-50 0 -102 -29l-51 45z" />
    <glyph glyph-name="fourinferior" unicode="&#x2084;" horiz-adv-x="671" 
d="M399 180h-340v84l455 578v-559h98v-103h-98v-180h-115v180zM401 281v282l-217 -282h217z" />
    <glyph glyph-name="fiveinferior" unicode="&#x2085;" horiz-adv-x="671" 
d="M225 702v-192q58 18 115 18q116 0 192 -75.5t76 -190.5q0 -121 -81.5 -198.5t-209.5 -77.5q-194 0 -266 178l109 39q29 -62 63.5 -86.5t91.5 -24.5q74 0 124 49t50 121q0 74 -49.5 120t-130.5 46q-51 0 -86.5 -16.5t-109.5 -73.5v469h385v-105h-273z" />
    <glyph glyph-name="sixinferior" unicode="&#x2086;" horiz-adv-x="671" 
d="M506 807l-215 -315q33 8 63 8q112 0 186 -71t74 -177q0 -109 -82.5 -187.5t-199.5 -78.5t-197 77t-80 189q0 45 14.5 85t51.5 97l246 373h139zM336 403q-69 0 -116.5 -44t-47.5 -107q0 -67 47 -113.5t115 -46.5t116 46t48 110q0 66 -47 110.5t-115 44.5z" />
    <glyph glyph-name="seveninferior" unicode="&#x2087;" horiz-adv-x="671" 
d="M438 702h-321v105h491l-344 -807h-127z" />
    <glyph glyph-name="eightinferior" unicode="&#x2088;" horiz-adv-x="671" 
d="M465 444q67 -23 105 -77.5t38 -128.5q0 -110 -77 -181t-197 -71q-119 0 -195 68t-76 175q0 77 39 133.5t109 81.5q-54 20 -84.5 65.5t-30.5 104.5q0 89 69 148t173 59t172 -58t68 -147q0 -59 -29.5 -104t-83.5 -68zM338 721q-57 0 -93 -30t-36 -77t37.5 -80.5t91.5 -33.5
q51 0 90 34t39 78t-38.5 76.5t-90.5 32.5zM338 387q-66 0 -112 -43t-46 -104q0 -63 45.5 -106.5t110.5 -43.5t110.5 43.5t45.5 106.5q0 60 -45.5 103.5t-108.5 43.5z" />
    <glyph glyph-name="nineinferior" unicode="&#x2089;" horiz-adv-x="671" 
d="M172 0l211 315q-36 -8 -61 -8q-112 0 -188.5 72t-76.5 178q0 110 82.5 187t202.5 77q117 0 195.5 -75t78.5 -185q0 -47 -13.5 -87t-47.5 -93l-246 -381h-137zM340 717q-69 0 -117.5 -45.5t-48.5 -110.5q0 -64 47 -108.5t115 -44.5q71 0 117.5 43.5t46.5 109.5t-46 111
t-114 45z" />
    <glyph glyph-name="franc" unicode="&#x20a3;" horiz-adv-x="1380" 
d="M342 1219v-457h532v-148h-532v-614h-172v1366h704v-147h-532zM887 944h155v-160q22 50 40 76.5t46 48.5q74 58 179 58h36v-158q-16 2 -43 2q-129 0 -202 -109q-31 -45 -43.5 -93.5t-12.5 -129.5v-479h-155v944z" />
    <glyph glyph-name="lira" unicode="&#x20a4;" horiz-adv-x="1226" 
d="M723 756v-66h-236q35 -66 45.5 -94t20.5 -84h174v-66h-184q-5 -91 -44 -160.5t-128 -142.5q14 6 32 15q85 39 154 39q42 0 77 -9.5t167 -54.5q41 -14 90 -14q61 0 129 36.5t119 96.5l65 -135q-74 -72 -155.5 -111t-159.5 -39q-75 0 -207 49q-132 47 -190 47
q-102 0 -220 -86l-90 132q92 60 147.5 151.5t57.5 185.5h-237v66h233q-18 63 -31.5 94t-48.5 84h-153v66h116q-45 83 -60.5 128t-15.5 97q0 83 41 159.5t113 127.5q124 92 334 92q296 0 414 -189q63 -103 69 -290h-155q-6 175 -84.5 258.5t-237.5 83.5q-141 0 -228 -68
t-87 -178q0 -50 15 -89.5t69 -131.5h270z" />
    <glyph glyph-name="peseta" unicode="&#x20a7;" horiz-adv-x="1804" 
d="M342 522v-522h-172v1366h365q243 0 372 -107.5t129 -310.5q0 -101 -38 -188t-107 -144q-119 -94 -338 -94h-211zM342 670h178q107 0 170 24q78 28 125 95.5t47 154.5q0 88 -46 154t-128 94q-79 27 -190 27h-156v-549zM1108 477v-356q0 -17 6.5 -22t28.5 -5h53v-94h-98
q-54 0 -78.5 22.5t-24.5 71.5v383h-82v94h82v174h113v-174h88v-94h-88zM1735 406h-113v14q-2 36 -28.5 56t-73.5 20q-46 0 -72.5 -19.5t-26.5 -54.5q0 -32 24.5 -49t100.5 -37q106 -28 151.5 -69.5t45.5 -110.5q0 -75 -60 -121.5t-157 -46.5q-213 0 -228 184h113
q6 -96 117 -96q45 0 72.5 20.5t27.5 55.5q0 33 -27 52t-100 38q-100 25 -146 66.5t-46 107.5q0 75 60 121.5t155 46.5q98 0 154 -46.5t57 -131.5z" />
    <glyph glyph-name="Euro" unicode="&#x20ac;" 
d="M74 877h67q19 86 39 143q55 164 183 267.5t274 103.5q98 0 194 -48.5t170 -134.5l-73 -170q-54 92 -130.5 142.5t-162.5 50.5q-109 0 -194 -95t-122 -259h529l-60 -142h-485q-2 -14 -2 -39q0 -18 4 -84h443l-60 -141h-360q32 -149 119 -242.5t192 -93.5q87 0 164.5 49.5
t130.5 137.5v-226q-60 -55 -141.5 -88t-157.5 -33q-172 0 -308 138t-182 358h-131l60 141h53q-2 29 -2 74q0 31 2 49h-113z" />
    <glyph glyph-name="uni2101" unicode="&#x2101;" horiz-adv-x="1843" 
d="M616 733h-368l-76 -186h-129l326 819h137l315 -819h-135zM578 834l-144 374l-149 -374h293zM1554 1327l-936 -1354l-67 47l936 1352zM1241 229h117q6 -139 141 -139q68 0 111 36t43 93q0 51 -33.5 79.5t-130.5 59.5q-76 25 -110 41t-64 41q-70 61 -70 158q0 104 72.5 170
t187.5 66q118 0 188 -65.5t72 -178.5h-123q-3 139 -137 139q-61 0 -99 -34.5t-38 -88.5q0 -60 45 -88q25 -18 133 -57q126 -41 179 -94.5t53 -141.5q0 -107 -77 -173t-200 -66q-117 0 -189.5 61t-72.5 160q0 12 2 22z" />
    <glyph glyph-name="afii61248" unicode="&#x2105;" horiz-adv-x="690" 
d="M346 817q38 0 66 -28t28 -66q0 -40 -28 -68t-66 -28q-40 0 -68 28t-28 66q0 40 28 68t68 28z" />
    <glyph glyph-name="afii61289" unicode="&#x2113;" 
d="M504 543q-20 -105 -40 -243.5t-20 -176.5q0 -51 37 -51q26 0 48 24t51 86q19 37 41 37q28 0 28 -31q0 -44 -41 -106q-73 -119 -168 -119q-69 0 -107 49t-38 140q0 56 18 245q-34 -35 -67 -62.5t-43 -27.5q-9 0 -18 12t-9 25q0 21 39 55q45 42 115 123q82 442 180 651
t223 209q62 0 98.5 -46t36.5 -124q0 -82 -34.5 -184t-94.5 -201q-74 -117 -235 -284zM522 657q147 162 213 330q51 141 51 230q0 34 -14 54.5t-37 20.5q-41 0 -73.5 -58.5t-65 -194.5t-74.5 -382z" />
    <glyph glyph-name="uni2117" unicode="&#x2117;" horiz-adv-x="325" 
d="M219 1116v-569h-113v569h113zM162 1337q29 0 48 -20t19 -49q0 -28 -19.5 -47t-47.5 -19q-29 0 -48.5 19.5t-19.5 48.5t19.5 48t48.5 19z" />
    <glyph glyph-name="trademark" unicode="&#x2122;" horiz-adv-x="1695" 
d="M362 1266v-719h-122v719h-215v100h553v-100h-216zM844 1110v-563h-123v819h119l309 -594l309 594h119v-819h-123v563l-305 -582z" />
    <glyph glyph-name="uni2126" unicode="&#x2126;" horiz-adv-x="1363" 
d="M55 0v141h371q-375 218 -375 604q0 180 83 330t228 237t318 87t318 -87t228 -237.5t83 -331.5q0 -384 -373 -602h371v-141h-535v131q183 101 278 251t95 337q0 147 -61.5 270.5t-168 194.5t-233.5 71q-97 0 -183.5 -41.5t-148.5 -113t-98.5 -171t-36.5 -210.5
q0 -383 375 -588v-131h-535z" />
    <glyph glyph-name="onethird" unicode="&#x2153;" horiz-adv-x="1597" 
d="M338 1190l-186 -117v109l303 188v-831h-117v651zM1300 1327l-935 -1354l-68 47l936 1352zM1315 705h-287v102h508l-252 -301q106 -3 176 -74t70 -174q0 -118 -82 -195t-207 -77q-107 0 -176 53t-94 154l106 20q35 -123 158 -123q75 0 126.5 46.5t51.5 113.5
q0 69 -50.5 112.5t-131.5 43.5q-51 0 -103 -29l-51 45z" />
    <glyph glyph-name="twothirds" unicode="&#x2154;" horiz-adv-x="1597" 
d="M264 641h291v-104h-500l303 413q65 88 85 125.5t20 71.5q0 50 -37.5 81.5t-97.5 31.5q-67 0 -97 -36t-32 -116h-113q5 125 68.5 189.5t181.5 64.5q107 0 175.5 -58t68.5 -149q0 -53 -22.5 -104.5t-76.5 -120.5zM1300 1327l-938 -1354l-67 47l938 1352zM1313 705h-287v102
h508l-252 -301q106 -3 176 -74t70 -174q0 -118 -82 -195t-207 -77q-107 0 -176 53t-94 154l106 20q35 -123 158 -123q75 0 126.5 46.5t51.5 113.5q0 69 -50.5 112.5t-131.5 43.5q-51 0 -103 -29l-51 45z" />
    <glyph glyph-name="oneeighth" unicode="&#x215b;" horiz-adv-x="1597" 
d="M338 1190l-186 -117v109l303 188v-831h-117v651zM1300 1327l-935 -1354l-68 47l936 1352zM1391 444q67 -23 105 -77.5t38 -128.5q0 -110 -77 -181t-197 -71q-119 0 -195 68t-76 175q0 77 38.5 133.5t107.5 81.5q-53 22 -83 67t-30 103q0 89 69 148t173 59t171.5 -58
t67.5 -147q0 -59 -29 -104t-83 -68zM1264 721q-57 0 -93 -30t-36 -77t37.5 -80.5t91.5 -33.5q51 0 90 34t39 78t-38.5 76.5t-90.5 32.5zM1264 387q-66 0 -112 -43t-46 -104q0 -63 45.5 -106.5t110.5 -43.5t110 43.5t45 106.5q0 60 -45 103.5t-108 43.5z" />
    <glyph glyph-name="threeeighths" unicode="&#x215c;" horiz-adv-x="1597" 
d="M387 1243h-287v103h508l-252 -302q106 -3 176 -74t70 -175q0 -117 -82 -194t-207 -77q-107 0 -177 53.5t-93 153.5l107 19q36 -121 157 -121q75 0 126.5 46t51.5 113q0 69 -50 112.5t-130 43.5q-55 0 -104 -29l-51 43zM1300 1327l-938 -1354l-67 47l938 1352zM1389 444
q67 -23 105 -77.5t38 -128.5q0 -110 -77.5 -181t-197.5 -71q-119 0 -194.5 68t-75.5 175q0 77 39 133.5t109 81.5q-53 22 -83 67t-30 103q0 89 69 148t173 59q103 0 170 -58t67 -147q0 -59 -29 -104t-83 -68zM1264 721q-57 0 -93 -30t-36 -77q0 -48 36.5 -81t90.5 -33
q51 0 90 34t39 78t-38 76.5t-89 32.5zM1262 387q-66 0 -112 -43t-46 -104q0 -63 45.5 -106.5t110.5 -43.5t110 43.5t45 106.5q0 60 -45 103.5t-108 43.5z" />
    <glyph glyph-name="fiveeighths" unicode="&#x215d;" horiz-adv-x="1597" 
d="M225 1229v-195q58 21 115 21q116 0 192 -76t76 -191q0 -121 -81.5 -198.5t-209.5 -77.5q-194 0 -266 178l109 39q29 -62 63.5 -86.5t91.5 -24.5q74 0 124 49t50 121q0 74 -49.5 119t-130.5 45q-51 0 -86.5 -16t-109.5 -74v471h385v-104h-273zM1300 1327l-935 -1354
l-68 47l936 1352zM1391 444q67 -23 105 -77.5t38 -128.5q0 -110 -77 -181t-197 -71q-119 0 -195 68t-76 175q0 77 39 133.5t109 81.5q-54 20 -84.5 65.5t-30.5 104.5q0 89 69 148t173 59t171.5 -58t67.5 -147q0 -59 -29 -104t-83 -68zM1264 721q-57 0 -93 -30t-36 -77
t37.5 -80.5t91.5 -33.5q51 0 90 34t39 78t-38.5 76.5t-90.5 32.5zM1264 387q-66 0 -112 -43t-46 -104q0 -63 45.5 -106.5t110.5 -43.5t110 43.5t45 106.5q0 60 -45 103.5t-108 43.5z" />
    <glyph glyph-name="seveneighths" unicode="&#x215e;" horiz-adv-x="1597" 
d="M438 1241h-321v105h491l-344 -807h-127zM1300 1327l-935 -1354l-68 47l936 1352zM1391 444q67 -23 105 -77.5t38 -128.5q0 -110 -77 -181t-197 -71q-119 0 -195 68t-76 175q0 77 38.5 133.5t107.5 81.5q-53 22 -83 67t-30 103q0 89 69 148t173 59t171.5 -58t67.5 -147
q0 -59 -29 -104t-83 -68zM1264 721q-57 0 -93 -30t-36 -77t37.5 -80.5t91.5 -33.5q51 0 90 34t39 78t-38.5 76.5t-90.5 32.5zM1264 387q-66 0 -112 -43t-46 -104q0 -63 45.5 -106.5t110.5 -43.5t110 43.5t45 106.5q0 60 -45 103.5t-108 43.5z" />
    <glyph glyph-name="arrowleft" unicode="&#x2190;" horiz-adv-x="1366" 
d="M1337 743v-104h-1024q31 -38 69 -114t38 -99q0 -12 -9 -20.5t-22 -8.5q-11 0 -19 6t-26 29q-54 61 -115 109.5t-155 101.5q-47 25 -47 43q0 13 5.5 20.5t26.5 18.5q125 73 177 115.5t120 122.5q15 18 33 18q13 0 22 -8.5t9 -22.5q0 -24 -31.5 -85t-75.5 -122h1024z" />
    <glyph glyph-name="arrowup" unicode="&#x2191;" horiz-adv-x="1366" 
d="M737 27h-104v1024q-36 -30 -112.5 -68.5t-100.5 -38.5q-12 0 -20.5 9t-8.5 22q0 11 6 19t29 28q61 50 108.5 111.5t102.5 158.5q25 47 43 47q13 0 20.5 -6t18.5 -28q75 -126 117 -178.5t120 -118.5q19 -16 19 -33q0 -13 -8.5 -22t-22.5 -9q-24 0 -85 31.5t-122 75.5
v-1024z" />
    <glyph glyph-name="arrowright" unicode="&#x2192;" horiz-adv-x="1366" 
d="M27 635v104h1024q-31 38 -69 114t-38 99q0 12 9 20.5t22 8.5q11 0 19 -6t26 -29q54 -62 114 -109t156 -104q28 -15 37.5 -24t9.5 -19q0 -11 -5.5 -18.5t-26.5 -18.5q-127 -76 -180 -118t-117 -119q-16 -19 -33 -19q-13 0 -22 8.5t-9 22.5q0 24 31.5 85t75.5 122h-1024z
" />
    <glyph glyph-name="arrowdown" unicode="&#x2193;" horiz-adv-x="1366" 
d="M629 1337h104v-1024q39 32 114 69.5t99 37.5q12 0 20.5 -9t8.5 -22q0 -11 -6 -19t-29 -26q-61 -52 -109 -113.5t-102 -156.5q-25 -47 -43 -47q-13 0 -20.5 5.5t-18.5 26.5q-76 127 -117 178.5t-120 118.5q-19 16 -19 33q0 13 8.5 22t22.5 9q24 0 83.5 -31t123.5 -76v1024
z" />
    <glyph glyph-name="arrowboth" unicode="&#x2194;" horiz-adv-x="1366" 
d="M1051 635h-740q45 -60 77 -121t32 -86q0 -14 -9 -22.5t-22 -8.5q-11 0 -16 4t-24 25l-3 3t-2.5 3t-3.5 4q-58 65 -114.5 109t-178.5 117q-20 11 -20 30q0 18 47 43q95 55 156.5 102.5t113.5 108.5q18 23 26 29t19 6q13 0 22 -8.5t9 -20.5q0 -24 -38 -98t-71 -115h740
q-31 38 -69 114t-38 99q0 12 9 20.5t22 8.5q11 0 19 -6t26 -29q54 -61 115 -109.5t155 -101.5q47 -25 47 -43q0 -13 -5.5 -20.5t-26.5 -18.5q-127 -76 -180 -118t-117 -119q-19 -19 -33 -19q-13 0 -22 8.5t-9 22.5q0 24 31.5 85t75.5 122z" />
    <glyph glyph-name="arrowupdn" unicode="&#x2195;" horiz-adv-x="1366" 
d="M737 1051v-740q63 47 122.5 79t84.5 32q14 0 22.5 -9t8.5 -22q0 -11 -4 -16t-25 -24l-3 -3t-3 -2.5t-4 -3.5q-67 -59 -110 -115t-115 -180q-11 -20 -31 -20q-18 0 -41 47q-55 95 -103.5 157.5t-109.5 112.5q-23 20 -29 28t-6 19q0 13 8.5 22t20.5 9q24 0 97.5 -38
t115.5 -73v740q-38 -31 -114 -69t-99 -38q-12 0 -20.5 9t-8.5 22q0 11 6 19t29 28q61 51 110 113t103 157q23 47 41 47q13 0 20.5 -6t18.5 -28q75 -126 117 -178.5t120 -118.5q19 -16 19 -33q0 -13 -8.5 -22t-22.5 -9q-24 0 -85 31.5t-122 75.5z" />
    <glyph glyph-name="arrowupdnbse" unicode="&#x21a8;" horiz-adv-x="1366" 
d="M737 1051v-740q63 47 122.5 79t84.5 32q14 0 22.5 -9t8.5 -22q0 -11 -4 -16t-25 -24l-3 -3t-3 -2.5t-4 -3.5q-67 -59 -110 -115t-115 -180q-11 -20 -31 -20q-16 0 -43 47q-96 175 -211 270q-23 20 -29 28t-6 19q0 13 8.5 22t20.5 9q24 0 97.5 -38t115.5 -73v740
q-36 -30 -112.5 -68.5t-100.5 -38.5q-12 0 -20.5 9t-8.5 22q0 11 6 19t29 28q61 51 110 113t103 157q23 47 41 47q13 0 20.5 -6t18.5 -28q75 -126 117 -178.5t120 -118.5q19 -16 19 -33q0 -13 -8.5 -22t-22.5 -9q-24 0 -85 31.5t-122 75.5zM412 -139h540v-88h-540v88z" />
    <glyph glyph-name="partialdiff" unicode="&#x2202;" 
d="M172 1243l21 131q173 -25 289 -75t214 -142q126 -120 194 -292t68 -373q0 -192 -79 -316q-61 -94 -158 -146.5t-207 -52.5q-187 0 -317.5 133.5t-130.5 325.5q0 191 122 323t299 132q60 0 119 -17t96 -45q30 -21 89 -90l-17 33l-51 123q-69 140 -215.5 232.5
t-335.5 115.5zM526 768q-133 0 -224 -96.5t-91 -237.5q0 -134 89 -231t212 -97q128 0 213.5 96.5t85.5 241.5q0 140 -81 232t-204 92z" />
    <glyph glyph-name="emptyset" unicode="&#x2205;" horiz-adv-x="1265" 
d="M899 1366l98 -51l-98 -180q231 -164 231 -418q0 -137 -67 -251.5t-183.5 -180.5t-256.5 -66q-95 0 -162 33l-129 -252l-99 51l125 250q-221 164 -221 414q0 137 66.5 251.5t181.5 180t252 65.5q81 0 166 -28zM852 1028l-338 -676q65 -16 119 -16q158 0 270.5 111
t112.5 268q0 97 -44.5 182t-119.5 131zM410 406l340 673q-61 17 -111 17q-160 0 -273.5 -111t-113.5 -268q0 -183 158 -311z" />
    <glyph glyph-name="Delta" unicode="&#x2206;" horiz-adv-x="1275" 
d="M12 0l541 1366h168l543 -1366h-1252zM221 141h830l-414 1051z" />
    <glyph glyph-name="product" unicode="&#x220f;" horiz-adv-x="1366" 
d="M55 1536h1258v-133h-152v-1782h152v-133h-453v133h154v1782h-662v-1782h154v-133h-451v133h152v1782h-152v133z" />
    <glyph glyph-name="summation" unicode="&#x2211;" horiz-adv-x="1366" 
d="M1225 1536v-471h-148l-16 321h-811l510 -835l-510 -913h831l9 323h153v-473h-1173v174l497 889l-497 817v168h1155z" />
    <glyph glyph-name="minus" unicode="&#x2212;" 
d="M45 745h934v-90h-934v90z" />
    <glyph glyph-name="uni2218" unicode="&#x2218;" 
d="M518 983q114 0 195.5 -84.5t81.5 -202.5q0 -119 -82 -202.5t-199 -83.5t-200 84t-83 202q0 120 83.5 203.5t203.5 83.5zM516 885q-79 0 -133.5 -55.5t-54.5 -133.5t54.5 -133t131.5 -55q76 0 130 55t54 133q0 77 -53.5 133t-128.5 56z" />
    <glyph glyph-name="radical" unicode="&#x221a;" horiz-adv-x="1366" 
d="M1366 1694v-135h-393l-459 -1559h-178l-172 600h-164v135h260l86 -282q17 -62 31 -127q1 -6 37 -152h6q10 40 12 43q2 11 35 139q7 26 26 98t29 113l99 334l233 793h512z" />
    <glyph glyph-name="infinity" unicode="&#x221e;" horiz-adv-x="1366" 
d="M686 616q-82 -120 -164 -174.5t-180 -54.5q-134 0 -218.5 86.5t-84.5 224.5q0 135 85.5 221.5t219.5 86.5q188 0 336 -228q82 120 163 174t181 54q134 0 218.5 -87t84.5 -225q0 -135 -84.5 -221t-216.5 -86q-100 0 -182 55t-158 174zM743 696q70 -108 132.5 -155
t136.5 -47q85 0 138.5 56.5t53.5 145.5q0 88 -54.5 145.5t-137.5 57.5q-75 0 -135.5 -45.5t-133.5 -157.5zM623 696q-69 108 -132 155.5t-137 47.5q-84 0 -138 -57.5t-54 -145.5t54.5 -145t137.5 -57q75 0 136 46t133 156z" />
    <glyph glyph-name="orthogonal" unicode="&#x221f;" horiz-adv-x="700" 
d="M43 985h614v-113h-614v113z" />
    <glyph glyph-name="intersection" unicode="&#x2229;" horiz-adv-x="1142" 
d="M1071 0h-162v649q0 195 -11.5 280.5t-45.5 139.5q-44 69 -120.5 110.5t-160.5 41.5q-91 0 -171.5 -47t-120.5 -123q-27 -53 -37.5 -141t-10.5 -261v-649h-161v645q0 255 15.5 348.5t72.5 171.5q71 97 176.5 149t234.5 52q142 0 256.5 -62t180.5 -176q40 -69 52.5 -161.5
t12.5 -321.5v-645z" />
    <glyph glyph-name="union" unicode="&#x222a;" horiz-adv-x="1142" 
d="M70 1366h161v-649q0 -193 12 -279.5t46 -140.5q43 -69 119 -110.5t161 -41.5q92 0 172.5 47t120.5 123q26 53 36.5 140.5t10.5 261.5v649h162v-645q0 -256 -15.5 -348.5t-72.5 -171.5q-71 -97 -177 -149t-235 -52q-141 0 -255.5 62.5t-180.5 175.5q-40 69 -52.5 161.5
t-12.5 321.5v645z" />
    <glyph glyph-name="integral" unicode="&#x222b;" 
d="M195 -489l34 151q41 -20 80 -20q40 0 68 18.5t39 50.5q7 20 8.5 48.5t1.5 138.5v1202q2 164 4 198t14 74q22 75 90 119.5t162 44.5q59 0 133 -20l-32 -152q-45 18 -82 18q-40 0 -68.5 -18t-38.5 -51q-10 -25 -10 -139v-1246q0 -174 -8 -230.5t-39 -100.5
q-34 -50 -102.5 -77.5t-157.5 -27.5q-46 0 -96 19z" />
    <glyph glyph-name="uni222E" unicode="&#x222e;" 
d="M190 -489l33 151q51 -20 90 -20q40 0 68 18.5t39 50.5q10 33 10 144v323q-120 17 -203.5 119t-83.5 231q0 132 79 228.5t208 122.5v309q0 92 8.5 144t30.5 89q68 115 219 115q58 0 137 -20l-32 -152q-50 18 -91 18q-83 0 -104 -69q-10 -29 -10 -129v-305
q134 -25 213.5 -119.5t79.5 -229.5q0 -133 -83.5 -233t-209.5 -119v-330q0 -113 -6.5 -157t-28.5 -86q-67 -117 -234 -117q-71 0 -129 23zM588 795v-531q97 22 153 93.5t56 172.5q0 100 -59 175t-150 90zM430 264v531q-87 -15 -145 -90.5t-58 -174.5q0 -98 57.5 -173.5
t145.5 -92.5z" />
    <glyph glyph-name="uni2236" unicode="&#x2236;" horiz-adv-x="690" 
d="M346 1112q32 0 56 -24t24 -58t-24 -58t-58 -24t-58 24t-24 58t24.5 58t59.5 24zM346 494q32 0 56 -24t24 -58t-24 -58t-58 -24t-58 24t-24 58t24.5 58t59.5 24z" />
    <glyph glyph-name="similar" unicode="&#x223c;" 
d="M111 530l-91 72q109 234 281 234q72 0 236 -80q85 -43 119.5 -55.5t68.5 -12.5q56 0 99 35t87 117l90 -72q-103 -233 -286 -233q-44 0 -88.5 16.5t-165.5 77.5q-109 53 -168 53q-53 0 -95.5 -35.5t-86.5 -116.5z" />
    <glyph glyph-name="approxequal" unicode="&#x2248;" 
d="M111 713l-91 61q109 234 281 234q77 0 236 -80q88 -43 121.5 -55.5t66.5 -12.5q56 0 94.5 30t91.5 114l90 -64q-104 -231 -294 -231q-42 0 -86.5 16.5t-159.5 75.5q-109 53 -168 53q-52 0 -91 -31t-91 -110zM111 356l-91 64q108 231 281 231q75 0 236 -80
q87 -42 120.5 -53.5t67.5 -11.5q57 0 95 29.5t91 111.5l90 -61q-104 -232 -294 -232q-41 0 -86 16.5t-160 73.5q-111 54 -168 54q-52 0 -91 -31t-91 -111z" />
    <glyph glyph-name="notequal" unicode="&#x2260;" 
d="M553 905l125 252l115 -49l-101 -203h264v-141h-323l-98 -201h419v-141h-475l-123 -252l-114 49l98 203h-272v141h327l99 201h-426v141h485z" />
    <glyph glyph-name="equivalence" unicode="&#x2261;" 
d="M68 1098h886v-150h-886v150zM68 758h886v-150h-886v150zM68 418h886v-150h-886v150z" />
    <glyph glyph-name="lessequal" unicode="&#x2264;" 
d="M954 1225v-162l-700 -272l700 -271v-162l-886 361v145zM954 301v-149h-886v149h886z" />
    <glyph glyph-name="greaterequal" unicode="&#x2265;" 
d="M68 358v162l700 271l-700 272v162l886 -361v-145zM68 152v149h886v-149h-886z" />
    <glyph glyph-name="dotmath" unicode="&#x22c5;" horiz-adv-x="473" 
d="M236 604q46 0 76 -30.5t30 -77.5q0 -44 -31 -74.5t-75 -30.5q-46 0 -76.5 30.5t-30.5 76.5t30.5 76t76.5 30z" />
    <glyph glyph-name="house" unicode="&#x2302;" horiz-adv-x="1538" 
d="M172 0v821l596 672l598 -672v-821h-1194zM276 104h986v672l-494 553l-492 -553v-672z" />
    <glyph glyph-name="revlogicalnot" unicode="&#x2310;" 
d="M233 0h-165v569h886v-149h-721v-420z" />
    <glyph glyph-name="uni2319" unicode="&#x2319;" 
d="M233 569v-419h721v-150h-886v569h165z" />
    <glyph glyph-name="integraltp" unicode="&#x2320;" 
d="M598 -512h-172v1612q2 164 4 198t14 74q22 75 90 119.5t162 44.5q59 0 133 -20l-32 -152q-45 18 -82 18q-40 0 -68.5 -18t-38.5 -51q-10 -25 -10 -139v-1686z" />
    <glyph glyph-name="integralbt" unicode="&#x2321;" 
d="M426 1536h172v-1612q-2 -163 -3.5 -197t-12.5 -75q-23 -75 -91.5 -119.5t-162.5 -44.5q-58 0 -133 23l34 151q41 -20 80 -20q40 0 68.5 18t38.5 51q10 29 10 139v1686z" />
    <glyph glyph-name="filledbox" unicode="&#x25a0;" horiz-adv-x="1366" 
d="M1366 0h-1366v1366h1366v-1366z" />
    <glyph glyph-name="uni25A1" unicode="&#x25a1;" horiz-adv-x="1366" 
d="M1366 0h-1366v1366h1366v-1366zM1270 96v1174h-1174v-1174h1174z" />
    <glyph glyph-name="H18551" unicode="&#x25ab;" horiz-adv-x="700" 
d="M43 985h246v242h121v-242h247v-113h-247v-239h-121v239h-246v113z" />
    <glyph glyph-name="filledrect" unicode="&#x25ac;" horiz-adv-x="1366" 
d="M1366 682v-682h-1366v682h1366z" />
    <glyph glyph-name="uni25AE" unicode="&#x25ae;" horiz-adv-x="1366" 
d="M1024 0h-682v1366h682v-1366z" />
    <glyph glyph-name="uni25AF" unicode="&#x25af;" horiz-adv-x="1366" 
d="M684 1206q108 0 206.5 -41.5t170 -111t114 -166.5t42.5 -203q0 -107 -42.5 -204.5t-114 -168t-170 -112t-206.5 -41.5q-224 0 -379 154t-155 378q0 139 72 258t195 188.5t267 69.5z" />
    <glyph glyph-name="triagup" unicode="&#x25b2;" horiz-adv-x="1366" 
d="M1296 137h-1228l614 1149z" />
    <glyph glyph-name="uni25B4" unicode="&#x25b4;" 
d="M954 301h-886l444 829z" />
    <glyph glyph-name="uni25B8" unicode="&#x25b8;" 
d="M145 244v886l830 -444z" />
    <glyph glyph-name="triagdn" unicode="&#x25bc;" horiz-adv-x="1366" 
d="M68 1229h1228l-614 -1149z" />
    <glyph glyph-name="uni25BE" unicode="&#x25be;" 
d="M68 1065h886l-442 -829z" />
    <glyph glyph-name="uni25C2" unicode="&#x25c2;" 
d="M877 1130v-886l-830 442z" />
    <glyph glyph-name="lozenge" unicode="&#x25ca;" horiz-adv-x="1366" 
d="M684 1419l530 -735l-530 -737l-532 737zM684 1237l-403 -553l403 -555l403 555z" />
    <glyph glyph-name="circle" unicode="&#x25cb;" horiz-adv-x="1366" 
d="M684 1206q108 0 206.5 -41.5t170 -111t114 -166.5t42.5 -203q0 -107 -42.5 -204.5t-114 -168t-170 -112t-206.5 -41.5q-224 0 -379 154t-155 378q0 139 72 258t195 188.5t267 69.5zM684 1112q-180 0 -309 -125.5t-129 -298.5q0 -183 127 -309.5t311 -126.5q180 0 308 127
t128 305q0 177 -128 302.5t-308 125.5z" />
    <glyph glyph-name="invbullet" unicode="&#x25d8;" horiz-adv-x="1366" 
d="M0 0v1366h1366v-1366h-1366zM688 969q-122 0 -204.5 -82.5t-82.5 -204.5q0 -117 83 -201t200 -84t199 83.5t82 203.5q0 117 -81.5 201t-195.5 84z" />
    <glyph glyph-name="invcircle" unicode="&#x25d9;" horiz-adv-x="1366" 
d="M1366 0h-1366v1366h1366v-1366zM684 1208q-144 0 -267 -69.5t-195 -188.5t-72 -258q0 -224 155 -379t379 -155q108 0 206.5 42t170 112.5t114 168t42.5 203.5t-42.5 203.5t-114 167.5t-170 111.5t-206.5 41.5zM684 1112q180 0 308 -125.5t128 -302.5q0 -178 -128 -305
t-308 -127q-184 0 -311 126.5t-127 309.5q0 173 129 298.5t309 125.5z" />
    <glyph glyph-name="openbullet" unicode="&#x25e6;" 
d="M518 983q114 0 195.5 -84.5t81.5 -202.5q0 -119 -82 -202.5t-199 -83.5t-200 84t-83 202q0 120 83.5 203.5t203.5 83.5zM516 885q-79 0 -133.5 -55.5t-54.5 -133.5t54.5 -133t131.5 -55q76 0 130 55t54 133q0 77 -53.5 133t-128.5 56z" />
    <glyph glyph-name="smileface" unicode="&#x263a;" horiz-adv-x="1366" 
d="M694 1331q127 0 245 -52t203.5 -139t137 -206.5t51.5 -249.5q0 -176 -87 -325.5t-236 -236.5t-324 -87q-133 0 -253 51.5t-207 139t-138 208.5t-51 254q0 175 87.5 323t239.5 234t332 86zM692 1245q-258 0 -426 -186q-69 -76 -107 -173.5t-38 -197.5q0 -155 75 -285.5
t204.5 -206t283.5 -75.5q153 0 282.5 75.5t205 205t75.5 282.5q0 150 -75.5 279.5t-203.5 205.5t-276 76zM494 954q35 0 61.5 -26.5t26.5 -63.5t-26.5 -63.5t-63.5 -26.5t-64 26.5t-27 63.5q0 38 27 64t66 26zM889 952q35 0 61.5 -26.5t26.5 -63.5t-26.5 -63.5t-63.5 -26.5
t-63.5 26.5t-26.5 63.5q0 38 27 64t65 26zM1106 762q-7 -123 -29.5 -194.5t-72.5 -135.5q-116 -143 -320 -143q-224 0 -336 168q-41 59 -59 123.5t-27 181.5q15 -66 32.5 -103t53.5 -79q126 -144 336 -144q209 0 338 144q35 42 52 79t32 103z" />
    <glyph glyph-name="invsmileface" unicode="&#x263b;" horiz-adv-x="1366" 
d="M694 1331q127 0 245 -52t203.5 -139t137 -206.5t51.5 -249.5q0 -176 -87 -325.5t-236 -236.5t-324 -87q-133 0 -253 51.5t-207 139t-138 208.5t-51 254q0 175 87.5 323t239.5 234t332 86zM492 954q-37 0 -64 -26t-27 -64q0 -37 26.5 -63.5t64.5 -26.5q37 0 62.5 26.5
t25.5 63.5t-26.5 63.5t-61.5 26.5zM889 952q-38 0 -65 -26t-27 -64q0 -37 26.5 -63.5t63.5 -26.5t63.5 26.5t26.5 63.5t-26.5 63.5t-61.5 26.5zM1106 762q-15 -65 -32.5 -102.5t-51.5 -77.5q-128 -146 -338 -146q-211 0 -336 146q-35 40 -53 77t-33 103q9 -125 31.5 -196
t73.5 -134q116 -143 317 -143q227 0 338 170q40 61 58.5 125.5t25.5 177.5z" />
    <glyph glyph-name="sun" unicode="&#x263c;" horiz-adv-x="1366" 
d="M326 967l-154 153l72 72l153 -154q103 83 234 99v215h102v-215q135 -16 232 -97l153 152l72 -72l-152 -151q79 -101 97 -234h215v-104h-215q-18 -129 -97 -234l152 -151l-72 -72l-153 152q-106 -83 -232 -97v-215h-102v215q-120 12 -234 97l-153 -152l-72 72l152 151
q-83 107 -95 234h-215v104h215q13 123 97 232zM688 1010q-139 0 -236.5 -94.5t-97.5 -229.5q0 -137 96 -233.5t232 -96.5q135 0 230.5 96.5t95.5 231.5q0 132 -95 229t-225 97z" />
    <glyph glyph-name="female" unicode="&#x2640;" horiz-adv-x="1366" 
d="M631 428v215q-139 22 -228.5 127t-89.5 246q0 155 107.5 265t259.5 110q154 0 262.5 -110t108.5 -265q0 -142 -90.5 -246.5t-231.5 -126.5v-215h334v-88h-334v-340h-98v340h-330v88h330zM686 1294q-117 0 -196.5 -80.5t-79.5 -197.5q0 -114 80 -195.5t192 -81.5
q114 0 193 81.5t79 195.5t-79 196t-189 82z" />
    <glyph glyph-name="male" unicode="&#x2642;" horiz-adv-x="1366" 
d="M1167 1022l-311 -309q74 -103 74 -226q0 -154 -108.5 -263t-260.5 -109t-260 109.5t-108 264.5q0 154 108 263.5t260 109.5q124 0 230 -80l309 310q-41 9 -107.5 34t-109.5 48q-43 22 -43 47q0 10 7.5 17t18.5 7q6 0 41 -6q85 -18 170 -18q72 0 113.5 5t101.5 23l21 2
q20 0 20 -20q0 -8 -10 -47q-20 -81 -20 -178q0 -87 18 -172q6 -35 6 -41q0 -11 -7 -19t-17 -8q-14 0 -21.5 7t-26.5 36q-28 40 -52.5 100t-35.5 113zM565 766q-117 0 -196.5 -80t-79.5 -197q0 -114 80 -195t192 -81q114 0 193.5 80.5t79.5 195.5q0 114 -79.5 195.5
t-189.5 81.5z" />
    <glyph glyph-name="spade" unicode="&#x2660;" horiz-adv-x="1366" 
d="M221 0v37q143 28 209 59t129 101q56 65 83 142.5t32 182.5l-16 -34t-11 -23q-40 -68 -114.5 -110t-155.5 -42q-100 0 -173 76t-73 180q0 87 51 169.5t162 176.5q290 236 336 490q29 -88 49.5 -137t56 -102t79 -97.5t124.5 -118.5q150 -136 199 -211.5t49 -171.5
q0 -106 -73 -179t-177 -73q-89 0 -158 50t-129 157q12 -221 120 -334t343 -151v-37h-942z" />
    <glyph glyph-name="club" unicode="&#x2663;" horiz-adv-x="1366" 
d="M1149 0h-932v37q230 32 340.5 160.5t112.5 363.5q-42 -72 -70 -106q-56 -71 -136 -112.5t-163 -41.5q-122 0 -208.5 91t-86.5 220q0 126 78 213.5t192 87.5q36 0 66 -8.5t80 -34.5l31 -16q-72 110 -72 205q0 122 88.5 207.5t214.5 85.5q125 0 213 -86t88 -207
q0 -98 -72 -205q83 41 110 50t67 9q114 0 192 -87.5t78 -213.5q0 -130 -87 -220.5t-212 -90.5q-75 0 -155 39t-132 102q-40 54 -78 119q3 -133 30 -217.5t91 -155.5q64 -66 127.5 -94.5t204.5 -56.5v-37z" />
    <glyph glyph-name="heart" unicode="&#x2665;" horiz-adv-x="1366" 
d="M680 -23q-34 136 -107.5 263t-273.5 395q-111 151 -147.5 230.5t-36.5 168.5q0 115 77 195t187 80q73 0 138 -37t108 -103q27 -39 55 -127q37 132 114 200.5t187 68.5q112 0 191 -79t79 -190q0 -103 -49.5 -206t-175.5 -263q-152 -191 -235 -333.5t-111 -262.5z" />
    <glyph glyph-name="diamond" unicode="&#x2666;" horiz-adv-x="1366" 
d="M682 1419q45 -96 227.5 -353.5t292.5 -381.5q-145 -172 -289 -376.5t-231 -360.5q-64 123 -206.5 325t-311.5 412q205 257 320.5 421t197.5 314z" />
    <glyph glyph-name="musicalnote" unicode="&#x266a;" horiz-adv-x="1366" 
d="M627 319v1047h94v-125q29 -36 31 -37l106 -129q186 -220 186 -461q0 -188 -116 -331h-58q68 160 68 305q0 132 -64 237t-153 117v-623q0 -148 -87.5 -242.5t-223.5 -94.5q-66 0 -104 33t-38 91q0 93 75 164.5t173 71.5q57 0 111 -23z" />
    <glyph glyph-name="uni266C" unicode="&#x266c;" horiz-adv-x="1366" 
d="M1262 1421v-1028q0 -95 -35 -166q-38 -78 -113.5 -124t-163.5 -46q-66 0 -102.5 32.5t-36.5 90.5q0 94 74.5 165t171.5 71q56 0 110 -23v553l-673 -184v-483q0 -146 -87.5 -240t-224.5 -94q-66 0 -103.5 32.5t-37.5 90.5q0 91 75 161t173 70q52 0 110 -20v923zM494 918
l673 184v143l-673 -184v-143z" />
    <glyph glyph-name="dotlessj" unicode="&#xf6be;" horiz-adv-x="468" 
d="M311 944v-1042q0 -97 -18.5 -160t-61.5 -109q-89 -98 -237 -98h-41v148h22q82 2 131.5 61.5t49.5 157.5v1042h155z" />
    <glyph glyph-name="commaaccent" unicode="&#xf6c3;" 
d="M580 -115v-114q0 -96 -33.5 -142t-132.5 -84v70q2 1 5 3.5t4.5 3.5t2.5 1l41 23q36 22 39 96h-68v143h142z" />
    <glyph glyph-name="Acute" unicode="&#xf6c9;" 
d="M606 1741h187l-246 -268h-123z" />
    <glyph glyph-name="Caron" unicode="&#xf6ca;" 
d="M512 1575l154 170h135l-221 -272h-144l-213 272h133z" />
    <glyph glyph-name="Dieresis" unicode="&#xf6cb;" 
d="M303 1716q44 0 74.5 -31t30.5 -75q0 -43 -31 -73t-74 -30q-44 0 -74 30.5t-30 74.5t30 74t74 30zM721 1716q44 0 74 -31t30 -75q0 -43 -30.5 -73t-73.5 -30q-44 0 -74.5 30.5t-30.5 74.5t30.5 74t74.5 30z" />
    <glyph glyph-name="Grave" unicode="&#xf6ce;" 
d="M420 1741l180 -268h-123l-246 268h189z" />
    <glyph glyph-name="Hungarumlaut" unicode="&#xf6cf;" 
d="M424 1739h174l-207 -266h-112zM745 1739h175l-207 -266h-113z" />
    <glyph glyph-name="Macron" unicode="&#xf6d0;" 
d="M801 1663v-117h-576v117h576z" />
    <glyph glyph-name="commasuperior" unicode="&#xf6e2;" horiz-adv-x="303" 
d="M248 653l-133 -309l-80 27l110 315z" />
    <glyph glyph-name="periodsuperior" unicode="&#xf6e8;" horiz-adv-x="303" 
d="M152 680q31 0 51 -21t20 -53q0 -29 -21 -49t-50 -20q-31 0 -51.5 20t-20.5 51t20.5 51.5t51.5 20.5z" />
    <glyph glyph-name="Dbreve" horiz-adv-x="1282" 
d="M170 0v1366h362q309 0 484.5 -176t175.5 -485q0 -173 -55.5 -314t-159.5 -233q-177 -158 -475 -158h-332zM342 1221v-1074h61q172 0 263 22t165 81q185 147 185 452q0 248 -128 383.5t-362 135.5h-184zM324 1716h133q31 -59 73 -83.5t111 -24.5t111 24.5t73 83.5h133
q-28 -105 -111 -163t-206 -58t-206 58t-111 163z" />
    <glyph glyph-name="Adotaccent" horiz-adv-x="1241" 
d="M926 315h-613l-125 -315h-178l514 1366h205l502 -1366h-193zM872 463l-249 686l-258 -686h507zM621 1716q44 0 74 -31t30 -75q0 -43 -30.5 -73t-73.5 -30q-44 0 -74.5 30.5t-30.5 74.5t30.5 74t74.5 30z" />
    <glyph glyph-name="Fdotaccent" horiz-adv-x="933" 
d="M342 1219v-457h532v-148h-532v-614h-172v1366h704v-147h-532zM467 1716q44 0 74 -31t30 -75q0 -43 -30.5 -73t-73.5 -30q-44 0 -74.5 30.5t-30.5 74.5t30.5 74t74.5 30z" />
    <glyph glyph-name="ahungarumlaut" horiz-adv-x="1181" 
d="M868 788v156h156v-944h-156v182q-71 -106 -154 -155.5t-190 -49.5q-195 0 -319.5 138.5t-124.5 353.5q0 217 126.5 357.5t321.5 140.5q107 0 189 -43.5t151 -135.5zM551 827q-150 0 -229 -112q-78 -108 -78 -250q0 -151 87 -251.5t216 -100.5q134 0 228.5 108t94.5 260
q0 154 -89 250t-230 96zM508 1350h170l-201 -269h-102zM809 1350h170l-201 -269h-102z" />
    <glyph glyph-name="adotaccent" horiz-adv-x="1181" 
d="M868 788v156h156v-944h-156v182q-71 -106 -154 -155.5t-190 -49.5q-195 0 -319.5 138.5t-124.5 353.5q0 217 126.5 357.5t321.5 140.5q107 0 189 -43.5t151 -135.5zM551 827q-150 0 -229 -112q-78 -108 -78 -250q0 -151 87 -251.5t216 -100.5q134 0 228.5 108t94.5 260
q0 154 -89 250t-230 96zM590 1311q41 0 68.5 -28t27.5 -71q0 -40 -27.5 -67t-68.5 -27t-68.5 27.5t-27.5 68.5t27.5 69t68.5 28z" />
    <glyph glyph-name="one.numerator" horiz-adv-x="471" 
d="M238 1251l-132 -80v74l213 129v-569h-81v446z" />
    <glyph glyph-name="two.numerator" horiz-adv-x="471" 
d="M184 877h205v-72h-350l213 282q49 67 61.5 89.5t12.5 46.5q0 33 -26.5 54t-68.5 21q-48 0 -69.5 -23.5t-22.5 -78.5h-78q6 172 175 172q75 0 123.5 -39t48.5 -102q0 -35 -16 -69.5t-54 -84.5z" />
    <glyph glyph-name="three.numerator" horiz-adv-x="471" 
d="M272 1288h-200v70h354l-174 -205q72 -1 121 -50t49 -120q0 -80 -57.5 -133t-145.5 -53q-150 0 -188 141l75 14q24 -84 109 -84q52 0 88.5 31.5t36.5 77.5q0 47 -35 76.5t-92 29.5q-35 0 -72 -18l-35 29z" />
    <glyph glyph-name="four.numerator" horiz-adv-x="471" 
d="M279 928h-238v59l317 395v-383h70v-71h-70v-123h-79v123zM281 997v195l-154 -195h154z" />
    <glyph glyph-name="five.numerator" horiz-adv-x="471" 
d="M156 1286v-133q35 14 82 14q81 0 134.5 -52t53.5 -130q0 -83 -57.5 -135.5t-147.5 -52.5q-136 0 -186 121l76 26q21 -40 45 -57t65 -17q52 0 87.5 33.5t35.5 81.5q0 51 -35 82t-92 31q-37 0 -61.5 -11t-77.5 -51v322h270v-72h-192z" />
    <glyph glyph-name="six.numerator" horiz-adv-x="471" 
d="M354 1358l-149 -215q16 4 43 4q78 0 130 -48t52 -120q0 -75 -58 -128.5t-141 -53.5q-82 0 -137 52.5t-55 129.5q0 54 47 125l172 254h96zM236 1081q-48 0 -81.5 -30t-33.5 -74q0 -45 32.5 -77t79.5 -32t81 31.5t34 75.5t-32.5 75t-79.5 31z" />
    <glyph glyph-name="seven.numerator" horiz-adv-x="471" 
d="M307 1286h-225v72h344l-240 -553h-90z" />
    <glyph glyph-name="eight.numerator" horiz-adv-x="471" 
d="M326 1110q100 -37 100 -141q0 -75 -54 -123.5t-139 -48.5q-83 0 -135.5 47t-52.5 119q0 111 102 147q-36 13 -57.5 45t-21.5 72q0 61 48 101t122 40q73 0 120.5 -39.5t47.5 -101.5q0 -40 -21 -71t-59 -46zM238 1300q-41 0 -67 -20.5t-26 -52.5q0 -34 26.5 -57t64.5 -23
q37 0 64.5 23.5t27.5 54.5t-26.5 53t-63.5 22zM238 1069q-46 0 -78.5 -29.5t-32.5 -70.5t32.5 -71t76.5 -30t76 30t32 71t-31.5 70.5t-74.5 29.5z" />
    <glyph glyph-name="nine.numerator" horiz-adv-x="471" 
d="M119 805l147 217q-21 -8 -43 -8q-78 0 -131 50t-53 122q0 76 58 129t141 53t137.5 -51.5t54.5 -128.5q0 -60 -43 -121l-172 -262h-96zM238 1296q-50 0 -83.5 -31t-33.5 -77q0 -44 32.5 -75.5t79.5 -31.5q49 0 82 30.5t33 76.5t-32 77t-78 31z" />
    <glyph glyph-name="zero.numerator" horiz-adv-x="471" 
d="M418 1194v-217q0 -180 -182 -180q-90 0 -142 49q-25 25 -33 54.5t-8 94.5v181q0 55 8 85t29 54q47 53 143 53q87 0 136 -43q28 -23 38.5 -51.5t10.5 -79.5zM135 1176v-185q0 -46 3.5 -62t17.5 -30q31 -31 80 -31q52 0 76 27t24 86v211q0 104 -100 104q-54 0 -77.5 -28
t-23.5 -92z" />
    <glyph glyph-name="one.denominator" horiz-adv-x="471" 
d="M238 444l-132 -79v75l213 127v-567h-81v444z" />
    <glyph glyph-name="two.denominator" horiz-adv-x="471" 
d="M184 72h205v-72h-350l213 283q49 66 61.5 87.5t12.5 45.5q0 34 -27 55t-68 21q-47 0 -69 -24t-23 -79h-78q6 172 175 172q75 0 123.5 -39t48.5 -102q0 -35 -15.5 -68.5t-54.5 -83.5z" />
    <glyph glyph-name="three.denominator" horiz-adv-x="471" 
d="M272 481h-200v70h354l-174 -205q72 -2 121 -51t49 -119q0 -80 -57.5 -132t-145.5 -52q-149 0 -188 139l75 14q25 -82 109 -82q52 0 88.5 31.5t36.5 77.5t-35 75t-92 29q-35 0 -72 -18l-35 29z" />
    <glyph glyph-name="four.denominator" horiz-adv-x="471" 
d="M279 123h-238v57l317 393v-380h70v-70h-70v-123h-79v123zM281 193v192l-154 -192h154z" />
    <glyph glyph-name="five.denominator" horiz-adv-x="471" 
d="M156 479v-131q41 12 82 12q82 0 135 -51t53 -129q0 -83 -57.5 -135.5t-147.5 -52.5q-136 0 -186 121l76 24q21 -40 45 -57t65 -17q52 0 87.5 33.5t35.5 81.5q0 51 -35 82t-92 31q-36 0 -60 -11t-79 -51v322h270v-72h-192z" />
    <glyph glyph-name="six.denominator" horiz-adv-x="471" 
d="M354 551l-149 -215q24 6 43 6q78 0 130 -48.5t52 -121.5q0 -75 -58 -128.5t-141 -53.5q-82 0 -137 52.5t-55 129.5q0 57 47 125l172 254h96zM236 276q-48 0 -81.5 -30t-33.5 -74q0 -46 32.5 -78.5t79.5 -32.5t81 31.5t34 77.5q0 44 -32.5 75t-79.5 31z" />
    <glyph glyph-name="seven.denominator" horiz-adv-x="471" 
d="M307 479h-225v72h344l-240 -551h-90z" />
    <glyph glyph-name="eight.denominator" horiz-adv-x="471" 
d="M326 303q47 -15 73.5 -52.5t26.5 -88.5q0 -75 -54 -123.5t-139 -48.5q-83 0 -135.5 47t-52.5 119q0 111 102 147q-37 15 -58 46t-21 71q0 61 48 101t122 40q73 0 120.5 -39.5t47.5 -101.5q0 -39 -21 -70.5t-59 -46.5zM238 494q-41 0 -67 -21t-26 -53t26.5 -55t64.5 -23
q37 0 64.5 23.5t27.5 54.5q0 29 -27 51.5t-63 22.5zM238 264q-46 0 -78.5 -29.5t-32.5 -70.5q0 -43 32.5 -73t76.5 -30q46 0 77 30t31 73q0 41 -31.5 70.5t-74.5 29.5z" />
    <glyph glyph-name="nine.denominator" horiz-adv-x="471" 
d="M119 0l147 215q-27 -6 -43 -6q-78 0 -131 50t-53 122q0 75 58 127.5t141 52.5t137.5 -51t54.5 -127q0 -59 -43 -123l-172 -260h-96zM238 489q-49 0 -83 -31t-34 -75t32.5 -75.5t79.5 -31.5q49 0 82 30.5t33 76.5q0 44 -32 75t-78 31z" />
    <glyph glyph-name="zero.denominator" horiz-adv-x="471" 
d="M418 389v-219q0 -88 -46.5 -133t-135.5 -45q-93 0 -142 49q-24 23 -32.5 53t-8.5 94v183q0 95 37 137q47 53 143 53q84 0 136 -43q27 -22 38 -50.5t11 -78.5zM135 369v-185q0 -45 3.5 -60.5t17.5 -29.5q31 -31 80 -31q52 0 76 27t24 86v209q0 104 -100 104
q-54 0 -77.5 -28t-23.5 -92z" />
    <glyph glyph-name="oneone" horiz-adv-x="1597" 
d="M338 1190l-186 -117v109l303 188v-831h-117v651zM1300 1327l-935 -1354l-68 47l936 1352zM1264 651l-187 -116v108l303 188v-831h-116v651z" />
    <glyph glyph-name="onefifth" horiz-adv-x="1597" 
d="M338 1190l-186 -117v109l303 188v-831h-117v651zM1300 1327l-935 -1354l-68 47l936 1352zM1149 702v-192q59 18 115 18q117 0 193.5 -75.5t76.5 -190.5q0 -122 -82 -199t-211 -77q-196 0 -266 178l108 39q29 -62 64.5 -86.5t93.5 -24.5q74 0 124 49t50 121
q0 73 -50 119.5t-130 46.5q-53 0 -89.5 -16.5t-109.5 -73.5v469h387v-105h-274z" />
    <glyph glyph-name="twofifth" horiz-adv-x="1597" 
d="M264 641h291v-104h-500l303 413q65 88 85 125.5t20 71.5q0 50 -37.5 81.5t-97.5 31.5q-67 0 -97 -36t-32 -116h-113q5 125 68.5 189.5t181.5 64.5q107 0 175.5 -58t68.5 -149q0 -53 -22.5 -104.5t-76.5 -120.5zM1300 1327l-938 -1354l-67 47l938 1352zM1149 702v-192
q59 18 115 18q116 0 192 -75.5t76 -190.5q0 -121 -81.5 -198.5t-209.5 -77.5q-196 0 -266 178l108 39q29 -61 64 -86t92 -25q74 0 124 49t50 121q0 74 -49.5 120t-130.5 46q-51 0 -87.5 -16.5t-109.5 -73.5v469h385v-105h-272z" />
    <glyph glyph-name="threefifth" horiz-adv-x="1597" 
d="M387 1243h-287v103h508l-252 -302q106 -3 176 -74t70 -175q0 -117 -82 -194t-207 -77q-107 0 -177 53.5t-93 153.5l107 19q36 -121 157 -121q75 0 126.5 46t51.5 113q0 69 -50 112.5t-130 43.5q-55 0 -104 -29l-51 43zM1300 1327l-938 -1354l-67 47l938 1352zM1149 702
v-192q59 18 115 18q116 0 192 -75.5t76 -190.5q0 -121 -81.5 -198.5t-209.5 -77.5q-196 0 -266 178l108 39q29 -61 64 -86t92 -25q74 0 124 49t50 121q0 74 -49.5 120t-130.5 46q-51 0 -87.5 -16.5t-109.5 -73.5v469h385v-105h-272z" />
    <glyph glyph-name="fourfifth" horiz-adv-x="1597" 
d="M399 719h-340v84l455 577v-559h98v-102h-98v-180h-115v180zM401 819v283l-217 -283h217zM1300 1327l-935 -1354l-68 47l936 1352zM1151 702v-192q59 18 115 18q116 0 192 -75.5t76 -190.5q0 -121 -81.5 -198.5t-209.5 -77.5q-196 0 -266 178l108 39q29 -61 64 -86t92 -25
q74 0 124 49t50 121q0 74 -49.5 120t-130.5 46q-51 0 -87.5 -16.5t-109.5 -73.5v469h385v-105h-272z" />
    <glyph glyph-name="onesixth" horiz-adv-x="1597" 
d="M338 1190l-186 -117v109l303 188v-831h-117v651zM1300 1327l-935 -1354l-68 47l936 1352zM1432 807l-213 -315q33 8 61 8q113 0 187.5 -70.5t74.5 -177.5q0 -109 -82.5 -187.5t-199.5 -78.5q-118 0 -198.5 76.5t-80.5 189.5q0 45 14.5 84t53.5 98l245 373h138zM1264 403
q-69 0 -117.5 -44t-48.5 -107q0 -67 47.5 -113.5t116.5 -46.5q67 0 115 45.5t48 110.5q0 66 -46.5 110.5t-114.5 44.5z" />
    <glyph glyph-name="fivesixth" horiz-adv-x="1597" 
d="M225 1229v-195q58 21 115 21q116 0 192 -76t76 -191q0 -121 -81.5 -198.5t-209.5 -77.5q-194 0 -266 178l109 39q29 -62 63.5 -86.5t91.5 -24.5q74 0 124 49t50 121q0 74 -49.5 119t-130.5 45q-51 0 -86.5 -16t-109.5 -74v471h385v-104h-273zM1300 1327l-935 -1354
l-68 47l936 1352zM1434 807l-215 -315q33 8 61 8q114 0 188 -70.5t74 -177.5q0 -109 -82.5 -187.5t-199.5 -78.5t-197 77t-80 189q0 46 14.5 86.5t51.5 95.5l245 373h140zM1264 403q-69 0 -116.5 -44t-47.5 -107q0 -67 47 -113.5t115 -46.5q67 0 115 45.5t48 110.5
q0 66 -46.5 110.5t-114.5 44.5z" />
    <glyph glyph-name="Dotaccent" 
d="M512 1716q44 0 74 -31t30 -75q0 -43 -30.5 -73t-73.5 -30q-44 0 -74 30.5t-30 74.5t30 74t74 30z" />
    <glyph glyph-name="Ring" 
d="M514 1778q69 0 115.5 -47.5t46.5 -118.5q0 -66 -48 -113t-116 -47q-69 0 -116.5 47.5t-47.5 116.5q0 68 48 115t118 47zM512 1712q-42 0 -70 -28t-28 -70q0 -41 28.5 -68.5t69.5 -27.5t69.5 28t28.5 68q0 42 -28 70t-70 28z" />
    <glyph glyph-name="Circumflex" 
d="M514 1642l-156 -169h-135l223 272h142l213 -272h-133z" />
    <glyph glyph-name="Breve" 
d="M195 1716h133q31 -59 73 -83.5t111 -24.5t111 24.5t73 83.5h133q-28 -105 -111 -163t-206 -58t-206 58t-111 163z" />
    <glyph glyph-name="Tilde" 
d="M741 1708l111 -43q-49 -92 -95.5 -131t-105.5 -39q-31 0 -57 8.5t-88 40.5q-68 35 -100 35q-61 0 -97 -86l-110 33q46 100 90 141t104 41q29 0 61.5 -11t96.5 -44q71 -35 92 -35q57 0 98 90z" />
    <glyph glyph-name="Cedilla" 
d="M428 -428l-88 70q78 50 121 106t63 135l160 -55q-63 -150 -256 -256z" />
    <glyph glyph-name="Ogonek" 
d="M774 0h125q-81 -59 -112 -100t-31 -86q0 -37 33.5 -62.5t82.5 -25.5q29 0 78 14l19 -105q-60 -22 -119 -22q-95 0 -158 48.5t-63 121.5q0 60 37.5 116.5t107.5 100.5z" />
    <glyph glyph-name="commaaccent.sc" 
d="M582 -86v-143q0 -116 -52 -174q-16 -16 -50 -33t-62 -23v68q49 15 70.5 46t21.5 87h-72v172h144z" />
    <glyph glyph-name="Comma.high" horiz-adv-x="315" 
d="M238 1343l-189 -417l-112 39l165 428z" />
    <glyph glyph-name="Dieresis.alt" 
d="M360 1716q44 0 74.5 -31t30.5 -75q0 -43 -31 -73t-74 -30q-44 0 -74 30.5t-30 74.5t30 74t74 30zM664 1716q44 0 74 -31t30 -75q0 -43 -30.5 -73t-73.5 -30q-44 0 -74.5 30.5t-30.5 74.5t30.5 74t74.5 30z" />
    <glyph glyph-name="comma.high" horiz-adv-x="315" 
d="M238 1343l-189 -417l-112 39l165 428z" />
    <glyph glyph-name="dieresis.alt" 
d="M369 1311q41 0 68.5 -28t27.5 -71q0 -40 -27.5 -67t-68.5 -27t-69 27.5t-28 68.5t28 69t69 28zM653 1311q41 0 69 -28t28 -71q0 -40 -28 -67t-69 -27t-68.5 27.5t-27.5 68.5t27.5 69t68.5 28z" />
    <glyph glyph-name="commareversed" horiz-adv-x="315" 
d="M27 977l186 416l115 -39l-166 -428z" />
    <glyph glyph-name="zerozero.afrac" horiz-adv-x="569" 
d="M569 719v-78h-569v78h569zM467 1194v-217q0 -180 -182 -180q-90 0 -142 49q-25 25 -33 54.5t-8 94.5v181q0 55 8 85t29 54q47 53 144 53q86 0 135 -43q28 -23 38.5 -51.5t10.5 -79.5zM184 1176v-185q0 -46 3.5 -62t17.5 -30q31 -31 80 -31q52 0 76 27t24 86v211
q0 104 -100 104q-54 0 -77.5 -28t-23.5 -92zM467 389v-219q0 -88 -46.5 -133t-135.5 -45q-93 0 -142 49q-24 23 -32.5 53t-8.5 94v183q0 95 37 137q47 53 144 53q83 0 135 -43q27 -22 38 -50.5t11 -78.5zM184 369v-185q0 -45 3.5 -60.5t17.5 -29.5q31 -31 80 -31q52 0 76 27
t24 86v209q0 104 -100 104q-54 0 -77.5 -28t-23.5 -92z" />
    </font>
</defs>
</svg>
